<?xml version="1.0" encoding="UTF-8" standalone="no"?>
<svg width="24px" height="24px" viewBox="0 0 24 24" version="1.1" xmlns="http://www.w3.org/2000/svg" xmlns:xlink="http://www.w3.org/1999/xlink">
    <!-- Generator: sketchtool 40 (33762) - http://www.bohemiancoding.com/sketch -->
    <title>age-adult</title>
    <desc>Created with sketchtool.</desc>
    <defs></defs>
    <g id="Page-1" stroke="none" stroke-width="1" fill="none" fill-rule="evenodd">
        <g id="age-adult">
            <g>
                <rect id="bounds" x="0" y="0" width="24" height="24"></rect>
                <path d="M8.4961,13.0117 C8.2201,13.0117 7.9961,13.2357 7.9961,13.5117 L7.9961,14.5117 C7.9961,14.7877 8.2201,15.0117 8.4961,15.0117 C8.7721,15.0117 8.9961,14.7877 8.9961,14.5117 L8.9961,13.5117 C8.9961,13.2357 8.7721,13.0117 8.4961,13.0117" id="Fill-1" fill="#221F20"></path>
                <path d="M15.3711,13.0117 C15.0951,13.0117 14.8711,13.2357 14.8711,13.5117 L14.8711,14.5117 C14.8711,14.7877 15.0951,15.0117 15.3711,15.0117 C15.6471,15.0117 15.8711,14.7877 15.8711,14.5117 L15.8711,13.5117 C15.8711,13.2357 15.6471,13.0117 15.3711,13.0117" id="Fill-3" fill="#221F20"></path>
                <path d="M13.5723,16.5596 C13.3213,16.4476 13.0253,16.5556 12.9103,16.8076 C12.7483,17.1646 12.3903,17.3956 12.0003,17.3956 C11.6083,17.3956 11.2503,17.1636 11.0873,16.8056 C10.9723,16.5546 10.6763,16.4456 10.4253,16.5576 C10.1743,16.6716 10.0623,16.9676 10.1763,17.2196 C10.5013,17.9336 11.2173,18.3956 12.0003,18.3956 C12.7813,18.3956 13.4963,17.9346 13.8203,17.2216 C13.9343,16.9706 13.8233,16.6736 13.5723,16.5596" id="Fill-5" fill="#221F20"></path>
                <path d="M18.9375,14.8887 C18.9745,14.5967 18.9995,14.3017 18.9995,13.9997 L18.9995,13.1537 C19.2925,13.3277 19.4995,13.6347 19.4995,13.9997 C19.4995,14.3927 19.2675,14.7257 18.9375,14.8887 M12.0005,19.9997 C8.6915,19.9997 5.9995,17.3087 5.9995,13.9997 L5.9995,12.0757 L7.5765,12.0757 C9.9215,12.0757 12.0625,10.9197 13.3575,9.0157 C14.4325,10.5987 16.1035,11.6577 18.0005,11.9697 L18.0005,13.9997 C18.0005,17.3087 15.3085,19.9997 12.0005,19.9997 M4.4925,13.9997 C4.4925,13.6307 4.7025,13.3217 4.9995,13.1487 L4.9995,13.9997 C4.9995,14.3037 5.0265,14.6017 5.0635,14.8947 C4.7285,14.7337 4.4925,14.3967 4.4925,13.9997 M10.4995,4.9997 L13.5005,4.9997 C15.9815,4.9997 18.0005,7.0187 18.0005,9.4997 L18.0005,10.9587 C16.1985,10.6107 14.6515,9.4667 13.8005,7.8067 C13.7965,7.7987 13.7895,7.7937 13.7845,7.7857 C13.7605,7.7467 13.7335,7.7117 13.6995,7.6797 C13.6795,7.6607 13.6595,7.6457 13.6375,7.6307 C13.6215,7.6187 13.6095,7.6037 13.5905,7.5937 C13.5775,7.5867 13.5615,7.5877 13.5475,7.5817 C13.5135,7.5677 13.4795,7.5597 13.4435,7.5527 C13.4195,7.5487 13.3975,7.5447 13.3735,7.5437 C13.3255,7.5417 13.2795,7.5487 13.2305,7.5617 C13.2205,7.5647 13.2095,7.5667 13.1995,7.5707 C13.1755,7.5777 13.1505,7.5777 13.1265,7.5897 C13.0955,7.6067 13.0735,7.6317 13.0465,7.6547 C13.0445,7.6567 13.0415,7.6577 13.0405,7.6597 C12.9885,7.7027 12.9485,7.7527 12.9175,7.8117 C11.8865,9.8257 9.8395,11.0757 7.5765,11.0757 L5.9995,11.0757 L5.9995,9.4997 C5.9995,7.0187 8.0185,4.9997 10.4995,4.9997 M20.4995,13.9997 C20.4995,13.0717 19.8605,12.2947 18.9995,12.0717 L18.9995,9.4997 C18.9995,6.4677 16.5325,3.9997 13.5005,3.9997 L10.4995,3.9997 C7.4675,3.9997 4.9995,6.4677 4.9995,9.4997 L4.9995,12.0687 C4.1355,12.2887 3.4925,13.0687 3.4925,13.9997 C3.4925,15.0337 4.2835,15.8757 5.2905,15.9797 C6.1465,18.8767 8.8285,20.9997 12.0005,20.9997 C15.1715,20.9997 17.8545,18.8767 18.7105,15.9787 C19.7125,15.8717 20.4995,15.0307 20.4995,13.9997" id="Fill-7" fill="#221F20"></path>
            </g>
        </g>
    </g>
</svg>