<?xml version="1.0" encoding="UTF-8" standalone="no"?>
<svg width="24px" height="24px" viewBox="0 0 24 24" version="1.1" xmlns="http://www.w3.org/2000/svg" xmlns:xlink="http://www.w3.org/1999/xlink">
    <!-- Generator: sketchtool 40 (33762) - http://www.bohemiancoding.com/sketch -->
    <title>age-elder</title>
    <desc>Created with sketchtool.</desc>
    <defs></defs>
    <g id="Page-1" stroke="none" stroke-width="1" fill="none" fill-rule="evenodd">
        <g id="age-elder">
            <g>
                <rect id="bounds" x="0" y="0" width="24" height="24"></rect>
                <path d="M18.9395,14.8877 C18.9755,14.6007 19.0005,14.3097 19.0005,14.0127 L19.0005,13.1537 C19.2935,13.3277 19.5005,13.6347 19.5005,13.9997 C19.5005,14.3917 19.2685,14.7237 18.9395,14.8877 M13.8725,12.9997 C13.8725,12.1727 14.5445,11.4997 15.3725,11.4997 C16.1985,11.4997 16.8715,12.1727 16.8715,13.0157 C16.8715,13.8417 16.1985,14.5147 15.3725,14.5147 C14.5445,14.5147 13.8725,13.8417 13.8725,12.9997 M6.9975,12.9997 C6.9975,12.1727 7.6695,11.4997 8.4975,11.4997 C9.3235,11.4997 9.9965,12.1727 9.9965,13.0157 C9.9965,13.8417 9.3235,14.5147 8.4975,14.5147 C7.6695,14.5147 6.9975,13.8417 6.9975,12.9997 M12.0005,20.0127 C8.6915,20.0127 6.0005,17.3217 6.0005,14.0127 L6.0005,13.0447 C6.0155,14.4087 7.1275,15.5147 8.4975,15.5147 C9.7005,15.5147 10.7075,14.6597 10.9435,13.5157 L12.9225,13.5157 C13.1555,14.6547 14.1645,15.5147 15.3725,15.5147 C16.7505,15.5147 17.8715,14.3937 17.8715,12.9997 C17.8715,11.6207 16.7505,10.4997 15.3725,10.4997 C14.1635,10.4997 13.1525,11.3627 12.9215,12.5157 L10.9475,12.5157 C10.7205,11.3677 9.7095,10.4997 8.4975,10.4997 C7.1275,10.4997 6.0155,11.6057 6.0005,12.9867 L6.0005,10.9997 C6.0005,7.6917 8.6915,4.9997 12.0005,4.9997 C15.3085,4.9997 18.0005,7.6917 18.0005,10.9997 L18.0005,14.0127 C18.0005,17.3217 15.3085,20.0127 12.0005,20.0127 M4.4925,13.9997 C4.4925,13.6307 4.7025,13.3217 5.0005,13.1487 L5.0005,14.0127 C5.0005,14.3117 5.0255,14.6047 5.0615,14.8937 C4.7275,14.7317 4.4925,14.3957 4.4925,13.9997 M4.4925,9.4997 C4.4925,8.1947 5.3355,7.0917 6.5025,6.6807 C5.5645,7.8717 5.0005,9.3697 5.0005,10.9997 L5.0005,11.1317 C4.6845,10.6507 4.4925,10.0927 4.4925,9.4997 M19.5005,9.4997 C19.5005,10.0857 19.3105,10.6407 19.0005,11.1187 L19.0005,10.9997 C19.0005,9.3707 18.4365,7.8747 17.5005,6.6847 C18.6615,7.0987 19.5005,8.1987 19.5005,9.4997 M19.4135,12.2317 C20.1015,11.4967 20.5005,10.5247 20.5005,9.4997 C20.5005,7.2937 18.7065,5.4997 16.5005,5.4997 L16.3155,5.4997 C15.1255,4.5637 13.6275,3.9997 12.0005,3.9997 C10.3725,3.9997 8.8755,4.5637 7.6845,5.4997 L7.4925,5.4997 C5.2865,5.4997 3.4925,7.2937 3.4925,9.4997 C3.4925,10.5287 3.8895,11.4977 4.5785,12.2317 C3.9365,12.5657 3.4925,13.2287 3.4925,13.9997 C3.4925,15.0327 4.2815,15.8737 5.2865,15.9797 C6.1385,18.8837 8.8245,21.0127 12.0005,21.0127 C15.1765,21.0127 17.8615,18.8827 18.7135,15.9787 C19.7145,15.8697 20.5005,15.0297 20.5005,13.9997 C20.5005,13.2287 20.0555,12.5647 19.4135,12.2317" id="Fill-1" fill="#221F20"></path>
                <path d="M8.9961,13.5117 L8.9961,12.5117 C8.9961,12.2357 8.7721,12.0117 8.4961,12.0117 C8.2201,12.0117 7.9961,12.2357 7.9961,12.5117 L7.9961,13.5117 C7.9961,13.7877 8.2201,14.0117 8.4961,14.0117 C8.7721,14.0117 8.9961,13.7877 8.9961,13.5117" id="Fill-3" fill="#221F20"></path>
                <path d="M15.8711,13.5117 L15.8711,12.5117 C15.8711,12.2357 15.6471,12.0117 15.3711,12.0117 C15.0951,12.0117 14.8711,12.2357 14.8711,12.5117 L14.8711,13.5117 C14.8711,13.7877 15.0951,14.0117 15.3711,14.0117 C15.6471,14.0117 15.8711,13.7877 15.8711,13.5117" id="Fill-5" fill="#221F20"></path>
                <path d="M13.5723,16.5596 C13.3213,16.4476 13.0253,16.5556 12.9103,16.8076 C12.7483,17.1646 12.3903,17.3956 12.0003,17.3956 C11.6083,17.3956 11.2503,17.1636 11.0873,16.8056 C10.9723,16.5546 10.6763,16.4456 10.4253,16.5576 C10.1743,16.6716 10.0623,16.9676 10.1763,17.2196 C10.5013,17.9336 11.2173,18.3956 12.0003,18.3956 C12.7813,18.3956 13.4963,17.9346 13.8203,17.2216 C13.9343,16.9706 13.8233,16.6736 13.5723,16.5596" id="Fill-7" fill="#221F20"></path>
            </g>
        </g>
    </g>
</svg>