<?xml version="1.0" encoding="UTF-8" standalone="no"?>
<svg width="24px" height="24px" viewBox="0 0 24 24" version="1.1" xmlns="http://www.w3.org/2000/svg" xmlns:xlink="http://www.w3.org/1999/xlink">
    <!-- Generator: sketchtool 40 (33762) - http://www.bohemiancoding.com/sketch -->
    <title>age-kid</title>
    <desc>Created with sketchtool.</desc>
    <defs></defs>
    <g id="Page-1" stroke="none" stroke-width="1" fill="none" fill-rule="evenodd">
        <g id="age-kid">
            <g>
                <rect id="bounds" x="0" y="0" width="24" height="24"></rect>
                <path d="M18.9395,13.8867 C18.9755,13.5997 19.0005,13.3097 19.0005,13.0127 L19.0005,12.1547 C19.2935,12.3277 19.5005,12.6347 19.5005,12.9997 C19.5005,13.3917 19.2675,13.7227 18.9395,13.8867 M12.0005,19.0127 C8.6915,19.0127 6.0005,16.3217 6.0005,13.0127 L6.0005,10.9997 C6.0005,10.8337 6.0115,10.6707 6.0245,10.5087 L17.9755,10.5087 C17.9885,10.6707 18.0005,10.8337 18.0005,10.9997 L18.0005,13.0127 C18.0005,16.3217 15.3085,19.0127 12.0005,19.0127 M4.4925,12.9997 C4.4925,12.6307 4.7025,12.3227 5.0005,12.1487 L5.0005,13.0127 C5.0005,13.3117 5.0255,13.6037 5.0615,13.8927 C4.7275,13.7307 4.4925,13.3957 4.4925,12.9997 M12.0005,4.9997 C14.7935,4.9997 17.1395,6.9207 17.8045,9.5087 L6.1955,9.5087 C6.8605,6.9207 9.2075,4.9997 12.0005,4.9997 M20.5005,12.9997 C20.5005,12.0717 19.8605,11.2947 19.0005,11.0717 L19.0005,10.9997 C19.0005,7.1407 15.8595,3.9997 12.0005,3.9997 C8.1405,3.9997 5.0005,7.1407 5.0005,10.9997 L5.0005,11.0687 C4.1355,11.2887 3.4925,12.0687 3.4925,12.9997 C3.4925,14.0327 4.2805,14.8737 5.2865,14.9797 C6.1385,17.8837 8.8245,20.0127 12.0005,20.0127 C15.1765,20.0127 17.8615,17.8827 18.7135,14.9787 C19.7155,14.8697 20.5005,14.0297 20.5005,12.9997" id="Fill-1" fill="#221F20"></path>
                <path d="M8.4961,12.0117 C8.2201,12.0117 7.9961,12.2357 7.9961,12.5117 L7.9961,13.5117 C7.9961,13.7877 8.2201,14.0117 8.4961,14.0117 C8.7721,14.0117 8.9961,13.7877 8.9961,13.5117 L8.9961,12.5117 C8.9961,12.2357 8.7721,12.0117 8.4961,12.0117" id="Fill-3" fill="#221F20"></path>
                <path d="M15.3711,12.0117 C15.0951,12.0117 14.8711,12.2357 14.8711,12.5117 L14.8711,13.5117 C14.8711,13.7877 15.0951,14.0117 15.3711,14.0117 C15.6471,14.0117 15.8711,13.7877 15.8711,13.5117 L15.8711,12.5117 C15.8711,12.2357 15.6471,12.0117 15.3711,12.0117" id="Fill-5" fill="#221F20"></path>
                <path d="M13.5723,15.5596 C13.3203,15.4456 13.0243,15.5566 12.9103,15.8076 C12.7483,16.1646 12.3903,16.3956 12.0003,16.3956 C11.6073,16.3956 11.2503,16.1636 11.0873,15.8056 C10.9733,15.5556 10.6773,15.4436 10.4263,15.5576 C10.1743,15.6716 10.0623,15.9676 10.1763,16.2196 C10.5013,16.9336 11.2173,17.3956 12.0003,17.3956 C12.7813,17.3956 13.4963,16.9346 13.8203,16.2216 C13.9343,15.9706 13.8243,15.6736 13.5723,15.5596" id="Fill-7" fill="#221F20"></path>
                <path d="M11.5,7.5088 L12.5,7.5088 C12.871,7.5088 13.194,7.7108 13.367,8.0098 L10.633,8.0098 C10.806,7.7108 11.129,7.5088 11.5,7.5088 M9.998,9.0098 L14.002,9.0098 C14.278,9.0098 14.502,8.7858 14.502,8.5098 C14.502,7.4058 13.604,6.5088 12.5,6.5088 L11.5,6.5088 C10.396,6.5088 9.498,7.4058 9.498,8.5098 C9.498,8.7858 9.722,9.0098 9.998,9.0098" id="Fill-9" fill="#221F20"></path>
            </g>
        </g>
    </g>
</svg>