<?xml version="1.0" encoding="UTF-8" standalone="no"?>
<svg width="24px" height="24px" viewBox="0 0 24 24" version="1.1" xmlns="http://www.w3.org/2000/svg" xmlns:xlink="http://www.w3.org/1999/xlink">
    <!-- Generator: sketchtool 40 (33762) - http://www.bohemiancoding.com/sketch -->
    <title>age-toddler</title>
    <desc>Created with sketchtool.</desc>
    <defs></defs>
    <g id="Page-1" stroke="none" stroke-width="1" fill="none" fill-rule="evenodd">
        <g id="age-toddler">
            <g>
                <rect id="bounds" x="0" y="0" width="24" height="24"></rect>
                <path d="M18.9395,13.8877 C18.9755,13.5997 19.0005,13.3097 19.0005,13.0127 L19.0005,12.1537 C19.2935,12.3277 19.5005,12.6347 19.5005,12.9997 C19.5005,13.3917 19.2685,13.7237 18.9395,13.8877 M12.0005,19.0127 C8.6915,19.0127 6.0005,16.3217 6.0005,13.0127 L6.0005,10.9997 C6.0005,7.6917 8.6915,4.9997 12.0005,4.9997 C12.4775,4.9997 12.9395,5.0617 13.3845,5.1677 C13.3825,5.1837 13.3755,5.1977 13.3755,5.2127 L13.3755,6.9267 C13.3755,7.7997 12.6645,8.5097 11.7915,8.5097 C11.1475,8.5097 10.6255,7.9867 10.6255,7.3427 C10.6255,6.8837 10.9995,6.5107 11.4595,6.5107 C11.7715,6.5107 12.0255,6.7647 12.0255,7.0767 C12.0255,7.1847 11.9795,7.2617 11.9405,7.3067 C11.7605,7.5167 11.7855,7.8317 11.9955,8.0117 C12.2055,8.1927 12.5215,8.1657 12.7005,7.9567 C12.9095,7.7117 13.0255,7.3997 13.0255,7.0767 C13.0255,6.2137 12.3225,5.5107 11.4595,5.5107 C10.4475,5.5107 9.6255,6.3327 9.6255,7.3427 C9.6255,8.5377 10.5965,9.5097 11.7915,9.5097 C13.2155,9.5097 14.3755,8.3507 14.3755,6.9267 L14.3755,5.4917 C16.5045,6.4137 18.0005,8.5347 18.0005,10.9997 L18.0005,13.0127 C18.0005,16.3217 15.3085,19.0127 12.0005,19.0127 M4.4925,12.9997 C4.4925,12.6307 4.7025,12.3217 5.0005,12.1487 L5.0005,13.0127 C5.0005,13.3117 5.0245,13.6047 5.0615,13.8937 C4.7275,13.7317 4.4925,13.3957 4.4925,12.9997 M20.5005,12.9997 C20.5005,12.0717 19.8605,11.2947 19.0005,11.0717 L19.0005,10.9997 C19.0005,7.1407 15.8595,3.9997 12.0005,3.9997 C8.1405,3.9997 5.0005,7.1407 5.0005,10.9997 L5.0005,11.0687 C4.1355,11.2887 3.4925,12.0687 3.4925,12.9997 C3.4925,14.0327 4.2815,14.8737 5.2865,14.9797 C6.1385,17.8837 8.8235,20.0127 12.0005,20.0127 C15.1765,20.0127 17.8615,17.8827 18.7135,14.9787 C19.7155,14.8697 20.5005,14.0297 20.5005,12.9997" id="Fill-1" fill="#221F20"></path>
                <path d="M7.4961,12.0117 C7.2201,12.0117 6.9961,12.2357 6.9961,12.5117 L6.9961,13.5117 C6.9961,13.7877 7.2201,14.0117 7.4961,14.0117 C7.7721,14.0117 7.9961,13.7877 7.9961,13.5117 L7.9961,12.5117 C7.9961,12.2357 7.7721,12.0117 7.4961,12.0117" id="Fill-3" fill="#221F20"></path>
                <path d="M16.3711,12.0117 C16.0951,12.0117 15.8711,12.2357 15.8711,12.5117 L15.8711,13.5117 C15.8711,13.7877 16.0951,14.0117 16.3711,14.0117 C16.6471,14.0117 16.8711,13.7877 16.8711,13.5117 L16.8711,12.5117 C16.8711,12.2357 16.6471,12.0117 16.3711,12.0117" id="Fill-5" fill="#221F20"></path>
                <path d="M13.5723,14.5596 C13.3203,14.4446 13.0243,14.5556 12.9103,14.8076 C12.7473,15.1646 12.3903,15.3956 12.0003,15.3956 C11.6083,15.3956 11.2493,15.1636 11.0873,14.8056 C10.9733,14.5556 10.6783,14.4436 10.4253,14.5576 C10.1743,14.6716 10.0623,14.9676 10.1763,15.2196 C10.5013,15.9336 11.2173,16.3956 12.0003,16.3956 C12.7813,16.3956 13.4963,15.9346 13.8203,15.2216 C13.9343,14.9706 13.8233,14.6736 13.5723,14.5596" id="Fill-7" fill="#221F20"></path>
            </g>
        </g>
    </g>
</svg>