<?xml version="1.0" encoding="UTF-8" standalone="no"?>
<svg width="24px" height="24px" viewBox="0 0 24 24" version="1.1" xmlns="http://www.w3.org/2000/svg" xmlns:xlink="http://www.w3.org/1999/xlink">
    <!-- Generator: sketchtool 40 (33762) - http://www.bohemiancoding.com/sketch -->
    <title>arrow-down</title>
    <desc>Created with sketchtool.</desc>
    <defs></defs>
    <g id="Page-1" stroke="none" stroke-width="1" fill="none" fill-rule="evenodd">
        <g id="arrow-down">
            <g>
                <rect id="bounds" x="0" y="0" width="24" height="24"></rect>
                <path d="M18.0049,14.4946 C17.8099,14.2996 17.4929,14.2996 17.2979,14.4946 L12.4949,19.2986 L12.4949,3.5046 C12.4949,3.2286 12.2719,3.0046 11.9949,3.0046 C11.7189,3.0046 11.4949,3.2286 11.4949,3.5046 L11.4949,19.2866 L6.7029,14.4946 C6.5079,14.2996 6.1919,14.2996 5.9959,14.4946 C5.8009,14.6906 5.8009,15.0066 5.9959,15.2026 L11.6189,20.8246 C11.6239,20.8316 11.6269,20.8396 11.6329,20.8466 C11.6369,20.8496 11.6379,20.8546 11.6419,20.8586 C11.6509,20.8676 11.6619,20.8706 11.6709,20.8786 C11.7109,20.9126 11.7529,20.9456 11.8029,20.9666 C11.8669,20.9926 11.9339,21.0046 12.0019,21.0036 C12.1309,21.0056 12.2609,20.9566 12.3589,20.8586 C12.3679,20.8496 12.3709,20.8376 12.3799,20.8276 L18.0049,15.2026 C18.1999,15.0066 18.1999,14.6896 18.0049,14.4946" id="Fill-1" fill="#020302"></path>
            </g>
        </g>
    </g>
</svg>