<?xml version="1.0" encoding="UTF-8" standalone="no"?>
<svg width="24px" height="24px" viewBox="0 0 24 24" version="1.1" xmlns="http://www.w3.org/2000/svg" xmlns:xlink="http://www.w3.org/1999/xlink">
    <!-- Generator: sketchtool 40 (33762) - http://www.bohemiancoding.com/sketch -->
    <title>arrow-up</title>
    <desc>Created with sketchtool.</desc>
    <defs></defs>
    <g id="Page-1" stroke="none" stroke-width="1" fill="none" fill-rule="evenodd">
        <g id="arrow-up">
            <g>
                <rect id="bounds" x="0" y="0" width="24" height="24"></rect>
                <path d="M18.0039,8.8076 L12.3819,3.1866 C12.3769,3.1796 12.3729,3.1706 12.3669,3.1636 C12.3629,3.1596 12.3619,3.1546 12.3579,3.1506 C12.3499,3.1416 12.3379,3.1396 12.3289,3.1316 C12.2889,3.0966 12.2469,3.0646 12.1969,3.0436 C12.1329,3.0166 12.0659,3.0046 11.9979,3.0056 C11.8689,3.0046 11.7389,3.0526 11.6399,3.1516 C11.6309,3.1606 11.6279,3.1736 11.6189,3.1836 L5.9949,8.8076 C5.7999,9.0036 5.7999,9.3196 5.9949,9.5156 C6.1909,9.7106 6.5069,9.7106 6.7019,9.5146 L11.5049,4.7116 L11.5049,20.5046 C11.5049,20.7806 11.7289,21.0046 12.0049,21.0046 C12.2809,21.0046 12.5049,20.7806 12.5049,20.5046 L12.5049,4.7236 L17.2969,9.5146 C17.4929,9.7096 17.8089,9.7096 18.0039,9.5146 C18.1999,9.3196 18.1999,9.0026 18.0039,8.8076" id="Fill-1" fill="#020302"></path>
            </g>
        </g>
    </g>
</svg>