<?xml version="1.0" encoding="UTF-8" standalone="no"?>
<svg width="24px" height="24px" viewBox="0 0 24 24" version="1.1" xmlns="http://www.w3.org/2000/svg" xmlns:xlink="http://www.w3.org/1999/xlink">
    <!-- Generator: sketchtool 40 (33762) - http://www.bohemiancoding.com/sketch -->
    <title>arrow-right</title>
    <desc>Created with sketchtool.</desc>
    <defs></defs>
    <g id="Page-1" stroke="none" stroke-width="1" fill="none" fill-rule="evenodd">
        <g id="arrow-right">
            <g>
                <rect id="bounds" x="0" y="0" width="24" height="24"></rect>
                <path d="M20.854,12.3633 C20.863,12.3543 20.866,12.3433 20.874,12.3343 C20.908,12.2943 20.94,12.2513 20.961,12.2013 C20.988,12.1383 21,12.0713 20.999,12.0033 C21,11.8733 20.952,11.7433 20.854,11.6453 C20.844,11.6353 20.832,11.6323 20.821,11.6243 L15.197,6.0003 C15.001,5.8043 14.685,5.8043 14.49,6.0003 C14.294,6.1953 14.294,6.5113 14.49,6.7073 L19.293,11.5093 L3.5,11.5093 C3.224,11.5093 3,11.7333 3,12.0093 C3,12.2863 3.224,12.5093 3.5,12.5093 L19.282,12.5093 L14.49,17.3013 C14.295,17.4973 14.295,17.8143 14.49,18.0093 C14.686,18.2043 15.002,18.2043 15.197,18.0093 L20.818,12.3873 C20.825,12.3813 20.834,12.3783 20.841,12.3713 C20.845,12.3683 20.85,12.3673 20.854,12.3633" id="Fill-1" fill="#020302"></path>
            </g>
        </g>
    </g>
</svg>