<?xml version="1.0" encoding="UTF-8" standalone="no"?>
<svg width="24px" height="24px" viewBox="0 0 24 24" version="1.1" xmlns="http://www.w3.org/2000/svg" xmlns:xlink="http://www.w3.org/1999/xlink">
    <!-- Generator: sketchtool 40 (33762) - http://www.bohemiancoding.com/sketch -->
    <title>arrow-left</title>
    <desc>Created with sketchtool.</desc>
    <defs></defs>
    <g id="Page-1" stroke="none" stroke-width="1" fill="none" fill-rule="evenodd">
        <g id="arrow-left">
            <g>
                <rect id="bounds" x="0" y="0" width="24" height="24"></rect>
                <path d="M20.5,11.5 L4.718,11.5 L9.51,6.708 C9.705,6.512 9.705,6.196 9.51,6 C9.314,5.805 8.998,5.805 8.803,6.001 L3.182,11.623 C3.175,11.628 3.166,11.632 3.159,11.638 C3.155,11.642 3.15,11.643 3.146,11.646 C3.137,11.655 3.134,11.667 3.126,11.676 C3.092,11.716 3.06,11.758 3.039,11.808 C3.012,11.872 3,11.939 3.001,12.007 C3,12.136 3.048,12.266 3.146,12.365 C3.156,12.374 3.168,12.377 3.179,12.386 L8.803,18.01 C8.999,18.205 9.315,18.205 9.51,18.01 C9.706,17.814 9.706,17.498 9.51,17.303 L4.707,12.5 L20.5,12.5 C20.776,12.5 21,12.276 21,12 C21,11.724 20.776,11.5 20.5,11.5" id="Fill-1" fill="#020302"></path>
            </g>
        </g>
    </g>
</svg>