<?xml version="1.0" encoding="UTF-8" standalone="no"?>
<svg width="24px" height="24px" viewBox="0 0 24 24" version="1.1" xmlns="http://www.w3.org/2000/svg" xmlns:xlink="http://www.w3.org/1999/xlink">
    <!-- Generator: sketchtool 40 (33762) - http://www.bohemiancoding.com/sketch -->
    <title>basic-info</title>
    <desc>Created with sketchtool.</desc>
    <defs></defs>
    <g id="Page-1" stroke="none" stroke-width="1" fill="none" fill-rule="evenodd">
        <g id="basic-info">
            <g>
                <rect id="bounds" x="0" y="0" width="24" height="24"></rect>
                <path d="M5,20.0205 C5,16.9945 6.924,14.4245 9.612,13.4475 C10.335,13.7975 11.144,13.9995 12,13.9995 C12.856,13.9995 13.664,13.7975 14.388,13.4475 C17.076,14.4245 19,16.9945 19,20.0205 L5,20.0205 Z M7.5,8.4995 C7.5,6.0145 9.515,3.9995 12,3.9995 C14.485,3.9995 16.5,6.0145 16.5,8.4995 C16.5,10.6705 14.962,12.4815 12.917,12.9055 L12.896,12.9095 C12.606,12.9685 12.307,12.9995 12,12.9995 C11.693,12.9995 11.394,12.9685 11.104,12.9095 L11.083,12.9055 C9.038,12.4815 7.5,10.6705 7.5,8.4995 L7.5,8.4995 Z M15.419,12.8005 C16.685,11.7915 17.5,10.2405 17.5,8.4995 C17.5,5.4665 15.033,2.9995 12,2.9995 C8.967,2.9995 6.5,5.4665 6.5,8.4995 C6.5,10.2405 7.315,11.7915 8.581,12.8005 C5.878,14.0855 4,16.8335 4,20.0205 C4,20.5725 4.447,21.0205 5,21.0205 L19,21.0205 C19.553,21.0205 20,20.5725 20,20.0205 C20,16.8335 18.122,14.0855 15.419,12.8005 L15.419,12.8005 Z" id="Fill-1" fill="#221F20"></path>
            </g>
        </g>
    </g>
</svg>