<?xml version="1.0" encoding="UTF-8" standalone="no"?>
<svg width="24px" height="24px" viewBox="0 0 24 24" version="1.1" xmlns="http://www.w3.org/2000/svg" xmlns:xlink="http://www.w3.org/1999/xlink">
    <!-- Generator: sketchtool 40 (33762) - http://www.bohemiancoding.com/sketch -->
    <title>birthday</title>
    <desc>Created with sketchtool.</desc>
    <defs></defs>
    <g id="Page-1" stroke="none" stroke-width="1" fill="none" fill-rule="evenodd">
        <g id="birthday">
            <g>
                <rect id="bounds" x="0" y="0" width="24" height="24"></rect>
                <path d="M16.5015,4.3848 C16.9495,5.0938 17.1255,5.6908 17.0395,5.8698 C17.0075,5.9358 16.8265,6.0058 16.5025,6.0058 C16.1565,6.0058 15.9935,5.9258 15.9655,5.8688 C15.8805,5.6928 16.0405,5.1108 16.5015,4.3848 M16.5025,7.0058 C17.4115,7.0058 17.7865,6.6238 17.9405,6.3028 C18.4495,5.2428 17.1325,3.5098 16.8635,3.1718 C16.7755,3.0628 16.6425,2.9998 16.5025,2.9998 C16.3615,2.9998 16.2295,3.0628 16.1415,3.1718 C15.8725,3.5098 14.5545,5.2428 15.0645,6.3028 C15.2185,6.6238 15.5925,7.0058 16.5025,7.0058" id="Fill-1" fill="#221F20"></path>
                <path d="M11.9995,4.3848 C12.4475,5.0938 12.6235,5.6908 12.5375,5.8698 C12.5055,5.9358 12.3245,6.0058 12.0005,6.0058 C11.6545,6.0058 11.4915,5.9258 11.4635,5.8688 C11.3785,5.6928 11.5385,5.1108 11.9995,4.3848 M12.0005,7.0058 C12.9095,7.0058 13.2845,6.6238 13.4385,6.3028 C13.9475,5.2428 12.6305,3.5098 12.3615,3.1718 C12.2735,3.0628 12.1405,2.9998 12.0005,2.9998 C11.8595,2.9998 11.7275,3.0628 11.6395,3.1718 C11.3705,3.5098 10.0525,5.2428 10.5625,6.3028 C10.7165,6.6238 11.0905,7.0058 12.0005,7.0058" id="Fill-3" fill="#221F20"></path>
                <path d="M7.4927,4.3848 C7.9407,5.0938 8.1167,5.6908 8.0307,5.8698 C7.9987,5.9358 7.8177,6.0058 7.4937,6.0058 C7.1477,6.0058 6.9847,5.9258 6.9567,5.8688 C6.8717,5.6928 7.0317,5.1108 7.4927,4.3848 M7.4937,7.0058 C8.4027,7.0058 8.7777,6.6238 8.9317,6.3028 C9.4407,5.2428 8.1237,3.5098 7.8547,3.1718 C7.7667,3.0628 7.6337,2.9998 7.4937,2.9998 C7.3527,2.9998 7.2207,3.0628 7.1327,3.1718 C6.8637,3.5098 5.5457,5.2428 6.0557,6.3028 C6.2097,6.6238 6.5837,7.0058 7.4937,7.0058" id="Fill-5" fill="#221F20"></path>
                <path d="M19.0088,20 L4.9908,20 C4.4398,20 3.9908,19.552 3.9908,19 L3.9908,16.463 C4.4398,16.802 4.9998,17.013 5.6148,17.013 C6.4928,17.013 7.2658,16.598 7.7438,15.968 C8.2208,16.598 8.9948,17.013 9.8718,17.013 C10.7488,17.013 11.5228,16.598 11.9998,15.968 C12.4778,16.598 13.2508,17.013 14.1278,17.013 C15.0058,17.013 15.7788,16.598 16.2568,15.968 C16.7338,16.598 17.5078,17.013 18.3848,17.013 C19.0008,17.013 19.5608,16.802 20.0088,16.463 L20.0088,19 C20.0088,19.552 19.5598,20 19.0088,20 L19.0088,20 Z M3.9908,12.01 L20.0088,12.01 L20.0088,14.548 C19.9878,15.358 19.2688,16.013 18.3848,16.013 C17.4868,16.013 16.7568,15.34 16.7568,14.513 C16.7568,14.236 16.5328,14.013 16.2568,14.013 C15.9798,14.013 15.7568,14.236 15.7568,14.513 C15.7568,15.34 15.0258,16.013 14.1278,16.013 C13.2308,16.013 12.4998,15.34 12.4998,14.513 C12.4998,14.236 12.2768,14.013 11.9998,14.013 C11.7238,14.013 11.4998,14.236 11.4998,14.513 C11.4998,15.34 10.7698,16.013 9.8718,16.013 C8.9738,16.013 8.2438,15.34 8.2438,14.513 C8.2438,14.236 8.0198,14.013 7.7438,14.013 C7.4668,14.013 7.2438,14.236 7.2438,14.513 C7.2438,15.34 6.5128,16.013 5.6148,16.013 C4.7308,16.013 4.0118,15.358 3.9908,14.548 L3.9908,12.01 Z M6.9938,11.009 L7.9938,11.009 L7.9938,9.009 L6.9938,9.009 L6.9938,11.009 Z M11.4998,11.009 L12.4998,11.009 L12.4998,9.009 L11.4998,9.009 L11.4998,11.009 Z M16.0028,11.009 L17.0028,11.009 L17.0028,9.009 L16.0028,9.009 L16.0028,11.009 Z M21.0128,14.513 C21.0128,14.506 21.0088,14.5 21.0088,14.493 L21.0088,11.508 L20.9998,11.508 C20.9988,11.232 20.7768,11.01 20.5008,11.01 L18.0028,11.01 L18.0028,8.509 C18.0028,8.232 17.7798,8.009 17.5028,8.009 L15.5028,8.009 C15.2268,8.009 15.0028,8.232 15.0028,8.509 L15.0028,11.01 L13.4998,11.01 L13.4998,8.509 C13.4998,8.232 13.2768,8.009 12.9998,8.009 L10.9998,8.009 C10.7238,8.009 10.4998,8.232 10.4998,8.509 L10.4998,11.01 L8.9938,11.01 L8.9938,8.509 C8.9938,8.232 8.7708,8.009 8.4938,8.009 L6.4938,8.009 C6.2178,8.009 5.9938,8.232 5.9938,8.509 L5.9938,11.01 L3.5008,11.01 C3.2248,11.01 3.0018,11.232 3.0008,11.508 L2.9908,11.508 L2.9908,14.493 C2.9908,14.5 2.9878,14.506 2.9878,14.513 C2.9878,14.525 2.9908,14.537 2.9908,14.55 L2.9908,19 C2.9908,20.104 3.8868,21 4.9908,21 L19.0088,21 C20.1128,21 21.0088,20.104 21.0088,19 L21.0088,14.55 C21.0088,14.537 21.0128,14.525 21.0128,14.513 L21.0128,14.513 Z" id="Fill-7" fill="#221F20"></path>
            </g>
        </g>
    </g>
</svg>