<?xml version="1.0" encoding="UTF-8" standalone="no"?>
<svg width="24px" height="24px" viewBox="0 0 24 24" version="1.1" xmlns="http://www.w3.org/2000/svg" xmlns:xlink="http://www.w3.org/1999/xlink">
    <!-- Generator: sketchtool 40 (33762) - http://www.bohemiancoding.com/sketch -->
    <title>block</title>
    <desc>Created with sketchtool.</desc>
    <defs></defs>
    <g id="Page-1" stroke="none" stroke-width="1" fill="none" fill-rule="evenodd">
        <g id="block">
            <g>
                <rect id="bounds" x="0" y="0" width="24" height="24"></rect>
                <path d="M17.9912,17.2837 L6.7162,6.0097 C8.1272,4.7627 9.9732,3.9997 12.0002,3.9997 C16.4112,3.9997 20.0002,7.5887 20.0002,11.9997 C20.0002,14.0257 19.2372,15.8727 17.9912,17.2837 M4.0002,11.9997 C4.0002,9.9737 4.7622,8.1267 6.0092,6.7167 L17.2842,17.9907 C15.8732,19.2367 14.0262,19.9997 12.0002,19.9997 C7.5892,19.9997 4.0002,16.4107 4.0002,11.9997 M12.0002,2.9997 C7.0292,2.9997 3.0002,7.0297 3.0002,11.9997 C3.0002,16.9707 7.0292,20.9997 12.0002,20.9997 C16.9702,20.9997 21.0002,16.9707 21.0002,11.9997 C21.0002,7.0297 16.9702,2.9997 12.0002,2.9997" id="Fill-1" fill="#221F20"></path>
            </g>
        </g>
    </g>
</svg>