<?xml version="1.0" encoding="UTF-8" standalone="no"?>
<svg width="24px" height="24px" viewBox="0 0 24 24" version="1.1" xmlns="http://www.w3.org/2000/svg" xmlns:xlink="http://www.w3.org/1999/xlink">
    <!-- Generator: sketchtool 40 (33762) - http://www.bohemiancoding.com/sketch -->
    <title>calendar</title>
    <desc>Created with sketchtool.</desc>
    <defs></defs>
    <g id="Page-1" stroke="none" stroke-width="1" fill="none" fill-rule="evenodd">
        <g id="calendar">
            <g>
                <rect id="bounds" x="0" y="0" width="24" height="24"></rect>
                <path d="M7.4043,16.1367 L8.9293,16.1367 L8.9293,11.6857 C8.9293,11.4707 8.9373,11.2557 8.9373,11.2557 L8.9183,11.2557 C8.9183,11.2557 8.8403,11.4117 8.5883,11.6567 L7.9433,12.2907 L7.3573,11.6857 L9.0063,10.0847 L9.8653,10.0847 L9.8653,16.1367 L11.3693,16.1367 L11.3693,16.9767 L7.4043,16.9767 L7.4043,16.1367 Z" id="Fill-1" fill="#221F20"></path>
                <path d="M15.6738,13.4629 C15.6738,11.9939 15.3578,10.8439 14.2438,10.8439 C13.1408,10.8439 12.8238,11.9939 12.8238,13.4629 C12.8238,14.9419 13.1408,16.1029 14.2438,16.1029 C15.3578,16.1029 15.6738,14.9419 15.6738,13.4629 M11.8538,13.4629 C11.8538,11.5149 12.4398,9.9699 14.2438,9.9699 C16.0588,9.9699 16.6428,11.5149 16.6428,13.4629 C16.6428,15.4219 16.0588,16.9769 14.2438,16.9769 C12.4398,16.9769 11.8538,15.4219 11.8538,13.4629" id="Fill-3" fill="#221F20"></path>
                <path d="M6.4941,6 C6.7711,6 6.9941,5.776 6.9941,5.5 L6.9941,5 L17.0001,5 L17.0001,5.5 C17.0001,5.776 17.2241,6 17.5001,6 C17.7771,6 18.0001,5.776 18.0001,5.5 L18.0001,5 L20.0081,5 L20.0081,7.007 L3.9911,7.007 L3.9911,5 L5.9941,5 L5.9941,5.5 C5.9941,5.776 6.2191,6 6.4941,6 L6.4941,6 Z M3.9911,19.019 L20.0081,19.019 L20.0081,8.007 L3.9911,8.007 L3.9911,19.019 Z M20.9611,4.306 C20.8851,4.126 20.7071,4 20.5001,4 L18.0001,4 L18.0001,3.5 C18.0001,3.224 17.7771,3 17.5001,3 C17.2241,3 17.0001,3.224 17.0001,3.5 L17.0001,4 L6.9941,4 L6.9941,3.5 C6.9941,3.224 6.7711,3 6.4941,3 C6.2191,3 5.9941,3.224 5.9941,3.5 L5.9941,4 L3.5001,4 C3.3571,4 3.2301,4.061 3.1391,4.157 C3.0481,4.248 2.9911,4.373 2.9911,4.512 L2.9911,19.512 C2.9911,19.653 3.0511,19.78 3.1451,19.871 C3.2361,19.962 3.3611,20.019 3.5001,20.019 L20.5001,20.019 C20.6401,20.019 20.7651,19.961 20.8551,19.869 C20.9491,19.778 21.0081,19.652 21.0081,19.512 L21.0081,4.512 C21.0081,4.438 20.9901,4.369 20.9611,4.306 L20.9611,4.306 Z" id="Fill-5" fill="#221F20"></path>
            </g>
        </g>
    </g>
</svg>