<?xml version="1.0" encoding="UTF-8" standalone="no"?>
<svg width="24px" height="24px" viewBox="0 0 24 24" version="1.1" xmlns="http://www.w3.org/2000/svg" xmlns:xlink="http://www.w3.org/1999/xlink">
    <!-- Generator: sketchtool 40 (33762) - http://www.bohemiancoding.com/sketch -->
    <title>calendar-h</title>
    <desc>Created with sketchtool.</desc>
    <defs>
        <polygon id="path-1" points="0 24 24 24 24 0 0 0"></polygon>
    </defs>
    <g id="Page-1" stroke="none" stroke-width="1" fill="none" fill-rule="evenodd">
        <g id="calendar-h">
            <g>
                <rect id="bounds" x="0" y="0" width="24" height="24"></rect>
                <path d="M6.4941,6 C6.7711,6 6.9941,5.776 6.9941,5.5 L6.9941,5 L17.0001,5 L17.0001,5.5 C17.0001,5.776 17.2241,6 17.5001,6 C17.7771,6 18.0001,5.776 18.0001,5.5 L18.0001,5 L20.0081,5 L20.0081,7.007 L3.9911,7.007 L3.9911,5 L5.9941,5 L5.9941,5.5 C5.9941,5.776 6.2191,6 6.4941,6 L6.4941,6 Z M3.9911,19.019 L20.0081,19.019 L20.0081,8.007 L3.9911,8.007 L3.9911,19.019 L3.9911,19.019 Z M20.9611,4.306 C20.8851,4.126 20.7071,4 20.5001,4 L18.0001,4 L18.0001,3.5 C18.0001,3.224 17.7771,3 17.5001,3 C17.2241,3 17.0001,3.224 17.0001,3.5 L17.0001,4 L6.9941,4 L6.9941,3.5 C6.9941,3.224 6.7711,3 6.4941,3 C6.2191,3 5.9941,3.224 5.9941,3.5 L5.9941,4 L3.5001,4 C3.3571,4 3.2301,4.061 3.1391,4.157 C3.0481,4.248 2.9911,4.373 2.9911,4.512 L2.9911,19.512 C2.9911,19.653 3.0511,19.78 3.1451,19.871 C3.2361,19.962 3.3611,20.019 3.5001,20.019 L20.5001,20.019 C20.6401,20.019 20.7651,19.961 20.8551,19.869 C20.9491,19.778 21.0081,19.652 21.0081,19.512 L21.0081,4.512 C21.0081,4.438 20.9901,4.369 20.9611,4.306 L20.9611,4.306 Z" id="Fill-1" fill="#221F20"></path>
                <path d="M14.1675,14.4678 C14.1675,13.1608 13.4315,12.7148 12.4865,12.7148 C11.8695,12.7148 11.3245,12.9968 11.0615,13.4598 L11.0425,13.4598 C11.0425,13.4348 11.0425,13.3958 11.0515,13.3508 C11.0615,13.2778 11.0615,13.1798 11.0615,13.0618 L11.0615,11.0078 L8.8545,11.0078 L8.8545,12.1428 L9.4905,12.1428 L9.4905,16.3658 L8.8985,16.3658 L8.8985,17.5018 L11.6515,17.5018 L11.6515,16.3658 L11.0615,16.3658 L11.0615,15.4308 C11.0615,14.7588 11.3875,14.1398 12.0785,14.1398 C12.4315,14.1398 12.5965,14.3238 12.5965,14.7588 L12.5965,17.5018 L14.7575,17.5018 L14.7575,16.3658 L14.1675,16.3658 L14.1675,14.4678 Z" id="Fill-3" fill="#221F20"></path>
                <mask id="mask-2" fill="white">
                    <use xlink:href="#path-1"></use>
                </mask>
                <g id="Clip-6"></g>
                <polygon id="Fill-5" fill="#221F20" mask="url(#mask-2)" points="13.004 11.008 16.004 11.008 16.004 10.008 13.004 10.008"></polygon>
                <polygon id="Fill-7" fill="#221F20" mask="url(#mask-2)" points="14.004 12.008 15.004 12.008 15.004 9.008 14.004 9.008"></polygon>
            </g>
        </g>
    </g>
</svg>