<?xml version="1.0" encoding="UTF-8" standalone="no"?>
<svg width="24px" height="24px" viewBox="0 0 24 24" version="1.1" xmlns="http://www.w3.org/2000/svg" xmlns:xlink="http://www.w3.org/1999/xlink">
    <!-- Generator: sketchtool 40 (33762) - http://www.bohemiancoding.com/sketch -->
    <title>camera</title>
    <desc>Created with sketchtool.</desc>
    <defs></defs>
    <g id="Page-1" stroke="none" stroke-width="1" fill="none" fill-rule="evenodd">
        <g id="camera">
            <g>
                <rect id="bounds" x="0" y="0" width="24" height="24"></rect>
                <path d="M8,7.998 C8.215,7.998 8.406,7.86 8.475,7.656 L9.365,4.992 L14.645,4.992 L15.529,7.655 C15.598,7.859 15.789,7.998 16.004,7.998 L20.008,7.998 L20.008,19.029 L4,19.029 L4,7.998 L8,7.998 Z M20.508,6.995 C20.503,6.995 20.498,6.998 20.493,6.998 L16.365,6.998 L15.48,4.335 C15.412,4.131 15.221,3.992 15.006,3.992 L9.006,3.992 C8.791,3.992 8.6,4.13 8.531,4.334 L7.641,6.998 L3.515,6.998 C3.51,6.998 3.505,6.995 3.5,6.995 C3.224,6.995 3,7.219 3,7.495 L3,19.495 C3,19.501 3.003,19.506 3.004,19.512 C3.003,19.518 3,19.523 3,19.529 C3,19.806 3.224,20.029 3.5,20.029 L20.5,20.029 C20.719,20.029 20.899,19.887 20.967,19.692 C20.993,19.631 21.008,19.565 21.008,19.495 L21.008,7.495 C21.008,7.219 20.784,6.995 20.508,6.995 L20.508,6.995 Z" id="Fill-1" fill="#221F20"></path>
                <path d="M12,9.9951 C13.654,9.9951 15,11.3411 15,12.9951 C15,14.6491 13.654,15.9951 12,15.9951 C10.346,15.9951 9,14.6491 9,12.9951 C9,11.3411 10.346,9.9951 12,9.9951 M12,16.9951 C14.209,16.9951 16,15.2041 16,12.9951 C16,10.7861 14.209,8.9951 12,8.9951 C9.791,8.9951 8,10.7861 8,12.9951 C8,15.2041 9.791,16.9951 12,16.9951" id="Fill-3" fill="#221F20"></path>
                <path d="M17.5,9.9951 L18.5,9.9951 C18.776,9.9951 19,9.7711 19,9.4951 C19,9.2191 18.776,8.9951 18.5,8.9951 L17.5,8.9951 C17.224,8.9951 17,9.2191 17,9.4951 C17,9.7711 17.224,9.9951 17.5,9.9951" id="Fill-5" fill="#221F20"></path>
            </g>
        </g>
    </g>
</svg>