<?xml version="1.0" encoding="UTF-8" standalone="no"?>
<svg width="24px" height="24px" viewBox="0 0 24 24" version="1.1" xmlns="http://www.w3.org/2000/svg" xmlns:xlink="http://www.w3.org/1999/xlink">
    <!-- Generator: sketchtool 40 (33762) - http://www.bohemiancoding.com/sketch -->
    <title>chat</title>
    <desc>Created with sketchtool.</desc>
    <defs></defs>
    <g id="Page-1" stroke="none" stroke-width="1" fill="none" fill-rule="evenodd">
        <g id="chat">
            <g>
                <rect id="bounds" x="0" y="0" width="24" height="24"></rect>
                <path d="M6.001,8.0225 L6.001,16.0225 L15.474,16.0225 C15.605,16.0225 15.732,16.0745 15.825,16.1675 L18,18.3195 L18,16.5225 C18,16.2465 18.223,16.0225 18.5,16.0225 L20.001,16.0225 L20.001,8.0225 L6.001,8.0225 Z M18.148,19.8745 L15.268,17.0225 L6.001,17.0225 C5.449,17.0225 5.001,16.5735 5.001,16.0225 L5.001,8.0225 C5.001,7.4715 5.449,7.0225 6.001,7.0225 L20.001,7.0225 C20.553,7.0225 21.001,7.4715 21.001,8.0225 L21.001,16.0225 C21.001,16.5735 20.553,17.0225 20.001,17.0225 L19,17.0225 L19,19.5185 C19,19.7205 18.879,19.9025 18.691,19.9805 C18.63,20.0055 18.564,20.0185 18.5,20.0185 C18.37,20.0185 18.243,19.9685 18.148,19.8745 L18.148,19.8745 Z" id="Fill-1" fill="#221F20"></path>
                <path d="M6.001,13.0078 L3.999,13.0078 L3.999,5.0078 L17.999,5.0078 L17.999,8.0228 L18.999,8.0228 L18.999,5.0078 C18.999,4.4568 18.551,4.0078 17.999,4.0078 L3.999,4.0078 C3.447,4.0078 2.999,4.4568 2.999,5.0078 L2.999,13.0078 C2.999,13.5588 3.447,14.0078 3.999,14.0078 L6.001,14.0078 L6.001,13.0078 Z" id="Fill-3" fill="#221F20"></path>
            </g>
        </g>
    </g>
</svg>