<?xml version="1.0" encoding="UTF-8" standalone="no"?>
<svg width="24px" height="24px" viewBox="0 0 24 24" version="1.1" xmlns="http://www.w3.org/2000/svg" xmlns:xlink="http://www.w3.org/1999/xlink">
    <!-- Generator: sketchtool 40 (33762) - http://www.bohemiancoding.com/sketch -->
    <title>checkup</title>
    <desc>Created with sketchtool.</desc>
    <defs></defs>
    <g id="Page-1" stroke="none" stroke-width="1" fill="none" fill-rule="evenodd">
        <g id="checkup">
            <g>
                <rect id="bounds" x="0" y="0" width="24" height="24"></rect>
                <path d="M16.5039,20 C14.5739,20 13.0039,18.43 13.0039,16.5 C13.0039,14.57 14.5739,13 16.5039,13 C18.4339,13 20.0039,14.57 20.0039,16.5 C20.0039,18.43 18.4339,20 16.5039,20 M12.2809,18.018 L5.9919,18.018 L5.9919,4 L16.0019,4 L16.0019,12.051 C15.6339,12.092 15.2789,12.17 14.9429,12.294 C14.8609,12.129 14.6959,12.014 14.4989,12.014 L7.4989,12.014 C7.2229,12.014 6.9989,12.237 6.9989,12.514 C6.9989,12.79 7.2229,13.014 7.4989,13.014 L13.6909,13.014 C13.0479,13.533 12.5549,14.218 12.2749,15.014 L7.4989,15.014 C7.2229,15.014 6.9989,15.237 6.9989,15.514 C6.9989,15.79 7.2229,16.014 7.4989,16.014 L12.0529,16.014 C12.0349,16.176 12.0039,16.333 12.0039,16.5 C12.0039,17.049 12.1169,17.568 12.2959,18.054 C12.2919,18.042 12.2859,18.03 12.2809,18.018 M17.0019,12.05 L17.0019,3.5 C17.0019,3.224 16.7769,3 16.5019,3 L5.4919,3 C5.2159,3 4.9919,3.224 4.9919,3.5 L4.9919,18.518 C4.9919,18.794 5.2159,19.018 5.4919,19.018 L12.7659,19.018 C12.6359,18.824 12.5319,18.615 12.4379,18.399 C13.1549,19.932 14.6999,21 16.5039,21 C18.9889,21 21.0039,18.985 21.0039,16.5 C21.0039,14.185 19.2499,12.301 17.0019,12.05" id="Fill-1" fill="#221F20"></path>
                <path d="M18.8643,15.0293 C18.6693,14.8343 18.3523,14.8343 18.1573,15.0293 L15.6813,17.5053 L14.6213,16.4443 C14.4253,16.2483 14.1093,16.2483 13.9133,16.4433 C13.7183,16.6383 13.7183,16.9553 13.9143,17.1513 L15.3283,18.5653 C15.5233,18.7603 15.8403,18.7603 16.0353,18.5653 L18.8643,15.7363 C19.0593,15.5413 19.0593,15.2243 18.8643,15.0293" id="Fill-3" fill="#221F20"></path>
                <path d="M7.499,7 L14.499,7 C14.775,7 14.999,6.776 14.999,6.5 C14.999,6.224 14.775,6 14.499,6 L7.499,6 C7.223,6 6.999,6.224 6.999,6.5 C6.999,6.776 7.223,7 7.499,7" id="Fill-5" fill="#221F20"></path>
                <path d="M7.499,10.0068 L14.499,10.0068 C14.775,10.0068 14.999,9.7828 14.999,9.5068 C14.999,9.2308 14.775,9.0068 14.499,9.0068 L7.499,9.0068 C7.223,9.0068 6.999,9.2308 6.999,9.5068 C6.999,9.7828 7.223,10.0068 7.499,10.0068" id="Fill-7" fill="#221F20"></path>
            </g>
        </g>
    </g>
</svg>