<?xml version="1.0" encoding="UTF-8" standalone="no"?>
<svg width="24px" height="24px" viewBox="0 0 24 24" version="1.1" xmlns="http://www.w3.org/2000/svg" xmlns:xlink="http://www.w3.org/1999/xlink">
    <!-- Generator: sketchtool 40 (33762) - http://www.bohemiancoding.com/sketch -->
    <title>clinic</title>
    <desc>Created with sketchtool.</desc>
    <defs></defs>
    <g id="Page-1" stroke="none" stroke-width="1" fill="none" fill-rule="evenodd">
        <g id="clinic">
            <g>
                <rect id="bounds" x="0" y="0" width="24" height="24"></rect>
                <path d="M7.5,12.5 L8.5,12.5 L8.5,11.5 L7.5,11.5 L7.5,12.5 Z M7,10.5 C6.724,10.5 6.5,10.724 6.5,11 L6.5,13 C6.5,13.276 6.724,13.5 7,13.5 L9,13.5 C9.276,13.5 9.5,13.276 9.5,13 L9.5,11 C9.5,10.724 9.276,10.5 9,10.5 L7,10.5 Z" id="Fill-1" fill="#221F20"></path>
                <path d="M11.5,12.5 L12.5,12.5 L12.5,11.5 L11.5,11.5 L11.5,12.5 Z M11,13.5 L13,13.5 C13.276,13.5 13.5,13.276 13.5,13 L13.5,11 C13.5,10.724 13.276,10.5 13,10.5 L11,10.5 C10.724,10.5 10.5,10.724 10.5,11 L10.5,13 C10.5,13.276 10.724,13.5 11,13.5 L11,13.5 Z" id="Fill-3" fill="#221F20"></path>
                <path d="M15.5,12.5 L16.5,12.5 L16.5,11.5 L15.5,11.5 L15.5,12.5 Z M15,13.5 L17,13.5 C17.276,13.5 17.5,13.276 17.5,13 L17.5,11 C17.5,10.724 17.276,10.5 17,10.5 L15,10.5 C14.724,10.5 14.5,10.724 14.5,11 L14.5,13 C14.5,13.276 14.724,13.5 15,13.5 L15,13.5 Z" id="Fill-4" fill="#221F20"></path>
                <path d="M11,6.5049 L11.5,6.5049 L11.5,7.0049 C11.5,7.2809 11.724,7.5049 12,7.5049 C12.276,7.5049 12.5,7.2809 12.5,7.0049 L12.5,6.5049 L13,6.5049 C13.276,6.5049 13.5,6.2809 13.5,6.0049 C13.5,5.7289 13.276,5.5049 13,5.5049 L12.5,5.5049 L12.5,5.0049 C12.5,4.7289 12.276,4.5049 12,4.5049 C11.724,4.5049 11.5,4.7289 11.5,5.0049 L11.5,5.5049 L11,5.5049 C10.724,5.5049 10.5,5.7289 10.5,6.0049 C10.5,6.2809 10.724,6.5049 11,6.5049" id="Fill-5" fill="#221F20"></path>
                <path d="M9,20 L11.5,20 L11.5,15.996 L9,15.996 L9,20 Z M12.5,20 L15,20 L15,15.996 L12.5,15.996 L12.5,20 Z M9.5,9.005 L14.5,9.005 C14.776,9.005 15,8.781 15,8.505 L15,6.004 L16.002,6.004 L16.002,7.494 C16.002,7.498 16,7.5 16,7.504 C16,7.712 16.127,7.89 16.306,7.965 C16.366,7.99 16.433,8.005 16.502,8.005 C16.504,8.005 16.505,8.004 16.507,8.004 L18.007,8.004 L18.007,20.019 L16,20.019 L16,15.496 C16,15.221 15.776,14.996 15.5,14.996 L8.5,14.996 C8.224,14.996 8,15.221 8,15.496 L8,20.019 L6.007,20.019 L6.007,8.004 L7.495,8.004 C7.497,8.004 7.498,8.005 7.5,8.005 C7.776,8.005 8,7.781 8,7.505 L8,6.004 L9,6.004 L9,8.505 C9,8.781 9.224,9.005 9.5,9.005 L9.5,9.005 Z M10,8.005 L14,8.005 L14,4.005 L10,4.005 L10,8.005 Z M19.007,7.513 C19.007,7.374 18.95,7.248 18.858,7.157 C18.768,7.063 18.642,7.004 18.5,7.004 L17.002,7.004 L17.002,5.505 L17.002,5.504 C17.002,5.228 16.778,5.004 16.502,5.004 L15,5.004 L15,3.505 C15,3.229 14.776,3.005 14.5,3.005 L9.5,3.005 C9.224,3.005 9,3.229 9,3.505 L9,5.004 L7.5,5.004 C7.225,5.004 7,5.228 7,5.504 L7,5.505 L7,7.004 L5.5,7.004 C5.225,7.004 5,7.229 5,7.504 C5,7.516 5.006,7.526 5.007,7.538 L5.007,20.513 C5.007,20.514 5.008,20.515 5.008,20.516 C5.008,20.517 5.007,20.518 5.007,20.519 C5.007,20.795 5.229,21.019 5.507,21.019 L18.507,21.019 C18.782,21.019 19.007,20.795 19.007,20.519 C19.007,20.518 19.006,20.517 19.006,20.516 C19.006,20.515 19.007,20.514 19.007,20.513 L19.007,7.513 Z" id="Fill-6" fill="#221F20"></path>
            </g>
        </g>
    </g>
</svg>