<?xml version="1.0" encoding="UTF-8" standalone="no"?>
<svg width="24px" height="24px" viewBox="0 0 24 24" version="1.1" xmlns="http://www.w3.org/2000/svg" xmlns:xlink="http://www.w3.org/1999/xlink">
    <!-- Generator: sketchtool 40 (33762) - http://www.bohemiancoding.com/sketch -->
    <title>clock</title>
    <desc>Created with sketchtool.</desc>
    <defs></defs>
    <g id="Page-1" stroke="none" stroke-width="1" fill="none" fill-rule="evenodd">
        <g id="clock">
            <g>
                <rect id="bounds" x="0" y="0" width="24" height="24"></rect>
                <path d="M12,3 C7.029,3 3,7.029 3,12 C3,16.971 7.029,21 12,21 C16.971,21 21,16.971 21,12 C21,7.029 16.971,3 12,3 M12,4 C16.411,4 20,7.589 20,12 C20,16.411 16.411,20 12,20 C7.589,20 4,16.411 4,12 C4,7.589 7.589,4 12,4" id="Fill-1" fill="#221F20"></path>
                <path d="M15.1816,14.4219 L12.4996,11.7399 L12.4996,5.9379 C12.4996,5.6609 12.2766,5.4379 11.9996,5.4379 C11.7236,5.4379 11.4996,5.6609 11.4996,5.9379 L11.4996,11.9379 C11.4996,11.9399 11.5006,11.9409 11.5006,11.9429 C11.4996,12.0719 11.5476,12.2019 11.6466,12.3009 L14.4746,15.1289 C14.6696,15.3239 14.9866,15.3239 15.1816,15.1289 C15.3766,14.9339 15.3766,14.6169 15.1816,14.4219" id="Fill-3" fill="#221F20"></path>
            </g>
        </g>
    </g>
</svg>