<?xml version="1.0" encoding="UTF-8" standalone="no"?>
<svg width="24px" height="24px" viewBox="0 0 24 24" version="1.1" xmlns="http://www.w3.org/2000/svg" xmlns:xlink="http://www.w3.org/1999/xlink">
    <!-- Generator: sketchtool 40 (33762) - http://www.bohemiancoding.com/sketch -->
    <title>close</title>
    <desc>Created with sketchtool.</desc>
    <defs></defs>
    <g id="Page-1" stroke="none" stroke-width="1" fill="none" fill-rule="evenodd">
        <g id="close">
            <g>
                <rect id="bounds" x="0" y="0" width="24" height="24"></rect>
                <path d="M12.7075,12 L18.3645,6.343 C18.5595,6.147 18.5595,5.831 18.3645,5.636 C18.1685,5.44 17.8525,5.44 17.6565,5.636 L11.9995,11.292 L6.3435,5.636 C6.1475,5.44 5.8315,5.44 5.6355,5.636 C5.4405,5.831 5.4405,6.147 5.6355,6.343 L11.2925,12 L5.6355,17.656 C5.4405,17.852 5.4405,18.168 5.6365,18.364 C5.8315,18.56 6.1475,18.56 6.3435,18.364 L11.9995,12.707 L17.6565,18.364 C17.8525,18.56 18.1685,18.56 18.3635,18.364 C18.5595,18.168 18.5595,17.852 18.3645,17.656 L12.7075,12 Z" id="Fill-1" fill="#020302"></path>
            </g>
        </g>
    </g>
</svg>