<?xml version="1.0" encoding="UTF-8" standalone="no"?>
<svg width="24px" height="24px" viewBox="0 0 24 24" version="1.1" xmlns="http://www.w3.org/2000/svg" xmlns:xlink="http://www.w3.org/1999/xlink">
    <!-- Generator: sketchtool 40 (33762) - http://www.bohemiancoding.com/sketch -->
    <title>code</title>
    <desc>Created with sketchtool.</desc>
    <defs></defs>
    <g id="Page-1" stroke="none" stroke-width="1" fill="none" fill-rule="evenodd">
        <g id="code">
            <g>
                <rect id="bounds" x="0" y="0" width="24" height="24"></rect>
                <path d="M20.8623,11.6563 L14.4993,5.2933 C14.3023,5.0973 13.9873,5.0973 13.7923,5.2933 C13.5963,5.4883 13.5953,5.8043 13.7923,6.0003 L19.8013,12.0103 L13.7923,18.0203 C13.5963,18.2163 13.5963,18.5323 13.7923,18.7273 C13.9873,18.9233 14.3033,18.9233 14.4993,18.7273 L20.8623,12.3633 C21.0573,12.1683 21.0573,11.8513 20.8623,11.6563" id="Fill-1" fill="#221F20"></path>
                <path d="M10.208,18.0195 L4.198,12.0095 L10.208,5.9985 C10.403,5.8035 10.403,5.4875 10.208,5.2915 C10.013,5.0965 9.696,5.0965 9.501,5.2915 L3.138,11.6565 C2.942,11.8515 2.942,12.1675 3.138,12.3635 L9.501,18.7265 C9.697,18.9215 10.013,18.9215 10.208,18.7265 C10.403,18.5315 10.404,18.2145 10.208,18.0195" id="Fill-3" fill="#221F20"></path>
            </g>
        </g>
    </g>
</svg>