<?xml version="1.0" encoding="UTF-8" standalone="no"?>
<svg width="24px" height="24px" viewBox="0 0 24 24" version="1.1" xmlns="http://www.w3.org/2000/svg" xmlns:xlink="http://www.w3.org/1999/xlink">
    <!-- Generator: sketchtool 40 (33762) - http://www.bohemiancoding.com/sketch -->
    <title>copy</title>
    <desc>Created with sketchtool.</desc>
    <defs></defs>
    <g id="Page-1" stroke="none" stroke-width="1" fill="none" fill-rule="evenodd">
        <g id="copy">
            <g>
                <rect id="bounds" x="0" y="0" width="24" height="24"></rect>
                <path d="M20,20.5 L20,20 L20.001,20 L20,20.5 Z M19.999,20 L8,20 L8,8 L20,8 L19.999,20 Z M7,8 L7,16 L4,16 L4,4 L16,4 L16,7 L8,7 C7.448,7 7,7.448 7,8 L7,8 Z M20,7 L17,7 L17,4 C17,3.448 16.552,3 16,3 L4,3 C3.448,3 3,3.448 3,4 L3,16 C3,16.552 3.448,17 4,17 L7,17 L7,20 C7,20.552 7.448,21 8,21 L20,21 C20.552,21 21,20.552 21,20 L21,8 C21,7.448 20.552,7 20,7 L20,7 Z" id="Fill-1" fill="#221F20"></path>
            </g>
        </g>
    </g>
</svg>