<?xml version="1.0" encoding="UTF-8" standalone="no"?>
<svg width="24px" height="24px" viewBox="0 0 24 24" version="1.1" xmlns="http://www.w3.org/2000/svg" xmlns:xlink="http://www.w3.org/1999/xlink">
    <!-- Generator: sketchtool 40 (33762) - http://www.bohemiancoding.com/sketch -->
    <title>credit-card</title>
    <desc>Created with sketchtool.</desc>
    <defs></defs>
    <g id="Page-1" stroke="none" stroke-width="1" fill="none" fill-rule="evenodd">
        <g id="credit-card">
            <g>
                <rect id="bounds" x="0" y="0" width="24" height="24"></rect>
                <path d="M4,8.007 L20,8.007 L20,7 L4,7 L4,8.007 Z M4,17 L20,17 L20,10.009 L4,10.009 L4,17 Z M20.5,6 L3.5,6 C3.224,6 3,6.224 3,6.5 L3,8.007 L3,10.009 L3,17.5 C3,17.776 3.224,18 3.5,18 L20.5,18 C20.776,18 21,17.776 21,17.5 L21,10.009 L21,8.007 L21,6.5 C21,6.224 20.776,6 20.5,6 L20.5,6 Z" id="Fill-1" fill="#221F20"></path>
                <path d="M5,15.5088 C5,15.7848 5.224,16.0088 5.5,16.0088 L8.5,16.0088 C8.776,16.0088 9,15.7848 9,15.5088 C9,15.2328 8.776,15.0088 8.5,15.0088 L5.5,15.0088 C5.224,15.0088 5,15.2328 5,15.5088" id="Fill-3" fill="#221F20"></path>
                <path d="M10.5,16.0088 L13.5,16.0088 C13.776,16.0088 14,15.7848 14,15.5088 C14,15.2328 13.776,15.0088 13.5,15.0088 L10.5,15.0088 C10.224,15.0088 10,15.2328 10,15.5088 C10,15.7848 10.224,16.0088 10.5,16.0088" id="Fill-4" fill="#221F20"></path>
                <path d="M15.5,16.0088 L18.5,16.0088 C18.776,16.0088 19,15.7848 19,15.5088 C19,15.2328 18.776,15.0088 18.5,15.0088 L15.5,15.0088 C15.224,15.0088 15,15.2328 15,15.5088 C15,15.7848 15.224,16.0088 15.5,16.0088" id="Fill-5" fill="#221F20"></path>
                <path d="M5.993,13.034 L6.993,13.034 L6.993,12.034 L5.993,12.034 L5.993,13.034 Z M5.493,14.034 L7.493,14.034 C7.77,14.034 7.993,13.811 7.993,13.534 L7.993,11.534 C7.993,11.258 7.77,11.034 7.493,11.034 L5.493,11.034 C5.217,11.034 4.993,11.258 4.993,11.534 L4.993,13.534 C4.993,13.811 5.217,14.034 5.493,14.034 L5.493,14.034 Z" id="Fill-6" fill="#221F20"></path>
            </g>
        </g>
    </g>
</svg>