<?xml version="1.0" encoding="UTF-8" standalone="no"?>
<svg width="24px" height="24px" viewBox="0 0 24 24" version="1.1" xmlns="http://www.w3.org/2000/svg" xmlns:xlink="http://www.w3.org/1999/xlink">
    <!-- Generator: sketchtool 40 (33762) - http://www.bohemiancoding.com/sketch -->
    <title>delete</title>
    <desc>Created with sketchtool.</desc>
    <defs></defs>
    <g id="Page-1" stroke="none" stroke-width="1" fill="none" fill-rule="evenodd">
        <g id="delete">
            <g>
                <rect id="bounds" x="0" y="0" width="24" height="24"></rect>
                <path d="M14.502,19.0078 C14.777,19.0078 15.002,18.7828 15.002,18.5078 L15.002,9.5078 C15.002,9.2308 14.777,9.0078 14.502,9.0078 C14.225,9.0078 14.002,9.2308 14.002,9.5078 L14.002,18.5078 C14.002,18.7828 14.225,19.0078 14.502,19.0078 L14.502,19.0078 Z" id="Fill-1" fill="#221F20"></path>
                <path d="M9.4971,19.0078 C9.7731,19.0078 9.9971,18.7828 9.9971,18.5078 L9.9971,9.5078 C9.9971,9.2308 9.7731,9.0078 9.4971,9.0078 C9.2211,9.0078 8.9971,9.2308 8.9971,9.5078 L8.9971,18.5078 C8.9971,18.7828 9.2211,19.0078 9.4971,19.0078" id="Fill-3" fill="#221F20"></path>
                <path d="M6.994,20.019 L17.002,20.019 L17.002,8.01 L6.994,8.01 L6.994,20.019 Z M10.998,5.004 L13.002,5.004 L13.002,4.002 L10.998,4.002 L10.998,5.004 Z M6,7.01 L18,7.01 L18,6.004 L6,6.004 L6,7.01 Z M18.5,5.001 C18.495,5.001 18.49,5.004 18.485,5.004 L14.002,5.004 L14.002,3.502 C14.002,3.226 13.777,3.002 13.502,3.002 L13.5,3.002 L13.498,3.002 L10.498,3.002 C10.222,3.002 9.998,3.226 9.998,3.502 L9.998,5.004 L5.515,5.004 C5.51,5.004 5.505,5.001 5.5,5.001 C5.224,5.001 5,5.225 5,5.501 L5,7.501 C5,7.502 5.001,7.504 5.001,7.505 C5.001,7.507 5,7.508 5,7.51 C5,7.786 5.224,8.01 5.5,8.01 L5.994,8.01 L5.994,20.51 C5.994,20.583 6.012,20.651 6.039,20.713 C6.115,20.893 6.293,21.019 6.5,21.019 L17.5,21.019 C17.71,21.019 17.889,20.889 17.963,20.705 C17.988,20.645 18.002,20.579 18.002,20.51 L18.002,8.01 L18.5,8.01 C18.776,8.01 19,7.786 19,7.51 C19,7.508 18.999,7.507 18.999,7.505 C18.999,7.504 19,7.502 19,7.501 L19,5.501 C19,5.225 18.776,5.001 18.5,5.001 L18.5,5.001 Z" id="Fill-5" fill="#221F20"></path>
            </g>
        </g>
    </g>
</svg>