<?xml version="1.0" encoding="UTF-8" standalone="no"?>
<svg width="24px" height="24px" viewBox="0 0 24 24" version="1.1" xmlns="http://www.w3.org/2000/svg" xmlns:xlink="http://www.w3.org/1999/xlink">
    <!-- Generator: sketchtool 40 (33762) - http://www.bohemiancoding.com/sketch -->
    <title>doctor</title>
    <desc>Created with sketchtool.</desc>
    <defs></defs>
    <g id="Page-1" stroke="none" stroke-width="1" fill="none" fill-rule="evenodd">
        <g id="doctor">
            <g>
                <rect id="bounds" x="0" y="0" width="24" height="24"></rect>
                <path d="M5,20.0205 C5,16.9945 6.924,14.4245 9.612,13.4475 C10.335,13.7975 11.144,13.9995 12,13.9995 C12.856,13.9995 13.664,13.7975 14.388,13.4475 C17.076,14.4245 19,16.9945 19,20.0205 L5,20.0205 Z M7.5,8.4995 C7.5,8.3225 7.532,8.1545 7.552,7.9835 C7.583,7.9895 7.612,8.0015 7.646,8.0015 L9.548,8.0015 C9.78,9.1455 10.789,10.0045 12,10.0045 C13.211,10.0045 14.22,9.1455 14.452,8.0015 L16.271,8.0015 C16.333,8.0015 16.391,7.9875 16.446,7.9665 C16.467,8.1435 16.5,8.3175 16.5,8.4995 C16.5,10.6705 14.962,12.4815 12.917,12.9055 L12.896,12.9095 C12.606,12.9685 12.307,12.9995 12,12.9995 C11.693,12.9995 11.394,12.9685 11.104,12.9095 L11.083,12.9055 C9.038,12.4815 7.5,10.6705 7.5,8.4995 L7.5,8.4995 Z M13.502,7.5015 C13.502,8.3315 12.828,9.0045 12,9.0045 C11.172,9.0045 10.498,8.3315 10.498,7.5015 C10.498,6.6735 11.172,5.9995 12,5.9995 C12.828,5.9995 13.502,6.6735 13.502,7.5015 L13.502,7.5015 Z M12,3.9995 C13.957,3.9995 15.606,5.2575 16.225,7.0015 L14.452,7.0015 C14.22,5.8605 13.21,4.9995 12,4.9995 C10.79,4.9995 9.78,5.8605 9.548,7.0015 L7.775,7.0015 C8.394,5.2575 10.043,3.9995 12,3.9995 L12,3.9995 Z M15.419,12.8005 C16.685,11.7915 17.5,10.2405 17.5,8.4995 C17.5,5.4665 15.033,2.9995 12,2.9995 C8.967,2.9995 6.5,5.4665 6.5,8.4995 C6.5,10.2405 7.315,11.7915 8.581,12.8005 C5.878,14.0855 4,16.8335 4,20.0205 C4,20.5725 4.447,21.0205 5,21.0205 L19,21.0205 C19.553,21.0205 20,20.5725 20,20.0205 C20,16.8335 18.122,14.0855 15.419,12.8005 L15.419,12.8005 Z" id="Fill-1" fill="#221F20"></path>
            </g>
        </g>
    </g>
</svg>