<?xml version="1.0" encoding="UTF-8" standalone="no"?>
<svg width="24px" height="24px" viewBox="0 0 24 24" version="1.1" xmlns="http://www.w3.org/2000/svg" xmlns:xlink="http://www.w3.org/1999/xlink">
    <!-- Generator: sketchtool 40 (33762) - http://www.bohemiancoding.com/sketch -->
    <title>downgrade</title>
    <desc>Created with sketchtool.</desc>
    <defs></defs>
    <g id="Page-1" stroke="none" stroke-width="1" fill="none" fill-rule="evenodd">
        <g id="downgrade">
            <g>
                <rect id="bounds" x="0" y="0" width="24" height="24"></rect>
                <path d="M15.8545,18.9336 C14.9985,18.4666 14.2805,17.9476 13.7315,17.3986 C12.6685,16.2986 10.9855,14.2636 9.7615,12.7496 C9.5715,12.5156 9.2865,12.3786 8.9845,12.3786 L6.3705,12.3796 L5.6305,11.2716 L6.9425,10.9166 C7.2255,10.8396 7.4615,10.6426 7.5865,10.3766 C7.6495,10.2426 7.6815,10.0976 7.6815,9.9516 C7.6815,9.8106 7.6515,9.6676 7.5905,9.5376 L7.3625,9.0356 C7.4275,8.9036 7.6105,8.6106 8.1055,8.1136 C8.6055,7.6446 8.8835,7.4646 9.0145,7.3966 L9.4915,7.6126 C9.6865,7.7016 9.9055,7.7246 10.1145,7.6796 C10.1575,7.6696 10.2195,7.6526 10.2605,7.6366 C10.5695,7.5276 10.8045,7.2726 10.8895,6.9556 L11.2405,5.6606 L12.3485,6.3986 L12.3475,8.9206 L12.3475,8.9216 C12.3475,9.2206 12.4815,9.5036 12.7115,9.6936 C14.9205,11.5116 16.4835,12.8746 17.3555,13.7476 C17.9585,14.3506 18.4795,15.0956 18.8365,15.8826 C19.6355,17.4796 19.8585,19.0976 19.9185,19.9516 C19.0775,19.8966 17.4675,19.6916 15.8545,18.9336 M19.7305,15.4356 C19.3415,14.5786 18.7505,13.7266 18.0625,13.0396 C17.1685,12.1466 15.5835,10.7616 13.3475,8.9216 L13.3485,6.0786 L13.3485,6.0756 C13.3485,5.9436 13.2825,5.8196 13.1695,5.7446 L11.1015,4.3656 C10.9945,4.2946 10.8595,4.2796 10.7385,4.3246 C10.6185,4.3696 10.5265,4.4696 10.4925,4.5956 L9.9245,6.6956 C9.9175,6.6976 9.9115,6.7006 9.9045,6.7016 L9.2655,6.4126 C8.9065,6.2326 8.3245,6.5376 7.4215,7.3826 C6.7015,8.1056 6.3335,8.6736 6.3335,9.0706 C6.3335,9.1426 6.3475,9.2086 6.3755,9.2816 L6.6815,9.9516 L4.5665,10.5236 C4.4405,10.5576 4.3405,10.6476 4.2945,10.7686 C4.2775,10.8146 4.2695,10.8616 4.2685,10.9106 C4.2695,10.9886 4.2925,11.0646 4.3355,11.1326 L5.7165,13.2016 C5.7915,13.3126 5.9165,13.3786 6.0495,13.3796 L8.9845,13.3786 C10.2545,14.9506 11.9415,16.9866 13.0115,18.0936 C13.6445,18.7266 14.4415,19.3056 15.4025,19.8266 C17.9415,21.0276 20.4455,20.9726 20.5505,20.9686 C20.7625,20.9636 20.9335,20.7926 20.9395,20.5796 L20.9405,20.4956 C20.9395,20.0546 20.8825,17.7346 19.7305,15.4356" id="Fill-1" fill="#221F20"></path>
                <path d="M16.6104,16.6396 C16.2194,17.0296 15.5854,17.0296 15.1954,16.6396 C14.8174,16.2616 14.8174,15.6036 15.1954,15.2246 C15.5854,14.8356 16.2194,14.8356 16.6094,15.2246 C16.7984,15.4136 16.9034,15.6656 16.9034,15.9336 C16.9034,16.2006 16.7984,16.4516 16.6104,16.6396 M14.4884,14.5176 C14.1104,14.8966 13.9024,15.3986 13.9024,15.9326 C13.9024,16.4666 14.1104,16.9686 14.4884,17.3466 C15.2684,18.1266 16.5384,18.1266 17.3174,17.3466 C18.0724,16.5916 18.0734,15.2736 17.3164,14.5176 C16.5364,13.7386 15.2684,13.7386 14.4884,14.5176" id="Fill-3" fill="#221F20"></path>
                <path d="M5.3584,8.1885 C5.5784,8.3555 5.8984,8.3105 6.0564,8.0915 C6.2234,7.8725 6.1804,7.5585 5.9624,7.3915 C5.9434,7.3775 4.3294,6.1195 4.0684,4.0875 C6.0994,4.3485 7.3584,5.9625 7.3734,5.9805 C7.5394,6.2005 7.8524,6.2435 8.0724,6.0765 C8.2914,5.9175 8.3364,5.5975 8.1704,5.3765 C8.0974,5.2825 6.3804,3.0505 3.5204,3.0495 C3.3884,3.0495 3.2694,3.1035 3.1794,3.1875 L3.1774,3.1855 C3.1754,3.1875 3.1744,3.1905 3.1724,3.1925 C3.1714,3.1935 3.1684,3.1955 3.1674,3.1965 L3.1694,3.1985 C3.0844,3.2895 3.0304,3.4085 3.0314,3.5395 C3.0314,6.4005 5.2634,8.1175 5.3584,8.1885" id="Fill-5" fill="#221F20"></path>
            </g>
        </g>
    </g>
</svg>