<?xml version="1.0" encoding="UTF-8" standalone="no"?>
<svg width="24px" height="24px" viewBox="0 0 24 24" version="1.1" xmlns="http://www.w3.org/2000/svg" xmlns:xlink="http://www.w3.org/1999/xlink">
    <!-- Generator: sketchtool 40 (33762) - http://www.bohemiancoding.com/sketch -->
    <title>drop</title>
    <desc>Created with sketchtool.</desc>
    <defs></defs>
    <g id="Page-1" stroke="none" stroke-width="1" fill="none" fill-rule="evenodd">
        <g id="drop">
            <g>
                <rect id="bounds" x="0" y="0" width="24" height="24"></rect>
                <path d="M12,20 C8.844,20 6.275,17.549 6.275,14.535 C6.275,13.548 6.554,12.581 7.061,11.769 L11.996,4.437 L16.905,11.716 C17.441,12.57 17.725,13.545 17.725,14.535 C17.725,17.549 15.156,20 12,20 M17.752,11.184 L12.364,3.195 C12.281,3.073 12.145,3 11.995,3 C11.849,3 11.709,3.073 11.626,3.196 L6.231,11.21 C5.606,12.209 5.275,13.359 5.275,14.535 C5.275,18.1 8.291,21 12,21 C15.709,21 18.725,18.1 18.725,14.535 C18.725,13.356 18.391,12.201 17.752,11.184" id="Fill-1" fill="#221F20"></path>
                <path d="M12,17.6875 C10.089,17.6875 8.534,16.2015 8.534,14.3745 C8.534,14.0985 8.311,13.8745 8.034,13.8745 C7.758,13.8745 7.534,14.0985 7.534,14.3745 C7.534,16.7525 9.537,18.6875 12,18.6875 C12.276,18.6875 12.5,18.4635 12.5,18.1875 C12.5,17.9115 12.276,17.6875 12,17.6875" id="Fill-3" fill="#221F20"></path>
            </g>
        </g>
    </g>
</svg>