<?xml version="1.0" encoding="UTF-8" standalone="no"?>
<svg width="24px" height="24px" viewBox="0 0 24 24" version="1.1" xmlns="http://www.w3.org/2000/svg" xmlns:xlink="http://www.w3.org/1999/xlink">
    <!-- Generator: sketchtool 40 (33762) - http://www.bohemiancoding.com/sketch -->
    <title>edit</title>
    <desc>Created with sketchtool.</desc>
    <defs></defs>
    <g id="Page-1" stroke="none" stroke-width="1" fill="none" fill-rule="evenodd">
        <g id="edit">
            <g>
                <rect id="bounds" x="0" y="0" width="24" height="24"></rect>
                <path d="M8.7705,18.0518 L5.9435,15.2258 L13.7195,7.4498 L16.5465,10.2768 L8.7705,18.0518 Z M5.4905,16.1878 L7.8085,18.5068 L4.6075,19.3898 L5.4905,16.1878 Z M17.2535,9.5698 L14.4265,6.7428 L16.5485,4.6198 L19.3765,7.4478 L17.2535,9.5698 Z M20.4445,7.8088 C20.6405,7.6138 20.6405,7.2968 20.4445,7.1018 L20.4385,7.0948 C20.4375,7.0948 20.4375,7.0938 20.4375,7.0938 C20.4375,7.0938 20.4365,7.0938 20.4365,7.0928 L16.9095,3.5668 C16.9095,3.5658 16.9085,3.5658 16.9075,3.5648 C16.9055,3.5628 16.9055,3.5608 16.9035,3.5588 C16.7075,3.3638 16.3915,3.3638 16.1955,3.5588 L4.8965,14.8588 C4.8915,14.8638 4.8855,14.8638 4.8805,14.8688 C4.8695,14.8798 4.8655,14.8938 4.8565,14.9058 C4.8455,14.9178 4.8385,14.9318 4.8295,14.9458 C4.7995,14.9888 4.7755,15.0318 4.7605,15.0808 C4.7595,15.0848 4.7565,15.0878 4.7555,15.0918 L3.4265,19.9118 C3.3785,20.0878 3.4355,20.2618 3.5515,20.3848 C3.5595,20.3958 3.5685,20.4048 3.5785,20.4158 C3.5905,20.4268 3.6015,20.4368 3.6155,20.4468 C3.7375,20.5618 3.9105,20.6188 4.0835,20.5708 L8.9035,19.2418 C8.9115,19.2398 8.9165,19.2348 8.9245,19.2318 C8.9605,19.2198 8.9925,19.2008 9.0245,19.1808 C9.0505,19.1648 9.0765,19.1518 9.0985,19.1318 C9.1065,19.1248 9.1165,19.1228 9.1235,19.1148 L17.5695,10.6698 C17.5835,10.6578 17.6015,10.6528 17.6155,10.6388 C17.6285,10.6248 17.6345,10.6078 17.6455,10.5928 L20.3995,7.8388 C20.4145,7.8268 20.4315,7.8218 20.4445,7.8088 L20.4445,7.8088 Z" id="Fill-1" fill="#020302"></path>
            </g>
        </g>
    </g>
</svg>