<?xml version="1.0" encoding="UTF-8" standalone="no"?>
<svg width="24px" height="24px" viewBox="0 0 24 24" version="1.1" xmlns="http://www.w3.org/2000/svg" xmlns:xlink="http://www.w3.org/1999/xlink">
    <!-- Generator: sketchtool 40 (33762) - http://www.bohemiancoding.com/sketch -->
    <title>export</title>
    <desc>Created with sketchtool.</desc>
    <defs></defs>
    <g id="Page-1" stroke="none" stroke-width="1" fill="none" fill-rule="evenodd">
        <g id="export">
            <g>
                <rect id="bounds" x="0" y="0" width="24" height="24"></rect>
                <path d="M20.8604,3.1475 C20.7694,3.0565 20.6444,3.0005 20.5064,3.0005 L15.5064,3.0005 C15.2294,3.0005 15.0064,3.2235 15.0064,3.5005 C15.0064,3.7765 15.2294,4.0005 15.5064,4.0005 L19.2944,4.0005 L12.3684,10.9245 C12.1734,11.1205 12.1734,11.4365 12.3694,11.6315 C12.5654,11.8275 12.8814,11.8275 13.0764,11.6315 L20.0094,4.6995 L20.0094,8.5025 C20.0094,8.7795 20.2334,9.0025 20.5094,9.0025 C20.7854,9.0025 21.0094,8.7795 21.0094,8.5025 L21.0094,3.5025 C21.0094,3.3635 20.9524,3.2385 20.8604,3.1475" id="Fill-1" fill="#221F20"></path>
                <path d="M12.9961,5.5049 C12.9961,5.7809 12.7721,6.0049 12.4961,6.0049 L3.4961,6.0049 C3.2201,6.0049 2.9961,5.7809 2.9961,5.5049 C2.9961,5.2289 3.2201,5.0049 3.4961,5.0049 L12.4961,5.0049 C12.7721,5.0049 12.9961,5.2289 12.9961,5.5049" id="Fill-3" fill="#221F20"></path>
                <path d="M18.5,21.0146 C18.224,21.0146 18,20.7906 18,20.5146 L18,11.5146 C18,11.2386 18.224,11.0146 18.5,11.0146 C18.776,11.0146 19,11.2386 19,11.5146 L19,20.5146 C19,20.7906 18.776,21.0146 18.5,21.0146" id="Fill-5" fill="#221F20"></path>
                <path d="M18.999,20.5186 C18.999,20.7946 18.775,21.0186 18.499,21.0186 L3.499,21.0186 C3.223,21.0186 2.999,20.7946 2.999,20.5186 C2.999,20.2426 3.223,20.0186 3.499,20.0186 L18.499,20.0186 C18.775,20.0186 18.999,20.2426 18.999,20.5186" id="Fill-7" fill="#221F20"></path>
                <path d="M3.5,5.0117 C3.776,5.0117 4,5.2357 4,5.5117 L4,20.5117 C4,20.7877 3.776,21.0117 3.5,21.0117 C3.224,21.0117 3,20.7877 3,20.5117 L3,5.5117 C3,5.2357 3.224,5.0117 3.5,5.0117" id="Fill-9" fill="#221F20"></path>
            </g>
        </g>
    </g>
</svg>