<?xml version="1.0" encoding="UTF-8" standalone="no"?>
<svg width="24px" height="24px" viewBox="0 0 24 24" version="1.1" xmlns="http://www.w3.org/2000/svg" xmlns:xlink="http://www.w3.org/1999/xlink">
    <!-- Generator: sketchtool 40 (33762) - http://www.bohemiancoding.com/sketch -->
    <title>feedback</title>
    <desc>Created with sketchtool.</desc>
    <defs></defs>
    <g id="Page-1" stroke="none" stroke-width="1" fill="none" fill-rule="evenodd">
        <g id="feedback">
            <g>
                <rect id="bounds" x="0" y="0" width="24" height="24"></rect>
                <path d="M4,6.0195 L4,17.0195 L5.994,17.0195 C6.271,17.0195 6.494,17.2435 6.494,17.5195 L6.494,19.3155 L8.651,17.1655 C8.745,17.0715 8.871,17.0195 9.004,17.0195 L20,17.0195 L20,6.0195 L4,6.0195 Z M5.994,21.0195 C5.93,21.0195 5.864,21.0065 5.803,20.9815 C5.616,20.9035 5.494,20.7215 5.494,20.5195 L5.494,18.0195 L4,18.0195 C3.448,18.0195 3,17.5705 3,17.0195 L3,6.0195 C3,5.4685 3.448,5.0195 4,5.0195 L20,5.0195 C20.552,5.0195 21,5.4685 21,6.0195 L21,17.0195 C21,17.5705 20.552,18.0195 20,18.0195 L9.211,18.0195 L6.347,20.8735 C6.252,20.9685 6.124,21.0195 5.994,21.0195 L5.994,21.0195 Z" id="Fill-1" fill="#221F20"></path>
                <path d="M18.0059,8.5078 C18.0059,8.7838 17.7819,9.0078 17.5059,9.0078 L6.4939,9.0078 C6.2179,9.0078 5.9939,8.7838 5.9939,8.5078 L5.9939,8.5068 C5.9939,8.2308 6.2179,8.0068 6.4939,8.0068 L17.5059,8.0068 C17.7819,8.0068 18.0059,8.2308 18.0059,8.5068 L18.0059,8.5078 Z" id="Fill-3" fill="#221F20"></path>
                <path d="M18.0059,11.5107 C18.0059,11.7867 17.7819,12.0107 17.5059,12.0107 L6.4939,12.0107 C6.2179,12.0107 5.9939,11.7867 5.9939,11.5107 L5.9939,11.5097 C5.9939,11.2337 6.2179,11.0097 6.4939,11.0097 L17.5059,11.0097 C17.7819,11.0097 18.0059,11.2337 18.0059,11.5097 L18.0059,11.5107 Z" id="Fill-5" fill="#221F20"></path>
                <path d="M15.0137,14.5137 C15.0137,14.7897 14.7897,15.0137 14.5137,15.0137 L6.4937,15.0137 C6.2177,15.0137 5.9937,14.7897 5.9937,14.5137 L5.9937,14.5127 C5.9937,14.2367 6.2177,14.0127 6.4937,14.0127 L14.5137,14.0127 C14.7897,14.0127 15.0137,14.2367 15.0137,14.5127 L15.0137,14.5137 Z" id="Fill-7" fill="#221F20"></path>
            </g>
        </g>
    </g>
</svg>