<?xml version="1.0" encoding="UTF-8" standalone="no"?>
<svg width="24px" height="24px" viewBox="0 0 24 24" version="1.1" xmlns="http://www.w3.org/2000/svg" xmlns:xlink="http://www.w3.org/1999/xlink">
    <!-- Generator: sketchtool 40 (33762) - http://www.bohemiancoding.com/sketch -->
    <title>flag</title>
    <desc>Created with sketchtool.</desc>
    <defs></defs>
    <g id="Page-1" stroke="none" stroke-width="1" fill="none" fill-rule="evenodd">
        <g id="flag">
            <g>
                <rect id="bounds" x="0" y="0" width="24" height="24"></rect>
                <path d="M18.9395,12.833 C18.4075,13.015 17.1295,13.361 15.5235,13.361 C14.3985,13.361 13.3495,13.187 12.4045,12.846 C11.3035,12.446 10.0795,12.244 8.7675,12.244 C7.5965,12.244 6.6075,12.405 6.0005,12.535 L6.0005,9.514 L6.0005,4.319 C6.5125,4.198 7.5375,4.002 8.7675,4.002 C9.9625,4.002 11.0725,4.185 12.0645,4.543 C13.1185,4.925 14.2825,5.119 15.5235,5.119 C16.9445,5.119 18.1785,4.864 18.9395,4.64 L18.9395,12.833 Z M19.6925,3.497 C19.5405,3.407 19.3505,3.403 19.1965,3.49 C19.0535,3.568 17.5495,4.119 15.5235,4.119 C14.3985,4.119 13.3495,3.945 12.4045,3.604 C11.3035,3.204 10.0795,3.002 8.7675,3.002 C6.8435,3.002 5.4125,3.437 5.3525,3.455 C5.1435,3.52 5.0005,3.713 5.0005,3.933 L5.0005,9.514 L5.0005,13.175 L5.0005,20.514 C5.0005,20.79 5.2235,21.014 5.5005,21.014 C5.7765,21.014 6.0005,20.79 6.0005,20.514 L6.0005,13.562 C6.5085,13.441 7.5275,13.244 8.7675,13.244 C9.9625,13.244 11.0725,13.427 12.0645,13.785 C13.1185,14.167 14.2825,14.361 15.5235,14.361 C17.6365,14.361 19.3355,13.8 19.6825,13.605 C19.8415,13.518 19.9395,13.351 19.9395,13.169 L19.9395,3.927 C19.9395,3.75 19.8455,3.587 19.6925,3.497 L19.6925,3.497 Z" id="Fill-1" fill="#221F20"></path>
            </g>
        </g>
    </g>
</svg>