<?xml version="1.0" encoding="UTF-8" standalone="no"?>
<svg width="24px" height="24px" viewBox="0 0 24 24" version="1.1" xmlns="http://www.w3.org/2000/svg" xmlns:xlink="http://www.w3.org/1999/xlink">
    <!-- Generator: sketchtool 40 (33762) - http://www.bohemiancoding.com/sketch -->
    <title>gender-girl</title>
    <desc>Created with sketchtool.</desc>
    <defs></defs>
    <g id="Page-1" stroke="none" stroke-width="1" fill="none" fill-rule="evenodd">
        <g id="gender-girl">
            <g>
                <rect id="bounds" x="0" y="0" width="24" height="24"></rect>
                <path d="M8.4961,14.0117 C8.7721,14.0117 8.9961,13.7877 8.9961,13.5117 L8.9961,12.5117 C8.9961,12.2357 8.7721,12.0117 8.4961,12.0117 C8.2201,12.0117 7.9961,12.2357 7.9961,12.5117 L7.9961,13.5117 C7.9961,13.7877 8.2201,14.0117 8.4961,14.0117" id="Fill-1" fill="#221F20"></path>
                <path d="M15.3711,14.0117 C15.6471,14.0117 15.8711,13.7877 15.8711,13.5117 L15.8711,12.5117 C15.8711,12.2357 15.6471,12.0117 15.3711,12.0117 C15.0951,12.0117 14.8711,12.2357 14.8711,12.5117 L14.8711,13.5117 C14.8711,13.7877 15.0951,14.0117 15.3711,14.0117" id="Fill-3" fill="#221F20"></path>
                <path d="M12,16.9561 C12.781,16.9561 13.496,16.4951 13.82,15.7821 C13.935,15.5311 13.823,15.2341 13.572,15.1201 C13.321,15.0081 13.025,15.1161 12.91,15.3681 C12.748,15.7261 12.391,15.9561 12,15.9561 C11.608,15.9561 11.25,15.7251 11.087,15.3661 C10.973,15.1151 10.677,15.0061 10.425,15.1181 C10.174,15.2321 10.063,15.5281 10.177,15.7801 C10.501,16.4941 11.217,16.9561 12,16.9561" id="Fill-5" fill="#221F20"></path>
                <path d="M18.7559,13.9482 L18.7219,13.9482 C18.8869,13.3752 18.9819,12.7722 18.9929,12.1482 C19.2899,12.3222 19.4999,12.6312 19.4999,13.0002 C19.4999,13.4612 19.1809,13.8332 18.7559,13.9482 L18.7559,13.9482 Z M16.9999,19.9602 L6.9999,19.9602 C6.4479,19.9602 5.9999,19.5112 5.9999,18.9602 L5.9999,15.5992 C7.2249,17.6392 9.4519,19.0122 11.9999,19.0122 C14.5479,19.0122 16.7759,17.6392 17.9999,15.5992 L17.9999,18.9602 C17.9999,19.5112 17.5519,19.9602 16.9999,19.9602 L16.9999,19.9602 Z M4.4919,13.0002 C4.4919,12.6282 4.7049,12.3162 5.0069,12.1432 C5.0189,12.7682 5.1119,13.3732 5.2779,13.9482 L5.2359,13.9482 C4.8119,13.8332 4.4919,13.4612 4.4919,13.0002 L4.4919,13.0002 Z M11.9999,4.0002 C15.2949,4.0002 17.9749,6.6692 17.9979,9.9582 C16.1969,9.6092 14.6509,8.4672 13.8009,6.8062 C13.7969,6.7992 13.7889,6.7942 13.7839,6.7862 C13.7609,6.7472 13.7339,6.7122 13.6989,6.6792 C13.6799,6.6612 13.6589,6.6452 13.6379,6.6312 C13.6209,6.6192 13.6099,6.6032 13.5909,6.5942 C13.5769,6.5872 13.5619,6.5882 13.5479,6.5822 C13.5139,6.5672 13.4799,6.5592 13.4439,6.5522 C13.4199,6.5492 13.3979,6.5452 13.3729,6.5442 C13.3249,6.5422 13.2789,6.5492 13.2309,6.5612 C13.2209,6.5642 13.2099,6.5662 13.1989,6.5702 C13.1759,6.5782 13.1509,6.5782 13.1269,6.5902 C13.0959,6.6062 13.0729,6.6322 13.0469,6.6542 C13.0449,6.6562 13.0419,6.6572 13.0399,6.6592 C12.9879,6.7032 12.9479,6.7532 12.9179,6.8112 C11.8869,8.8252 9.8399,10.0762 7.5759,10.0762 L5.9999,10.0762 L5.9999,10.0002 C5.9999,6.6912 8.6919,4.0002 11.9999,4.0002 L11.9999,4.0002 Z M5.9999,11.0762 L7.5759,11.0762 C9.9219,11.0762 12.0629,9.9202 13.3579,8.0152 C14.4329,9.5982 16.1039,10.6572 17.9999,10.9692 L17.9999,12.0122 C17.9999,15.3212 15.3089,18.0122 11.9999,18.0122 C8.6919,18.0122 5.9999,15.3212 5.9999,12.0122 L5.9999,11.0762 Z M20.4999,13.0002 C20.4999,12.0712 19.8599,11.2952 18.9999,11.0712 L18.9999,10.0002 C18.9999,6.1402 15.8599,3.0002 11.9999,3.0002 C8.1409,3.0002 4.9999,6.1402 4.9999,10.0002 L4.9999,11.0682 C4.1359,11.2892 3.4919,12.0682 3.4919,13.0002 C3.4919,13.9312 4.1359,14.7112 4.9999,14.9312 L4.9999,18.9602 C4.9999,20.0642 5.8959,20.9602 6.9999,20.9602 L16.9999,20.9602 C18.1049,20.9602 18.9999,20.0642 18.9999,18.9602 L18.9999,14.9282 C19.8599,14.7052 20.4999,13.9282 20.4999,13.0002 L20.4999,13.0002 Z" id="Fill-7" fill="#221F20"></path>
            </g>
        </g>
    </g>
</svg>