<?xml version="1.0" encoding="UTF-8" standalone="no"?>
<svg width="24px" height="24px" viewBox="0 0 24 24" version="1.1" xmlns="http://www.w3.org/2000/svg" xmlns:xlink="http://www.w3.org/1999/xlink">
    <!-- Generator: sketchtool 40 (33762) - http://www.bohemiancoding.com/sketch -->
    <title>gender-female</title>
    <desc>Created with sketchtool.</desc>
    <defs></defs>
    <g id="Page-1" stroke="none" stroke-width="1" fill="none" fill-rule="evenodd">
        <g id="gender-female">
            <g>
                <rect id="bounds" x="0" y="0" width="24" height="24"></rect>
                <path d="M14.4761,10.3486 C14.3891,10.0876 14.1081,9.9446 13.8441,10.0326 C13.5821,10.1196 13.4401,10.4036 13.5281,10.6646 L15.3101,16.0116 L8.6891,16.0026 L10.4721,10.6546 C10.5591,10.3926 10.4181,10.1096 10.1561,10.0216 C9.8931,9.9326 9.6111,10.0766 9.5241,10.3376 L9.1781,11.3736 L9.1711,11.3716 L8.5461,13.2686 C8.5041,13.3966 8.4161,13.4996 8.2961,13.5596 C8.1771,13.6196 8.0431,13.6306 7.9151,13.5876 C7.6541,13.5026 7.5111,13.2196 7.5971,12.9576 L8.6781,9.6706 C8.6821,9.6596 9.1191,8.5016 9.9981,8.5016 L14.0021,8.5016 C14.8801,8.5016 15.3171,9.6566 15.3171,9.6566 L16.4031,12.9566 C16.4891,13.2196 16.3461,13.5026 16.0831,13.5886 C15.9591,13.6306 15.8221,13.6196 15.7041,13.5596 C15.5841,13.4996 15.4961,13.3966 15.4541,13.2686 L14.8291,11.3716 L14.8181,11.3746 L14.4761,10.3486 Z M13.5061,19.5156 C13.5061,19.7906 13.2811,20.0156 13.0061,20.0156 C12.7291,20.0156 12.5061,19.7906 12.5061,19.5156 L12.5061,17.0076 L13.5061,17.0096 L13.5061,19.5156 Z M11.0041,20.0156 C10.7271,20.0156 10.5041,19.7906 10.5041,19.5156 L10.5041,17.0046 L11.5041,17.0066 L11.5041,19.5156 C11.5041,19.7906 11.2791,20.0156 11.0041,20.0156 L11.0041,20.0156 Z M11.9961,4.0016 C12.8231,4.0016 13.4961,4.6746 13.4961,5.5016 C13.4961,6.3286 12.8231,7.0016 11.9961,7.0016 C11.1691,7.0016 10.4961,6.3286 10.4961,5.5016 C10.4961,4.6746 11.1691,4.0016 11.9961,4.0016 L11.9961,4.0016 Z M16.3961,14.5386 C17.1811,14.2816 17.6111,13.4326 17.3531,12.6456 L16.2631,9.3306 C16.2351,9.2556 15.5861,7.5016 14.0021,7.5016 L13.4821,7.5016 C14.0941,7.0456 14.4961,6.3236 14.4961,5.5016 C14.4961,4.1206 13.3771,3.0016 11.9961,3.0016 C10.6151,3.0016 9.4961,4.1206 9.4961,5.5016 C9.4961,6.3236 9.8981,7.0456 10.5101,7.5016 L9.9981,7.5016 C8.4141,7.5016 7.7651,9.2556 7.7331,9.3436 L6.6471,12.6466 C6.3891,13.4326 6.8191,14.2816 7.6031,14.5376 C7.7571,14.5886 7.9151,14.6146 8.0731,14.6146 C8.0821,14.6146 8.0911,14.6116 8.1001,14.6116 L7.5221,16.3436 C7.4711,16.4956 7.4971,16.6636 7.5901,16.7936 C7.6841,16.9246 7.8351,17.0016 7.9961,17.0016 L9.5041,17.0036 L9.5041,19.5156 C9.5041,20.3426 10.1761,21.0156 11.0041,21.0156 C11.3891,21.0156 11.7381,20.8656 12.0041,20.6246 C12.2701,20.8656 12.6191,21.0156 13.0061,21.0156 C13.8321,21.0156 14.5061,20.3426 14.5061,19.5156 L14.5061,17.0106 L16.0031,17.0126 L16.0041,17.0126 C16.1641,17.0126 16.3151,16.9356 16.4091,16.8056 C16.5031,16.6746 16.5291,16.5066 16.4781,16.3546 L15.8971,14.6106 C15.9071,14.6116 15.9161,14.6146 15.9271,14.6146 C16.0841,14.6146 16.2421,14.5886 16.3961,14.5386 L16.3961,14.5386 Z" id="Fill-1" fill="#221F20"></path>
            </g>
        </g>
    </g>
</svg>