<?xml version="1.0" encoding="UTF-8" standalone="no"?>
<svg width="24px" height="24px" viewBox="0 0 24 24" version="1.1" xmlns="http://www.w3.org/2000/svg" xmlns:xlink="http://www.w3.org/1999/xlink">
    <!-- Generator: sketchtool 40 (33762) - http://www.bohemiancoding.com/sketch -->
    <title>gender-male</title>
    <desc>Created with sketchtool.</desc>
    <defs></defs>
    <g id="Page-1" stroke="none" stroke-width="1" fill="none" fill-rule="evenodd">
        <g id="gender-male">
            <g>
                <rect id="bounds" x="0" y="0" width="24" height="24"></rect>
                <path d="M15.5049,11.0039 L15.5049,12.5089 C15.5049,12.7839 15.2809,13.0089 15.0049,13.0089 C14.7289,13.0089 14.5049,12.7839 14.5049,12.5089 L14.5049,10.0079 L14.4959,10.0079 L14.4959,9.5079 C14.4959,9.2319 14.2719,9.0079 13.9959,9.0079 C13.7189,9.0079 13.4959,9.2319 13.4959,9.5079 L13.4959,16.5079 C13.4959,16.5179 13.5009,16.5249 13.5009,16.5339 L13.5009,19.5159 C13.5009,19.7909 13.2769,20.0159 13.0009,20.0159 C12.7249,20.0159 12.5009,19.7909 12.5009,19.5159 L12.5009,15.0139 L12.4999,15.0139 L12.4999,14.5129 C12.4999,14.2359 12.2759,14.0129 11.9999,14.0129 C11.7239,14.0129 11.4999,14.2359 11.4999,14.5129 L11.4999,15.0139 L11.4989,15.0139 L11.4989,19.5159 C11.4989,19.7909 11.2749,20.0159 10.9989,20.0159 C10.7229,20.0159 10.4989,19.7909 10.4989,19.5159 L10.4989,16.5149 C10.4989,16.5129 10.5009,16.5109 10.5009,16.5079 L10.5009,9.5079 C10.5009,9.2319 10.2769,9.0079 10.0009,9.0079 C9.7239,9.0079 9.5009,9.2319 9.5009,9.5079 L9.5009,10.0079 L9.4949,10.0079 L9.4949,12.5089 C9.4949,12.7839 9.2709,13.0089 8.9949,13.0089 C8.7189,13.0089 8.4949,12.7839 8.4949,12.5089 L8.4949,11.0039 L8.4949,10.0079 L8.4949,8.9999 C8.4949,8.4479 8.9439,7.9999 9.4949,7.9999 L10.4949,7.9999 L11.5049,7.9999 L11.9759,7.9999 C11.9829,7.9999 11.9889,8.0019 11.9959,8.0019 C12.0029,8.0019 12.0079,7.9999 12.0149,7.9999 L12.4959,7.9999 L13.4949,7.9999 L14.5049,7.9999 C15.0559,7.9999 15.5049,8.4479 15.5049,8.9999 L15.5049,10.0079 L15.5049,11.0039 Z M11.9959,4.0019 C12.8229,4.0019 13.4959,4.6749 13.4959,5.5019 C13.4959,6.3219 12.8329,6.9889 12.0149,6.9999 L11.9759,6.9999 C11.1579,6.9889 10.4959,6.3219 10.4959,5.5019 C10.4959,4.6749 11.1689,4.0019 11.9959,4.0019 L11.9959,4.0019 Z M14.5049,6.9999 L13.9859,6.9999 C14.3019,6.5809 14.4959,6.0669 14.4959,5.5019 C14.4959,4.1209 13.3769,3.0019 11.9959,3.0019 C10.6149,3.0019 9.4959,4.1209 9.4959,5.5019 C9.4959,6.0669 9.6899,6.5809 10.0049,6.9999 L9.4949,6.9999 C8.3909,6.9999 7.4949,7.8959 7.4949,8.9999 L7.4949,10.0079 L7.4949,11.0039 L7.4949,12.5089 C7.4949,13.3359 8.1679,14.0089 8.9949,14.0089 C9.1729,14.0089 9.3419,13.9729 9.5009,13.9149 L9.5009,15.0139 L9.4989,15.0139 L9.4989,19.5159 C9.4989,20.3429 10.1719,21.0159 10.9989,21.0159 C11.3849,21.0159 11.7339,20.8649 11.9999,20.6249 C12.2659,20.8649 12.6149,21.0159 13.0009,21.0159 C13.8279,21.0159 14.5009,20.3429 14.5009,19.5159 L14.5009,15.0139 L14.4959,15.0139 L14.4959,13.9139 C14.6549,13.9719 14.8249,14.0089 15.0049,14.0089 C15.8319,14.0089 16.5049,13.3359 16.5049,12.5089 L16.5049,11.0039 L16.5049,10.0079 L16.5049,8.9999 C16.5049,7.8959 15.6089,6.9999 14.5049,6.9999 L14.5049,6.9999 Z" id="Fill-1" fill="#221F20"></path>
            </g>
        </g>
    </g>
</svg>