<?xml version="1.0" encoding="UTF-8" standalone="no"?>
<svg width="24px" height="24px" viewBox="0 0 24 24" version="1.1" xmlns="http://www.w3.org/2000/svg" xmlns:xlink="http://www.w3.org/1999/xlink">
    <!-- Generator: sketchtool 40 (33762) - http://www.bohemiancoding.com/sketch -->
    <title>heart-solid</title>
    <desc>Created with sketchtool.</desc>
    <defs></defs>
    <g id="Page-1" stroke="none" stroke-width="1" fill="none" fill-rule="evenodd">
        <g id="heart-solid">
            <g>
                <rect id="bounds" x="0" y="0" width="24" height="24"></rect>
                <path d="M16.1348,4.2568 C14.9308,4.2568 13.7738,4.7048 12.8728,5.5198 C12.5308,5.8278 12.2388,6.1788 11.9998,6.5668 C11.7608,6.1788 11.4668,5.8278 11.1258,5.5188 C10.2268,4.7048 9.0688,4.2568 7.8648,4.2568 C5.1828,4.2568 2.9998,6.4398 2.9998,9.1208 C2.9998,10.9328 3.5628,12.3608 4.8828,13.9018 C6.7988,16.1388 11.6548,19.5538 11.8608,19.6988 C11.9028,19.7288 11.9508,19.7428 11.9998,19.7428 C12.0488,19.7428 12.0978,19.7288 12.1388,19.6988 C12.3438,19.5538 17.1988,16.1388 19.1168,13.9018 C20.4358,12.3608 20.9988,10.9328 20.9988,9.1208 C20.9988,6.4398 18.8188,4.2568 16.1348,4.2568" id="Fill-1" fill="#221F20"></path>
            </g>
        </g>
    </g>
</svg>