<?xml version="1.0" encoding="UTF-8" standalone="no"?>
<svg width="24px" height="24px" viewBox="0 0 24 24" version="1.1" xmlns="http://www.w3.org/2000/svg" xmlns:xlink="http://www.w3.org/1999/xlink">
    <!-- Generator: sketchtool 40 (33762) - http://www.bohemiancoding.com/sketch -->
    <title>heart</title>
    <desc>Created with sketchtool.</desc>
    <defs></defs>
    <g id="Page-1" stroke="none" stroke-width="1" fill="none" fill-rule="evenodd">
        <g id="heart">
            <g>
                <rect id="bounds" x="0" y="0" width="24" height="24"></rect>
                <path d="M16.1348,4.2568 C14.9308,4.2568 13.7738,4.7048 12.8728,5.5198 C12.5308,5.8278 12.2388,6.1788 11.9998,6.5668 C11.7608,6.1788 11.4668,5.8278 11.1258,5.5188 C10.2268,4.7048 9.0688,4.2568 7.8648,4.2568 C5.1828,4.2568 2.9998,6.4398 2.9998,9.1208 C2.9998,10.9328 3.5628,12.3608 4.8828,13.9018 C6.7988,16.1388 11.6548,19.5538 11.8608,19.6988 C11.9028,19.7288 11.9508,19.7428 11.9998,19.7428 C12.0488,19.7428 12.0978,19.7288 12.1388,19.6988 C12.3438,19.5538 17.1988,16.1388 19.1168,13.9018 C20.4358,12.3608 20.9988,10.9328 20.9988,9.1208 C20.9988,6.4398 18.8188,4.2568 16.1348,4.2568 M16.1348,5.2568 C18.2658,5.2568 19.9988,6.9898 19.9988,9.1208 C19.9988,10.6928 19.5238,11.8888 18.3588,13.2498 C16.8618,14.9958 13.3928,17.5668 11.9988,18.5698 C9.7518,16.9568 6.8898,14.7078 5.6418,13.2498 C4.4758,11.8908 3.9998,10.6938 3.9998,9.1208 C3.9998,6.9898 5.7348,5.2568 7.8648,5.2568 C8.8208,5.2568 9.7398,5.6128 10.4538,6.2588 C10.7278,6.5078 10.9618,6.7878 11.1488,7.0918 C11.3308,7.3868 11.6538,7.5668 11.9998,7.5668 C12.3468,7.5668 12.6688,7.3868 12.8518,7.0918 C13.0398,6.7848 13.2738,6.5058 13.5438,6.2608 C14.2598,5.6128 15.1798,5.2568 16.1348,5.2568" id="Fill-1" fill="#221F20"></path>
            </g>
        </g>
    </g>
</svg>