<?xml version="1.0" encoding="UTF-8" standalone="no"?>
<svg width="24px" height="24px" viewBox="0 0 24 24" version="1.1" xmlns="http://www.w3.org/2000/svg" xmlns:xlink="http://www.w3.org/1999/xlink">
    <!-- Generator: sketchtool 40 (33762) - http://www.bohemiancoding.com/sketch -->
    <title>help</title>
    <desc>Created with sketchtool.</desc>
    <defs></defs>
    <g id="Page-1" stroke="none" stroke-width="1" fill="none" fill-rule="evenodd">
        <g id="help">
            <g>
                <rect id="bounds" x="0" y="0" width="24" height="24"></rect>
                <path d="M12.0176,14.3911 C11.7696,14.3911 11.5696,14.1901 11.5696,13.9431 L11.5696,13.4511 C11.5696,12.5411 12.1446,12.0211 12.6516,11.5621 C13.1676,11.0951 13.6156,10.6911 13.6156,9.8861 C13.6156,8.9591 12.8596,8.3121 11.7776,8.3121 C10.8476,8.3121 10.2456,8.8421 10.2386,8.8471 C10.0556,9.0121 9.7736,8.9981 9.6076,8.8161 C9.4416,8.6331 9.4536,8.3521 9.6346,8.1851 C9.6686,8.1541 10.4866,7.4161 11.7776,7.4161 C13.3616,7.4161 14.5106,8.4551 14.5106,9.8861 C14.5106,11.0881 13.8126,11.7191 13.2526,12.2261 C12.7496,12.6821 12.4646,12.9631 12.4646,13.4511 L12.4646,13.9431 C12.4646,14.1901 12.2656,14.3911 12.0176,14.3911" id="Fill-1" fill="#221F20"></path>
                <path d="M12.5781,16.0063 C12.5781,15.6883 12.3191,15.4293 12.0001,15.4293 C11.6821,15.4293 11.4241,15.6883 11.4241,16.0063 C11.4241,16.3253 11.6821,16.5843 12.0001,16.5843 C12.3191,16.5843 12.5781,16.3253 12.5781,16.0063" id="Fill-3" fill="#221F20"></path>
                <path d="M12,3 C7.029,3 3,7.029 3,12 C3,16.971 7.029,21 12,21 C16.971,21 21,16.971 21,12 C21,7.029 16.971,3 12,3 M12,4 C16.411,4 20,7.589 20,12 C20,16.411 16.411,20 12,20 C7.589,20 4,16.411 4,12 C4,7.589 7.589,4 12,4" id="Fill-5" fill="#221F20"></path>
            </g>
        </g>
    </g>
</svg>