<?xml version="1.0" encoding="UTF-8" standalone="no"?>
<svg width="24px" height="24px" viewBox="0 0 24 24" version="1.1" xmlns="http://www.w3.org/2000/svg" xmlns:xlink="http://www.w3.org/1999/xlink">
    <!-- Generator: sketchtool 40 (33762) - http://www.bohemiancoding.com/sketch -->
    <title>id</title>
    <desc>Created with sketchtool.</desc>
    <defs></defs>
    <g id="Page-1" stroke="none" stroke-width="1" fill="none" fill-rule="evenodd">
        <g id="id">
            <g>
                <rect id="bounds" x="0" y="0" width="24" height="24"></rect>
                <path d="M8.4932,13.0127 C9.7002,13.0127 10.7112,13.8727 10.9432,15.0127 L6.0432,15.0127 C6.2752,13.8727 7.2862,13.0127 8.4932,13.0127 L8.4932,13.0127 Z M8.4932,9.0087 C9.3202,9.0087 9.9932,9.6817 9.9932,10.5087 C9.9932,11.3357 9.3202,12.0087 8.4932,12.0087 C7.6662,12.0087 6.9932,11.3357 6.9932,10.5087 C6.9932,9.6817 7.6662,9.0087 8.4932,9.0087 L8.4932,9.0087 Z M4.9932,15.5127 C4.9932,15.7887 5.2172,16.0127 5.4932,16.0127 L11.4932,16.0127 C11.7692,16.0127 11.9932,15.7887 11.9932,15.5127 C11.9932,14.1607 11.2152,12.9987 10.0902,12.4157 C10.6372,11.9567 10.9932,11.2777 10.9932,10.5087 C10.9932,9.1307 9.8722,8.0087 8.4932,8.0087 C7.1142,8.0087 5.9932,9.1307 5.9932,10.5087 C5.9932,11.2777 6.3492,11.9567 6.8962,12.4157 C5.7712,12.9987 4.9932,14.1607 4.9932,15.5127 L4.9932,15.5127 Z" id="Fill-1" fill="#221F20"></path>
                <path d="M4,17.013 L20,17.013 L20,7.013 L4,7.013 L4,17.013 Z M20.5,6.013 L3.5,6.013 C3.224,6.013 3,6.236 3,6.513 L3,17.513 C3,17.789 3.224,18.013 3.5,18.013 L20.5,18.013 C20.776,18.013 21,17.789 21,17.513 L21,6.513 C21,6.236 20.776,6.013 20.5,6.013 L20.5,6.013 Z" id="Fill-3" fill="#221F20"></path>
                <path d="M12.4932,10.0078 L18.5072,10.0078 C18.7832,10.0078 19.0072,9.7838 19.0072,9.5078 L19.0072,9.5068 C19.0072,9.2308 18.7832,9.0068 18.5072,9.0068 L12.4932,9.0068 C12.2172,9.0068 11.9932,9.2308 11.9932,9.5068 L11.9932,9.5078 C11.9932,9.7838 12.2172,10.0078 12.4932,10.0078" id="Fill-5" fill="#221F20"></path>
                <path d="M12.4932,12.0098 L18.5072,12.0098 C18.7832,12.0098 19.0072,11.7848 19.0072,11.5098 L19.0072,11.5078 C19.0072,11.2328 18.7832,11.0078 18.5072,11.0078 L12.4932,11.0078 C12.2172,11.0078 11.9932,11.2328 11.9932,11.5078 L11.9932,11.5098 C11.9932,11.7848 12.2172,12.0098 12.4932,12.0098" id="Fill-6" fill="#221F20"></path>
            </g>
        </g>
    </g>
</svg>