<?xml version="1.0" encoding="UTF-8" standalone="no"?>
<svg width="24px" height="24px" viewBox="0 0 24 24" version="1.1" xmlns="http://www.w3.org/2000/svg" xmlns:xlink="http://www.w3.org/1999/xlink">
    <!-- Generator: sketchtool 40 (33762) - http://www.bohemiancoding.com/sketch -->
    <title>image</title>
    <desc>Created with sketchtool.</desc>
    <defs></defs>
    <g id="Page-1" stroke="none" stroke-width="1" fill="none" fill-rule="evenodd">
        <g id="image">
            <g>
                <rect id="bounds" x="0" y="0" width="24" height="24"></rect>
                <path d="M4,20 L4,15.398 L8.825,10.573 L13.766,15.514 C13.863,15.611 13.991,15.66 14.119,15.66 C14.247,15.66 14.375,15.611 14.473,15.514 L17.301,12.686 L20,15.385 L20,20 L4,20 Z M20,4 L20,13.971 L17.654,11.625 C17.459,11.43 17.143,11.43 16.947,11.625 L14.119,14.453 L9.179,9.513 C8.983,9.317 8.667,9.317 8.472,9.513 L4,13.984 L4,4 L20,4 Z M20,3 L4,3 C3.447,3 3,3.447 3,4 L3,20 C3,20.553 3.447,21 4,21 L20,21 C20.553,21 21,20.553 21,20 L21,4 C21,3.447 20.553,3 20,3 L20,3 Z" id="Fill-1" fill="#221F20"></path>
                <path d="M14,7 C14.552,7 15,7.448 15,8 C15,8.552 14.552,9 14,9 C13.448,9 13,8.552 13,8 C13,7.448 13.448,7 14,7 M14,10 C15.103,10 16,9.103 16,8 C16,6.897 15.103,6 14,6 C12.897,6 12,6.897 12,8 C12,9.103 12.897,10 14,10" id="Fill-3" fill="#221F20"></path>
            </g>
        </g>
    </g>
</svg>