<?xml version="1.0" encoding="UTF-8" standalone="no"?>
<svg width="24px" height="24px" viewBox="0 0 24 24" version="1.1" xmlns="http://www.w3.org/2000/svg" xmlns:xlink="http://www.w3.org/1999/xlink">
    <!-- Generator: sketchtool 40 (33762) - http://www.bohemiancoding.com/sketch -->
    <title>info</title>
    <desc>Created with sketchtool.</desc>
    <defs></defs>
    <g id="Page-1" stroke="none" stroke-width="1" fill="none" fill-rule="evenodd">
        <g id="info">
            <g>
                <rect id="bounds" x="0" y="0" width="24" height="24"></rect>
                <path d="M12,3 C7.029,3 3,7.029 3,12 C3,16.971 7.029,21 12,21 C16.971,21 21,16.971 21,12 C21,7.029 16.971,3 12,3 M12,4 C16.411,4 20,7.589 20,12 C20,16.411 16.411,20 12,20 C7.589,20 4,16.411 4,12 C4,7.589 7.589,4 12,4" id="Fill-1" fill="#221F20"></path>
                <path d="M12.5771,8.0039 C12.5771,7.6859 12.3181,7.4269 12.0001,7.4269 C11.6811,7.4269 11.4231,7.6859 11.4231,8.0039 C11.4231,8.3229 11.6811,8.5819 12.0001,8.5819 C12.3181,8.5819 12.5771,8.3229 12.5771,8.0039" id="Fill-3" fill="#221F20"></path>
                <path d="M12.5,16.1211 C12.5,16.3971 12.276,16.6211 12,16.6211 C11.724,16.6211 11.5,16.3971 11.5,16.1211 L11.5,10.1211 C11.5,9.8451 11.724,9.6211 12,9.6211 C12.276,9.6211 12.5,9.8451 12.5,10.1211 L12.5,16.1211 Z" id="Fill-5" fill="#221F20"></path>
            </g>
        </g>
    </g>
</svg>