<?xml version="1.0" encoding="UTF-8" standalone="no"?>
<svg width="24px" height="24px" viewBox="0 0 24 24" version="1.1" xmlns="http://www.w3.org/2000/svg" xmlns:xlink="http://www.w3.org/1999/xlink">
    <!-- Generator: sketchtool 40 (33762) - http://www.bohemiancoding.com/sketch -->
    <title>laboratory</title>
    <desc>Created with sketchtool.</desc>
    <defs></defs>
    <g id="Page-1" stroke="none" stroke-width="1" fill="none" fill-rule="evenodd">
        <g id="laboratory">
            <g>
                <rect id="bounds" x="0" y="0" width="24" height="24"></rect>
                <path d="M12.6494,9.8652 L10.5274,7.7442 L14.0634,4.2092 L16.1854,6.3302 L12.6494,9.8652 Z M10.5234,10.5782 L9.8164,9.8712 L10.5234,9.1642 L11.2304,9.8712 L10.5234,10.5782 Z M17.0004,20.0172 L15.5844,20.0172 C17.6274,18.7952 19.0004,16.5672 19.0004,14.0122 C19.0004,11.5472 17.7214,9.3832 15.7944,8.1352 L17.2464,6.6832 C17.4414,6.4882 17.4414,6.1722 17.2464,5.9762 L14.4174,3.1482 C14.3194,3.0512 14.1914,3.0022 14.0634,3.0022 C13.9354,3.0022 13.8074,3.0512 13.7104,3.1482 L9.4664,7.3902 C9.2714,7.5862 9.2714,7.9022 9.4664,8.0972 L9.8214,8.4522 L8.7554,9.5172 C8.5604,9.7132 8.5604,10.0272 8.7554,10.2242 L10.1704,11.6382 C10.2674,11.7362 10.3964,11.7852 10.5234,11.7852 C10.6524,11.7852 10.7794,11.7362 10.8774,11.6382 L11.9424,10.5732 L12.2954,10.9262 C12.3934,11.0232 12.5214,11.0732 12.6504,11.0732 C12.7774,11.0732 12.9054,11.0242 13.0034,10.9262 L15.3844,8.5442 L15.0654,8.8642 C16.8194,9.9122 18.0004,11.8242 18.0004,14.0122 C18.0004,17.3212 15.3084,20.0122 12.0004,20.0122 C9.1034,20.0122 6.6794,17.9502 6.1214,15.2172 L5.0034,14.0992 C5.0344,16.6172 6.3984,18.8092 8.4174,20.0172 L7.0004,20.0172 C6.7234,20.0172 6.5004,20.2412 6.5004,20.5172 C6.5004,20.7942 6.7234,21.0172 7.0004,21.0172 L17.0004,21.0172 C17.2764,21.0172 17.5004,20.7942 17.5004,20.5172 C17.5004,20.2412 17.2764,20.0172 17.0004,20.0172 L17.0004,20.0172 Z" id="Fill-1" fill="#221F20"></path>
                <path d="M7.6348,16.0225 C7.8298,15.8275 7.8298,15.5105 7.6348,15.3155 L4.8068,12.4875 C4.6118,12.2925 4.2948,12.2925 4.0998,12.4875 C3.9048,12.6825 3.9048,12.9995 4.0998,13.1945 L6.9278,16.0225 C7.1228,16.2175 7.4398,16.2175 7.6348,16.0225" id="Fill-3" fill="#221F20"></path>
            </g>
        </g>
    </g>
</svg>