<?xml version="1.0" encoding="UTF-8" standalone="no"?>
<svg width="24px" height="24px" viewBox="0 0 24 24" version="1.1" xmlns="http://www.w3.org/2000/svg" xmlns:xlink="http://www.w3.org/1999/xlink">
    <!-- Generator: sketchtool 40 (33762) - http://www.bohemiancoding.com/sketch -->
    <title>language</title>
    <desc>Created with sketchtool.</desc>
    <defs></defs>
    <g id="Page-1" stroke="none" stroke-width="1" fill="none" fill-rule="evenodd">
        <g id="language">
            <g>
                <rect id="bounds" x="0" y="0" width="24" height="24"></rect>
                <path d="M13.7383,19.8037 C14.2723,19.0167 14.7163,17.8787 15.0253,16.5107 L18.6013,16.5107 C17.4733,18.1567 15.7473,19.3567 13.7383,19.8037 L13.7383,19.8037 Z M5.3983,16.5107 L8.9743,16.5107 C9.2843,17.8787 9.7273,19.0167 10.2613,19.8037 C8.2533,19.3567 6.5263,18.1567 5.3983,16.5107 L5.3983,16.5107 Z M10.2613,4.1967 C9.7263,4.9867 9.2813,6.1267 8.9713,7.4997 L5.3903,7.4997 C6.5183,5.8487 8.2493,4.6447 10.2613,4.1967 L10.2613,4.1967 Z M18.6093,7.4997 L15.0283,7.4997 C14.7183,6.1267 14.2733,4.9867 13.7383,4.1967 C15.7513,4.6447 17.4813,5.8487 18.6093,7.4997 L18.6093,7.4997 Z M15.4903,11.4997 C15.4673,10.4427 15.3783,9.4297 15.2253,8.4997 L19.1823,8.4997 C19.6313,9.4167 19.9083,10.4287 19.9743,11.4997 L15.4903,11.4997 Z M14.2163,8.4997 C14.3683,9.3777 14.4673,10.3827 14.4903,11.4997 L9.5093,11.4997 C9.5333,10.3827 9.6323,9.3777 9.7843,8.4997 L14.2163,8.4997 Z M12.0003,3.9997 C12.5543,3.9997 13.4513,5.2157 14.0073,7.4997 L9.9933,7.4997 C10.5493,5.2157 11.4453,3.9997 12.0003,3.9997 L12.0003,3.9997 Z M4.8173,8.4997 L8.7743,8.4997 C8.6223,9.4297 8.5323,10.4427 8.5093,11.4997 L4.0253,11.4997 C4.0923,10.4287 4.3693,9.4167 4.8173,8.4997 L4.8173,8.4997 Z M4.0253,12.4997 L8.5093,12.4997 C8.5323,13.5627 8.6233,14.5777 8.7763,15.5107 L4.8223,15.5107 C4.3713,14.5917 4.0923,13.5747 4.0253,12.4997 L4.0253,12.4997 Z M9.7863,15.5107 C9.6333,14.6307 9.5343,13.6217 9.5093,12.4997 L14.4903,12.4997 C14.4663,13.6217 14.3673,14.6307 14.2143,15.5107 L9.7863,15.5107 Z M12.0003,19.9997 C11.4453,19.9997 10.5513,18.7877 9.9963,16.5107 L14.0043,16.5107 C13.4483,18.7877 12.5543,19.9997 12.0003,19.9997 L12.0003,19.9997 Z M19.1773,15.5107 L15.2233,15.5107 C15.3773,14.5777 15.4673,13.5627 15.4903,12.4997 L19.9743,12.4997 C19.9083,13.5747 19.6293,14.5917 19.1773,15.5107 L19.1773,15.5107 Z M12.0003,2.9997 C7.0293,2.9997 3.0003,7.0297 3.0003,11.9997 C3.0003,16.9707 7.0293,20.9997 12.0003,20.9997 C16.9703,20.9997 21.0003,16.9707 21.0003,11.9997 C21.0003,7.0297 16.9703,2.9997 12.0003,2.9997 L12.0003,2.9997 Z" id="Fill-1" fill="#221F20"></path>
            </g>
        </g>
    </g>
</svg>