<?xml version="1.0" encoding="UTF-8" standalone="no"?>
<svg width="24px" height="24px" viewBox="0 0 24 24" version="1.1" xmlns="http://www.w3.org/2000/svg" xmlns:xlink="http://www.w3.org/1999/xlink">
    <!-- Generator: sketchtool 40 (33762) - http://www.bohemiancoding.com/sketch -->
    <title>logout</title>
    <desc>Created with sketchtool.</desc>
    <defs></defs>
    <g id="Page-1" stroke="none" stroke-width="1" fill="none" fill-rule="evenodd">
        <g id="logout">
            <g>
                <rect id="bounds" x="0" y="0" width="24" height="24"></rect>
                <path d="M19.0059,3.5 C19.0059,3.224 18.7819,3 18.5059,3 L18.5029,3 L18.4999,3 L8.4959,3 C8.2199,3 7.9959,3.224 7.9959,3.5 L7.9959,3.503 C7.9959,3.779 8.2199,4.003 8.4959,4.003 L18.0059,4.003 L18.0059,20.019 L8.4959,20.019 C8.2199,20.019 7.9959,20.242 7.9959,20.519 L7.9959,20.521 C7.9959,20.798 8.2199,21.021 8.4959,21.021 L18.4999,21.021 C18.7139,21.021 18.8929,20.886 18.9649,20.697 C18.9909,20.637 19.0059,20.57 19.0059,20.5 L19.0059,3.5 Z" id="Fill-1" fill="#020302"></path>
                <path d="M15.4912,11.5107 L4.7072,11.5107 L8.0972,8.1217 C8.2932,7.9257 8.2932,7.6107 8.0972,7.4147 C7.9022,7.2187 7.5862,7.2187 7.3902,7.4147 L3.1652,11.6387 C3.0602,11.7297 2.9912,11.8607 2.9912,12.0107 C2.9912,12.1617 3.0622,12.2937 3.1682,12.3857 L7.3902,16.6077 C7.5862,16.8037 7.9012,16.8037 8.0972,16.6077 C8.2932,16.4117 8.2932,16.0967 8.0972,15.9007 L4.7082,12.5107 L15.4912,12.5107 C15.7672,12.5107 15.9912,12.2867 15.9912,12.0107 C15.9912,11.7347 15.7672,11.5107 15.4912,11.5107" id="Fill-3" fill="#020302"></path>
            </g>
        </g>
    </g>
</svg>