<?xml version="1.0" encoding="UTF-8" standalone="no"?>
<svg width="24px" height="24px" viewBox="0 0 24 24" version="1.1" xmlns="http://www.w3.org/2000/svg" xmlns:xlink="http://www.w3.org/1999/xlink">
    <!-- Generator: sketchtool 40 (33762) - http://www.bohemiancoding.com/sketch -->
    <title>medical-history</title>
    <desc>Created with sketchtool.</desc>
    <defs></defs>
    <g id="Page-1" stroke="none" stroke-width="1" fill="none" fill-rule="evenodd">
        <g id="medical-history">
            <g>
                <rect id="bounds" x="0" y="0" width="24" height="24"></rect>
                <path d="M5.2471,4.9687 L13.7921,4.9687 L15.6471,6.8617 C15.7411,6.9567 15.8701,7.0117 16.0041,7.0117 L20.0311,7.0117 L20.0311,8.0067 L3.9371,8.0067 L3.9371,6.6817 L5.2471,4.9687 Z M3.9371,19.0177 L20.0311,19.0177 L20.0311,9.0067 L3.9371,9.0067 L3.9371,19.0177 Z M20.5311,6.0117 L16.2141,6.0117 L14.3591,4.1187 C14.2651,4.0237 14.1361,3.9687 14.0021,3.9687 L5.0001,3.9687 C4.8441,3.9687 4.6971,4.0407 4.6031,4.1647 L3.0401,6.2077 C2.9741,6.2947 2.9371,6.4027 2.9371,6.5117 L2.9371,19.5117 C2.9371,19.7877 3.1611,20.0117 3.4371,20.0117 C3.4431,20.0117 3.4481,20.0087 3.4541,20.0087 C3.4701,20.0097 3.4841,20.0177 3.5001,20.0177 L20.5001,20.0177 C20.5111,20.0177 20.5191,20.0117 20.5301,20.0117 L20.5311,20.0117 C20.8081,20.0117 21.0311,19.7877 21.0311,19.5117 L21.0311,6.5117 C21.0311,6.2357 20.8081,6.0117 20.5311,6.0117 L20.5311,6.0117 Z" id="Fill-1" fill="#221F20"></path>
                <path d="M14.5029,14.5137 L13.0009,14.5137 C12.7249,14.5137 12.5009,14.7377 12.5009,15.0137 L12.5009,16.4997 L11.4989,16.4997 L11.4989,14.9997 C11.4989,14.7237 11.2749,14.4997 10.9989,14.4997 L9.4969,14.4997 L9.4969,13.5117 L10.9989,13.5117 C11.2749,13.5117 11.4989,13.2877 11.4989,13.0117 L11.4989,11.4987 L12.4899,11.4987 L12.4899,13.0117 C12.4899,13.2877 12.7139,13.5117 12.9899,13.5117 L14.5029,13.5117 L14.5029,14.5137 Z M15.0029,12.5117 L13.4899,12.5117 L13.4899,10.9987 C13.4899,10.7227 13.2669,10.4987 12.9899,10.4987 L10.9989,10.4987 C10.7229,10.4987 10.4989,10.7227 10.4989,10.9987 L10.4989,12.5117 L8.9969,12.5117 C8.7209,12.5117 8.4969,12.7357 8.4969,13.0117 L8.4969,14.9997 C8.4969,15.2767 8.7209,15.4997 8.9969,15.4997 L10.4989,15.4997 L10.4989,16.9997 C10.4989,17.2767 10.7229,17.4997 10.9989,17.4997 L13.0009,17.4997 C13.2769,17.4997 13.5009,17.2767 13.5009,16.9997 L13.5009,15.5137 L15.0029,15.5137 C15.2789,15.5137 15.5029,15.2897 15.5029,15.0137 L15.5029,13.0117 C15.5029,12.7357 15.2789,12.5117 15.0029,12.5117 L15.0029,12.5117 Z" id="Fill-3" fill="#221F20"></path>
            </g>
        </g>
    </g>
</svg>