<?xml version="1.0" encoding="UTF-8" standalone="no"?>
<svg width="24px" height="24px" viewBox="0 0 24 24" version="1.1" xmlns="http://www.w3.org/2000/svg" xmlns:xlink="http://www.w3.org/1999/xlink">
    <!-- Generator: sketchtool 40 (33762) - http://www.bohemiancoding.com/sketch -->
    <title>merge</title>
    <desc>Created with sketchtool.</desc>
    <defs></defs>
    <g id="Page-1" stroke="none" stroke-width="1" fill="none" fill-rule="evenodd">
        <g id="merge">
            <g>
                <rect id="bounds" x="0" y="0" width="24" height="24"></rect>
                <path d="M15.0029,17 C14.2599,17 13.5599,16.826 12.9249,16.534 C14.1949,15.434 15.0029,13.812 15.0029,12 C15.0029,10.188 14.1949,8.566 12.9249,7.466 C13.5599,7.174 14.2599,7 15.0029,7 C17.7599,7 20.0029,9.243 20.0029,12 C20.0029,14.757 17.7599,17 15.0029,17 M14.0029,12 C14.0029,13.627 13.2099,15.061 12.0029,15.975 C10.7959,15.061 10.0029,13.627 10.0029,12 C10.0029,10.373 10.7959,8.939 12.0029,8.025 C13.2099,8.939 14.0029,10.373 14.0029,12 M9.0029,17 C6.2459,17 4.0029,14.757 4.0029,12 C4.0029,9.243 6.2459,7 9.0029,7 C9.7459,7 10.4459,7.174 11.0809,7.466 C9.8109,8.566 9.0029,10.188 9.0029,12 C9.0029,13.812 9.8109,15.434 11.0809,16.534 C10.4459,16.826 9.7459,17 9.0029,17 M15.0029,6 C13.9089,6 12.8859,6.298 12.0029,6.81 C11.1199,6.298 10.0969,6 9.0029,6 C5.6899,6 3.0029,8.687 3.0029,12 C3.0029,15.313 5.6899,18 9.0029,18 C10.0969,18 11.1199,17.702 12.0029,17.19 C12.8859,17.702 13.9089,18 15.0029,18 C18.3159,18 21.0029,15.313 21.0029,12 C21.0029,8.687 18.3159,6 15.0029,6" id="Fill-1" fill="#221F20"></path>
            </g>
        </g>
    </g>
</svg>