<?xml version="1.0" encoding="UTF-8" standalone="no"?>
<svg width="24px" height="24px" viewBox="0 0 24 24" version="1.1" xmlns="http://www.w3.org/2000/svg" xmlns:xlink="http://www.w3.org/1999/xlink">
    <!-- Generator: sketchtool 40 (33762) - http://www.bohemiancoding.com/sketch -->
    <title>message</title>
    <desc>Created with sketchtool.</desc>
    <defs></defs>
    <g id="Page-1" stroke="none" stroke-width="1" fill="none" fill-rule="evenodd">
        <g id="message">
            <g>
                <rect id="bounds" x="0" y="0" width="24" height="24"></rect>
                <path d="M4,17 L4,7.632 L11.699,13.412 C11.789,13.479 11.895,13.512 12,13.512 C12.105,13.512 12.211,13.479 12.301,13.412 L20,7.632 L20,17 L4,17 Z M19.174,7 L12,12.387 L4.826,7 L19.174,7 Z M20.5,6 L3.5,6 C3.224,6 3,6.224 3,6.5 L3,17.5 C3,17.776 3.224,18 3.5,18 L20.5,18 C20.776,18 21,17.776 21,17.5 L21,6.5 C21,6.224 20.776,6 20.5,6 L20.5,6 Z" id="Fill-1" fill="#221F20"></path>
            </g>
        </g>
    </g>
</svg>