<?xml version="1.0" encoding="UTF-8" standalone="no"?>
<svg width="24px" height="24px" viewBox="0 0 24 24" version="1.1" xmlns="http://www.w3.org/2000/svg" xmlns:xlink="http://www.w3.org/1999/xlink">
    <!-- Generator: sketchtool 40 (33762) - http://www.bohemiancoding.com/sketch -->
    <title>note</title>
    <desc>Created with sketchtool.</desc>
    <defs></defs>
    <g id="Page-1" stroke="none" stroke-width="1" fill="none" fill-rule="evenodd">
        <g id="note">
            <g>
                <rect id="bounds" x="0" y="0" width="24" height="24"></rect>
                <path d="M7.5,8.0068 C7.224,8.0068 7,8.2308 7,8.5068 C7,8.7828 7.224,9.0068 7.5,9.0068 L16.5,9.0068 C16.776,9.0068 17,8.7828 17,8.5068 C17,8.2308 16.776,8.0068 16.5,8.0068 L7.5,8.0068 Z" id="Fill-1" fill="#221F20"></path>
                <path d="M16.5,12.0107 L7.5,12.0107 C7.224,12.0107 7,12.2347 7,12.5107 C7,12.7867 7.224,13.0107 7.5,13.0107 L16.5,13.0107 C16.776,13.0107 17,12.7867 17,12.5107 C17,12.2347 16.776,12.0107 16.5,12.0107" id="Fill-3" fill="#221F20"></path>
                <path d="M16.5,16.0137 L7.5,16.0137 C7.224,16.0137 7,16.2377 7,16.5137 C7,16.7897 7.224,17.0137 7.5,17.0137 L16.5,17.0137 C16.776,17.0137 17,16.7897 17,16.5137 C17,16.2377 16.776,16.0137 16.5,16.0137" id="Fill-5" fill="#221F20"></path>
                <path d="M18,19.0107 L6,19.0107 L6,5.0107 L7.996,5.0107 L7.996,5.5027 C7.996,5.7797 8.22,6.0027 8.496,6.0027 C8.772,6.0027 8.996,5.7797 8.996,5.5027 L8.996,5.0107 L11.5,5.0107 L11.5,5.5027 C11.5,5.7797 11.724,6.0027 12,6.0027 C12.276,6.0027 12.5,5.7797 12.5,5.5027 L12.5,5.0107 L15.003,5.0107 L15.003,5.5027 C15.003,5.7797 15.227,6.0027 15.503,6.0027 C15.779,6.0027 16.003,5.7797 16.003,5.5027 L16.003,5.0107 L18,5.0107 L18,19.0107 Z M18.5,4.0107 L16.003,4.0107 L16.003,3.5027 C16.003,3.2267 15.779,3.0027 15.503,3.0027 C15.227,3.0027 15.003,3.2267 15.003,3.5027 L15.003,4.0107 L12.5,4.0107 L12.5,3.5027 C12.5,3.2267 12.276,3.0027 12,3.0027 C11.724,3.0027 11.5,3.2267 11.5,3.5027 L11.5,4.0107 L8.996,4.0107 L8.996,3.5027 C8.996,3.2267 8.772,3.0027 8.496,3.0027 C8.22,3.0027 7.996,3.2267 7.996,3.5027 L7.996,4.0107 L5.5,4.0107 C5.224,4.0107 5,4.2347 5,4.5107 L5,19.5107 C5,19.7867 5.224,20.0107 5.5,20.0107 L18.5,20.0107 C18.776,20.0107 19,19.7867 19,19.5107 L19,4.5107 C19,4.2347 18.776,4.0107 18.5,4.0107 L18.5,4.0107 Z" id="Fill-7" fill="#221F20"></path>
            </g>
        </g>
    </g>
</svg>