<?xml version="1.0" encoding="UTF-8" standalone="no"?>
<svg width="24px" height="24px" viewBox="0 0 24 24" version="1.1" xmlns="http://www.w3.org/2000/svg" xmlns:xlink="http://www.w3.org/1999/xlink">
    <!-- Generator: sketchtool 40 (33762) - http://www.bohemiancoding.com/sketch -->
    <title>notification</title>
    <desc>Created with sketchtool.</desc>
    <defs></defs>
    <g id="Page-1" stroke="none" stroke-width="1" fill="none" fill-rule="evenodd">
        <g id="notification">
            <g>
                <rect id="bounds" x="0" y="0" width="24" height="24"></rect>
                <path d="M15.498,17.0313 C15.498,17.0263 15.5,17.0213 15.5,17.0153 L14.5,17.0153 C14.5,17.0213 14.498,17.0263 14.498,17.0313 L9.502,17.0313 C9.502,17.0263 9.5,17.0213 9.5,17.0153 L8.5,17.0153 C8.5,17.0213 8.502,17.0263 8.502,17.0313 L5.298,17.0313 L6.945,13.6093 C6.978,13.5413 6.995,13.4683 6.995,13.3923 L7.003,9.0093 C7.003,6.2523 9.246,4.0093 12.003,4.0093 C14.76,4.0093 17.003,6.2523 17.003,9.0093 L17.003,13.3923 C17.003,13.4683 17.019,13.5423 17.053,13.6093 L18.708,17.0313 L15.498,17.0313 Z M12,19.5153 C10.983,19.5153 10.11,18.9043 9.721,18.0313 L14.279,18.0313 C13.89,18.9043 13.017,19.5153 12,19.5153 L12,19.5153 Z M19.901,17.2013 L18.003,13.2773 L18.003,9.0093 C18.003,5.7003 15.311,3.0093 12.003,3.0093 C8.694,3.0093 6.003,5.7003 6.003,9.0083 L5.995,13.2773 L4.052,17.3143 C3.977,17.4683 3.987,17.6513 4.078,17.7973 C4.17,17.9423 4.33,18.0313 4.502,18.0313 L8.668,18.0313 C9.106,19.4643 10.426,20.5153 12,20.5153 C13.574,20.5153 14.894,19.4643 15.332,18.0313 L19.506,18.0313 L19.525,18.0313 C19.802,18.0313 20.025,17.8063 20.025,17.5313 C20.025,17.4043 19.979,17.2893 19.901,17.2013 L19.901,17.2013 Z" id="Fill-1" fill="#221F20"></path>
            </g>
        </g>
    </g>
</svg>