<?xml version="1.0" encoding="UTF-8" standalone="no"?>
<svg width="24px" height="24px" viewBox="0 0 24 24" version="1.1" xmlns="http://www.w3.org/2000/svg" xmlns:xlink="http://www.w3.org/1999/xlink">
    <!-- Generator: sketchtool 40 (33762) - http://www.bohemiancoding.com/sketch -->
    <title>options</title>
    <desc>Created with sketchtool.</desc>
    <defs></defs>
    <g id="Page-1" stroke="none" stroke-width="1" fill="none" fill-rule="evenodd">
        <g id="options">
            <g>
                <rect id="bounds" x="0" y="0" width="24" height="24"></rect>
                <path d="M13.502,6.5059 C13.502,7.3339 12.829,8.0069 12,8.0069 C11.171,8.0069 10.498,7.3339 10.498,6.5059 C10.498,5.6759 11.171,5.0039 12,5.0039 C12.829,5.0039 13.502,5.6759 13.502,6.5059" id="Fill-1" fill="#020302"></path>
                <path d="M13.502,12.0107 C13.502,12.8397 12.829,13.5117 12,13.5117 C11.171,13.5117 10.498,12.8397 10.498,12.0107 C10.498,11.1817 11.171,10.5097 12,10.5097 C12.829,10.5097 13.502,11.1817 13.502,12.0107" id="Fill-3" fill="#020302"></path>
                <path d="M13.502,17.5156 C13.502,18.3456 12.829,19.0176 12,19.0176 C11.171,19.0176 10.498,18.3456 10.498,17.5156 C10.498,16.6866 11.171,16.0146 12,16.0146 C12.829,16.0146 13.502,16.6866 13.502,17.5156" id="Fill-5" fill="#020302"></path>
            </g>
        </g>
    </g>
</svg>