<?xml version="1.0" encoding="UTF-8" standalone="no"?>
<svg width="24px" height="24px" viewBox="0 0 24 24" version="1.1" xmlns="http://www.w3.org/2000/svg" xmlns:xlink="http://www.w3.org/1999/xlink">
    <!-- Generator: sketchtool 40 (33762) - http://www.bohemiancoding.com/sketch -->
    <title>phone</title>
    <desc>Created with sketchtool.</desc>
    <defs></defs>
    <g id="Page-1" stroke="none" stroke-width="1" fill="none" fill-rule="evenodd">
        <g id="phone">
            <g>
                <rect id="bounds" x="0" y="0" width="24" height="24"></rect>
                <path d="M6.3779,4.9209 C6.4859,4.8139 6.8809,4.4839 7.2879,4.8709 C7.7089,5.2719 8.1259,5.6769 8.5369,6.0879 C8.9639,6.5159 9.3849,6.9479 9.7999,7.3869 C10.1679,7.7719 9.9309,8.1219 9.7559,8.2969 L8.9219,9.1319 L8.3529,9.6999 C8.0029,10.0499 7.9559,10.5999 8.2399,11.0039 C8.8979,11.9359 9.6269,12.8049 10.4109,13.5889 C11.1949,14.3729 12.0639,15.1019 12.9959,15.7599 C13.3989,16.0439 13.9499,15.9959 14.2989,15.6469 L14.8679,15.0779 L15.7019,14.2429 C15.8779,14.0679 16.2279,13.8319 16.6129,14.1989 C17.0519,14.6149 17.4849,15.0349 17.9119,15.4629 C18.3229,15.8729 18.7279,16.2909 19.1279,16.7109 C19.5149,17.1189 19.1859,17.5139 19.0789,17.6209 C18.9909,17.7089 18.9019,17.7949 18.8129,17.8809 C18.5919,18.0969 18.3709,18.3119 18.1699,18.5369 C17.5839,19.1899 16.8239,19.4159 15.7059,19.2709 C14.1229,19.0649 12.6249,18.3869 10.8509,17.0689 C10.0839,16.4999 9.3769,15.8909 8.7389,15.2619 C8.1079,14.6229 7.4999,13.9159 6.9299,13.1489 C5.6129,11.3749 4.9349,9.8769 4.7289,8.2929 C4.5839,7.1759 4.8099,6.4159 5.4619,5.8299 C5.6879,5.6289 5.9029,5.4079 6.1179,5.1869 C6.2039,5.0979 6.2909,5.0079 6.3779,4.9209 M4.7829,5.0739 C3.7689,5.9859 3.5569,7.1549 3.7209,8.4239 C3.9819,10.4379 4.9289,12.1579 6.1139,13.7559 C6.7039,14.5489 7.3389,15.2909 8.0209,15.9799 C8.7089,16.6599 9.4499,17.2959 10.2439,17.8859 C11.8419,19.0699 13.5619,20.0179 15.5749,20.2779 C16.8439,20.4429 18.0129,20.2309 18.9259,19.2169 C19.1989,18.9099 19.5049,18.6319 19.7969,18.3399 C20.4669,17.6639 20.5189,16.6989 19.8649,16.0119 C19.4589,15.5839 19.0469,15.1609 18.6299,14.7439 C18.1959,14.3109 17.7569,13.8829 17.3119,13.4619 C16.6159,12.7989 15.6659,12.8459 14.9849,13.5229 C14.5199,13.9859 14.0559,14.4539 13.5809,14.9289 C12.6949,14.3039 11.8779,13.6189 11.1289,12.8709 C10.3809,12.1209 9.6959,11.3049 9.0709,10.4179 C9.5449,9.9429 10.0129,9.4799 10.4769,9.0139 C11.1539,8.3339 11.2009,7.3829 10.5379,6.6889 C10.1159,6.2419 9.6889,5.8029 9.2549,5.3689 C8.8379,4.9529 8.4149,4.5409 7.9879,4.1349 C7.2999,3.4809 6.3359,3.5329 5.6599,4.2029 C5.3679,4.4939 5.0889,4.8009 4.7829,5.0739" id="Fill-1" fill="#221F20"></path>
            </g>
        </g>
    </g>
</svg>