<?xml version="1.0" encoding="UTF-8" standalone="no"?>
<svg width="24px" height="24px" viewBox="0 0 24 24" version="1.1" xmlns="http://www.w3.org/2000/svg" xmlns:xlink="http://www.w3.org/1999/xlink">
    <!-- Generator: sketchtool 40 (33762) - http://www.bohemiancoding.com/sketch -->
    <title>phone-home</title>
    <desc>Created with sketchtool.</desc>
    <defs></defs>
    <g id="Page-1" stroke="none" stroke-width="1" fill="none" fill-rule="evenodd">
        <g id="phone-home">
            <g>
                <rect id="bounds" x="0" y="0" width="24" height="24"></rect>
                <path d="M20.0117,9.4688 C19.9957,9.7248 19.9987,9.9828 20.0027,10.2408 C20.0047,10.3478 20.0057,10.4548 20.0057,10.5608 C20.0037,10.9188 19.7157,10.9798 19.5457,10.9838 C19.0227,10.9948 18.4977,11.0018 17.9757,11.0018 C17.4327,11.0018 16.8907,10.9948 16.3417,10.9808 C15.8797,10.9708 15.8787,10.6658 15.8787,10.5688 C15.8787,10.0208 15.8787,9.4698 15.8807,8.9098 C15.8827,8.4168 15.5257,7.9968 15.0387,7.9188 C14.0267,7.7568 13.0077,7.6738 12.0087,7.6728 C11.0097,7.6738 9.9907,7.7568 8.9807,7.9188 C8.4937,7.9968 8.1377,8.4608 8.1387,8.9528 L8.1407,10.5668 C8.1407,10.6658 8.1397,10.9708 7.6707,10.9808 C7.1277,10.9958 6.5857,11.0018 6.0427,11.0018 C5.5217,11.0018 4.9957,10.9948 4.4757,10.9838 C4.3027,10.9798 4.0147,10.9188 4.0127,10.5668 L4.0157,10.2598 C4.0207,9.9948 4.0237,9.7318 4.0067,9.4758 C3.9827,9.0298 4.0777,8.4278 5.0467,7.7348 C6.1757,6.9258 7.5547,6.4458 9.5167,6.1738 C10.3567,6.0588 11.1947,5.9988 12.0097,5.9958 C12.8227,5.9988 13.6617,6.0588 14.5017,6.1728 C16.4637,6.4458 17.8427,6.9268 18.9727,7.7338 C19.9357,8.4238 20.0377,9.0008 20.0117,9.4688 M15.9997,18.0118 L7.9997,18.0118 C7.4487,18.0118 6.9997,17.5628 6.9997,17.0118 L6.9997,11.9898 C7.2327,11.9868 7.4657,11.9878 7.6987,11.9808 C8.5647,11.9608 9.1387,11.3718 9.1407,10.5688 C9.1407,10.0198 9.1397,9.4678 9.1387,8.9068 C10.0997,8.7518 11.0567,8.6738 12.0097,8.6728 C12.9627,8.6738 13.9177,8.7518 14.8807,8.9068 C14.8787,9.4678 14.8787,10.0198 14.8787,10.5688 C14.8807,11.3718 15.4557,11.9618 16.3207,11.9808 C16.5477,11.9868 16.7737,11.9868 16.9997,11.9898 L16.9997,17.0118 C16.9997,17.5628 16.5517,18.0118 15.9997,18.0118 M21.0097,9.5308 C21.0737,8.3908 20.4667,7.5738 19.5547,6.9208 C18.1057,5.8848 16.4087,5.4278 14.6387,5.1828 C13.7577,5.0628 12.8807,4.9988 12.0097,4.9958 C11.1387,4.9988 10.2617,5.0628 9.3807,5.1838 C7.6117,5.4278 5.9127,5.8848 4.4647,6.9208 C3.5527,7.5738 2.9457,8.3918 3.0087,9.5308 C3.0307,9.8748 3.0127,10.2198 3.0127,10.5668 C3.0167,11.3618 3.5977,11.9628 4.4507,11.9838 C4.9677,11.9948 5.4847,12.0008 5.9997,12.0018 L5.9997,17.0118 C5.9997,18.1158 6.8957,19.0118 7.9997,19.0118 L15.9997,19.0118 C17.1047,19.0118 17.9997,18.1158 17.9997,17.0118 L17.9997,12.0018 C18.5217,12.0008 19.0457,11.9948 19.5687,11.9838 C20.4217,11.9628 21.0017,11.3618 21.0057,10.5658 C21.0067,10.2198 20.9887,9.8738 21.0097,9.5308" id="Fill-1" fill="#221F20"></path>
                <path d="M10,11 C9.724,11 9.5,11.224 9.5,11.5 C9.5,11.776 9.724,12 10,12 C10.276,12 10.5,11.776 10.5,11.5 C10.5,11.224 10.276,11 10,11" id="Fill-3" fill="#221F20"></path>
                <path d="M12,11 C11.724,11 11.5,11.224 11.5,11.5 C11.5,11.776 11.724,12 12,12 C12.276,12 12.5,11.776 12.5,11.5 C12.5,11.224 12.276,11 12,11" id="Fill-5" fill="#221F20"></path>
                <path d="M14,11 C13.724,11 13.5,11.224 13.5,11.5 C13.5,11.776 13.724,12 14,12 C14.276,12 14.5,11.776 14.5,11.5 C14.5,11.224 14.276,11 14,11" id="Fill-7" fill="#221F20"></path>
                <path d="M10,13.0127 C9.724,13.0127 9.5,13.2367 9.5,13.5127 C9.5,13.7887 9.724,14.0127 10,14.0127 C10.276,14.0127 10.5,13.7887 10.5,13.5127 C10.5,13.2367 10.276,13.0127 10,13.0127" id="Fill-9" fill="#221F20"></path>
                <path d="M12,13.0127 C11.724,13.0127 11.5,13.2367 11.5,13.5127 C11.5,13.7887 11.724,14.0127 12,14.0127 C12.276,14.0127 12.5,13.7887 12.5,13.5127 C12.5,13.2367 12.276,13.0127 12,13.0127" id="Fill-11" fill="#221F20"></path>
                <path d="M14,13.0127 C13.724,13.0127 13.5,13.2367 13.5,13.5127 C13.5,13.7887 13.724,14.0127 14,14.0127 C14.276,14.0127 14.5,13.7887 14.5,13.5127 C14.5,13.2367 14.276,13.0127 14,13.0127" id="Fill-13" fill="#221F20"></path>
                <path d="M10,15.0254 C9.724,15.0254 9.5,15.2494 9.5,15.5254 C9.5,15.8014 9.724,16.0254 10,16.0254 C10.276,16.0254 10.5,15.8014 10.5,15.5254 C10.5,15.2494 10.276,15.0254 10,15.0254" id="Fill-15" fill="#221F20"></path>
                <path d="M12,15.0254 C11.724,15.0254 11.5,15.2494 11.5,15.5254 C11.5,15.8014 11.724,16.0254 12,16.0254 C12.276,16.0254 12.5,15.8014 12.5,15.5254 C12.5,15.2494 12.276,15.0254 12,15.0254" id="Fill-17" fill="#221F20"></path>
                <path d="M14,15.0254 C13.724,15.0254 13.5,15.2494 13.5,15.5254 C13.5,15.8014 13.724,16.0254 14,16.0254 C14.276,16.0254 14.5,15.8014 14.5,15.5254 C14.5,15.2494 14.276,15.0254 14,15.0254" id="Fill-19" fill="#221F20"></path>
            </g>
        </g>
    </g>
</svg>