<?xml version="1.0" encoding="UTF-8" standalone="no"?>
<svg width="24px" height="24px" viewBox="0 0 24 24" version="1.1" xmlns="http://www.w3.org/2000/svg" xmlns:xlink="http://www.w3.org/1999/xlink">
    <!-- Generator: sketchtool 40 (33762) - http://www.bohemiancoding.com/sketch -->
    <title>phone-mobile</title>
    <desc>Created with sketchtool.</desc>
    <defs></defs>
    <g id="Page-1" stroke="none" stroke-width="1" fill="none" fill-rule="evenodd">
        <g id="phone-mobile">
            <g>
                <rect id="bounds" x="0" y="0" width="24" height="24"></rect>
                <path d="M12,19.5 C12.276,19.5 12.5,19.276 12.5,19 C12.5,18.724 12.276,18.5 12,18.5 C11.724,18.5 11.5,18.724 11.5,19 C11.5,19.276 11.724,19.5 12,19.5 L12,19.5 Z" id="Fill-1" fill="#221F20"></path>
                <path d="M7.5,5.033 L16.5,5.033 L16.5,4 L7.5,4 L7.5,5.033 Z M7.5,17.016 L16.5,17.016 L16.5,6.034 L7.5,6.034 L7.5,17.016 Z M7.5,20 L16.5,20 L16.5,18.016 L7.5,18.016 L7.5,20 Z M17,3 L7,3 C6.724,3 6.5,3.224 6.5,3.5 L6.5,5.033 L6.5,6.033 L6.5,17.016 L6.5,18.016 L6.5,20.5 C6.5,20.776 6.724,21 7,21 L17,21 C17.276,21 17.5,20.776 17.5,20.5 L17.5,18.016 L17.5,17.016 L17.5,6.033 L17.5,5.033 L17.5,3.5 C17.5,3.224 17.276,3 17,3 L17,3 Z" id="Fill-3" fill="#221F20"></path>
            </g>
        </g>
    </g>
</svg>