<?xml version="1.0" encoding="UTF-8" standalone="no"?>
<svg width="24px" height="24px" viewBox="0 0 24 24" version="1.1" xmlns="http://www.w3.org/2000/svg" xmlns:xlink="http://www.w3.org/1999/xlink">
    <!-- Generator: sketchtool 40 (33762) - http://www.bohemiancoding.com/sketch -->
    <title>phone-office</title>
    <desc>Created with sketchtool.</desc>
    <defs></defs>
    <g id="Page-1" stroke="none" stroke-width="1" fill="none" fill-rule="evenodd">
        <g id="phone-office">
            <g>
                <rect id="bounds" x="0" y="0" width="24" height="24"></rect>
                <path d="M13.5,13 C13.224,13 13,13.224 13,13.5 C13,13.776 13.224,14 13.5,14 C13.776,14 14,13.776 14,13.5 C14,13.224 13.776,13 13.5,13 L13.5,13 Z" id="Fill-1" fill="#221F20"></path>
                <path d="M15.5,13 C15.224,13 15,13.224 15,13.5 C15,13.776 15.224,14 15.5,14 C15.776,14 16,13.776 16,13.5 C16,13.224 15.776,13 15.5,13" id="Fill-3" fill="#221F20"></path>
                <path d="M17.5,13 C17.224,13 17,13.224 17,13.5 C17,13.776 17.224,14 17.5,14 C17.776,14 18,13.776 18,13.5 C18,13.224 17.776,13 17.5,13" id="Fill-5" fill="#221F20"></path>
                <path d="M13.5,15.0127 C13.224,15.0127 13,15.2367 13,15.5127 C13,15.7887 13.224,16.0127 13.5,16.0127 C13.776,16.0127 14,15.7887 14,15.5127 C14,15.2367 13.776,15.0127 13.5,15.0127" id="Fill-7" fill="#221F20"></path>
                <path d="M15.5,15.0127 C15.224,15.0127 15,15.2367 15,15.5127 C15,15.7887 15.224,16.0127 15.5,16.0127 C15.776,16.0127 16,15.7887 16,15.5127 C16,15.2367 15.776,15.0127 15.5,15.0127" id="Fill-9" fill="#221F20"></path>
                <path d="M17.5,15.0127 C17.224,15.0127 17,15.2367 17,15.5127 C17,15.7887 17.224,16.0127 17.5,16.0127 C17.776,16.0127 18,15.7887 18,15.5127 C18,15.2367 17.776,15.0127 17.5,15.0127" id="Fill-11" fill="#221F20"></path>
                <path d="M13.5,17.0254 C13.224,17.0254 13,17.2494 13,17.5254 C13,17.8014 13.224,18.0254 13.5,18.0254 C13.776,18.0254 14,17.8014 14,17.5254 C14,17.2494 13.776,17.0254 13.5,17.0254" id="Fill-13" fill="#221F20"></path>
                <path d="M15.5,17.0254 C15.224,17.0254 15,17.2494 15,17.5254 C15,17.8014 15.224,18.0254 15.5,18.0254 C15.776,18.0254 16,17.8014 16,17.5254 C16,17.2494 15.776,17.0254 15.5,17.0254" id="Fill-15" fill="#221F20"></path>
                <path d="M17.5,17.0254 C17.224,17.0254 17,17.2494 17,17.5254 C17,17.8014 17.224,18.0254 17.5,18.0254 C17.776,18.0254 18,17.8014 18,17.5254 C18,17.2494 17.776,17.0254 17.5,17.0254" id="Fill-17" fill="#221F20"></path>
                <path d="M13,11.008 L18,11.008 L18,9.008 L13,9.008 L13,11.008 Z M12.5,12.008 L18.5,12.008 C18.776,12.008 19,11.784 19,11.508 L19,8.508 C19,8.231 18.776,8.008 18.5,8.008 L12.5,8.008 C12.224,8.008 12,8.231 12,8.508 L12,11.508 C12,11.784 12.224,12.008 12.5,12.008 L12.5,12.008 Z" id="Fill-19" fill="#221F20"></path>
                <path d="M20,19 L4,19 L4,7 L4.996,7 L4.996,15.508 C4.996,15.784 5.22,16.008 5.496,16.008 L10.496,16.008 C10.772,16.008 10.996,15.784 10.996,15.508 L10.996,7 L20,7 L20,19 Z M5.996,15.008 L9.996,15.008 L9.996,5.008 L5.996,5.008 L5.996,15.008 Z M20.5,6 L10.996,6 L10.996,4.508 C10.996,4.231 10.772,4.008 10.496,4.008 L5.496,4.008 C5.22,4.008 4.996,4.231 4.996,4.508 L4.996,6 L3.5,6 C3.224,6 3,6.225 3,6.5 L3,19.5 C3,19.776 3.224,20 3.5,20 L20.5,20 C20.776,20 21,19.776 21,19.5 L21,6.5 C21,6.225 20.776,6 20.5,6 L20.5,6 Z" id="Fill-21" fill="#221F20"></path>
            </g>
        </g>
    </g>
</svg>