<?xml version="1.0" encoding="UTF-8" standalone="no"?>
<svg width="24px" height="24px" viewBox="0 0 24 24" version="1.1" xmlns="http://www.w3.org/2000/svg" xmlns:xlink="http://www.w3.org/1999/xlink">
    <!-- Generator: sketchtool 40 (33762) - http://www.bohemiancoding.com/sketch -->
    <title>place</title>
    <desc>Created with sketchtool.</desc>
    <defs></defs>
    <g id="Page-1" stroke="none" stroke-width="1" fill="none" fill-rule="evenodd">
        <g id="place">
            <g>
                <rect id="bounds" x="0" y="0" width="24" height="24"></rect>
                <path d="M12,3.0005 C8.297,3.0005 5.285,5.8965 5.285,9.4565 C5.285,10.6335 5.618,11.7875 6.257,12.8035 L11.621,20.7545 C11.707,20.8825 11.852,20.9585 12.006,20.9585 C12.159,20.9585 12.305,20.8825 12.391,20.7545 L17.76,12.7775 C18.385,11.7805 18.715,10.6305 18.715,9.4565 C18.715,5.8965 15.703,3.0005 12,3.0005 M12,4.0005 C15.151,4.0005 17.715,6.4475 17.715,9.4565 C17.715,10.4435 17.437,11.4095 16.931,12.2195 L12.005,19.5365 L7.104,12.2715 C6.568,11.4195 6.285,10.4455 6.285,9.4565 C6.285,6.4475 8.849,4.0005 12,4.0005" id="Fill-1" fill="#221F20"></path>
                <path d="M12,6.0078 C10.346,6.0078 9,7.3538 9,9.0078 C9,10.6618 10.346,12.0078 12,12.0078 C13.654,12.0078 15,10.6618 15,9.0078 C15,7.3538 13.654,6.0078 12,6.0078 M12,7.0078 C13.104,7.0078 14,7.9038 14,9.0078 C14,10.1118 13.104,11.0078 12,11.0078 C10.896,11.0078 10,10.1118 10,9.0078 C10,7.9038 10.896,7.0078 12,7.0078" id="Fill-3" fill="#221F20"></path>
            </g>
        </g>
    </g>
</svg>