<?xml version="1.0" encoding="UTF-8" standalone="no"?>
<svg width="24px" height="24px" viewBox="0 0 24 24" version="1.1" xmlns="http://www.w3.org/2000/svg" xmlns:xlink="http://www.w3.org/1999/xlink">
    <!-- Generator: sketchtool 40 (33762) - http://www.bohemiancoding.com/sketch -->
    <title>print</title>
    <desc>Created with sketchtool.</desc>
    <defs></defs>
    <g id="Page-1" stroke="none" stroke-width="1" fill="none" fill-rule="evenodd">
        <g id="print">
            <g>
                <rect id="bounds" x="0" y="0" width="24" height="24"></rect>
                <path d="M17.0039,16 L17.4999,16 C17.7759,16 17.9999,15.776 17.9999,15.5 C17.9999,15.224 17.7759,15 17.4999,15 L6.4999,15 C6.2239,15 5.9999,15.224 5.9999,15.5 C5.9999,15.776 6.2239,16 6.4999,16 L6.9999,16 L6.9999,17 L3.9999,17 L3.9999,9.007 L20.0079,9.007 L20.0079,17 L17.0039,17 L17.0039,16 Z M7.9999,19.018 L16.0039,19.018 L16.0039,16 L7.9999,16 L7.9999,19.018 Z M7.9999,8.007 L16.0039,8.007 L16.0039,5.003 L7.9999,5.003 L7.9999,8.007 Z M20.7019,8.051 C20.6399,8.023 20.5719,8.007 20.4999,8.007 L17.0039,8.007 L17.0039,4.503 C17.0039,4.227 16.7799,4.003 16.5039,4.003 L16.5019,4.003 L16.4999,4.003 L7.4999,4.003 C7.2239,4.003 6.9999,4.227 6.9999,4.503 L6.9999,8.007 L3.4999,8.007 C3.2239,8.007 2.9999,8.23 2.9999,8.507 L2.9999,8.509 L2.9999,8.512 L2.9999,17.457 C2.9989,17.472 2.9909,17.484 2.9909,17.5 C2.9909,17.639 3.0479,17.764 3.1399,17.854 C3.2309,17.951 3.3579,18.012 3.4999,18.012 C3.5209,18.012 3.5379,18.002 3.5589,18 L6.9999,18 L6.9999,19.5 C6.9999,19.503 7.0019,19.506 7.0019,19.509 C7.0019,19.512 6.9999,19.515 6.9999,19.518 C6.9999,19.794 7.2239,20.018 7.4999,20.018 L16.4999,20.018 C16.7129,20.018 16.8929,19.883 16.9639,19.695 C16.9889,19.635 17.0039,19.569 17.0039,19.5 L17.0039,18 L20.4489,18 C20.4699,18.002 20.4869,18.012 20.5079,18.012 C20.7839,18.012 21.0079,17.788 21.0079,17.512 L21.0079,8.512 C21.0079,8.304 20.8819,8.126 20.7019,8.051 L20.7019,8.051 Z" id="Fill-1" fill="#221F20"></path>
                <path d="M18.5,10.0088 L17.5,10.0088 C17.224,10.0088 17,10.2328 17,10.5088 C17,10.7848 17.224,11.0088 17.5,11.0088 L18.5,11.0088 C18.776,11.0088 19,10.7848 19,10.5088 C19,10.2328 18.776,10.0088 18.5,10.0088" id="Fill-3" fill="#221F20"></path>
            </g>
        </g>
    </g>
</svg>