<?xml version="1.0" encoding="UTF-8" standalone="no"?>
<svg width="24px" height="24px" viewBox="0 0 24 24" version="1.1" xmlns="http://www.w3.org/2000/svg" xmlns:xlink="http://www.w3.org/1999/xlink">
    <!-- Generator: sketchtool 40 (33762) - http://www.bohemiancoding.com/sketch -->
    <title>records</title>
    <desc>Created with sketchtool.</desc>
    <defs></defs>
    <g id="Page-1" stroke="none" stroke-width="1" fill="none" fill-rule="evenodd">
        <g id="records">
            <g>
                <rect id="bounds" x="0" y="0" width="24" height="24"></rect>
                <path d="M5.5,7.0049 L14.5,7.0049 C14.776,7.0049 15,6.7809 15,6.5049 C15,6.2289 14.776,6.0049 14.5,6.0049 L5.5,6.0049 C5.224,6.0049 5,6.2289 5,6.5049 C5,6.7809 5.224,7.0049 5.5,7.0049" id="Fill-1" fill="#221F20"></path>
                <path d="M10.0029,20.0137 C10.0029,17.2517 12.2409,15.0137 15.0029,15.0137 C17.7649,15.0137 20.0029,17.2517 20.0029,20.0137 L10.0029,20.0137 Z M11.0899,15.4747 C11.0859,15.4777 11.0829,15.4817 11.0789,15.4847 C11.0829,15.4817 11.0859,15.4777 11.0899,15.4747 L11.0899,15.4747 Z M9.3549,18.0077 L4.0019,18.0077 L4.0019,4.0077 L16.0019,4.0077 L16.0019,7.1517 C15.6809,7.0677 15.3499,7.0097 15.0029,7.0097 C13.4489,7.0097 12.1149,7.9097 11.4529,9.2057 C11.4859,9.1397 11.5139,9.0717 11.5509,9.0077 L5.4999,9.0077 C5.2239,9.0077 4.9999,9.2317 4.9999,9.5077 C4.9999,9.7847 5.2239,10.0077 5.4999,10.0077 L11.1389,10.0077 C11.1649,9.9087 11.2029,9.8147 11.2359,9.7177 C11.0949,10.1257 11.0029,10.5557 11.0029,11.0097 C11.0029,11.3967 11.0759,11.7637 11.1789,12.1187 C11.1679,12.0817 11.1519,12.0477 11.1429,12.0107 L5.4999,12.0107 C5.2239,12.0107 4.9999,12.2347 4.9999,12.5107 C4.9999,12.7867 5.2239,13.0107 5.4999,13.0107 L11.5569,13.0107 C11.5439,12.9877 11.5339,12.9627 11.5219,12.9397 C11.8539,13.5367 12.3249,14.0397 12.9039,14.3997 C12.4759,14.5607 12.0689,14.7637 11.6929,15.0137 L5.4999,15.0137 C5.2239,15.0137 4.9999,15.2377 4.9999,15.5137 C4.9999,15.7897 5.2239,16.0137 5.4999,16.0137 L10.5429,16.0137 C10.5439,16.0127 10.5459,16.0117 10.5469,16.0097 C10.0279,16.5867 9.6209,17.2627 9.3549,18.0077 L9.3549,18.0077 Z M18.0029,11.0097 C18.0029,12.6657 16.6599,14.0097 15.0029,14.0097 C13.3459,14.0097 12.0029,12.6657 12.0029,11.0097 C12.0029,9.3537 13.3459,8.0097 15.0029,8.0097 C16.6599,8.0097 18.0029,9.3537 18.0029,11.0097 L18.0029,11.0097 Z M17.1019,14.3997 C18.2379,13.6937 19.0029,12.4437 19.0029,11.0097 C19.0029,9.5357 18.1919,8.2597 17.0019,7.5657 L17.0019,3.5077 C17.0019,3.2317 16.7779,3.0077 16.5019,3.0077 L3.5019,3.0077 C3.2259,3.0077 3.0019,3.2317 3.0019,3.5077 L3.0019,18.5077 C3.0019,18.7847 3.2259,19.0077 3.5019,19.0077 L9.0939,19.0077 C9.0389,19.3357 9.0029,19.6707 9.0029,20.0137 C9.0029,20.5667 9.4499,21.0137 10.0029,21.0137 L20.0029,21.0137 C20.5559,21.0137 21.0029,20.5667 21.0029,20.0137 C21.0029,17.4447 19.3769,15.2537 17.1019,14.3997 L17.1019,14.3997 Z" id="Fill-3" fill="#221F20"></path>
            </g>
        </g>
    </g>
</svg>