<?xml version="1.0" encoding="UTF-8" standalone="no"?>
<svg width="24px" height="24px" viewBox="0 0 24 24" version="1.1" xmlns="http://www.w3.org/2000/svg" xmlns:xlink="http://www.w3.org/1999/xlink">
    <!-- Generator: sketchtool 40 (33762) - http://www.bohemiancoding.com/sketch -->
    <title>refresh-no</title>
    <desc>Created with sketchtool.</desc>
    <defs></defs>
    <g id="Page-1" stroke="none" stroke-width="1" fill="none" fill-rule="evenodd">
        <g id="refresh-no">
            <g>
                <rect id="bounds" x="0" y="0" width="24" height="24"></rect>
                <path d="M20.6211,11.0215 C20.4261,10.8265 20.1091,10.8265 19.9141,11.0215 L18.9971,11.9385 C18.9821,10.2125 18.3371,8.6375 17.2841,7.4225 L18.3631,6.3435 C18.5581,6.1485 18.5581,5.8325 18.3631,5.6365 C18.1671,5.4415 17.8501,5.4415 17.6551,5.6365 L16.5761,6.7155 C15.3481,5.6505 13.7501,5.0005 12.0001,5.0005 C10.1301,5.0005 8.3721,5.7285 7.0511,7.0505 C6.8551,7.2465 6.8551,7.5625 7.0511,7.7575 C7.2461,7.9535 7.5621,7.9535 7.7581,7.7575 C8.8911,6.6245 10.3961,6.0005 12.0001,6.0005 C13.4751,6.0005 14.8241,6.5365 15.8701,7.4215 L7.4001,15.8915 C6.5291,14.8615 5.9981,13.5375 5.9821,12.0895 L6.8921,13.0005 C7.0891,13.1955 7.4041,13.1955 7.6001,13.0005 C7.7951,12.8045 7.7961,12.4885 7.6001,12.2925 L5.8321,10.5255 C5.6371,10.3305 5.3201,10.3305 5.1251,10.5255 L3.3571,12.2925 C3.1621,12.4885 3.1621,12.8045 3.3571,13.0005 C3.5531,13.1955 3.8691,13.1955 4.0641,13.0005 L4.9811,12.0835 C4.9961,13.8085 5.6411,15.3835 6.6941,16.5975 L5.6351,17.6565 C5.4391,17.8525 5.4391,18.1685 5.6351,18.3645 C5.8301,18.5605 6.1461,18.5605 6.3421,18.3645 L7.4011,17.3055 C8.6301,18.3715 10.2281,19.0215 11.9781,19.0215 C13.8491,19.0215 15.6061,18.2925 16.9281,16.9705 C17.1231,16.7755 17.1231,16.4585 16.9281,16.2635 C16.7321,16.0685 16.4161,16.0685 16.2211,16.2635 C15.0881,17.3975 13.5821,18.0215 11.9781,18.0215 C10.5041,18.0215 9.1531,17.4845 8.1081,16.5985 L16.5771,8.1295 C17.4491,9.1595 17.9801,10.4845 17.9961,11.9325 L17.0861,11.0215 C16.8901,10.8265 16.5741,10.8265 16.3791,11.0215 C16.1841,11.2165 16.1831,11.5335 16.3791,11.7285 L18.1461,13.4965 C18.3421,13.6915 18.6581,13.6915 18.8531,13.4965 L20.6211,11.7285 C20.8161,11.5335 20.8161,11.2165 20.6211,11.0215" id="Fill-1" fill="#221F20"></path>
            </g>
        </g>
    </g>
</svg>