<?xml version="1.0" encoding="UTF-8" standalone="no"?>
<svg width="24px" height="24px" viewBox="0 0 24 24" version="1.1" xmlns="http://www.w3.org/2000/svg" xmlns:xlink="http://www.w3.org/1999/xlink">
    <!-- Generator: sketchtool 40 (33762) - http://www.bohemiancoding.com/sketch -->
    <title>refresh</title>
    <desc>Created with sketchtool.</desc>
    <defs></defs>
    <g id="Page-1" stroke="none" stroke-width="1" fill="none" fill-rule="evenodd">
        <g id="refresh">
            <g>
                <rect id="bounds" x="0" y="0" width="24" height="24"></rect>
                <path d="M20.6211,11.0215 C20.4261,10.8265 20.1091,10.8265 19.9141,11.0215 L18.9971,11.9385 C18.9631,8.1075 15.8391,5.0005 12.0001,5.0005 C10.1301,5.0005 8.3721,5.7285 7.0511,7.0505 C6.8551,7.2465 6.8551,7.5625 7.0511,7.7575 C7.2461,7.9535 7.5621,7.9535 7.7581,7.7575 C8.8911,6.6245 10.3961,6.0005 12.0001,6.0005 C15.2861,6.0005 17.9591,8.6555 17.9961,11.9325 L17.0861,11.0215 C16.8901,10.8265 16.5741,10.8265 16.3791,11.0215 C16.1841,11.2165 16.1831,11.5335 16.3791,11.7285 L18.1461,13.4965 C18.3421,13.6915 18.6581,13.6915 18.8531,13.4965 L20.6211,11.7285 C20.8161,11.5335 20.8161,11.2165 20.6211,11.0215" id="Fill-1" fill="#221F20"></path>
                <path d="M16.9277,16.2637 C16.7327,16.0687 16.4157,16.0687 16.2207,16.2637 C15.0877,17.3977 13.5817,18.0217 11.9787,18.0217 C8.6927,18.0217 6.0187,15.3667 5.9817,12.0897 L6.8927,12.9997 C7.0887,13.1957 7.4047,13.1957 7.5997,12.9997 C7.7947,12.8047 7.7957,12.4887 7.5997,12.2927 L5.8317,10.5257 C5.6367,10.3297 5.3207,10.3297 5.1247,10.5257 L3.3577,12.2927 C3.1617,12.4887 3.1617,12.8047 3.3577,12.9997 C3.5527,13.1957 3.8687,13.1957 4.0647,12.9997 L4.9817,12.0827 C5.0147,15.9137 8.1397,19.0217 11.9787,19.0217 C13.8487,19.0217 15.6067,18.2927 16.9277,16.9707 C17.1227,16.7757 17.1227,16.4587 16.9277,16.2637" id="Fill-3" fill="#221F20"></path>
            </g>
        </g>
    </g>
</svg>