<?xml version="1.0" encoding="UTF-8" standalone="no"?>
<svg width="24px" height="24px" viewBox="0 0 24 24" version="1.1" xmlns="http://www.w3.org/2000/svg" xmlns:xlink="http://www.w3.org/1999/xlink">
    <!-- Generator: sketchtool 40 (33762) - http://www.bohemiancoding.com/sketch -->
    <title>search</title>
    <desc>Created with sketchtool.</desc>
    <defs></defs>
    <g id="Page-1" stroke="none" stroke-width="1" fill="none" fill-rule="evenodd">
        <g id="search">
            <g>
                <rect id="bounds" x="0" y="0" width="24" height="24"></rect>
                <path d="M9.4912,15.0078 C6.4592,15.0078 3.9912,12.5398 3.9912,9.5078 C3.9912,6.4748 6.4592,4.0078 9.4912,4.0078 C12.5232,4.0078 14.9912,6.4748 14.9912,9.5078 C14.9912,12.5398 12.5232,15.0078 9.4912,15.0078 M20.8532,20.1658 L14.4232,13.7358 C15.3982,12.5978 15.9912,11.1238 15.9912,9.5078 C15.9912,5.9178 13.0812,3.0078 9.4912,3.0078 C5.9012,3.0078 2.9912,5.9178 2.9912,9.5078 C2.9912,13.0978 5.9012,16.0078 9.4912,16.0078 C11.1052,16.0078 12.5782,15.4158 13.7152,14.4428 L20.1462,20.8728 C20.2442,20.9708 20.3722,21.0198 20.5002,21.0198 C20.6282,21.0198 20.7562,20.9708 20.8532,20.8728 C21.0492,20.6778 21.0492,20.3618 20.8532,20.1658" id="Fill-1" fill="#221F20"></path>
            </g>
        </g>
    </g>
</svg>