<?xml version="1.0" encoding="UTF-8" standalone="no"?>
<svg width="24px" height="24px" viewBox="0 0 24 24" version="1.1" xmlns="http://www.w3.org/2000/svg" xmlns:xlink="http://www.w3.org/1999/xlink">
    <!-- Generator: sketchtool 40 (33762) - http://www.bohemiancoding.com/sketch -->
    <title>settings</title>
    <desc>Created with sketchtool.</desc>
    <defs></defs>
    <g id="Page-1" stroke="none" stroke-width="1" fill="none" fill-rule="evenodd">
        <g id="settings">
            <g>
                <rect id="bounds" x="0" y="0" width="24" height="24"></rect>
                <path d="M12,3 C11.797,3 11.529,3.008 11.403,3.021 L11.403,3.021 C11.096,3.049 10.798,3.307 10.725,3.607 L10.281,5.451 C10.235,5.647 10.034,5.871 9.823,5.947 L9.241,6.188 C9.164,6.224 9.061,6.241 8.956,6.241 C8.819,6.241 8.679,6.211 8.585,6.154 L6.966,5.164 C6.832,5.084 6.687,5.066 6.59,5.066 C6.4,5.066 6.224,5.125 6.098,5.229 C6.086,5.237 6.076,5.247 6.066,5.257 L5.259,6.065 C5.249,6.075 5.239,6.084 5.232,6.095 C5.038,6.326 5.007,6.708 5.164,6.965 L6.156,8.586 C6.26,8.757 6.274,9.056 6.178,9.261 L5.94,9.843 C5.872,10.033 5.646,10.234 5.453,10.282 L3.604,10.727 C3.308,10.799 3.054,11.095 3.02,11.399 L3.02,11.415 C3.012,11.493 3,11.707 3,12 C3,12.273 3.012,12.482 3.017,12.557 C3.017,12.571 3.02,12.588 3.02,12.604 C3.054,12.907 3.311,13.202 3.605,13.273 L5.45,13.718 C5.646,13.766 5.872,13.967 5.947,14.179 L6.188,14.761 C6.274,14.943 6.26,15.244 6.156,15.416 L5.162,17.037 C5.007,17.295 5.036,17.666 5.23,17.902 C5.237,17.914 5.247,17.925 5.259,17.936 L6.066,18.742 C6.076,18.75 6.083,18.758 6.093,18.766 C6.22,18.873 6.41,18.93 6.595,18.93 C6.732,18.93 6.865,18.898 6.966,18.835 L8.585,17.846 C8.678,17.789 8.808,17.755 8.944,17.755 C9.051,17.755 9.161,17.775 9.261,17.822 L9.84,18.059 C10.032,18.129 10.235,18.354 10.281,18.547 L10.725,20.394 C10.798,20.691 11.094,20.949 11.401,20.979 C11.406,20.98 11.408,20.98 11.413,20.98 C11.493,20.986 11.707,21 12,21 C12.288,21 12.504,20.986 12.587,20.98 C12.592,20.98 12.597,20.98 12.604,20.979 C12.909,20.947 13.202,20.691 13.275,20.395 L13.719,18.549 C13.765,18.354 13.968,18.129 14.174,18.053 L14.764,17.812 C14.839,17.775 14.94,17.758 15.045,17.758 C15.182,17.758 15.323,17.788 15.415,17.845 L17.034,18.835 C17.139,18.899 17.272,18.93 17.408,18.93 C17.591,18.93 17.777,18.875 17.904,18.77 C17.914,18.761 17.927,18.751 17.937,18.742 L18.743,17.936 C18.756,17.924 18.766,17.91 18.777,17.898 C18.964,17.664 18.99,17.295 18.836,17.032 L17.847,15.414 C17.74,15.243 17.726,14.944 17.822,14.739 L18.06,14.161 C18.13,13.969 18.354,13.766 18.547,13.718 L20.394,13.273 C20.689,13.201 20.946,12.906 20.98,12.592 C20.98,12.581 21,12.344 21,12 C21,11.726 20.988,11.518 20.983,11.443 C20.983,11.428 20.98,11.412 20.98,11.396 C20.946,11.092 20.689,10.797 20.392,10.727 L18.55,10.282 C18.354,10.234 18.13,10.031 18.053,9.824 L17.812,9.238 C17.726,9.056 17.74,8.756 17.847,8.584 L18.836,6.965 C18.99,6.709 18.964,6.328 18.772,6.098 C18.763,6.086 18.753,6.075 18.743,6.065 L17.937,5.257 C17.924,5.246 17.912,5.235 17.899,5.225 C17.776,5.125 17.597,5.066 17.412,5.066 C17.313,5.066 17.168,5.084 17.032,5.165 L15.415,6.154 C15.322,6.211 15.19,6.244 15.053,6.244 C14.946,6.244 14.837,6.225 14.739,6.18 L14.157,5.94 C13.968,5.871 13.765,5.647 13.719,5.453 L13.272,3.605 C13.202,3.307 12.904,3.05 12.592,3.02 C12.582,3.02 12.347,3 12,3 M12,4 C12.137,4 12.254,4.003 12.341,4.007 L12.745,5.682 C12.867,6.2 13.306,6.692 13.777,6.865 L14.321,7.088 C14.543,7.19 14.796,7.244 15.053,7.244 C15.371,7.244 15.684,7.161 15.938,7.008 L17.386,6.121 L17.878,6.614 L16.996,8.059 C16.719,8.508 16.679,9.15 16.895,9.635 L17.115,10.174 C17.309,10.692 17.79,11.127 18.315,11.254 L19.993,11.658 C19.997,11.747 20,11.864 20,12 C20,12.136 19.997,12.252 19.993,12.341 L18.309,12.746 C17.793,12.873 17.304,13.314 17.135,13.781 L16.904,14.342 C16.679,14.848 16.714,15.486 16.993,15.936 L17.88,17.385 L17.387,17.879 L15.94,16.994 C15.607,16.789 15.236,16.758 15.045,16.758 C14.871,16.758 14.616,16.781 14.365,16.895 L13.825,17.115 C13.303,17.31 12.869,17.793 12.746,18.314 L12.344,19.993 C12.253,19.997 12.136,20 12,20 C11.862,20 11.746,19.997 11.657,19.993 L11.254,18.316 C11.132,17.797 10.691,17.306 10.219,17.133 L9.685,16.916 C9.459,16.811 9.203,16.755 8.944,16.755 C8.628,16.755 8.316,16.838 8.063,16.992 L6.615,17.877 L6.122,17.385 L7.013,15.932 C7.283,15.483 7.319,14.844 7.104,14.362 L6.879,13.814 C6.685,13.301 6.209,12.873 5.685,12.746 L4.007,12.341 C4.003,12.253 4,12.135 4,12 C4,11.862 4.003,11.746 4.006,11.658 L5.691,11.254 C6.212,11.126 6.701,10.685 6.866,10.221 L7.096,9.656 C7.319,9.156 7.286,8.522 7.009,8.062 L6.123,6.615 L6.615,6.123 L8.066,7.01 C8.398,7.211 8.767,7.241 8.956,7.241 C9.135,7.241 9.403,7.215 9.623,7.111 L10.163,6.888 C10.691,6.697 11.131,6.211 11.254,5.686 L11.657,4.006 C11.764,4.002 11.893,4 12,4" id="Fill-1" fill="#221F20"></path>
                <path d="M12.0107,8.0176 C9.8057,8.0176 8.0177,9.8046 8.0177,12.0106 C8.0177,14.2166 9.8057,16.0036 12.0107,16.0036 C14.2157,16.0036 16.0037,14.2166 16.0037,12.0106 C16.0037,9.8046 14.2157,8.0176 12.0107,8.0176 M12.0107,9.0176 C13.6607,9.0176 15.0037,10.3606 15.0037,12.0106 C15.0037,13.6616 13.6607,15.0036 12.0107,15.0036 C10.3607,15.0036 9.0177,13.6616 9.0177,12.0106 C9.0177,10.3606 10.3607,9.0176 12.0107,9.0176" id="Fill-3" fill="#221F20"></path>
            </g>
        </g>
    </g>
</svg>