<?xml version="1.0" encoding="UTF-8" standalone="no"?>
<svg width="24px" height="24px" viewBox="0 0 24 24" version="1.1" xmlns="http://www.w3.org/2000/svg" xmlns:xlink="http://www.w3.org/1999/xlink">
    <!-- Generator: sketchtool 40 (33762) - http://www.bohemiancoding.com/sketch -->
    <title>share</title>
    <desc>Created with sketchtool.</desc>
    <defs></defs>
    <g id="Page-1" stroke="none" stroke-width="1" fill="none" fill-rule="evenodd">
        <g id="share">
            <g>
                <rect id="bounds" x="0" y="0" width="24" height="24"></rect>
                <path d="M16,19.5 C15.173,19.5 14.5,18.827 14.5,18 C14.5,17.173 15.173,16.5 16,16.5 C16.827,16.5 17.5,17.173 17.5,18 C17.5,18.827 16.827,19.5 16,19.5 M8,13.5 C7.173,13.5 6.5,12.827 6.5,12 C6.5,11.173 7.173,10.5 8,10.5 C8.827,10.5 9.5,11.173 9.5,12 C9.5,12.827 8.827,13.5 8,13.5 M14.073,7.575 C14.071,7.573 14.069,7.57 14.068,7.568 C14.069,7.57 14.071,7.573 14.073,7.575 M16,4.5 C16.827,4.5 17.5,5.173 17.5,6 C17.5,6.827 16.827,7.5 16,7.5 C15.173,7.5 14.5,6.827 14.5,6 C14.5,5.173 15.173,4.5 16,4.5 M16,15.5 C15.464,15.5 14.97,15.672 14.563,15.959 L14.564,15.958 L10.3,12.98 C10.298,12.985 10.295,12.988 10.293,12.993 C10.425,12.688 10.5,12.354 10.5,12 C10.5,11.588 10.391,11.205 10.214,10.862 C10.215,10.864 10.216,10.865 10.217,10.866 L14.426,7.928 L14.425,7.927 C14.855,8.279 15.399,8.5 16,8.5 C17.381,8.5 18.5,7.381 18.5,6 C18.5,4.619 17.381,3.5 16,3.5 C14.619,3.5 13.5,4.619 13.5,6 C13.5,6.417 13.612,6.805 13.793,7.15 L9.589,10.085 C9.156,9.725 8.607,9.5 8,9.5 C6.619,9.5 5.5,10.619 5.5,12 C5.5,13.381 6.619,14.5 8,14.5 C8.673,14.5 9.281,14.231 9.73,13.799 C9.729,13.799 9.729,13.8 9.729,13.801 L13.876,16.696 C13.642,17.077 13.5,17.521 13.5,18 C13.5,19.381 14.619,20.5 16,20.5 C17.381,20.5 18.5,19.381 18.5,18 C18.5,16.619 17.381,15.5 16,15.5" id="Fill-1" fill="#221F20"></path>
            </g>
        </g>
    </g>
</svg>