<?xml version="1.0" encoding="UTF-8" standalone="no"?>
<svg width="24px" height="24px" viewBox="0 0 24 24" version="1.1" xmlns="http://www.w3.org/2000/svg" xmlns:xlink="http://www.w3.org/1999/xlink">
    <!-- Generator: sketchtool 40 (33762) - http://www.bohemiancoding.com/sketch -->
    <title>sort</title>
    <desc>Created with sketchtool.</desc>
    <defs></defs>
    <g id="Page-1" stroke="none" stroke-width="1" fill="none" fill-rule="evenodd">
        <g id="sort">
            <g>
                <rect id="bounds" x="0" y="0" width="24" height="24"></rect>
                <path d="M19.9082,15.6299 C19.7132,15.4349 19.3952,15.4359 19.2012,15.6299 L16.5192,18.3119 L16.5192,4.5109 C16.5192,4.2339 16.2952,4.0109 16.0192,4.0109 C15.7422,4.0109 15.5192,4.2339 15.5192,4.5109 L15.5192,18.3119 L12.8372,15.6299 C12.6412,15.4349 12.3252,15.4349 12.1302,15.6299 C11.9342,15.8249 11.9342,16.1419 12.1302,16.3369 L15.6652,19.8719 C15.7622,19.9699 15.8912,20.0189 16.0192,20.0189 C16.1472,20.0189 16.2752,19.9699 16.3722,19.8719 L19.9082,16.3369 C20.1022,16.1429 20.1032,15.8249 19.9082,15.6299" id="Fill-1" fill="#221F20"></path>
                <path d="M11.9009,7.6924 L8.3649,4.1574 C8.2679,4.0594 8.1399,4.0104 8.0119,4.0104 C7.8839,4.0104 7.7559,4.0594 7.6579,4.1574 L4.1229,7.6924 C3.9279,7.8864 3.9269,8.2044 4.1229,8.3994 C4.3179,8.5944 4.6349,8.5934 4.8299,8.3994 L7.5119,5.7174 L7.5119,19.5184 C7.5119,19.7954 7.7349,20.0184 8.0119,20.0184 C8.2879,20.0184 8.5119,19.7954 8.5119,19.5184 L8.5119,5.7174 L11.1939,8.3994 C11.3889,8.5944 11.7059,8.5944 11.9009,8.3994 C12.0959,8.2044 12.0959,7.8874 11.9009,7.6924" id="Fill-3" fill="#221F20"></path>
            </g>
        </g>
    </g>
</svg>