<?xml version="1.0" encoding="UTF-8" standalone="no"?>
<svg width="24px" height="24px" viewBox="0 0 24 24" version="1.1" xmlns="http://www.w3.org/2000/svg" xmlns:xlink="http://www.w3.org/1999/xlink">
    <!-- Generator: sketchtool 40 (33762) - http://www.bohemiancoding.com/sketch -->
    <title>star-solid</title>
    <desc>Created with sketchtool.</desc>
    <defs></defs>
    <g id="Page-1" stroke="none" stroke-width="1" fill="none" fill-rule="evenodd">
        <g id="star-solid">
            <g>
                <rect id="bounds" x="0" y="0" width="24" height="24"></rect>
                <path d="M21.0195,9.9395 C20.9655,9.7695 20.8165,9.6485 20.6385,9.6305 L14.7335,9.0685 L12.4095,3.6605 C12.3385,3.4975 12.1785,3.3925 12.0015,3.3925 C11.8225,3.3925 11.6625,3.4975 11.5915,3.6605 L9.2685,9.0685 L3.3625,9.6305 C3.1845,9.6485 3.0355,9.7695 2.9815,9.9395 C2.9275,10.1085 2.9805,10.2935 3.1155,10.4105 L7.5405,14.2085 L6.2495,20.0685 C6.2115,20.2385 6.2815,20.4185 6.4235,20.5215 C6.5005,20.5785 6.5925,20.6065 6.6845,20.6065 C6.7625,20.6065 6.8405,20.5855 6.9115,20.5435 L12.0015,17.5235 L17.0895,20.5435 C17.1605,20.5855 17.2395,20.6055 17.3175,20.6055 L17.3225,20.6055 C17.5685,20.6055 17.7655,20.4075 17.7655,20.1625 C17.7655,20.1045 17.7545,20.0485 17.7355,19.9985 L16.4595,14.2085 L20.8855,10.4105 C21.0205,10.2935 21.0735,10.1085 21.0195,9.9395" id="Fill-1" fill="#221F20"></path>
            </g>
        </g>
    </g>
</svg>