<?xml version="1.0" encoding="UTF-8" standalone="no"?>
<svg width="24px" height="24px" viewBox="0 0 24 24" version="1.1" xmlns="http://www.w3.org/2000/svg" xmlns:xlink="http://www.w3.org/1999/xlink">
    <!-- Generator: sketchtool 40 (33762) - http://www.bohemiancoding.com/sketch -->
    <title>star</title>
    <desc>Created with sketchtool.</desc>
    <defs></defs>
    <g id="Page-1" stroke="none" stroke-width="1" fill="none" fill-rule="evenodd">
        <g id="star">
            <g>
                <rect id="bounds" x="0" y="0" width="24" height="24"></rect>
                <path d="M12.002,3.3926 C11.822,3.3926 11.662,3.4966 11.592,3.6606 L9.269,9.0686 L3.362,9.6306 C3.185,9.6486 3.035,9.7696 2.981,9.9396 C2.928,10.1086 2.981,10.2936 3.115,10.4106 L7.541,14.2076 L6.25,20.0686 C6.212,20.2386 6.281,20.4186 6.424,20.5216 C6.501,20.5786 6.593,20.6066 6.685,20.6066 C6.763,20.6066 6.841,20.5856 6.911,20.5436 L12.002,17.5236 L17.09,20.5436 C17.16,20.5856 17.239,20.6056 17.317,20.6056 L17.322,20.6056 C17.568,20.6056 17.766,20.4076 17.766,20.1626 C17.766,20.1046 17.755,20.0486 17.735,19.9976 L16.46,14.2076 L20.886,10.4106 C21.021,10.2936 21.073,10.1086 21.02,9.9396 C20.966,9.7696 20.816,9.6486 20.639,9.6306 L14.733,9.0686 L12.409,3.6606 C12.339,3.4966 12.179,3.3926 12.002,3.3926 M12.001,5.2426 L13.814,9.4626 L14.049,10.0076 L14.639,10.0636 L19.243,10.5016 L15.809,13.4496 L15.355,13.8386 L15.483,14.4236 L16.498,19.0296 L12.513,16.6636 L12.002,16.3596 L11.491,16.6636 L7.503,19.0306 L8.518,14.4236 L8.647,13.8386 L8.192,13.4496 L4.758,10.5016 L9.363,10.0636 L9.953,10.0076 L10.188,9.4626 L12.001,5.2426" id="Fill-1" fill="#221F20"></path>
            </g>
        </g>
    </g>
</svg>