<?xml version="1.0" encoding="UTF-8" standalone="no"?>
<svg width="24px" height="24px" viewBox="0 0 24 24" version="1.1" xmlns="http://www.w3.org/2000/svg" xmlns:xlink="http://www.w3.org/1999/xlink">
    <!-- Generator: sketchtool 40 (33762) - http://www.bohemiancoding.com/sketch -->
    <title>tag</title>
    <desc>Created with sketchtool.</desc>
    <defs></defs>
    <g id="Page-1" stroke="none" stroke-width="1" fill="none" fill-rule="evenodd">
        <g id="tag">
            <g>
                <rect id="bounds" x="0" y="0" width="24" height="24"></rect>
                <path d="M12.6523,19.7354 L4.0523,11.1554 L4.0483,4.0584 L11.1493,4.0584 L19.7453,12.6544 L12.6523,19.7354 Z M20.8053,12.3004 L11.7103,3.2054 C11.6163,3.1114 11.4893,3.0584 11.3563,3.0584 L3.5483,3.0584 C3.4153,3.0584 3.2883,3.1114 3.1943,3.2054 C3.1003,3.2984 3.0483,3.4254 3.0483,3.5584 L3.0523,11.3634 C3.0523,11.4964 3.1053,11.6234 3.1993,11.7164 L12.2983,20.7954 C12.3963,20.8924 12.5243,20.9414 12.6523,20.9414 C12.7803,20.9414 12.9083,20.8924 13.0063,20.7954 L20.8053,13.0074 C20.8993,12.9144 20.9523,12.7874 20.9523,12.6544 C20.9523,12.5214 20.8993,12.3944 20.8053,12.3004 L20.8053,12.3004 Z" id="Fill-1" fill="#221F20"></path>
                <path d="M7.9346,7.9297 C7.5576,8.3067 6.8976,8.3067 6.5206,7.9297 C6.1306,7.5397 6.1306,6.9057 6.5206,6.5157 C6.7096,6.3267 6.9606,6.2227 7.2276,6.2227 C7.4946,6.2227 7.7456,6.3267 7.9346,6.5157 C8.3246,6.9057 8.3246,7.5397 7.9346,7.9297 M5.8136,5.8087 C5.0346,6.5877 5.0346,7.8577 5.8136,8.6367 C6.1916,9.0147 6.6936,9.2227 7.2276,9.2227 C7.7616,9.2227 8.2636,9.0147 8.6416,8.6367 C9.4206,7.8577 9.4206,6.5877 8.6416,5.8087 C7.8856,5.0527 6.5696,5.0527 5.8136,5.8087" id="Fill-3" fill="#221F20"></path>
            </g>
        </g>
    </g>
</svg>