<?xml version="1.0" encoding="UTF-8" standalone="no"?>
<svg width="24px" height="24px" viewBox="0 0 24 24" version="1.1" xmlns="http://www.w3.org/2000/svg" xmlns:xlink="http://www.w3.org/1999/xlink">
    <!-- Generator: sketchtool 40 (33762) - http://www.bohemiancoding.com/sketch -->
    <title>unlock</title>
    <desc>Created with sketchtool.</desc>
    <defs></defs>
    <g id="Page-1" stroke="none" stroke-width="1" fill="none" fill-rule="evenodd">
        <g id="unlock">
            <g>
                <rect id="bounds" x="0" y="0" width="24" height="24"></rect>
                <path d="M5.993,20.019 L18.006,20.019 L18.006,12.01 L5.993,12.01 L5.993,20.019 Z M18.854,11.158 C18.765,11.066 18.639,11.01 18.5,11.01 L16.756,11.01 L16.756,7.753 C16.756,5.134 14.625,3.003 12.006,3.003 C9.387,3.003 7.256,5.134 7.256,7.753 C7.256,8.029 7.48,8.253 7.756,8.253 C8.033,8.253 8.256,8.029 8.256,7.753 C8.256,5.686 9.938,4.003 12.006,4.003 C14.074,4.003 15.756,5.686 15.756,7.753 L15.756,11.01 L5.5,11.01 C5.361,11.01 5.236,11.066 5.146,11.157 C5.053,11.248 4.993,11.374 4.993,11.515 L4.993,20.515 C4.993,20.723 5.12,20.9 5.3,20.976 C5.361,21.002 5.429,21.019 5.5,21.019 L18.5,21.019 C18.571,21.019 18.639,21.002 18.7,20.976 C18.88,20.899 19.006,20.722 19.006,20.515 L19.006,11.515 C19.006,11.375 18.947,11.249 18.854,11.158 L18.854,11.158 Z" id="Fill-1" fill="#221F20"></path>
                <path d="M11.5,15.8193 L11.5,17.5583 C11.5,17.8353 11.724,18.0583 12,18.0583 C12.276,18.0583 12.5,17.8353 12.5,17.5583 L12.5,15.8193 C12.794,15.6453 13.001,15.3383 13.001,14.9713 C13.001,14.4193 12.553,13.9703 12,13.9703 C11.447,13.9703 10.999,14.4193 10.999,14.9713 C10.999,15.3383 11.206,15.6453 11.5,15.8193" id="Fill-3" fill="#221F20"></path>
            </g>
        </g>
    </g>
</svg>