<?xml version="1.0" encoding="UTF-8" standalone="no"?>
<svg width="24px" height="24px" viewBox="0 0 24 24" version="1.1" xmlns="http://www.w3.org/2000/svg" xmlns:xlink="http://www.w3.org/1999/xlink">
    <!-- Generator: sketchtool 40 (33762) - http://www.bohemiancoding.com/sketch -->
    <title>upgrade</title>
    <desc>Created with sketchtool.</desc>
    <defs></defs>
    <g id="Page-1" stroke="none" stroke-width="1" fill="none" fill-rule="evenodd">
        <g id="upgrade">
            <g>
                <rect id="bounds" x="0" y="0" width="24" height="24"></rect>
                <path d="M18.9092,8.1406 C18.4432,8.9966 17.9232,9.7146 17.3742,10.2636 C16.2742,11.3266 14.2402,13.0096 12.7262,14.2336 C12.4912,14.4236 12.3552,14.7086 12.3552,15.0106 L12.3552,17.6246 L11.2472,18.3646 L10.8922,17.0526 C10.8162,16.7696 10.6182,16.5336 10.3532,16.4086 C10.2182,16.3456 10.0732,16.3136 9.9272,16.3136 C9.7852,16.3136 9.6442,16.3436 9.5122,16.4046 L9.0112,16.6326 C8.8792,16.5676 8.5862,16.3846 8.0882,15.8896 C7.6202,15.3896 7.4402,15.1116 7.3712,14.9806 L7.5882,14.5036 C7.6762,14.3086 7.7002,14.0896 7.6552,13.8806 C7.6452,13.8376 7.6272,13.7756 7.6132,13.7346 C7.5022,13.4256 7.2482,13.1906 6.9312,13.1056 L5.6352,12.7546 L6.3742,11.6466 L8.8962,11.6476 L8.8972,11.6476 C9.1962,11.6476 9.4792,11.5136 9.6692,11.2836 C11.4872,9.0746 12.8512,7.5116 13.7232,6.6396 C14.3262,6.0366 15.0722,5.5156 15.8582,5.1586 C17.4552,4.3596 19.0732,4.1366 19.9272,4.0766 C19.8722,4.9176 19.6672,6.5276 18.9092,8.1406 M20.9452,3.4446 C20.9392,3.2326 20.7682,3.0616 20.5562,3.0556 L20.4712,3.0546 C20.0312,3.0556 17.7102,3.1126 15.4102,4.2646 C14.5532,4.6536 13.7022,5.2446 13.0152,5.9326 C12.1222,6.8266 10.7372,8.4116 8.8972,10.6476 L6.0542,10.6466 L6.0512,10.6466 C5.9182,10.6466 5.7952,10.7126 5.7202,10.8256 L4.3412,12.8936 C4.2702,13.0006 4.2552,13.1356 4.3002,13.2566 C4.3452,13.3766 4.4452,13.4686 4.5712,13.5026 L6.6712,14.0706 C6.6732,14.0776 6.6762,14.0836 6.6772,14.0906 L6.3882,14.7296 C6.2072,15.0886 6.5132,15.6706 7.3592,16.5736 C8.0802,17.2936 8.6492,17.6616 9.0462,17.6616 C9.1182,17.6616 9.1842,17.6476 9.2572,17.6196 L9.9272,17.3136 L10.4982,19.4286 C10.5332,19.5546 10.6232,19.6546 10.7442,19.7006 C10.7892,19.7176 10.8372,19.7256 10.8862,19.7266 C10.9632,19.7256 11.0402,19.7026 11.1082,19.6596 L13.1772,18.2786 C13.2882,18.2036 13.3552,18.0786 13.3552,17.9456 L13.3552,15.0106 C14.9262,13.7406 16.9612,12.0536 18.0692,10.9836 C18.7012,10.3506 19.2812,9.5536 19.8022,8.5926 C21.0032,6.0536 20.9482,3.5496 20.9452,3.4446" id="Fill-1" fill="#221F20"></path>
                <path d="M15.2007,7.3857 C15.3897,7.1967 15.6417,7.0917 15.9087,7.0917 C16.1757,7.0917 16.4267,7.1967 16.6157,7.3847 C17.0057,7.7757 17.0057,8.4097 16.6157,8.7997 C16.2377,9.1777 15.5787,9.1777 15.2007,8.7997 C14.8107,8.4097 14.8107,7.7757 15.2007,7.3857 M14.4937,9.5067 C14.8717,9.8847 15.3737,10.0927 15.9087,10.0927 C16.4427,10.0927 16.9447,9.8847 17.3227,9.5067 C18.1027,8.7267 18.1027,7.4567 17.3227,6.6777 C16.5677,5.9227 15.2497,5.9217 14.4937,6.6787 C13.7137,7.4587 13.7137,8.7267 14.4937,9.5067" id="Fill-3" fill="#221F20"></path>
                <path d="M7.3672,18.0332 C7.3532,18.0522 6.0952,19.6662 4.0642,19.9272 C4.3242,17.8952 5.9382,16.6372 5.9562,16.6222 C6.1762,16.4562 6.2192,16.1422 6.0522,15.9232 C5.8932,15.7042 5.5732,15.6592 5.3532,15.8252 C5.2582,15.8972 3.0262,17.6142 3.0252,20.4742 C3.0252,20.6062 3.0782,20.7252 3.1632,20.8152 L3.1612,20.8172 C3.1632,20.8192 3.1662,20.8202 3.1682,20.8222 C3.1692,20.8232 3.1702,20.8272 3.1722,20.8282 L3.1742,20.8262 C3.2642,20.9112 3.3842,20.9652 3.5152,20.9642 C6.3752,20.9642 8.0922,18.7312 8.1642,18.6372 C8.3302,18.4172 8.2852,18.0962 8.0672,17.9382 C7.8472,17.7712 7.5342,17.8142 7.3672,18.0332" id="Fill-5" fill="#221F20"></path>
            </g>
        </g>
    </g>
</svg>