<?xml version="1.0" encoding="UTF-8" standalone="no"?>
<svg width="24px" height="24px" viewBox="0 0 24 24" version="1.1" xmlns="http://www.w3.org/2000/svg" xmlns:xlink="http://www.w3.org/1999/xlink">
    <!-- Generator: sketchtool 40 (33762) - http://www.bohemiancoding.com/sketch -->
    <title>view-card</title>
    <desc>Created with sketchtool.</desc>
    <defs></defs>
    <g id="Page-1" stroke="none" stroke-width="1" fill="none" fill-rule="evenodd">
        <g id="view-card">
            <g>
                <rect id="bounds" x="0" y="0" width="24" height="24"></rect>
                <path d="M3.995,10 L9.995,10 L9.995,9.007 L3.995,9.007 L3.995,10 Z M3.995,8.007 L9.995,8.007 L9.995,4 L3.995,4 L3.995,8.007 Z M10.995,3.5 C10.995,3.224 10.771,3 10.495,3 L3.495,3 C3.219,3 2.995,3.224 2.995,3.5 L2.995,10.5 C2.995,10.776 3.219,11 3.495,11 L10.495,11 C10.771,11 10.995,10.776 10.995,10.5 L10.995,9.007 L11,9.007 L11,8.007 L10.995,8.007 L10.995,3.5 Z" id="Fill-1" fill="#221F20"></path>
                <path d="M14.005,10 L20.005,10 L20.005,9.007 L14.005,9.007 L14.005,10 Z M14.005,8.007 L20.005,8.007 L20.005,4 L14.005,4 L14.005,8.007 Z M20.505,3 L13.505,3 C13.229,3 13.005,3.224 13.005,3.5 L13.005,8.007 L13,8.007 L13,9.007 L13.005,9.007 L13.005,10.5 C13.005,10.776 13.229,11 13.505,11 L20.505,11 C20.781,11 21.005,10.776 21.005,10.5 L21.005,3.5 C21.005,3.224 20.781,3 20.505,3 L20.505,3 Z" id="Fill-3" fill="#221F20"></path>
                <path d="M3.995,18.017 L9.995,18.017 L9.995,14 L3.995,14 L3.995,18.017 Z M3.995,20 L9.995,20 L9.995,19.017 L3.995,19.017 L3.995,20 Z M10.495,13 L3.495,13 C3.219,13 2.995,13.224 2.995,13.5 L2.995,18.017 L2.995,19.017 L2.995,20.5 C2.995,20.776 3.219,21 3.495,21 L10.495,21 C10.771,21 10.995,20.776 10.995,20.5 L10.995,19.017 L10.995,18.017 L10.995,13.5 C10.995,13.224 10.771,13 10.495,13 L10.495,13 Z" id="Fill-4" fill="#221F20"></path>
                <path d="M14.005,20 L20.005,20 L20.005,19.017 L14.005,19.017 L14.005,20 Z M14.005,18.017 L20.005,18.017 L20.005,14 L14.005,14 L14.005,18.017 Z M20.505,13 L13.505,13 C13.229,13 13.005,13.224 13.005,13.5 L13.005,18.017 L13,18.017 L13,19.017 L13.005,19.017 L13.005,20.5 C13.005,20.776 13.229,21 13.505,21 L20.505,21 C20.781,21 21.005,20.776 21.005,20.5 L21.005,13.5 C21.005,13.224 20.781,13 20.505,13 L20.505,13 Z" id="Fill-5" fill="#221F20"></path>
            </g>
        </g>
    </g>
</svg>