<?xml version="1.0" encoding="UTF-8" standalone="no"?>
<svg width="24px" height="24px" viewBox="0 0 24 24" version="1.1" xmlns="http://www.w3.org/2000/svg" xmlns:xlink="http://www.w3.org/1999/xlink">
    <!-- Generator: sketchtool 40 (33762) - http://www.bohemiancoding.com/sketch -->
    <title>warning</title>
    <desc>Created with sketchtool.</desc>
    <defs></defs>
    <g id="Page-1" stroke="none" stroke-width="1" fill="none" fill-rule="evenodd">
        <g id="warning">
            <g>
                <rect id="bounds" x="0" y="0" width="24" height="24"></rect>
                <path d="M12,3.8672 C11.187,3.8672 10.443,4.3792 9.91,5.3042 L3.437,16.5132 C2.904,17.4392 2.833,18.3382 3.239,19.0402 C3.646,19.7452 4.458,20.1332 5.527,20.1332 L18.472,20.1332 C19.541,20.1332 20.354,19.7452 20.76,19.0402 C21.166,18.3382 21.096,17.4392 20.562,16.5132 L14.089,5.3042 C13.556,4.3792 12.812,3.8672 12,3.8672 M12,4.8672 C12.594,4.8672 13.021,5.4542 13.223,5.8042 L19.695,17.0132 C19.897,17.3632 20.191,18.0262 19.894,18.5412 C19.597,19.0552 18.875,19.1332 18.472,19.1332 L5.527,19.1332 C5.124,19.1332 4.402,19.0552 4.104,18.5392 C3.809,18.0272 4.103,17.3632 4.304,17.0132 L10.776,5.8042 C10.979,5.4542 11.405,4.8672 12,4.8672" id="Fill-1" fill="#221F20"></path>
                <path d="M11.4229,16.624 C11.4229,16.942 11.6819,17.2 11.9999,17.2 C12.3189,17.2 12.5769,16.942 12.5769,16.624 C12.5769,16.305 12.3189,16.046 11.9999,16.046 C11.6819,16.046 11.4229,16.305 11.4229,16.624" id="Fill-3" fill="#221F20"></path>
                <path d="M11.5,8.5068 C11.5,8.2308 11.724,8.0068 12,8.0068 C12.276,8.0068 12.5,8.2308 12.5,8.5068 L12.5,14.5068 C12.5,14.7828 12.276,15.0068 12,15.0068 C11.724,15.0068 11.5,14.7828 11.5,14.5068 L11.5,8.5068 Z" id="Fill-5" fill="#221F20"></path>
            </g>
        </g>
    </g>
</svg>