<?xml version="1.0" encoding="UTF-8" standalone="no"?>
<svg width="24px" height="24px" viewBox="0 0 24 24" version="1.1" xmlns="http://www.w3.org/2000/svg" xmlns:xlink="http://www.w3.org/1999/xlink">
    <!-- Generator: Sketch 39.1 (31720) - http://www.bohemiancoding.com/sketch -->
    <title>add</title>
    <desc>Created with Sketch.</desc>
    <defs></defs>
    <g id="Page-1" stroke="none" stroke-width="1" fill="none" fill-rule="evenodd">
        <g id="add" fill="#221F20">
            <g id="Page-1" transform="translate(4.000000, 4.000000)">
                <path d="M15.5,7.5 L8.5,7.5 L8.5,0.5 C8.5,0.224 8.276,0 8,0 C7.724,0 7.5,0.224 7.5,0.5 L7.5,7.5 L0.5,7.5 C0.224,7.5 0,7.724 0,8 C0,8.276 0.224,8.5 0.5,8.5 L7.5,8.5 L7.5,15.5 C7.5,15.776 7.724,16 8,16 C8.276,16 8.5,15.776 8.5,15.5 L8.5,8.5 L15.5,8.5 C15.776,8.5 16,8.276 16,8 C16,7.724 15.776,7.5 15.5,7.5" id="Fill-1"></path>
            </g>
        </g>
    </g>
</svg>