<?xml version="1.0" encoding="UTF-8" standalone="no"?>
<svg width="24px" height="24px" viewBox="0 0 24 24" version="1.1" xmlns="http://www.w3.org/2000/svg" xmlns:xlink="http://www.w3.org/1999/xlink">
    <!-- Generator: Sketch 39.1 (31720) - http://www.bohemiancoding.com/sketch -->
    <title>age-toddler</title>
    <desc>Created with Sketch.</desc>
    <defs></defs>
    <g id="Page-1" stroke="none" stroke-width="1" fill="none" fill-rule="evenodd">
        <g id="age-toddler" fill="#221F20">
            <g id="Page-1" transform="translate(3.000000, 4.000000)">
                <g id="Group-9">
                    <path d="M15.9395,9.8877 C15.9755,9.5997 16.0005,9.3097 16.0005,9.0127 L16.0005,8.1537 C16.2935,8.3277 16.5005,8.6347 16.5005,8.9997 C16.5005,9.3917 16.2685,9.7237 15.9395,9.8877 M9.0005,15.0127 C5.6915,15.0127 3.0005,12.3217 3.0005,9.0127 L3.0005,6.9997 C3.0005,3.6917 5.6915,0.9997 9.0005,0.9997 C9.4775,0.9997 9.9395,1.0617 10.3845,1.1677 C10.3825,1.1837 10.3755,1.1977 10.3755,1.2127 L10.3755,2.9267 C10.3755,3.7997 9.6645,4.5097 8.7915,4.5097 C8.1475,4.5097 7.6255,3.9867 7.6255,3.3427 C7.6255,2.8837 7.9995,2.5107 8.4595,2.5107 C8.7715,2.5107 9.0255,2.7647 9.0255,3.0767 C9.0255,3.1847 8.9795,3.2617 8.9405,3.3067 C8.7605,3.5167 8.7855,3.8317 8.9955,4.0117 C9.2055,4.1927 9.5215,4.1657 9.7005,3.9567 C9.9095,3.7117 10.0255,3.3997 10.0255,3.0767 C10.0255,2.2137 9.3225,1.5107 8.4595,1.5107 C7.4475,1.5107 6.6255,2.3327 6.6255,3.3427 C6.6255,4.5377 7.5965,5.5097 8.7915,5.5097 C10.2155,5.5097 11.3755,4.3507 11.3755,2.9267 L11.3755,1.4917 C13.5045,2.4137 15.0005,4.5347 15.0005,6.9997 L15.0005,9.0127 C15.0005,12.3217 12.3085,15.0127 9.0005,15.0127 M1.4925,8.9997 C1.4925,8.6307 1.7025,8.3217 2.0005,8.1487 L2.0005,9.0127 C2.0005,9.3117 2.0245,9.6047 2.0615,9.8937 C1.7275,9.7317 1.4925,9.3957 1.4925,8.9997 M17.5005,8.9997 C17.5005,8.0717 16.8605,7.2947 16.0005,7.0717 L16.0005,6.9997 C16.0005,3.1407 12.8595,-0.0003 9.0005,-0.0003 C5.1405,-0.0003 2.0005,3.1407 2.0005,6.9997 L2.0005,7.0687 C1.1355,7.2887 0.4925,8.0687 0.4925,8.9997 C0.4925,10.0327 1.2815,10.8737 2.2865,10.9797 C3.1385,13.8837 5.8235,16.0127 9.0005,16.0127 C12.1765,16.0127 14.8615,13.8827 15.7135,10.9787 C16.7155,10.8697 17.5005,10.0297 17.5005,8.9997" id="Fill-1"></path>
                    <path d="M4.4961,8.0117 C4.2201,8.0117 3.9961,8.2357 3.9961,8.5117 L3.9961,9.5117 C3.9961,9.7877 4.2201,10.0117 4.4961,10.0117 C4.7721,10.0117 4.9961,9.7877 4.9961,9.5117 L4.9961,8.5117 C4.9961,8.2357 4.7721,8.0117 4.4961,8.0117" id="Fill-3"></path>
                    <path d="M13.3711,8.0117 C13.0951,8.0117 12.8711,8.2357 12.8711,8.5117 L12.8711,9.5117 C12.8711,9.7877 13.0951,10.0117 13.3711,10.0117 C13.6471,10.0117 13.8711,9.7877 13.8711,9.5117 L13.8711,8.5117 C13.8711,8.2357 13.6471,8.0117 13.3711,8.0117" id="Fill-5"></path>
                    <path d="M10.5723,10.5596 C10.3203,10.4446 10.0243,10.5556 9.9103,10.8076 C9.7473,11.1646 9.3903,11.3956 9.0003,11.3956 C8.6083,11.3956 8.2493,11.1636 8.0873,10.8056 C7.9733,10.5556 7.6783,10.4436 7.4253,10.5576 C7.1743,10.6716 7.0623,10.9676 7.1763,11.2196 C7.5013,11.9336 8.2173,12.3956 9.0003,12.3956 C9.7813,12.3956 10.4963,11.9346 10.8203,11.2216 C10.9343,10.9706 10.8233,10.6736 10.5723,10.5596" id="Fill-7"></path>
                </g>
            </g>
        </g>
    </g>
</svg>