<?xml version="1.0" encoding="UTF-8" standalone="no"?>
<svg width="24px" height="24px" viewBox="0 0 24 24" version="1.1" xmlns="http://www.w3.org/2000/svg" xmlns:xlink="http://www.w3.org/1999/xlink">
    <!-- Generator: Sketch 39.1 (31720) - http://www.bohemiancoding.com/sketch -->
    <title>age-kid</title>
    <desc>Created with Sketch.</desc>
    <defs></defs>
    <g id="Page-1" stroke="none" stroke-width="1" fill="none" fill-rule="evenodd">
        <g id="age-kid" fill="#221F20">
            <g id="Page-1" transform="translate(3.000000, 4.000000)">
                <g id="Group-11">
                    <path d="M15.9395,9.8867 C15.9755,9.5997 16.0005,9.3097 16.0005,9.0127 L16.0005,8.1547 C16.2935,8.3277 16.5005,8.6347 16.5005,8.9997 C16.5005,9.3917 16.2675,9.7227 15.9395,9.8867 M9.0005,15.0127 C5.6915,15.0127 3.0005,12.3217 3.0005,9.0127 L3.0005,6.9997 C3.0005,6.8337 3.0115,6.6707 3.0245,6.5087 L14.9755,6.5087 C14.9885,6.6707 15.0005,6.8337 15.0005,6.9997 L15.0005,9.0127 C15.0005,12.3217 12.3085,15.0127 9.0005,15.0127 M1.4925,8.9997 C1.4925,8.6307 1.7025,8.3227 2.0005,8.1487 L2.0005,9.0127 C2.0005,9.3117 2.0255,9.6037 2.0615,9.8927 C1.7275,9.7307 1.4925,9.3957 1.4925,8.9997 M9.0005,0.9997 C11.7935,0.9997 14.1395,2.9207 14.8045,5.5087 L3.1955,5.5087 C3.8605,2.9207 6.2075,0.9997 9.0005,0.9997 M17.5005,8.9997 C17.5005,8.0717 16.8605,7.2947 16.0005,7.0717 L16.0005,6.9997 C16.0005,3.1407 12.8595,-0.0003 9.0005,-0.0003 C5.1405,-0.0003 2.0005,3.1407 2.0005,6.9997 L2.0005,7.0687 C1.1355,7.2887 0.4925,8.0687 0.4925,8.9997 C0.4925,10.0327 1.2805,10.8737 2.2865,10.9797 C3.1385,13.8837 5.8245,16.0127 9.0005,16.0127 C12.1765,16.0127 14.8615,13.8827 15.7135,10.9787 C16.7155,10.8697 17.5005,10.0297 17.5005,8.9997" id="Fill-1"></path>
                    <path d="M5.4961,8.0117 C5.2201,8.0117 4.9961,8.2357 4.9961,8.5117 L4.9961,9.5117 C4.9961,9.7877 5.2201,10.0117 5.4961,10.0117 C5.7721,10.0117 5.9961,9.7877 5.9961,9.5117 L5.9961,8.5117 C5.9961,8.2357 5.7721,8.0117 5.4961,8.0117" id="Fill-3"></path>
                    <path d="M12.3711,8.0117 C12.0951,8.0117 11.8711,8.2357 11.8711,8.5117 L11.8711,9.5117 C11.8711,9.7877 12.0951,10.0117 12.3711,10.0117 C12.6471,10.0117 12.8711,9.7877 12.8711,9.5117 L12.8711,8.5117 C12.8711,8.2357 12.6471,8.0117 12.3711,8.0117" id="Fill-5"></path>
                    <path d="M10.5723,11.5596 C10.3203,11.4456 10.0243,11.5566 9.9103,11.8076 C9.7483,12.1646 9.3903,12.3956 9.0003,12.3956 C8.6073,12.3956 8.2503,12.1636 8.0873,11.8056 C7.9733,11.5556 7.6773,11.4436 7.4263,11.5576 C7.1743,11.6716 7.0623,11.9676 7.1763,12.2196 C7.5013,12.9336 8.2173,13.3956 9.0003,13.3956 C9.7813,13.3956 10.4963,12.9346 10.8203,12.2216 C10.9343,11.9706 10.8243,11.6736 10.5723,11.5596" id="Fill-7"></path>
                    <path d="M8.5,3.5088 L9.5,3.5088 C9.871,3.5088 10.194,3.7108 10.367,4.0098 L7.633,4.0098 C7.806,3.7108 8.129,3.5088 8.5,3.5088 M6.998,5.0098 L11.002,5.0098 C11.278,5.0098 11.502,4.7858 11.502,4.5098 C11.502,3.4058 10.604,2.5088 9.5,2.5088 L8.5,2.5088 C7.396,2.5088 6.498,3.4058 6.498,4.5098 C6.498,4.7858 6.722,5.0098 6.998,5.0098" id="Fill-9"></path>
                </g>
            </g>
        </g>
    </g>
</svg>