<?xml version="1.0" encoding="UTF-8" standalone="no"?>
<svg width="24px" height="24px" viewBox="0 0 24 24" version="1.1" xmlns="http://www.w3.org/2000/svg" xmlns:xlink="http://www.w3.org/1999/xlink">
    <!-- Generator: Sketch 39.1 (31720) - http://www.bohemiancoding.com/sketch -->
    <title>age-elder</title>
    <desc>Created with Sketch.</desc>
    <defs></defs>
    <g id="Page-1" stroke="none" stroke-width="1" fill="none" fill-rule="evenodd">
        <g id="age-elder" fill="#221F20">
            <g id="Page-1" transform="translate(3.000000, 4.000000)">
                <g id="Group-9">
                    <path d="M15.9395,10.8877 C15.9755,10.6007 16.0005,10.3097 16.0005,10.0127 L16.0005,9.1537 C16.2935,9.3277 16.5005,9.6347 16.5005,9.9997 C16.5005,10.3917 16.2685,10.7237 15.9395,10.8877 M10.8725,8.9997 C10.8725,8.1727 11.5445,7.4997 12.3725,7.4997 C13.1985,7.4997 13.8715,8.1727 13.8715,9.0157 C13.8715,9.8417 13.1985,10.5147 12.3725,10.5147 C11.5445,10.5147 10.8725,9.8417 10.8725,8.9997 M3.9975,8.9997 C3.9975,8.1727 4.6695,7.4997 5.4975,7.4997 C6.3235,7.4997 6.9965,8.1727 6.9965,9.0157 C6.9965,9.8417 6.3235,10.5147 5.4975,10.5147 C4.6695,10.5147 3.9975,9.8417 3.9975,8.9997 M9.0005,16.0127 C5.6915,16.0127 3.0005,13.3217 3.0005,10.0127 L3.0005,9.0447 C3.0155,10.4087 4.1275,11.5147 5.4975,11.5147 C6.7005,11.5147 7.7075,10.6597 7.9435,9.5157 L9.9225,9.5157 C10.1555,10.6547 11.1645,11.5147 12.3725,11.5147 C13.7505,11.5147 14.8715,10.3937 14.8715,8.9997 C14.8715,7.6207 13.7505,6.4997 12.3725,6.4997 C11.1635,6.4997 10.1525,7.3627 9.9215,8.5157 L7.9475,8.5157 C7.7205,7.3677 6.7095,6.4997 5.4975,6.4997 C4.1275,6.4997 3.0155,7.6057 3.0005,8.9867 L3.0005,6.9997 C3.0005,3.6917 5.6915,0.9997 9.0005,0.9997 C12.3085,0.9997 15.0005,3.6917 15.0005,6.9997 L15.0005,10.0127 C15.0005,13.3217 12.3085,16.0127 9.0005,16.0127 M1.4925,9.9997 C1.4925,9.6307 1.7025,9.3217 2.0005,9.1487 L2.0005,10.0127 C2.0005,10.3117 2.0255,10.6047 2.0615,10.8937 C1.7275,10.7317 1.4925,10.3957 1.4925,9.9997 M1.4925,5.4997 C1.4925,4.1947 2.3355,3.0917 3.5025,2.6807 C2.5645,3.8717 2.0005,5.3697 2.0005,6.9997 L2.0005,7.1317 C1.6845,6.6507 1.4925,6.0927 1.4925,5.4997 M16.5005,5.4997 C16.5005,6.0857 16.3105,6.6407 16.0005,7.1187 L16.0005,6.9997 C16.0005,5.3707 15.4365,3.8747 14.5005,2.6847 C15.6615,3.0987 16.5005,4.1987 16.5005,5.4997 M16.4135,8.2317 C17.1015,7.4967 17.5005,6.5247 17.5005,5.4997 C17.5005,3.2937 15.7065,1.4997 13.5005,1.4997 L13.3155,1.4997 C12.1255,0.5637 10.6275,-0.0003 9.0005,-0.0003 C7.3725,-0.0003 5.8755,0.5637 4.6845,1.4997 L4.4925,1.4997 C2.2865,1.4997 0.4925,3.2937 0.4925,5.4997 C0.4925,6.5287 0.8895,7.4977 1.5785,8.2317 C0.9365,8.5657 0.4925,9.2287 0.4925,9.9997 C0.4925,11.0327 1.2815,11.8737 2.2865,11.9797 C3.1385,14.8837 5.8245,17.0127 9.0005,17.0127 C12.1765,17.0127 14.8615,14.8827 15.7135,11.9787 C16.7145,11.8697 17.5005,11.0297 17.5005,9.9997 C17.5005,9.2287 17.0555,8.5647 16.4135,8.2317" id="Fill-1"></path>
                    <path d="M5.9961,9.5117 L5.9961,8.5117 C5.9961,8.2357 5.7721,8.0117 5.4961,8.0117 C5.2201,8.0117 4.9961,8.2357 4.9961,8.5117 L4.9961,9.5117 C4.9961,9.7877 5.2201,10.0117 5.4961,10.0117 C5.7721,10.0117 5.9961,9.7877 5.9961,9.5117" id="Fill-3"></path>
                    <path d="M12.8711,9.5117 L12.8711,8.5117 C12.8711,8.2357 12.6471,8.0117 12.3711,8.0117 C12.0951,8.0117 11.8711,8.2357 11.8711,8.5117 L11.8711,9.5117 C11.8711,9.7877 12.0951,10.0117 12.3711,10.0117 C12.6471,10.0117 12.8711,9.7877 12.8711,9.5117" id="Fill-5"></path>
                    <path d="M10.5723,12.5596 C10.3213,12.4476 10.0253,12.5556 9.9103,12.8076 C9.7483,13.1646 9.3903,13.3956 9.0003,13.3956 C8.6083,13.3956 8.2503,13.1636 8.0873,12.8056 C7.9723,12.5546 7.6763,12.4456 7.4253,12.5576 C7.1743,12.6716 7.0623,12.9676 7.1763,13.2196 C7.5013,13.9336 8.2173,14.3956 9.0003,14.3956 C9.7813,14.3956 10.4963,13.9346 10.8203,13.2216 C10.9343,12.9706 10.8233,12.6736 10.5723,12.5596" id="Fill-7"></path>
                </g>
            </g>
        </g>
    </g>
</svg>