<?xml version="1.0" encoding="UTF-8" standalone="no"?>
<svg width="24px" height="24px" viewBox="0 0 24 24" version="1.1" xmlns="http://www.w3.org/2000/svg" xmlns:xlink="http://www.w3.org/1999/xlink">
    <!-- Generator: Sketch 41 (35326) - http://www.bohemiancoding.com/sketch -->
    <title>appointment-rescheduled</title>
    <desc>Created with Sketch.</desc>
    <defs></defs>
    <g id="icons" stroke="none" stroke-width="1" fill="none" fill-rule="evenodd">
        <g id="appointment-rescheduled">
            <g>
                <polygon id="bounds" points="0 24 24 24 24 0 0 0"></polygon>
                <path d="M17.9971,10.498 C17.1681,10.498 16.4971,11.169 16.4971,11.998 C16.4971,14.479 14.4791,16.497 11.9981,16.497 C9.5171,16.497 7.4991,14.479 7.4991,11.998 C7.4991,9.773 9.1251,7.935 11.2481,7.575 L11.2481,8.607 C11.2481,8.876 11.3921,9.123 11.6231,9.256 C11.7391,9.323 11.8691,9.357 11.9981,9.357 C12.1271,9.357 12.2571,9.323 12.3731,9.256 L16.8721,6.658 C17.1031,6.524 17.2471,6.277 17.2471,6.01 C17.2471,5.741 17.1031,5.494 16.8721,5.36 L12.3731,2.763 C12.1421,2.628 11.8541,2.628 11.6231,2.763 C11.3921,2.895 11.2481,3.143 11.2481,3.411 L11.2481,4.537 C7.4641,4.915 4.4991,8.116 4.4991,11.998 C4.4991,16.133 7.8631,19.497 11.9981,19.497 C16.1331,19.497 19.4971,16.133 19.4971,11.998 C19.4971,11.169 18.8261,10.498 17.9971,10.498" id="Fill-1" fill="#221F20"></path>
            </g>
        </g>
    </g>
</svg>