<?xml version="1.0" encoding="UTF-8" standalone="no"?>
<svg width="24px" height="24px" viewBox="0 0 24 24" version="1.1" xmlns="http://www.w3.org/2000/svg" xmlns:xlink="http://www.w3.org/1999/xlink">
    <!-- Generator: Sketch 41 (35326) - http://www.bohemiancoding.com/sketch -->
    <title>appointment-new</title>
    <desc>Created with Sketch.</desc>
    <defs></defs>
    <g id="icons" stroke="none" stroke-width="1" fill="none" fill-rule="evenodd">
        <g id="appointment-new">
            <g>
                <polygon id="bounds" points="0 24 24 24 24 0 0 0"></polygon>
                <path d="M13.4922,19.5088 C13.4922,20.3368 12.8202,21.0078 11.9922,21.0078 C11.1652,21.0078 10.4942,20.3368 10.4942,19.5088 C10.4942,18.6798 11.1652,18.0098 11.9922,18.0098 C12.8202,18.0098 13.4922,18.6798 13.4922,19.5088" id="Fill-1" fill="#221F20"></path>
                <path d="M13.4922,14.5 C13.4922,15.328 12.8212,16 11.9922,16 C11.1642,16 10.4922,15.328 10.4922,14.5 L10.4922,4.5 C10.4922,3.672 11.1642,3 11.9922,3 C12.8212,3 13.4922,3.672 13.4922,4.5 L13.4922,14.5 Z" id="Fill-3" fill="#221F20"></path>
            </g>
        </g>
    </g>
</svg>