<?xml version="1.0" encoding="UTF-8" standalone="no"?>
<svg width="24px" height="24px" viewBox="0 0 24 24" version="1.1" xmlns="http://www.w3.org/2000/svg" xmlns:xlink="http://www.w3.org/1999/xlink">
    <!-- Generator: Sketch 41 (35326) - http://www.bohemiancoding.com/sketch -->
    <title>appointment-cancelled</title>
    <desc>Created with Sketch.</desc>
    <defs></defs>
    <g id="icons" stroke="none" stroke-width="1" fill="none" fill-rule="evenodd">
        <g id="appointment-cancelled">
            <g>
                <polygon id="bounds" points="0 24 24 24 24 0 0 0"></polygon>
                <path d="M14.1191,12 L18.3611,7.757 C18.9471,7.171 18.9461,6.222 18.3601,5.636 C17.7751,5.05 16.8251,5.05 16.2401,5.636 L11.9981,9.878 L7.7561,5.636 C7.1701,5.05 6.2211,5.05 5.6351,5.636 C5.0481,6.222 5.0491,7.171 5.6351,7.757 L9.8771,11.999 L5.6351,16.241 C5.0491,16.827 5.0491,17.777 5.6351,18.361 C6.2211,18.947 7.1701,18.949 7.7561,18.363 L11.9991,14.12 L16.2401,18.361 C16.8261,18.949 17.7731,18.949 18.3601,18.361 C18.9461,17.776 18.9471,16.828 18.3601,16.241 L14.1191,12 Z" id="Fill-1" fill="#221F20"></path>
            </g>
        </g>
    </g>
</svg>