<?xml version="1.0" encoding="UTF-8" standalone="no"?>
<svg width="24px" height="24px" viewBox="0 0 24 24" version="1.1" xmlns="http://www.w3.org/2000/svg" xmlns:xlink="http://www.w3.org/1999/xlink">
    <!-- Generator: Sketch 39.1 (31720) - http://www.bohemiancoding.com/sketch -->
    <title>arrow-left</title>
    <desc>Created with Sketch.</desc>
    <defs></defs>
    <g id="Page-1" stroke="none" stroke-width="1" fill="none" fill-rule="evenodd">
        <g id="arrow-left" fill="#020302">
            <g id="Page-1" transform="translate(3.000000, 5.000000)">
                <path d="M17.5,6.5 L1.718,6.5 L6.51,1.708 C6.705,1.512 6.705,1.196 6.51,1 C6.314,0.805 5.998,0.805 5.803,1.001 L0.182,6.623 C0.175,6.628 0.166,6.632 0.159,6.638 C0.155,6.642 0.15,6.643 0.146,6.646 C0.137,6.655 0.134,6.667 0.126,6.676 C0.092,6.716 0.06,6.758 0.039,6.808 C0.012,6.872 -1.77635684e-14,6.939 0.001,7.007 C-1.77635684e-14,7.136 0.048,7.266 0.146,7.365 C0.156,7.374 0.168,7.377 0.179,7.386 L5.803,13.01 C5.999,13.205 6.315,13.205 6.51,13.01 C6.706,12.814 6.706,12.498 6.51,12.303 L1.707,7.5 L17.5,7.5 C17.776,7.5 18,7.276 18,7 C18,6.724 17.776,6.5 17.5,6.5" id="Fill-1"></path>
            </g>
        </g>
    </g>
</svg>