<?xml version="1.0" encoding="UTF-8" standalone="no"?>
<svg width="24px" height="24px" viewBox="0 0 24 24" version="1.1" xmlns="http://www.w3.org/2000/svg" xmlns:xlink="http://www.w3.org/1999/xlink">
    <!-- Generator: Sketch 39.1 (31720) - http://www.bohemiancoding.com/sketch -->
    <title>arrow-down</title>
    <desc>Created with Sketch.</desc>
    <defs></defs>
    <g id="Page-1" stroke="none" stroke-width="1" fill="none" fill-rule="evenodd">
        <g id="arrow-down" fill="#020302">
            <g id="Page-1" transform="translate(5.000000, 3.000000)">
                <path d="M13.0049,11.4946 C12.8099,11.2996 12.4929,11.2996 12.2979,11.4946 L7.4949,16.2986 L7.4949,0.5046 C7.4949,0.2286 7.2719,0.0046 6.9949,0.0046 C6.7189,0.0046 6.4949,0.2286 6.4949,0.5046 L6.4949,16.2866 L1.7029,11.4946 C1.5079,11.2996 1.1919,11.2996 0.9959,11.4946 C0.8009,11.6906 0.8009,12.0066 0.9959,12.2026 L6.6189,17.8246 C6.6239,17.8316 6.6269,17.8396 6.6329,17.8466 C6.6369,17.8496 6.6379,17.8546 6.6419,17.8586 C6.6509,17.8676 6.6619,17.8706 6.6709,17.8786 C6.7109,17.9126 6.7529,17.9456 6.8029,17.9666 C6.8669,17.9926 6.9339,18.0046 7.0019,18.0036 C7.1309,18.0056 7.2609,17.9566 7.3589,17.8586 C7.3679,17.8496 7.3709,17.8376 7.3799,17.8276 L13.0049,12.2026 C13.1999,12.0066 13.1999,11.6896 13.0049,11.4946" id="Fill-1"></path>
            </g>
        </g>
    </g>
</svg>