<?xml version="1.0" encoding="UTF-8" standalone="no"?>
<svg width="24px" height="24px" viewBox="0 0 24 24" version="1.1" xmlns="http://www.w3.org/2000/svg" xmlns:xlink="http://www.w3.org/1999/xlink">
    <!-- Generator: Sketch 39.1 (31720) - http://www.bohemiancoding.com/sketch -->
    <title>arrow-up</title>
    <desc>Created with Sketch.</desc>
    <defs></defs>
    <g id="Page-1" stroke="none" stroke-width="1" fill="none" fill-rule="evenodd">
        <g id="arrow-up" fill="#020302">
            <g id="Page-1" transform="translate(5.000000, 3.000000)">
                <path d="M13.0039,5.8076 L7.3819,0.1866 C7.3769,0.1796 7.3729,0.1706 7.3669,0.1636 C7.3629,0.1596 7.3619,0.1546 7.3579,0.1506 C7.3499,0.1416 7.3379,0.1396 7.3289,0.1316 C7.2889,0.0966 7.2469,0.0646 7.1969,0.0436 C7.1329,0.0166 7.0659,0.0046 6.9979,0.0056 C6.8689,0.0046 6.7389,0.0526 6.6399,0.1516 C6.6309,0.1606 6.6279,0.1736 6.6189,0.1836 L0.9949,5.8076 C0.7999,6.0036 0.7999,6.3196 0.9949,6.5156 C1.1909,6.7106 1.5069,6.7106 1.7019,6.5146 L6.5049,1.7116 L6.5049,17.5046 C6.5049,17.7806 6.7289,18.0046 7.0049,18.0046 C7.2809,18.0046 7.5049,17.7806 7.5049,17.5046 L7.5049,1.7236 L12.2969,6.5146 C12.4929,6.7096 12.8089,6.7096 13.0039,6.5146 C13.1999,6.3196 13.1999,6.0026 13.0039,5.8076" id="Fill-1"></path>
            </g>
        </g>
    </g>
</svg>