<?xml version="1.0" encoding="UTF-8" standalone="no"?>
<svg width="24px" height="24px" viewBox="0 0 24 24" version="1.1" xmlns="http://www.w3.org/2000/svg" xmlns:xlink="http://www.w3.org/1999/xlink">
    <!-- Generator: Sketch 39.1 (31720) - http://www.bohemiancoding.com/sketch -->
    <title>arrow-right</title>
    <desc>Created with Sketch.</desc>
    <defs></defs>
    <g id="Page-1" stroke="none" stroke-width="1" fill="none" fill-rule="evenodd">
        <g id="arrow-right" fill="#020302">
            <g id="Page-1" transform="translate(3.000000, 5.000000)">
                <path d="M17.854,7.3633 C17.863,7.3543 17.866,7.3433 17.874,7.3343 C17.908,7.2943 17.94,7.2513 17.961,7.2013 C17.988,7.1383 18,7.0713 17.999,7.0033 C18,6.8733 17.952,6.7433 17.854,6.6453 C17.844,6.6353 17.832,6.6323 17.821,6.6243 L12.197,1.0003 C12.001,0.8043 11.685,0.8043 11.49,1.0003 C11.294,1.1953 11.294,1.5113 11.49,1.7073 L16.293,6.5093 L0.5,6.5093 C0.224,6.5093 0,6.7333 0,7.0093 C0,7.2863 0.224,7.5093 0.5,7.5093 L16.282,7.5093 L11.49,12.3013 C11.295,12.4973 11.295,12.8143 11.49,13.0093 C11.686,13.2043 12.002,13.2043 12.197,13.0093 L17.818,7.3873 C17.825,7.3813 17.834,7.3783 17.841,7.3713 C17.845,7.3683 17.85,7.3673 17.854,7.3633" id="Fill-1"></path>
            </g>
        </g>
    </g>
</svg>