<?xml version="1.0" encoding="UTF-8" standalone="no"?>
<svg width="24px" height="24px" viewBox="0 0 24 24" version="1.1" xmlns="http://www.w3.org/2000/svg" xmlns:xlink="http://www.w3.org/1999/xlink">
    <!-- Generator: Sketch 43.1 (39012) - http://www.bohemiancoding.com/sketch -->
    <title>assistant</title>
    <desc>Created with Sketch.</desc>
    <defs></defs>
    <g id="icons" stroke="none" stroke-width="1" fill="none" fill-rule="evenodd">
        <g id="assistant">
            <g>
                <polygon id="bounds" points="0 24 24 24 24 0 0 0"></polygon>
                <path d="M8.4961,13.0117 C8.2201,13.0117 7.9961,13.2357 7.9961,13.5117 L7.9961,14.5117 C7.9961,14.7877 8.2201,15.0117 8.4961,15.0117 C8.7721,15.0117 8.9961,14.7877 8.9961,14.5117 L8.9961,13.5117 C8.9961,13.2357 8.7721,13.0117 8.4961,13.0117" id="Fill-1" fill="#231F1F"></path>
                <path d="M15.3711,13.0117 C15.0951,13.0117 14.8711,13.2357 14.8711,13.5117 L14.8711,14.5117 C14.8711,14.7877 15.0951,15.0117 15.3711,15.0117 C15.6471,15.0117 15.8711,14.7877 15.8711,14.5117 L15.8711,13.5117 C15.8711,13.2357 15.6471,13.0117 15.3711,13.0117" id="Fill-3" fill="#231F1F"></path>
                <path d="M12,19.0127 C10.773,19.0127 9.634,18.6417 8.683,18.0077 L10.199,18.0077 C10.337,18.1587 10.53,18.2577 10.75,18.2577 L11.251,18.2577 C11.665,18.2577 12.001,17.9217 12.001,17.5077 C12.001,17.0937 11.665,16.7577 11.251,16.7577 L10.75,16.7577 C10.53,16.7577 10.337,16.8567 10.199,17.0077 L7.536,17.0077 C6.584,15.9457 6,14.5477 6,13.0127 L6,12.0757 L7.576,12.0757 C9.922,12.0757 12.062,10.9197 13.357,9.0157 C14.433,10.5987 16.104,11.6577 18,11.9697 L18,13.0127 C18,16.3217 15.309,19.0127 12,19.0127 M5.26,15.9777 C5.338,15.9877 5.414,16.0017 5.495,16.0017 L5.495,15.9997 C5.555,15.9987 5.609,15.9847 5.662,15.9657 C5.797,16.2527 5.948,16.5297 6.118,16.7937 C5.756,16.6147 5.458,16.3297 5.26,15.9777 M12,4.9997 C15.295,4.9997 17.975,7.6687 17.998,10.9577 C16.197,10.6097 14.65,9.4667 13.801,7.8067 C13.797,7.7987 13.789,7.7937 13.784,7.7857 C13.761,7.7467 13.733,7.7117 13.699,7.6797 C13.68,7.6607 13.659,7.6457 13.638,7.6307 C13.621,7.6197 13.609,7.6027 13.591,7.5937 C13.577,7.5867 13.562,7.5877 13.548,7.5817 C13.514,7.5677 13.479,7.5587 13.443,7.5527 C13.42,7.5487 13.397,7.5447 13.373,7.5437 C13.325,7.5417 13.279,7.5497 13.23,7.5617 C13.221,7.5647 13.21,7.5667 13.199,7.5697 C13.176,7.5777 13.15,7.5777 13.127,7.5897 C13.096,7.6057 13.073,7.6327 13.047,7.6537 C13.045,7.6557 13.042,7.6577 13.04,7.6587 C12.988,7.7027 12.948,7.7527 12.918,7.8107 L12.918,7.8117 C11.887,9.8247 9.84,11.0757 7.576,11.0757 L6,11.0757 L6,10.9997 C6,7.6917 8.691,4.9997 12,4.9997 M19,12.0697 L19,10.9997 C19,7.1407 15.859,3.9997 12,3.9997 C8.141,3.9997 5,7.1407 5,10.9997 L5,12.0677 C4.405,12.2197 3.917,12.6337 3.67,13.1837 C3.558,13.4337 3.492,13.7087 3.492,13.9997 C3.492,14.2937 3.56,14.5707 3.674,14.8217 C3.764,15.0197 3.885,15.1987 4.03,15.3557 C4.209,16.8457 5.466,18.0077 7.002,18.0077 L7.105,18.0077 C8.369,19.2457 10.096,20.0127 12,20.0127 C14.803,20.0127 17.22,18.3527 18.337,15.9677 C18.388,15.9847 18.44,15.9997 18.498,15.9997 L18.498,16.0017 C19.604,16.0017 20.5,15.1057 20.5,13.9997 C20.5,13.0687 19.861,12.2927 19,12.0697" id="Fill-5" fill="#231F1F"></path>
            </g>
        </g>
    </g>
</svg>