<?xml version="1.0" encoding="UTF-8" standalone="no"?>
<svg width="24px" height="24px" viewBox="0 0 24 24" version="1.1" xmlns="http://www.w3.org/2000/svg" xmlns:xlink="http://www.w3.org/1999/xlink">
    <!-- Generator: Sketch 39.1 (31720) - http://www.bohemiancoding.com/sketch -->
    <title>birthday</title>
    <desc>Created with Sketch.</desc>
    <defs></defs>
    <g id="Page-1" stroke="none" stroke-width="1" fill="none" fill-rule="evenodd">
        <g id="birthday" fill="#221F20">
            <g id="Page-1" transform="translate(2.000000, 3.000000)">
                <g id="Group-9">
                    <path d="M14.5015,1.3848 C14.9495,2.0938 15.1255,2.6908 15.0395,2.8698 C15.0075,2.9358 14.8265,3.0058 14.5025,3.0058 C14.1565,3.0058 13.9935,2.9258 13.9655,2.8688 C13.8805,2.6928 14.0405,2.1108 14.5015,1.3848 M14.5025,4.0058 C15.4115,4.0058 15.7865,3.6238 15.9405,3.3028 C16.4495,2.2428 15.1325,0.5098 14.8635,0.1718 C14.7755,0.0628 14.6425,-0.0002 14.5025,-0.0002 C14.3615,-0.0002 14.2295,0.0628 14.1415,0.1718 C13.8725,0.5098 12.5545,2.2428 13.0645,3.3028 C13.2185,3.6238 13.5925,4.0058 14.5025,4.0058" id="Fill-1"></path>
                    <path d="M9.9995,1.3848 C10.4475,2.0938 10.6235,2.6908 10.5375,2.8698 C10.5055,2.9358 10.3245,3.0058 10.0005,3.0058 C9.6545,3.0058 9.4915,2.9258 9.4635,2.8688 C9.3785,2.6928 9.5385,2.1108 9.9995,1.3848 M10.0005,4.0058 C10.9095,4.0058 11.2845,3.6238 11.4385,3.3028 C11.9475,2.2428 10.6305,0.5098 10.3615,0.1718 C10.2735,0.0628 10.1405,-0.0002 10.0005,-0.0002 C9.8595,-0.0002 9.7275,0.0628 9.6395,0.1718 C9.3705,0.5098 8.0525,2.2428 8.5625,3.3028 C8.7165,3.6238 9.0905,4.0058 10.0005,4.0058" id="Fill-3"></path>
                    <path d="M5.4927,1.3848 C5.9407,2.0938 6.1167,2.6908 6.0307,2.8698 C5.9987,2.9358 5.8177,3.0058 5.4937,3.0058 C5.1477,3.0058 4.9847,2.9258 4.9567,2.8688 C4.8717,2.6928 5.0317,2.1108 5.4927,1.3848 M5.4937,4.0058 C6.4027,4.0058 6.7777,3.6238 6.9317,3.3028 C7.4407,2.2428 6.1237,0.5098 5.8547,0.1718 C5.7667,0.0628 5.6337,-0.0002 5.4937,-0.0002 C5.3527,-0.0002 5.2207,0.0628 5.1327,0.1718 C4.8637,0.5098 3.5457,2.2428 4.0557,3.3028 C4.2097,3.6238 4.5837,4.0058 5.4937,4.0058" id="Fill-5"></path>
                    <path d="M17.0088,17 L2.9908,17 C2.4398,17 1.9908,16.552 1.9908,16 L1.9908,13.463 C2.4398,13.802 2.9998,14.013 3.6148,14.013 C4.4928,14.013 5.2658,13.598 5.7438,12.968 C6.2208,13.598 6.9948,14.013 7.8718,14.013 C8.7488,14.013 9.5228,13.598 9.9998,12.968 C10.4778,13.598 11.2508,14.013 12.1278,14.013 C13.0058,14.013 13.7788,13.598 14.2568,12.968 C14.7338,13.598 15.5078,14.013 16.3848,14.013 C17.0008,14.013 17.5608,13.802 18.0088,13.463 L18.0088,16 C18.0088,16.552 17.5598,17 17.0088,17 L17.0088,17 Z M1.9908,9.01 L18.0088,9.01 L18.0088,11.548 C17.9878,12.358 17.2688,13.013 16.3848,13.013 C15.4868,13.013 14.7568,12.34 14.7568,11.513 C14.7568,11.236 14.5328,11.013 14.2568,11.013 C13.9798,11.013 13.7568,11.236 13.7568,11.513 C13.7568,12.34 13.0258,13.013 12.1278,13.013 C11.2308,13.013 10.4998,12.34 10.4998,11.513 C10.4998,11.236 10.2768,11.013 9.9998,11.013 C9.7238,11.013 9.4998,11.236 9.4998,11.513 C9.4998,12.34 8.7698,13.013 7.8718,13.013 C6.9738,13.013 6.2438,12.34 6.2438,11.513 C6.2438,11.236 6.0198,11.013 5.7438,11.013 C5.4668,11.013 5.2438,11.236 5.2438,11.513 C5.2438,12.34 4.5128,13.013 3.6148,13.013 C2.7308,13.013 2.0118,12.358 1.9908,11.548 L1.9908,9.01 Z M4.9938,8.009 L5.9938,8.009 L5.9938,6.009 L4.9938,6.009 L4.9938,8.009 Z M9.4998,8.009 L10.4998,8.009 L10.4998,6.009 L9.4998,6.009 L9.4998,8.009 Z M14.0028,8.009 L15.0028,8.009 L15.0028,6.009 L14.0028,6.009 L14.0028,8.009 Z M19.0128,11.513 C19.0128,11.506 19.0088,11.5 19.0088,11.493 L19.0088,8.508 L18.9998,8.508 C18.9988,8.232 18.7768,8.01 18.5008,8.01 L16.0028,8.01 L16.0028,5.509 C16.0028,5.232 15.7798,5.009 15.5028,5.009 L13.5028,5.009 C13.2268,5.009 13.0028,5.232 13.0028,5.509 L13.0028,8.01 L11.4998,8.01 L11.4998,5.509 C11.4998,5.232 11.2768,5.009 10.9998,5.009 L8.9998,5.009 C8.7238,5.009 8.4998,5.232 8.4998,5.509 L8.4998,8.01 L6.9938,8.01 L6.9938,5.509 C6.9938,5.232 6.7708,5.009 6.4938,5.009 L4.4938,5.009 C4.2178,5.009 3.9938,5.232 3.9938,5.509 L3.9938,8.01 L1.5008,8.01 C1.2248,8.01 1.0018,8.232 1.0008,8.508 L0.9908,8.508 L0.9908,11.493 C0.9908,11.5 0.9878,11.506 0.9878,11.513 C0.9878,11.525 0.9908,11.537 0.9908,11.55 L0.9908,16 C0.9908,17.104 1.8868,18 2.9908,18 L17.0088,18 C18.1128,18 19.0088,17.104 19.0088,16 L19.0088,11.55 C19.0088,11.537 19.0128,11.525 19.0128,11.513 L19.0128,11.513 Z" id="Fill-7"></path>
                </g>
            </g>
        </g>
    </g>
</svg>