<?xml version="1.0" encoding="UTF-8" standalone="no"?>
<svg width="24px" height="24px" viewBox="0 0 24 24" version="1.1" xmlns="http://www.w3.org/2000/svg" xmlns:xlink="http://www.w3.org/1999/xlink">
    <!-- Generator: Sketch 39.1 (31720) - http://www.bohemiancoding.com/sketch -->
    <title>calendar</title>
    <desc>Created with Sketch.</desc>
    <defs></defs>
    <g id="Page-1" stroke="none" stroke-width="1" fill="none" fill-rule="evenodd">
        <g id="calendar" fill="#221F20">
            <g id="Page-1" transform="translate(2.000000, 3.000000)">
                <g id="Group-7">
                    <path d="M5.4043,13.1367 L6.9293,13.1367 L6.9293,8.6857 C6.9293,8.4707 6.9373,8.2557 6.9373,8.2557 L6.9183,8.2557 C6.9183,8.2557 6.8403,8.4117 6.5883,8.6567 L5.9433,9.2907 L5.3573,8.6857 L7.0063,7.0847 L7.8653,7.0847 L7.8653,13.1367 L9.3693,13.1367 L9.3693,13.9767 L5.4043,13.9767 L5.4043,13.1367 Z" id="Fill-1"></path>
                    <path d="M13.6738,10.4629 C13.6738,8.9939 13.3578,7.8439 12.2438,7.8439 C11.1408,7.8439 10.8238,8.9939 10.8238,10.4629 C10.8238,11.9419 11.1408,13.1029 12.2438,13.1029 C13.3578,13.1029 13.6738,11.9419 13.6738,10.4629 M9.8538,10.4629 C9.8538,8.5149 10.4398,6.9699 12.2438,6.9699 C14.0588,6.9699 14.6428,8.5149 14.6428,10.4629 C14.6428,12.4219 14.0588,13.9769 12.2438,13.9769 C10.4398,13.9769 9.8538,12.4219 9.8538,10.4629" id="Fill-3"></path>
                    <path d="M4.4941,3 C4.7711,3 4.9941,2.776 4.9941,2.5 L4.9941,2 L15.0001,2 L15.0001,2.5 C15.0001,2.776 15.2241,3 15.5001,3 C15.7771,3 16.0001,2.776 16.0001,2.5 L16.0001,2 L18.0081,2 L18.0081,4.007 L1.9911,4.007 L1.9911,2 L3.9941,2 L3.9941,2.5 C3.9941,2.776 4.2191,3 4.4941,3 L4.4941,3 Z M1.9911,16.019 L18.0081,16.019 L18.0081,5.007 L1.9911,5.007 L1.9911,16.019 Z M18.9611,1.306 C18.8851,1.126 18.7071,1 18.5001,1 L16.0001,1 L16.0001,0.5 C16.0001,0.224 15.7771,0 15.5001,0 C15.2241,0 15.0001,0.224 15.0001,0.5 L15.0001,1 L4.9941,1 L4.9941,0.5 C4.9941,0.224 4.7711,0 4.4941,0 C4.2191,0 3.9941,0.224 3.9941,0.5 L3.9941,1 L1.5001,1 C1.3571,1 1.2301,1.061 1.1391,1.157 C1.0481,1.248 0.9911,1.373 0.9911,1.512 L0.9911,16.512 C0.9911,16.653 1.0511,16.78 1.1451,16.871 C1.2361,16.962 1.3611,17.019 1.5001,17.019 L18.5001,17.019 C18.6401,17.019 18.7651,16.961 18.8551,16.869 C18.9491,16.778 19.0081,16.652 19.0081,16.512 L19.0081,1.512 C19.0081,1.438 18.9901,1.369 18.9611,1.306 L18.9611,1.306 Z" id="Fill-5"></path>
                </g>
            </g>
        </g>
    </g>
</svg>