<?xml version="1.0" encoding="UTF-8" standalone="no"?>
<svg width="24px" height="24px" viewBox="0 0 24 24" version="1.1" xmlns="http://www.w3.org/2000/svg" xmlns:xlink="http://www.w3.org/1999/xlink">
    <!-- Generator: Sketch 39.1 (31720) - http://www.bohemiancoding.com/sketch -->
    <title>camera</title>
    <desc>Created with Sketch.</desc>
    <defs></defs>
    <g id="Page-1" stroke="none" stroke-width="1" fill="none" fill-rule="evenodd">
        <g id="camera" fill="#221F20">
            <g id="Page-1" transform="translate(3.000000, 3.000000)">
                <g id="Group-7">
                    <path d="M5,4.998 C5.215,4.998 5.406,4.86 5.475,4.656 L6.365,1.992 L11.645,1.992 L12.529,4.655 C12.598,4.859 12.789,4.998 13.004,4.998 L17.008,4.998 L17.008,16.029 L1,16.029 L1,4.998 L5,4.998 Z M17.508,3.995 C17.503,3.995 17.498,3.998 17.493,3.998 L13.365,3.998 L12.48,1.335 C12.412,1.131 12.221,0.992 12.006,0.992 L6.006,0.992 C5.791,0.992 5.6,1.13 5.531,1.334 L4.641,3.998 L0.515,3.998 C0.51,3.998 0.505,3.995 0.5,3.995 C0.224,3.995 0,4.219 0,4.495 L0,16.495 C0,16.501 0.003,16.506 0.004,16.512 C0.003,16.518 0,16.523 0,16.529 C0,16.806 0.224,17.029 0.5,17.029 L17.5,17.029 C17.719,17.029 17.899,16.887 17.967,16.692 C17.993,16.631 18.008,16.565 18.008,16.495 L18.008,4.495 C18.008,4.219 17.784,3.995 17.508,3.995 L17.508,3.995 Z" id="Fill-1"></path>
                    <path d="M9,6.9951 C10.654,6.9951 12,8.3411 12,9.9951 C12,11.6491 10.654,12.9951 9,12.9951 C7.346,12.9951 6,11.6491 6,9.9951 C6,8.3411 7.346,6.9951 9,6.9951 M9,13.9951 C11.209,13.9951 13,12.2041 13,9.9951 C13,7.7861 11.209,5.9951 9,5.9951 C6.791,5.9951 5,7.7861 5,9.9951 C5,12.2041 6.791,13.9951 9,13.9951" id="Fill-3"></path>
                    <path d="M14.5,6.9951 L15.5,6.9951 C15.776,6.9951 16,6.7711 16,6.4951 C16,6.2191 15.776,5.9951 15.5,5.9951 L14.5,5.9951 C14.224,5.9951 14,6.2191 14,6.4951 C14,6.7711 14.224,6.9951 14.5,6.9951" id="Fill-5"></path>
                </g>
            </g>
        </g>
    </g>
</svg>