<?xml version="1.0" encoding="UTF-8"?>
<svg width="24px" height="24px" viewBox="0 0 24 24" version="1.1" xmlns="http://www.w3.org/2000/svg" xmlns:xlink="http://www.w3.org/1999/xlink">
    <!-- Generator: Sketch 51.2 (57519) - http://www.bohemiancoding.com/sketch -->
    <title>cancel-circle</title>
    <desc>Created with Sketch.</desc>
    <defs>
        <polygon id="path-1" points="0 0 18 0 18 18 0 18"></polygon>
    </defs>
    <g id="cancel-circle" stroke="none" stroke-width="1" fill="none" fill-rule="evenodd">
        <g id="Group-6" transform="translate(3.000000, 3.000000)">
            <g id="Group-3">
                <mask id="mask-2" fill="white">
                    <use xlink:href="#path-1"></use>
                </mask>
                <g id="Clip-2"></g>
                <path d="M14.6572,14.6563 C11.5382,17.7753 6.4622,17.7753 3.3432,14.6563 C0.2232,11.5373 0.2242,6.4623 3.3442,3.3433 C6.4632,0.2233 11.5372,0.2233 14.6562,3.3433 C17.7752,6.4623 17.7762,11.5373 14.6572,14.6563 M15.3632,2.6353 C11.8492,-0.8787 6.1502,-0.8787 2.6362,2.6353 C-0.8788,6.1503 -0.8788,11.8493 2.6362,15.3633 C6.1502,18.8793 11.8492,18.8793 15.3642,15.3633 C18.8792,11.8493 18.8792,6.1503 15.3632,2.6353" id="Fill-1" fill="#231F20" mask="url(#mask-2)"></path>
            </g>
            <path d="M12.5352,5.4648 C12.3402,5.2698 12.0232,5.2698 11.8282,5.4648 L9.0002,8.2928 L6.1722,5.4648 C5.9762,5.2688 5.6602,5.2698 5.4652,5.4648 C5.2692,5.6598 5.2682,5.9768 5.4652,6.1718 L8.2932,8.9998 L5.4652,11.8278 C5.2692,12.0238 5.2692,12.3398 5.4652,12.5348 C5.6602,12.7308 5.9762,12.7308 6.1722,12.5348 L9.0002,9.7068 L11.8282,12.5348 C12.0232,12.7308 12.3402,12.7308 12.5352,12.5348 C12.7302,12.3398 12.7302,12.0238 12.5352,11.8278 L9.7072,8.9998 L12.5352,6.1718 C12.7302,5.9768 12.7302,5.6598 12.5352,5.4648" id="Fill-4" fill="#231F20"></path>
        </g>
    </g>
</svg>