<?xml version="1.0" encoding="UTF-8" standalone="no"?>
<svg width="24px" height="24px" viewBox="0 0 24 24" version="1.1" xmlns="http://www.w3.org/2000/svg" xmlns:xlink="http://www.w3.org/1999/xlink">
    <!-- Generator: Sketch 39.1 (31720) - http://www.bohemiancoding.com/sketch -->
    <title>card</title>
    <desc>Created with Sketch.</desc>
    <defs></defs>
    <g id="Page-1" stroke="none" stroke-width="1" fill="none" fill-rule="evenodd">
        <g id="card" fill="#221F20">
            <g id="Page-1" transform="translate(2.000000, 3.000000)">
                <g id="Group-6">
                    <path d="M1.995,7 L7.995,7 L7.995,6.007 L1.995,6.007 L1.995,7 Z M1.995,5.007 L7.995,5.007 L7.995,1 L1.995,1 L1.995,5.007 Z M8.995,0.5 C8.995,0.224 8.771,0 8.495,0 L1.495,0 C1.219,0 0.995,0.224 0.995,0.5 L0.995,7.5 C0.995,7.776 1.219,8 1.495,8 L8.495,8 C8.771,8 8.995,7.776 8.995,7.5 L8.995,6.007 L9,6.007 L9,5.007 L8.995,5.007 L8.995,0.5 Z" id="Fill-1"></path>
                    <path d="M12.005,7 L18.005,7 L18.005,6.007 L12.005,6.007 L12.005,7 Z M12.005,5.007 L18.005,5.007 L18.005,1 L12.005,1 L12.005,5.007 Z M18.505,0 L11.505,0 C11.229,0 11.005,0.224 11.005,0.5 L11.005,5.007 L11,5.007 L11,6.007 L11.005,6.007 L11.005,7.5 C11.005,7.776 11.229,8 11.505,8 L18.505,8 C18.781,8 19.005,7.776 19.005,7.5 L19.005,0.5 C19.005,0.224 18.781,0 18.505,0 L18.505,0 Z" id="Fill-3"></path>
                    <path d="M1.995,15.017 L7.995,15.017 L7.995,11 L1.995,11 L1.995,15.017 Z M1.995,17 L7.995,17 L7.995,16.017 L1.995,16.017 L1.995,17 Z M8.495,10 L1.495,10 C1.219,10 0.995,10.224 0.995,10.5 L0.995,15.017 L0.995,16.017 L0.995,17.5 C0.995,17.776 1.219,18 1.495,18 L8.495,18 C8.771,18 8.995,17.776 8.995,17.5 L8.995,16.017 L8.995,15.017 L8.995,10.5 C8.995,10.224 8.771,10 8.495,10 L8.495,10 Z" id="Fill-4"></path>
                    <path d="M12.005,17 L18.005,17 L18.005,16.017 L12.005,16.017 L12.005,17 Z M12.005,15.017 L18.005,15.017 L18.005,11 L12.005,11 L12.005,15.017 Z M18.505,10 L11.505,10 C11.229,10 11.005,10.224 11.005,10.5 L11.005,15.017 L11,15.017 L11,16.017 L11.005,16.017 L11.005,17.5 C11.005,17.776 11.229,18 11.505,18 L18.505,18 C18.781,18 19.005,17.776 19.005,17.5 L19.005,10.5 C19.005,10.224 18.781,10 18.505,10 L18.505,10 Z" id="Fill-5"></path>
                </g>
            </g>
        </g>
    </g>
</svg>