<?xml version="1.0" encoding="UTF-8" standalone="no"?>
<svg width="24px" height="24px" viewBox="0 0 24 24" version="1.1" xmlns="http://www.w3.org/2000/svg" xmlns:xlink="http://www.w3.org/1999/xlink">
    <!-- Generator: Sketch 39.1 (31720) - http://www.bohemiancoding.com/sketch -->
    <title>caution</title>
    <desc>Created with Sketch.</desc>
    <defs></defs>
    <g id="Page-1" stroke="none" stroke-width="1" fill="none" fill-rule="evenodd">
        <g id="caution" fill="#221F20">
            <g id="Page-1" transform="translate(2.000000, 3.000000)">
                <g id="Group-7">
                    <path d="M10,0.8672 C9.187,0.8672 8.443,1.3792 7.91,2.3042 L1.437,13.5132 C0.904,14.4392 0.833,15.3382 1.239,16.0402 C1.646,16.7452 2.458,17.1332 3.527,17.1332 L16.472,17.1332 C17.541,17.1332 18.354,16.7452 18.76,16.0402 C19.166,15.3382 19.096,14.4392 18.562,13.5132 L12.089,2.3042 C11.556,1.3792 10.812,0.8672 10,0.8672 M10,1.8672 C10.594,1.8672 11.021,2.4542 11.223,2.8042 L17.695,14.0132 C17.897,14.3632 18.191,15.0262 17.894,15.5412 C17.597,16.0552 16.875,16.1332 16.472,16.1332 L3.527,16.1332 C3.124,16.1332 2.402,16.0552 2.104,15.5392 C1.809,15.0272 2.103,14.3632 2.304,14.0132 L8.776,2.8042 C8.979,2.4542 9.405,1.8672 10,1.8672" id="Fill-1"></path>
                    <path d="M9.4229,13.624 C9.4229,13.942 9.6819,14.2 9.9999,14.2 C10.3189,14.2 10.5769,13.942 10.5769,13.624 C10.5769,13.305 10.3189,13.046 9.9999,13.046 C9.6819,13.046 9.4229,13.305 9.4229,13.624" id="Fill-3"></path>
                    <path d="M9.5,5.5068 C9.5,5.2308 9.724,5.0068 10,5.0068 C10.276,5.0068 10.5,5.2308 10.5,5.5068 L10.5,11.5068 C10.5,11.7828 10.276,12.0068 10,12.0068 C9.724,12.0068 9.5,11.7828 9.5,11.5068 L9.5,5.5068 Z" id="Fill-5"></path>
                </g>
            </g>
        </g>
    </g>
</svg>