<?xml version="1.0" encoding="UTF-8" standalone="no"?>
<svg width="24px" height="24px" viewBox="0 0 24 24" version="1.1" xmlns="http://www.w3.org/2000/svg" xmlns:xlink="http://www.w3.org/1999/xlink">
    <!-- Generator: Sketch 43.1 (39012) - http://www.bohemiancoding.com/sketch -->
    <title>chat</title>
    <desc>Created with Sketch.</desc>
    <defs></defs>
    <g id="icons" stroke="none" stroke-width="1" fill="none" fill-rule="evenodd">
        <g id="chat">
            <g>
                <polygon id="bounds" points="0 24 24 24 24 0 0 0"></polygon>
                <path d="M20,12.5 C20,13.91 19.161,15.176 17.862,15.725 C17.678,15.803 17.558,15.985 17.558,16.186 L17.558,18.923 L14.327,16.122 C14.236,16.043 14.12,16 14,16 L11.5,16 C9.57,16 8,14.43 8,12.5 L8,11.5 C8,9.57 9.57,8 11.5,8 L16.5,8 C18.43,8 20,9.57 20,11.5 L20,12.5 Z M6.442,15.923 L6.442,13.186 C6.442,12.985 6.322,12.803 6.138,12.725 C4.839,12.176 4,10.91 4,9.5 L4,8.5 C4,6.57 5.57,5 7.5,5 L12.5,5 C13.872,5 15.088,5.798 15.658,7 L11.5,7 C9.019,7 7,9.019 7,11.5 L7,12.5 C7,13.364 7.257,14.164 7.681,14.85 L6.442,15.923 Z M16.735,7.024 C16.112,5.23 14.43,4 12.5,4 L7.5,4 C5.019,4 3,6.019 3,8.5 L3,9.5 C3,11.199 3.948,12.736 5.442,13.503 L5.442,17.019 C5.442,17.214 5.557,17.392 5.734,17.474 C5.801,17.504 5.872,17.519 5.942,17.519 C6.061,17.519 6.177,17.477 6.27,17.396 L8.29,15.645 C9.107,16.479 10.242,17 11.5,17 L13.813,17 L17.73,20.396 C17.823,20.477 17.939,20.519 18.058,20.519 C18.128,20.519 18.199,20.504 18.266,20.474 C18.443,20.392 18.558,20.214 18.558,20.019 L18.558,16.503 C20.052,15.736 21,14.199 21,12.5 L21,11.5 C21,9.099 19.105,7.149 16.735,7.024 L16.735,7.024 Z" id="Fill-1" fill="#221E1F"></path>
            </g>
        </g>
    </g>
</svg>