<?xml version="1.0" encoding="UTF-8" standalone="no"?>
<svg width="24px" height="24px" viewBox="0 0 24 24" version="1.1" xmlns="http://www.w3.org/2000/svg" xmlns:xlink="http://www.w3.org/1999/xlink">
    <!-- Generator: Sketch 39.1 (31720) - http://www.bohemiancoding.com/sketch -->
    <title>checkup</title>
    <desc>Created with Sketch.</desc>
    <defs></defs>
    <g id="Page-1" stroke="none" stroke-width="1" fill="none" fill-rule="evenodd">
        <g id="checkup" fill="#221F20">
            <g id="Page-1" transform="translate(4.000000, 3.000000)">
                <g id="Group-9">
                    <path d="M12.5039,17 C10.5739,17 9.0039,15.43 9.0039,13.5 C9.0039,11.57 10.5739,10 12.5039,10 C14.4339,10 16.0039,11.57 16.0039,13.5 C16.0039,15.43 14.4339,17 12.5039,17 M8.2809,15.018 L1.9919,15.018 L1.9919,1 L12.0019,1 L12.0019,9.051 C11.6339,9.092 11.2789,9.17 10.9429,9.294 C10.8609,9.129 10.6959,9.014 10.4989,9.014 L3.4989,9.014 C3.2229,9.014 2.9989,9.237 2.9989,9.514 C2.9989,9.79 3.2229,10.014 3.4989,10.014 L9.6909,10.014 C9.0479,10.533 8.5549,11.218 8.2749,12.014 L3.4989,12.014 C3.2229,12.014 2.9989,12.237 2.9989,12.514 C2.9989,12.79 3.2229,13.014 3.4989,13.014 L8.0529,13.014 C8.0349,13.176 8.0039,13.333 8.0039,13.5 C8.0039,14.049 8.1169,14.568 8.2959,15.054 C8.2919,15.042 8.2859,15.03 8.2809,15.018 M13.0019,9.05 L13.0019,0.5 C13.0019,0.224 12.7769,0 12.5019,0 L1.4919,0 C1.2159,0 0.9919,0.224 0.9919,0.5 L0.9919,15.518 C0.9919,15.794 1.2159,16.018 1.4919,16.018 L8.7659,16.018 C8.6359,15.824 8.5319,15.615 8.4379,15.399 C9.1549,16.932 10.6999,18 12.5039,18 C14.9889,18 17.0039,15.985 17.0039,13.5 C17.0039,11.185 15.2499,9.301 13.0019,9.05" id="Fill-1"></path>
                    <path d="M14.8643,12.0293 C14.6693,11.8343 14.3523,11.8343 14.1573,12.0293 L11.6813,14.5053 L10.6213,13.4443 C10.4253,13.2483 10.1093,13.2483 9.9133,13.4433 C9.7183,13.6383 9.7183,13.9553 9.9143,14.1513 L11.3283,15.5653 C11.5233,15.7603 11.8403,15.7603 12.0353,15.5653 L14.8643,12.7363 C15.0593,12.5413 15.0593,12.2243 14.8643,12.0293" id="Fill-3"></path>
                    <path d="M3.499,4 L10.499,4 C10.775,4 10.999,3.776 10.999,3.5 C10.999,3.224 10.775,3 10.499,3 L3.499,3 C3.223,3 2.999,3.224 2.999,3.5 C2.999,3.776 3.223,4 3.499,4" id="Fill-5"></path>
                    <path d="M3.499,7.0068 L10.499,7.0068 C10.775,7.0068 10.999,6.7828 10.999,6.5068 C10.999,6.2308 10.775,6.0068 10.499,6.0068 L3.499,6.0068 C3.223,6.0068 2.999,6.2308 2.999,6.5068 C2.999,6.7828 3.223,7.0068 3.499,7.0068" id="Fill-7"></path>
                </g>
            </g>
        </g>
    </g>
</svg>