<?xml version="1.0" encoding="UTF-8" standalone="no"?>
<svg width="24px" height="24px" viewBox="0 0 24 24" version="1.1" xmlns="http://www.w3.org/2000/svg" xmlns:xlink="http://www.w3.org/1999/xlink">
    <!-- Generator: Sketch 39.1 (31720) - http://www.bohemiancoding.com/sketch -->
    <title>clinic</title>
    <desc>Created with Sketch.</desc>
    <defs></defs>
    <g id="Page-1" stroke="none" stroke-width="1" fill="none" fill-rule="evenodd">
        <g id="clinic" fill="#221F20">
            <g id="Page-1" transform="translate(5.000000, 3.000000)">
                <g id="Group-7">
                    <path d="M2.5,9.5 L3.5,9.5 L3.5,8.5 L2.5,8.5 L2.5,9.5 Z M2,7.5 C1.724,7.5 1.5,7.724 1.5,8 L1.5,10 C1.5,10.276 1.724,10.5 2,10.5 L4,10.5 C4.276,10.5 4.5,10.276 4.5,10 L4.5,8 C4.5,7.724 4.276,7.5 4,7.5 L2,7.5 Z" id="Fill-1"></path>
                    <path d="M6.5,9.5 L7.5,9.5 L7.5,8.5 L6.5,8.5 L6.5,9.5 Z M6,10.5 L8,10.5 C8.276,10.5 8.5,10.276 8.5,10 L8.5,8 C8.5,7.724 8.276,7.5 8,7.5 L6,7.5 C5.724,7.5 5.5,7.724 5.5,8 L5.5,10 C5.5,10.276 5.724,10.5 6,10.5 L6,10.5 Z" id="Fill-3"></path>
                    <path d="M10.5,9.5 L11.5,9.5 L11.5,8.5 L10.5,8.5 L10.5,9.5 Z M10,10.5 L12,10.5 C12.276,10.5 12.5,10.276 12.5,10 L12.5,8 C12.5,7.724 12.276,7.5 12,7.5 L10,7.5 C9.724,7.5 9.5,7.724 9.5,8 L9.5,10 C9.5,10.276 9.724,10.5 10,10.5 L10,10.5 Z" id="Fill-4"></path>
                    <path d="M6,3.5049 L6.5,3.5049 L6.5,4.0049 C6.5,4.2809 6.724,4.5049 7,4.5049 C7.276,4.5049 7.5,4.2809 7.5,4.0049 L7.5,3.5049 L8,3.5049 C8.276,3.5049 8.5,3.2809 8.5,3.0049 C8.5,2.7289 8.276,2.5049 8,2.5049 L7.5,2.5049 L7.5,2.0049 C7.5,1.7289 7.276,1.5049 7,1.5049 C6.724,1.5049 6.5,1.7289 6.5,2.0049 L6.5,2.5049 L6,2.5049 C5.724,2.5049 5.5,2.7289 5.5,3.0049 C5.5,3.2809 5.724,3.5049 6,3.5049" id="Fill-5"></path>
                    <path d="M4,17 L6.5,17 L6.5,12.996 L4,12.996 L4,17 Z M7.5,17 L10,17 L10,12.996 L7.5,12.996 L7.5,17 Z M4.5,6.005 L9.5,6.005 C9.776,6.005 10,5.781 10,5.505 L10,3.004 L11.002,3.004 L11.002,4.494 C11.002,4.498 11,4.5 11,4.504 C11,4.712 11.127,4.89 11.306,4.965 C11.366,4.99 11.433,5.005 11.502,5.005 C11.504,5.005 11.505,5.004 11.507,5.004 L13.007,5.004 L13.007,17.019 L11,17.019 L11,12.496 C11,12.221 10.776,11.996 10.5,11.996 L3.5,11.996 C3.224,11.996 3,12.221 3,12.496 L3,17.019 L1.007,17.019 L1.007,5.004 L2.495,5.004 C2.497,5.004 2.498,5.005 2.5,5.005 C2.776,5.005 3,4.781 3,4.505 L3,3.004 L4,3.004 L4,5.505 C4,5.781 4.224,6.005 4.5,6.005 L4.5,6.005 Z M5,5.005 L9,5.005 L9,1.005 L5,1.005 L5,5.005 Z M14.007,4.513 C14.007,4.374 13.95,4.248 13.858,4.157 C13.768,4.063 13.642,4.004 13.5,4.004 L12.002,4.004 L12.002,2.505 L12.002,2.504 C12.002,2.228 11.778,2.004 11.502,2.004 L10,2.004 L10,0.505 C10,0.229 9.776,0.005 9.5,0.005 L4.5,0.005 C4.224,0.005 4,0.229 4,0.505 L4,2.004 L2.5,2.004 C2.225,2.004 2,2.228 2,2.504 L2,2.505 L2,4.004 L0.5,4.004 C0.225,4.004 0,4.229 0,4.504 C0,4.516 0.006,4.526 0.007,4.538 L0.007,17.513 C0.007,17.514 0.008,17.515 0.008,17.516 C0.008,17.517 0.007,17.518 0.007,17.519 C0.007,17.795 0.229,18.019 0.507,18.019 L13.507,18.019 C13.782,18.019 14.007,17.795 14.007,17.519 C14.007,17.518 14.006,17.517 14.006,17.516 C14.006,17.515 14.007,17.514 14.007,17.513 L14.007,4.513 Z" id="Fill-6"></path>
                </g>
            </g>
        </g>
    </g>
</svg>