<?xml version="1.0" encoding="UTF-8" standalone="no"?>
<svg width="24px" height="24px" viewBox="0 0 24 24" version="1.1" xmlns="http://www.w3.org/2000/svg" xmlns:xlink="http://www.w3.org/1999/xlink">
    <!-- Generator: Sketch 39.1 (31720) - http://www.bohemiancoding.com/sketch -->
    <title>close</title>
    <desc>Created with Sketch.</desc>
    <defs></defs>
    <g id="Page-1" stroke="none" stroke-width="1" fill="none" fill-rule="evenodd">
        <g id="close" fill="#020302">
            <g transform="translate(5.000000, 5.000000)" id="Fill-1">
                <path d="M7.7075,7 L13.3645,1.343 C13.5595,1.147 13.5595,0.831 13.3645,0.636 C13.1685,0.44 12.8525,0.44 12.6565,0.636 L6.9995,6.292 L1.3435,0.636 C1.1475,0.44 0.8315,0.44 0.6355,0.636 C0.4405,0.831 0.4405,1.147 0.6355,1.343 L6.2925,7 L0.6355,12.656 C0.4405,12.852 0.4405,13.168 0.6365,13.364 C0.8315,13.56 1.1475,13.56 1.3435,13.364 L6.9995,7.707 L12.6565,13.364 C12.8525,13.56 13.1685,13.56 13.3635,13.364 C13.5595,13.168 13.5595,12.852 13.3645,12.656 L7.7075,7 Z"></path>
            </g>
        </g>
    </g>
</svg>