<?xml version="1.0" encoding="UTF-8" standalone="no"?>
<svg width="24px" height="24px" viewBox="0 0 24 24" version="1.1" xmlns="http://www.w3.org/2000/svg" xmlns:xlink="http://www.w3.org/1999/xlink">
    <!-- Generator: Sketch 39.1 (31720) - http://www.bohemiancoding.com/sketch -->
    <title>code</title>
    <desc>Created with Sketch.</desc>
    <defs></defs>
    <g id="Page-1" stroke="none" stroke-width="1" fill="none" fill-rule="evenodd">
        <g id="code" fill="#221F20">
            <g id="Page-1" transform="translate(2.000000, 5.000000)">
                <g id="Group-5">
                    <path d="M18.8623,6.6563 L12.4993,0.2933 C12.3023,0.0973 11.9873,0.0973 11.7923,0.2933 C11.5963,0.4883 11.5953,0.8043 11.7923,1.0003 L17.8013,7.0103 L11.7923,13.0203 C11.5963,13.2163 11.5963,13.5323 11.7923,13.7273 C11.9873,13.9233 12.3033,13.9233 12.4993,13.7273 L18.8623,7.3633 C19.0573,7.1683 19.0573,6.8513 18.8623,6.6563" id="Fill-1"></path>
                    <path d="M8.208,13.0195 L2.198,7.0095 L8.208,0.9985 C8.403,0.8035 8.403,0.4875 8.208,0.2915 C8.013,0.0965 7.696,0.0965 7.501,0.2915 L1.138,6.6565 C0.942,6.8515 0.942,7.1675 1.138,7.3635 L7.501,13.7265 C7.697,13.9215 8.013,13.9215 8.208,13.7265 C8.403,13.5315 8.404,13.2145 8.208,13.0195" id="Fill-3"></path>
                </g>
            </g>
        </g>
    </g>
</svg>