<?xml version="1.0" encoding="UTF-8" standalone="no"?>
<svg width="24px" height="24px" viewBox="0 0 24 24" version="1.1" xmlns="http://www.w3.org/2000/svg" xmlns:xlink="http://www.w3.org/1999/xlink">
    <!-- Generator: Sketch 39.1 (31720) - http://www.bohemiancoding.com/sketch -->
    <title>copy</title>
    <desc>Created with Sketch.</desc>
    <defs></defs>
    <g id="Page-1" stroke="none" stroke-width="1" fill="none" fill-rule="evenodd">
        <g id="copy" fill="#221F20">
            <g id="Page-1" transform="translate(3.000000, 3.000000)">
                <path d="M17,17.5 L17,17 L17.001,17 L17,17.5 Z M16.999,17 L5,17 L5,5 L17,5 L16.999,17 Z M4,5 L4,13 L1,13 L1,1 L13,1 L13,4 L5,4 C4.448,4 4,4.448 4,5 L4,5 Z M17,4 L14,4 L14,1 C14,0.448 13.552,0 13,0 L1,0 C0.448,0 0,0.448 0,1 L0,13 C0,13.552 0.448,14 1,14 L4,14 L4,17 C4,17.552 4.448,18 5,18 L17,18 C17.552,18 18,17.552 18,17 L18,5 C18,4.448 17.552,4 17,4 L17,4 Z" id="Fill-1"></path>
            </g>
        </g>
    </g>
</svg>