<?xml version="1.0" encoding="UTF-8" standalone="no"?>
<svg width="24px" height="24px" viewBox="0 0 24 24" version="1.1" xmlns="http://www.w3.org/2000/svg" xmlns:xlink="http://www.w3.org/1999/xlink">
    <!-- Generator: Sketch 39.1 (31720) - http://www.bohemiancoding.com/sketch -->
    <title>credit card</title>
    <desc>Created with Sketch.</desc>
    <defs></defs>
    <g id="Page-1" stroke="none" stroke-width="1" fill="none" fill-rule="evenodd">
        <g id="credit-card" fill="#221F20">
            <g id="Page-1" transform="translate(3.000000, 6.000000)">
                <g id="Group-7">
                    <path d="M1,2.007 L17,2.007 L17,1 L1,1 L1,2.007 Z M1,11 L17,11 L17,4.009 L1,4.009 L1,11 Z M17.5,0 L0.5,0 C0.224,0 0,0.224 0,0.5 L0,2.007 L0,4.009 L0,11.5 C0,11.776 0.224,12 0.5,12 L17.5,12 C17.776,12 18,11.776 18,11.5 L18,4.009 L18,2.007 L18,0.5 C18,0.224 17.776,0 17.5,0 L17.5,0 Z" id="Fill-1"></path>
                    <path d="M2,9.5088 C2,9.7848 2.224,10.0088 2.5,10.0088 L5.5,10.0088 C5.776,10.0088 6,9.7848 6,9.5088 C6,9.2328 5.776,9.0088 5.5,9.0088 L2.5,9.0088 C2.224,9.0088 2,9.2328 2,9.5088" id="Fill-3"></path>
                    <path d="M7.5,10.0088 L10.5,10.0088 C10.776,10.0088 11,9.7848 11,9.5088 C11,9.2328 10.776,9.0088 10.5,9.0088 L7.5,9.0088 C7.224,9.0088 7,9.2328 7,9.5088 C7,9.7848 7.224,10.0088 7.5,10.0088" id="Fill-4"></path>
                    <path d="M12.5,10.0088 L15.5,10.0088 C15.776,10.0088 16,9.7848 16,9.5088 C16,9.2328 15.776,9.0088 15.5,9.0088 L12.5,9.0088 C12.224,9.0088 12,9.2328 12,9.5088 C12,9.7848 12.224,10.0088 12.5,10.0088" id="Fill-5"></path>
                    <path d="M2.993,7.034 L3.993,7.034 L3.993,6.034 L2.993,6.034 L2.993,7.034 Z M2.493,8.034 L4.493,8.034 C4.77,8.034 4.993,7.811 4.993,7.534 L4.993,5.534 C4.993,5.258 4.77,5.034 4.493,5.034 L2.493,5.034 C2.217,5.034 1.993,5.258 1.993,5.534 L1.993,7.534 C1.993,7.811 2.217,8.034 2.493,8.034 L2.493,8.034 Z" id="Fill-6"></path>
                </g>
            </g>
        </g>
    </g>
</svg>