<?xml version="1.0" encoding="UTF-8" standalone="no"?>
<svg width="24px" height="24px" viewBox="0 0 24 24" version="1.1" xmlns="http://www.w3.org/2000/svg" xmlns:xlink="http://www.w3.org/1999/xlink">
    <!-- Generator: Sketch 39.1 (31720) - http://www.bohemiancoding.com/sketch -->
    <title>delete</title>
    <desc>Created with Sketch.</desc>
    <defs></defs>
    <g id="Page-1" stroke="none" stroke-width="1" fill="none" fill-rule="evenodd">
        <g id="delete" fill="#221F20">
            <g id="Page-1" transform="translate(5.000000, 3.000000)">
                <g id="Group-7">
                    <path d="M9.502,16.0078 C9.777,16.0078 10.002,15.7828 10.002,15.5078 L10.002,6.5078 C10.002,6.2308 9.777,6.0078 9.502,6.0078 C9.225,6.0078 9.002,6.2308 9.002,6.5078 L9.002,15.5078 C9.002,15.7828 9.225,16.0078 9.502,16.0078 L9.502,16.0078 Z" id="Fill-1"></path>
                    <path d="M4.4971,16.0078 C4.7731,16.0078 4.9971,15.7828 4.9971,15.5078 L4.9971,6.5078 C4.9971,6.2308 4.7731,6.0078 4.4971,6.0078 C4.2211,6.0078 3.9971,6.2308 3.9971,6.5078 L3.9971,15.5078 C3.9971,15.7828 4.2211,16.0078 4.4971,16.0078" id="Fill-3"></path>
                    <path d="M1.994,17.019 L12.002,17.019 L12.002,5.01 L1.994,5.01 L1.994,17.019 Z M5.998,2.004 L8.002,2.004 L8.002,1.002 L5.998,1.002 L5.998,2.004 Z M1,4.01 L13,4.01 L13,3.004 L1,3.004 L1,4.01 Z M13.5,2.001 C13.495,2.001 13.49,2.004 13.485,2.004 L9.002,2.004 L9.002,0.502 C9.002,0.226 8.777,0.002 8.502,0.002 L8.5,0.002 L8.498,0.002 L5.498,0.002 C5.222,0.002 4.998,0.226 4.998,0.502 L4.998,2.004 L0.515,2.004 C0.51,2.004 0.505,2.001 0.5,2.001 C0.224,2.001 0,2.225 0,2.501 L0,4.501 C0,4.502 0.001,4.504 0.001,4.505 C0.001,4.507 0,4.508 0,4.51 C0,4.786 0.224,5.01 0.5,5.01 L0.994,5.01 L0.994,17.51 C0.994,17.583 1.012,17.651 1.039,17.713 C1.115,17.893 1.293,18.019 1.5,18.019 L12.5,18.019 C12.71,18.019 12.889,17.889 12.963,17.705 C12.988,17.645 13.002,17.579 13.002,17.51 L13.002,5.01 L13.5,5.01 C13.776,5.01 14,4.786 14,4.51 C14,4.508 13.999,4.507 13.999,4.505 C13.999,4.504 14,4.502 14,4.501 L14,2.501 C14,2.225 13.776,2.001 13.5,2.001 L13.5,2.001 Z" id="Fill-5"></path>
                </g>
            </g>
        </g>
    </g>
</svg>