<?xml version="1.0" encoding="UTF-8" standalone="no"?>
<svg width="24px" height="24px" viewBox="0 0 24 24" version="1.1" xmlns="http://www.w3.org/2000/svg" xmlns:xlink="http://www.w3.org/1999/xlink">
    <!-- Generator: Sketch 39.1 (31720) - http://www.bohemiancoding.com/sketch -->
    <title>downgrade</title>
    <desc>Created with Sketch.</desc>
    <defs></defs>
    <g id="Page-1" stroke="none" stroke-width="1" fill="none" fill-rule="evenodd">
        <g id="downgrade" fill="#221F20">
            <g id="Page-1" transform="translate(3.000000, 3.000000)">
                <g id="Group-7">
                    <path d="M12.8545,15.9336 C11.9985,15.4666 11.2805,14.9476 10.7315,14.3986 C9.6685,13.2986 7.9855,11.2636 6.7615,9.7496 C6.5715,9.5156 6.2865,9.3786 5.9845,9.3786 L3.3705,9.3796 L2.6305,8.2716 L3.9425,7.9166 C4.2255,7.8396 4.4615,7.6426 4.5865,7.3766 C4.6495,7.2426 4.6815,7.0976 4.6815,6.9516 C4.6815,6.8106 4.6515,6.6676 4.5905,6.5376 L4.3625,6.0356 C4.4275,5.9036 4.6105,5.6106 5.1055,5.1136 C5.6055,4.6446 5.8835,4.4646 6.0145,4.3966 L6.4915,4.6126 C6.6865,4.7016 6.9055,4.7246 7.1145,4.6796 C7.1575,4.6696 7.2195,4.6526 7.2605,4.6366 C7.5695,4.5276 7.8045,4.2726 7.8895,3.9556 L8.2405,2.6606 L9.3485,3.3986 L9.3475,5.9206 L9.3475,5.9216 C9.3475,6.2206 9.4815,6.5036 9.7115,6.6936 C11.9205,8.5116 13.4835,9.8746 14.3555,10.7476 C14.9585,11.3506 15.4795,12.0956 15.8365,12.8826 C16.6355,14.4796 16.8585,16.0976 16.9185,16.9516 C16.0775,16.8966 14.4675,16.6916 12.8545,15.9336 M16.7305,12.4356 C16.3415,11.5786 15.7505,10.7266 15.0625,10.0396 C14.1685,9.1466 12.5835,7.7616 10.3475,5.9216 L10.3485,3.0786 L10.3485,3.0756 C10.3485,2.9436 10.2825,2.8196 10.1695,2.7446 L8.1015,1.3656 C7.9945,1.2946 7.8595,1.2796 7.7385,1.3246 C7.6185,1.3696 7.5265,1.4696 7.4925,1.5956 L6.9245,3.6956 C6.9175,3.6976 6.9115,3.7006 6.9045,3.7016 L6.2655,3.4126 C5.9065,3.2326 5.3245,3.5376 4.4215,4.3826 C3.7015,5.1056 3.3335,5.6736 3.3335,6.0706 C3.3335,6.1426 3.3475,6.2086 3.3755,6.2816 L3.6815,6.9516 L1.5665,7.5236 C1.4405,7.5576 1.3405,7.6476 1.2945,7.7686 C1.2775,7.8146 1.2695,7.8616 1.2685,7.9106 C1.2695,7.9886 1.2925,8.0646 1.3355,8.1326 L2.7165,10.2016 C2.7915,10.3126 2.9165,10.3786 3.0495,10.3796 L5.9845,10.3786 C7.2545,11.9506 8.9415,13.9866 10.0115,15.0936 C10.6445,15.7266 11.4415,16.3056 12.4025,16.8266 C14.9415,18.0276 17.4455,17.9726 17.5505,17.9686 C17.7625,17.9636 17.9335,17.7926 17.9395,17.5796 L17.9405,17.4956 C17.9395,17.0546 17.8825,14.7346 16.7305,12.4356" id="Fill-1"></path>
                    <path d="M13.6104,13.6396 C13.2194,14.0296 12.5854,14.0296 12.1954,13.6396 C11.8174,13.2616 11.8174,12.6036 12.1954,12.2246 C12.5854,11.8356 13.2194,11.8356 13.6094,12.2246 C13.7984,12.4136 13.9034,12.6656 13.9034,12.9336 C13.9034,13.2006 13.7984,13.4516 13.6104,13.6396 M11.4884,11.5176 C11.1104,11.8966 10.9024,12.3986 10.9024,12.9326 C10.9024,13.4666 11.1104,13.9686 11.4884,14.3466 C12.2684,15.1266 13.5384,15.1266 14.3174,14.3466 C15.0724,13.5916 15.0734,12.2736 14.3164,11.5176 C13.5364,10.7386 12.2684,10.7386 11.4884,11.5176" id="Fill-3"></path>
                    <path d="M2.3584,5.1885 C2.5784,5.3555 2.8984,5.3105 3.0564,5.0915 C3.2234,4.8725 3.1804,4.5585 2.9624,4.3915 C2.9434,4.3775 1.3294,3.1195 1.0684,1.0875 C3.0994,1.3485 4.3584,2.9625 4.3734,2.9805 C4.5394,3.2005 4.8524,3.2435 5.0724,3.0765 C5.2914,2.9175 5.3364,2.5975 5.1704,2.3765 C5.0974,2.2825 3.3804,0.0505 0.5204,0.0495 C0.3884,0.0495 0.2694,0.1035 0.1794,0.1875 L0.1774,0.1855 C0.1754,0.1875 0.1744,0.1905 0.1724,0.1925 C0.1714,0.1935 0.1684,0.1955 0.1674,0.1965 L0.1694,0.1985 C0.0844,0.2895 0.0304,0.4085 0.0314,0.5395 C0.0314,3.4005 2.2634,5.1175 2.3584,5.1885" id="Fill-5"></path>
                </g>
            </g>
        </g>
    </g>
</svg>