<?xml version="1.0" encoding="UTF-8" standalone="no"?>
<svg width="24px" height="24px" viewBox="0 0 24 24" version="1.1" xmlns="http://www.w3.org/2000/svg" xmlns:xlink="http://www.w3.org/1999/xlink">
    <!-- Generator: Sketch 40.3 (33839) - http://www.bohemiancoding.com/sketch -->
    <title>download</title>
    <desc>Created with Sketch.</desc>
    <defs></defs>
    <g id="icons" stroke="none" stroke-width="1" fill="none" fill-rule="evenodd">
        <g id="download">
            <g>
                <polygon id="bounds" points="0 24 24 24 24 0 0 0"></polygon>
                <path d="M16.5962,11.8965 C16.4012,11.7015 16.0852,11.7015 15.8892,11.8965 L12.4992,15.2865 L12.4992,4.5025 C12.4992,4.2265 12.2762,4.0025 11.9992,4.0025 C11.7232,4.0025 11.4992,4.2265 11.4992,4.5025 L11.4992,15.2875 L8.1102,11.8965 C7.9142,11.7015 7.5992,11.7015 7.4032,11.8965 C7.2072,12.0915 7.2072,12.4085 7.4032,12.6035 L11.6272,16.8295 C11.7192,16.9335 11.8492,17.0025 11.9992,17.0025 C12.1512,17.0025 12.2822,16.9315 12.3742,16.8265 L16.5962,12.6035 C16.7922,12.4085 16.7922,12.0925 16.5962,11.8965" id="Fill-1" fill="#020302"></path>
                <path d="M19,19.5 C19,19.776 18.776,20 18.5,20 L5.5,20 C5.224,20 5,19.776 5,19.5 C5,19.225 5.224,19 5.5,19 L18.5,19 C18.776,19 19,19.225 19,19.5" id="Fill-3" fill="#020302"></path>
            </g>
        </g>
    </g>
</svg>