<?xml version="1.0" encoding="UTF-8" standalone="no"?>
<svg width="24px" height="24px" viewBox="0 0 24 24" version="1.1" xmlns="http://www.w3.org/2000/svg" xmlns:xlink="http://www.w3.org/1999/xlink">
    <!-- Generator: Sketch 39.1 (31720) - http://www.bohemiancoding.com/sketch -->
    <title>drop</title>
    <desc>Created with Sketch.</desc>
    <defs></defs>
    <g id="Page-1" stroke="none" stroke-width="1" fill="none" fill-rule="evenodd">
        <g id="drop" fill="#221F20">
            <g id="Page-1" transform="translate(5.000000, 3.000000)">
                <g id="Group-5">
                    <path d="M7,17 C3.844,17 1.275,14.549 1.275,11.535 C1.275,10.548 1.554,9.581 2.061,8.769 L6.996,1.437 L11.905,8.716 C12.441,9.57 12.725,10.545 12.725,11.535 C12.725,14.549 10.156,17 7,17 M12.752,8.184 L7.364,0.195 C7.281,0.073 7.145,0 6.995,0 C6.849,0 6.709,0.073 6.626,0.196 L1.231,8.21 C0.606,9.209 0.275,10.359 0.275,11.535 C0.275,15.1 3.291,18 7,18 C10.709,18 13.725,15.1 13.725,11.535 C13.725,10.356 13.391,9.201 12.752,8.184" id="Fill-1"></path>
                    <path d="M7,14.6875 C5.089,14.6875 3.534,13.2015 3.534,11.3745 C3.534,11.0985 3.311,10.8745 3.034,10.8745 C2.758,10.8745 2.534,11.0985 2.534,11.3745 C2.534,13.7525 4.537,15.6875 7,15.6875 C7.276,15.6875 7.5,15.4635 7.5,15.1875 C7.5,14.9115 7.276,14.6875 7,14.6875" id="Fill-3"></path>
                </g>
            </g>
        </g>
    </g>
</svg>