<?xml version="1.0" encoding="UTF-8" standalone="no"?>
<svg width="24px" height="24px" viewBox="0 0 24 24" version="1.1" xmlns="http://www.w3.org/2000/svg" xmlns:xlink="http://www.w3.org/1999/xlink">
    <!-- Generator: Sketch 39.1 (31720) - http://www.bohemiancoding.com/sketch -->
    <title>edit</title>
    <desc>Created with Sketch.</desc>
    <defs></defs>
    <g id="Page-1" stroke="none" stroke-width="1" fill="none" fill-rule="evenodd">
        <g id="edit" fill="#020302">
            <g id="Page-1" transform="translate(3.000000, 3.000000)">
                <path d="M5.7705,15.0518 L2.9435,12.2258 L10.7195,4.4498 L13.5465,7.2768 L5.7705,15.0518 Z M2.4905,13.1878 L4.8085,15.5068 L1.6075,16.3898 L2.4905,13.1878 Z M14.2535,6.5698 L11.4265,3.7428 L13.5485,1.6198 L16.3765,4.4478 L14.2535,6.5698 Z M17.4445,4.8088 C17.6405,4.6138 17.6405,4.2968 17.4445,4.1018 L17.4385,4.0948 C17.4375,4.0948 17.4375,4.0938 17.4375,4.0938 C17.4375,4.0938 17.4365,4.0938 17.4365,4.0928 L13.9095,0.5668 C13.9095,0.5658 13.9085,0.5658 13.9075,0.5648 C13.9055,0.5628 13.9055,0.5608 13.9035,0.5588 C13.7075,0.3638 13.3915,0.3638 13.1955,0.5588 L1.8965,11.8588 C1.8915,11.8638 1.8855,11.8638 1.8805,11.8688 C1.8695,11.8798 1.8655,11.8938 1.8565,11.9058 C1.8455,11.9178 1.8385,11.9318 1.8295,11.9458 C1.7995,11.9888 1.7755,12.0318 1.7605,12.0808 C1.7595,12.0848 1.7565,12.0878 1.7555,12.0918 L0.4265,16.9118 C0.3785,17.0878 0.4355,17.2618 0.5515,17.3848 C0.5595,17.3958 0.5685,17.4048 0.5785,17.4158 C0.5905,17.4268 0.6015,17.4368 0.6155,17.4468 C0.7375,17.5618 0.9105,17.6188 1.0835,17.5708 L5.9035,16.2418 C5.9115,16.2398 5.9165,16.2348 5.9245,16.2318 C5.9605,16.2198 5.9925,16.2008 6.0245,16.1808 C6.0505,16.1648 6.0765,16.1518 6.0985,16.1318 C6.1065,16.1248 6.1165,16.1228 6.1235,16.1148 L14.5695,7.6698 C14.5835,7.6578 14.6015,7.6528 14.6155,7.6388 C14.6285,7.6248 14.6345,7.6078 14.6455,7.5928 L17.3995,4.8388 C17.4145,4.8268 17.4315,4.8218 17.4445,4.8088 L17.4445,4.8088 Z" id="Fill-1"></path>
            </g>
        </g>
    </g>
</svg>