<?xml version="1.0" encoding="UTF-8" standalone="no"?>
<svg width="24px" height="24px" viewBox="0 0 24 24" version="1.1" xmlns="http://www.w3.org/2000/svg" xmlns:xlink="http://www.w3.org/1999/xlink">
    <!-- Generator: Sketch 46.2 (44496) - http://www.bohemiancoding.com/sketch -->
    <title>erase</title>
    <desc>Created with Sketch.</desc>
    <defs></defs>
    <g id="icons" stroke="none" stroke-width="1" fill="none" fill-rule="evenodd">
        <g id="erase">
            <g>
                <polygon id="Fill-3" points="0 24 24 24 24 0 0 0"></polygon>
                <path d="M10.2324,18.7173 C10.0414,18.9073 9.7124,18.9063 9.5254,18.7173 L5.2824,14.4753 C5.1874,14.3803 5.1354,14.2553 5.1354,14.1213 C5.1354,13.9883 5.1874,13.8633 5.2824,13.7683 L9.5254,9.5253 L14.4744,14.4753 L10.2324,18.7173 Z M19.4234,8.8183 L15.1814,4.5753 C14.6154,4.0093 13.6274,4.0093 13.0604,4.5753 L4.5754,13.0603 C4.2914,13.3443 4.1344,13.7213 4.1354,14.1223 C4.1354,14.5223 4.2924,14.8993 4.5754,15.1823 L8.8184,19.4253 C9.1014,19.7083 9.4784,19.8643 9.8784,19.8643 C10.2794,19.8643 10.6554,19.7083 10.9394,19.4253 L19.4234,10.9393 C20.0084,10.3543 20.0084,9.4033 19.4234,8.8183 L19.4234,8.8183 Z" id="Fill-1" fill="#000000"></path>
            </g>
        </g>
    </g>
</svg>