<?xml version="1.0" encoding="UTF-8" standalone="no"?>
<svg width="24px" height="24px" viewBox="0 0 24 24" version="1.1" xmlns="http://www.w3.org/2000/svg" xmlns:xlink="http://www.w3.org/1999/xlink">
    <!-- Generator: Sketch 39.1 (31720) - http://www.bohemiancoding.com/sketch -->
    <title>export</title>
    <desc>Created with Sketch.</desc>
    <defs></defs>
    <g id="Page-1" stroke="none" stroke-width="1" fill="none" fill-rule="evenodd">
        <g id="export" fill="#221F20">
            <g id="Page-1" transform="translate(2.000000, 3.000000)">
                <g id="Group-11">
                    <path d="M18.8604,0.1475 C18.7694,0.0565 18.6444,0.0005 18.5064,0.0005 L13.5064,0.0005 C13.2294,0.0005 13.0064,0.2235 13.0064,0.5005 C13.0064,0.7765 13.2294,1.0005 13.5064,1.0005 L17.2944,1.0005 L10.3684,7.9245 C10.1734,8.1205 10.1734,8.4365 10.3694,8.6315 C10.5654,8.8275 10.8814,8.8275 11.0764,8.6315 L18.0094,1.6995 L18.0094,5.5025 C18.0094,5.7795 18.2334,6.0025 18.5094,6.0025 C18.7854,6.0025 19.0094,5.7795 19.0094,5.5025 L19.0094,0.5025 C19.0094,0.3635 18.9524,0.2385 18.8604,0.1475" id="Fill-1"></path>
                    <path d="M10.9961,2.5049 C10.9961,2.7809 10.7721,3.0049 10.4961,3.0049 L1.4961,3.0049 C1.2201,3.0049 0.9961,2.7809 0.9961,2.5049 C0.9961,2.2289 1.2201,2.0049 1.4961,2.0049 L10.4961,2.0049 C10.7721,2.0049 10.9961,2.2289 10.9961,2.5049" id="Fill-3"></path>
                    <path d="M16.5,18.0146 C16.224,18.0146 16,17.7906 16,17.5146 L16,8.5146 C16,8.2386 16.224,8.0146 16.5,8.0146 C16.776,8.0146 17,8.2386 17,8.5146 L17,17.5146 C17,17.7906 16.776,18.0146 16.5,18.0146" id="Fill-5"></path>
                    <path d="M16.999,17.5186 C16.999,17.7946 16.775,18.0186 16.499,18.0186 L1.499,18.0186 C1.223,18.0186 0.999,17.7946 0.999,17.5186 C0.999,17.2426 1.223,17.0186 1.499,17.0186 L16.499,17.0186 C16.775,17.0186 16.999,17.2426 16.999,17.5186" id="Fill-7"></path>
                    <path d="M1.5,2.0117 C1.776,2.0117 2,2.2357 2,2.5117 L2,17.5117 C2,17.7877 1.776,18.0117 1.5,18.0117 C1.224,18.0117 1,17.7877 1,17.5117 L1,2.5117 C1,2.2357 1.224,2.0117 1.5,2.0117" id="Fill-9"></path>
                </g>
            </g>
        </g>
    </g>
</svg>