<?xml version="1.0" encoding="UTF-8" standalone="no"?>
<svg width="24px" height="24px" viewBox="0 0 24 24" version="1.1" xmlns="http://www.w3.org/2000/svg" xmlns:xlink="http://www.w3.org/1999/xlink">
    <!-- Generator: Sketch 43.1 (39012) - http://www.bohemiancoding.com/sketch -->
    <title>feedback</title>
    <desc>Created with Sketch.</desc>
    <defs></defs>
    <g id="icons" stroke="none" stroke-width="1" fill="none" fill-rule="evenodd">
        <g id="feedback">
            <g>
                <polygon id="bounds" points="0 24 24 24 24 0 0 0"></polygon>
                <g id="Group-9" transform="translate(3.000000, 4.000000)" fill="#221F20">
                    <path d="M14.5059,3.5068 L3.4939,3.5068 C3.2179,3.5068 2.9939,3.7308 2.9939,4.0068 L2.9939,4.0078 C2.9939,4.2838 3.2179,4.5078 3.4939,4.5078 L14.5059,4.5078 C14.7819,4.5078 15.0059,4.2838 15.0059,4.0078 L15.0059,4.0068 C15.0059,3.7308 14.7819,3.5068 14.5059,3.5068" id="Fill-1"></path>
                    <path d="M14.5059,6.5098 L3.4939,6.5098 C3.2179,6.5098 2.9939,6.7338 2.9939,7.0098 L2.9939,7.0108 C2.9939,7.2868 3.2179,7.5108 3.4939,7.5108 L14.5059,7.5108 C14.7819,7.5108 15.0059,7.2868 15.0059,7.0108 L15.0059,7.0098 C15.0059,6.7338 14.7819,6.5098 14.5059,6.5098" id="Fill-3"></path>
                    <path d="M17,9.0103 C17,10.9403 15.43,12.5103 13.5,12.5103 C13.224,12.5103 13,12.7343 13,13.0103 L13,15.4823 L9.285,12.6143 C9.197,12.5473 9.09,12.5103 8.979,12.5103 L4.5,12.5103 C2.57,12.5103 1,10.9403 1,9.0103 L1,5.0103 C1,3.0803 2.57,1.5103 4.5,1.5103 L13.5,1.5103 C15.43,1.5103 17,3.0803 17,5.0103 L17,9.0103 Z M13.5,0.5103 L4.5,0.5103 C2.019,0.5103 0,2.5293 0,5.0103 L0,9.0103 C0,11.4913 2.019,13.5103 4.5,13.5103 L8.809,13.5103 L13.194,16.8963 C13.284,16.9653 13.392,17.0003 13.5,17.0003 C13.575,17.0003 13.65,16.9833 13.721,16.9483 C13.892,16.8643 14,16.6903 14,16.5003 L14,13.4823 C16.247,13.2333 18,11.3233 18,9.0103 L18,5.0103 C18,2.5293 15.981,0.5103 13.5,0.5103 L13.5,0.5103 Z" id="Fill-5"></path>
                    <path d="M12.582,9.5098 L3.494,9.5098 C3.218,9.5098 2.994,9.7338 2.994,10.0098 C2.994,10.2868 3.218,10.5108 3.494,10.5108 L12.582,10.5108 C12.859,10.5108 13.083,10.2868 13.083,10.0098 C13.083,9.7338 12.859,9.5098 12.582,9.5098" id="Fill-7"></path>
                </g>
            </g>
        </g>
    </g>
</svg>