<?xml version="1.0" encoding="UTF-8" standalone="no"?>
<svg width="24px" height="24px" viewBox="0 0 24 24" version="1.1" xmlns="http://www.w3.org/2000/svg" xmlns:xlink="http://www.w3.org/1999/xlink">
    <!-- Generator: Sketch 41.2 (35397) - http://www.bohemiancoding.com/sketch -->
    <title>file-text</title>
    <desc>Created with Sketch.</desc>
    <defs></defs>
    <g id="icons" stroke="none" stroke-width="1" fill="none" fill-rule="evenodd">
        <g id="file-text">
            <g>
                <polygon id="bounds" points="0 24 24 24 24 0 0 0"></polygon>
                <path d="M18,19.5 C18,19.775 17.776,20 17.5,20 L6.5,20 C6.224,20 6,19.775 6,19.5 L6,4.5 C6,4.225 6.224,4 6.5,4 L17.5,4 C17.776,4 18,4.225 18,4.5 L18,19.5 Z M17.5,3 L6.5,3 C5.673,3 5,3.673 5,4.5 L5,19.5 C5,20.327 5.673,21 6.5,21 L17.5,21 C18.327,21 19,20.327 19,19.5 L19,4.5 C19,3.673 18.327,3 17.5,3 L17.5,3 Z" id="Fill-1" fill="#221E1F"></path>
                <path d="M15.5,7 L8.5,7 C8.224,7 8,7.224 8,7.5 C8,7.776 8.224,8 8.5,8 L15.5,8 C15.776,8 16,7.776 16,7.5 C16,7.224 15.776,7 15.5,7" id="Fill-3" fill="#221E1F"></path>
                <path d="M15.5,10.0088 L8.5,10.0088 C8.224,10.0088 8,10.2328 8,10.5088 C8,10.7848 8.224,11.0088 8.5,11.0088 L15.5,11.0088 C15.776,11.0088 16,10.7848 16,10.5088 C16,10.2328 15.776,10.0088 15.5,10.0088" id="Fill-5" fill="#221E1F"></path>
                <path d="M15.5,13.0176 L8.5,13.0176 C8.224,13.0176 8,13.2416 8,13.5176 C8,13.7936 8.224,14.0176 8.5,14.0176 L15.5,14.0176 C15.776,14.0176 16,13.7936 16,13.5176 C16,13.2416 15.776,13.0176 15.5,13.0176" id="Fill-7" fill="#221E1F"></path>
                <path d="M12.4961,16.0146 L8.4961,16.0146 C8.2201,16.0146 7.9961,16.2386 7.9961,16.5146 C7.9961,16.7906 8.2201,17.0146 8.4961,17.0146 L12.4961,17.0146 C12.7721,17.0146 12.9961,16.7906 12.9961,16.5146 C12.9961,16.2386 12.7721,16.0146 12.4961,16.0146" id="Fill-9" fill="#221E1F"></path>
            </g>
        </g>
    </g>
</svg>