<?xml version="1.0" encoding="UTF-8" standalone="no"?>
<svg width="24px" height="24px" viewBox="0 0 24 24" version="1.1" xmlns="http://www.w3.org/2000/svg" xmlns:xlink="http://www.w3.org/1999/xlink">
    <!-- Generator: Sketch 41.2 (35397) - http://www.bohemiancoding.com/sketch -->
    <title>file-video</title>
    <desc>Created with Sketch.</desc>
    <defs></defs>
    <g id="icons" stroke="none" stroke-width="1" fill="none" fill-rule="evenodd">
        <g id="file-video">
            <g>
                <polygon id="bounds" points="0 24 24 24 24 0 0 0"></polygon>
                <path d="M20.0078,18 L16.9998,16.016 L16.9998,13.013 L20.0078,11.011 L20.0078,18 Z M4.9908,18.01 L15.9908,18.01 L15.9908,11.01 L4.9908,11.01 L4.9908,18.01 Z M6.9908,6 C8.0938,6 8.9908,6.897 8.9908,8 C8.9908,9.103 8.0938,10 6.9908,10 C5.8878,10 4.9908,9.103 4.9908,8 C4.9908,6.897 5.8878,6 6.9908,6 L6.9908,6 Z M10.9908,7.5 C10.9908,6.122 12.1128,5 13.4908,5 C14.8698,5 15.9908,6.122 15.9908,7.5 C15.9908,8.878 14.8698,10 13.4908,10 C12.1128,10 10.9908,8.878 10.9908,7.5 L10.9908,7.5 Z M20.4798,10.129 C20.3318,10.05 20.1698,10.011 20.0078,10.011 C19.8138,10.011 19.6208,10.067 19.4538,10.178 L16.9908,11.817 L16.9908,11.01 C16.9908,10.458 16.5428,10.01 15.9908,10.01 L15.9238,10.01 C16.5798,9.374 16.9908,8.486 16.9908,7.5 C16.9908,5.567 15.4248,4 13.4908,4 C11.5578,4 9.9908,5.567 9.9908,7.5 C9.9908,8.486 10.4028,9.374 11.0588,10.01 L9.2048,10.01 C9.6888,9.477 9.9908,8.776 9.9908,8 C9.9908,6.343 8.6488,5 6.9908,5 C5.3338,5 3.9908,6.343 3.9908,8 C3.9908,8.793 4.3048,9.51 4.8078,10.047 C4.3468,10.135 3.9908,10.522 3.9908,11.01 L3.9908,18.01 C3.9908,18.562 4.4398,19.01 4.9908,19.01 L15.9908,19.01 C16.5428,19.01 16.9908,18.562 16.9908,18.01 L16.9908,17.208 L19.4568,18.834 C19.6238,18.944 19.8158,19 20.0078,19 C20.1708,19 20.3338,18.96 20.4818,18.88 C20.8058,18.706 21.0078,18.368 21.0078,18 L21.0078,11.011 C21.0078,10.642 20.8048,10.303 20.4798,10.129 L20.4798,10.129 Z" id="Fill-1" fill="#000000"></path>
                <path d="M11.5,17 L14.5,17 C14.776,17 15,16.776 15,16.5 C15,16.224 14.776,16 14.5,16 L11.5,16 C11.224,16 11,16.224 11,16.5 C11,16.776 11.224,17 11.5,17" id="Fill-3" fill="#000000"></path>
            </g>
        </g>
    </g>
</svg>