<?xml version="1.0" encoding="UTF-8" standalone="no"?>
<svg width="24px" height="24px" viewBox="0 0 24 24" version="1.1" xmlns="http://www.w3.org/2000/svg" xmlns:xlink="http://www.w3.org/1999/xlink">
    <!-- Generator: Sketch 41.2 (35397) - http://www.bohemiancoding.com/sketch -->
    <title>file-any</title>
    <desc>Created with Sketch.</desc>
    <defs></defs>
    <g id="icons" stroke="none" stroke-width="1" fill="none" fill-rule="evenodd">
        <g id="file-any">
            <g>
                <polygon id="bounds" points="0 24 24 24 24 0 0 0"></polygon>
                <path d="M17.5,20 L6.5,20 C6.225,20 6,19.776 6,19.5 L6,4.5 C6,4.224 6.225,4 6.5,4 L13.502,4 L13.502,7.007 C13.502,7.834 14.175,8.507 15.002,8.507 L18,8.507 L18,19.5 C18,19.776 17.775,20 17.5,20 L17.5,20 Z M14.502,4.708 L17.295,7.507 L15.002,7.507 C14.727,7.507 14.502,7.283 14.502,7.007 L14.502,4.708 Z M18.854,7.654 L14.355,3.147 C14.262,3.053 14.135,3 14.002,3 L6.5,3 C5.673,3 5,3.673 5,4.5 L5,19.5 C5,20.327 5.673,21 6.5,21 L17.5,21 C18.327,21 19,20.327 19,19.5 L19,8.007 C19,7.875 18.947,7.748 18.854,7.654 L18.854,7.654 Z" id="Fill-1" fill="#231F1F"></path>
            </g>
        </g>
    </g>
</svg>