<?xml version="1.0" encoding="UTF-8" standalone="no"?>
<svg width="24px" height="24px" viewBox="0 0 24 24" version="1.1" xmlns="http://www.w3.org/2000/svg" xmlns:xlink="http://www.w3.org/1999/xlink">
    <!-- Generator: Sketch 41.2 (35397) - http://www.bohemiancoding.com/sketch -->
    <title>file-audio</title>
    <desc>Created with Sketch.</desc>
    <defs></defs>
    <g id="icons" stroke="none" stroke-width="1" fill="none" fill-rule="evenodd">
        <g id="file-audio">
            <g>
                <polygon id="bounds" points="0 24 24 24 24 0 0 0"></polygon>
                <path d="M12.001,18.0166 L7,14.0126 L3.992,14.0126 L3.992,10.0086 L7,10.0086 L12.001,6.0046 L12.001,18.0166 Z M12.434,5.1036 C12.296,5.0376 12.148,5.0046 12.001,5.0046 C11.778,5.0046 11.557,5.0796 11.376,5.2246 L6.649,9.0086 L3.992,9.0086 C3.44,9.0086 2.992,9.4566 2.992,10.0086 L2.992,14.0126 C2.992,14.5646 3.44,15.0126 3.992,15.0126 L6.649,15.0126 L11.376,18.7976 C11.557,18.9416 11.778,19.0166 12.001,19.0166 C12.148,19.0166 12.296,18.9846 12.434,18.9176 C12.781,18.7516 13.001,18.4006 13.001,18.0166 L13.001,6.0046 C13.001,5.6206 12.781,5.2696 12.434,5.1036 L12.434,5.1036 Z" id="Fill-1" fill="#000000"></path>
                <path d="M15.2046,4.6675 C14.9486,4.5545 14.6556,4.6725 14.5456,4.9245 C14.4346,5.1785 14.5506,5.4725 14.8036,5.5835 C17.3526,6.6995 18.9996,9.2175 18.9996,12.0005 C18.9996,14.7825 17.3526,17.3015 14.8026,18.4175 C14.5496,18.5275 14.4336,18.8225 14.5446,19.0755 C14.6266,19.2635 14.8106,19.3755 15.0036,19.3755 C15.0706,19.3755 15.1386,19.3615 15.2036,19.3335 C18.1176,18.0585 19.9996,15.1795 19.9996,12.0005 C19.9996,8.8205 18.1176,5.9425 15.2046,4.6675" id="Fill-3" fill="#000000"></path>
                <path d="M14.6338,15.6841 C14.7328,15.7941 14.8688,15.8501 15.0058,15.8501 C15.1248,15.8501 15.2448,15.8071 15.3408,15.7221 C16.3948,14.7731 16.9998,13.4171 16.9998,12.0001 C16.9998,10.5831 16.3948,9.2261 15.3398,8.2791 C15.1358,8.0951 14.8188,8.1121 14.6338,8.3171 C14.4488,8.5221 14.4668,8.8381 14.6718,9.0231 C15.5158,9.7811 15.9998,10.8661 15.9998,12.0001 C15.9998,13.1341 15.5158,14.2191 14.6718,14.9771 C14.4668,15.1621 14.4488,15.4781 14.6338,15.6841" id="Fill-5" fill="#000000"></path>
            </g>
        </g>
    </g>
</svg>