<?xml version="1.0" encoding="UTF-8" standalone="no"?>
<svg width="24px" height="24px" viewBox="0 0 24 24" version="1.1" xmlns="http://www.w3.org/2000/svg" xmlns:xlink="http://www.w3.org/1999/xlink">
    <!-- Generator: Sketch 41.2 (35397) - http://www.bohemiancoding.com/sketch -->
    <title>file-excel</title>
    <desc>Created with Sketch.</desc>
    <defs></defs>
    <g id="icons" stroke="none" stroke-width="1" fill="none" fill-rule="evenodd">
        <g id="file-excel">
            <g>
                <polygon id="bounds" points="0 24 24 24 24 0 0 0"></polygon>
                <path d="M10,9.007 L19,9.007 L19,5 L10,5 L10,9.007 Z M10,14 L19,14 L19,10.007 L10,10.007 L10,14 Z M10,19 L19,19 L19,15 L10,15 L10,19 Z M5,19 L9,19 L9,15 L5,15 L5,19 Z M5,14 L9,14 L9,10.007 L5,10.007 L5,14 Z M5,9.007 L9,9.007 L9,5 L5,5 L5,9.007 Z M19,4 L5,4 C4.447,4 4,4.448 4,5 L4,19 C4,19.552 4.447,20 5,20 L19,20 C19.553,20 20,19.552 20,19 L20,5 C20,4.448 19.553,4 19,4 L19,4 Z" id="Fill-1" fill="#000000"></path>
            </g>
        </g>
    </g>
</svg>