<?xml version="1.0" encoding="UTF-8" standalone="no"?>
<svg width="24px" height="24px" viewBox="0 0 24 24" version="1.1" xmlns="http://www.w3.org/2000/svg" xmlns:xlink="http://www.w3.org/1999/xlink">
    <!-- Generator: Sketch 41.2 (35397) - http://www.bohemiancoding.com/sketch -->
    <title>file-presentation</title>
    <desc>Created with Sketch.</desc>
    <defs></defs>
    <g id="icons" stroke="none" stroke-width="1" fill="none" fill-rule="evenodd">
        <g id="file-presentation">
            <g>
                <polygon id="bounds" points="0 24 24 24 24 0 0 0"></polygon>
                <path d="M20,17.5 C20,17.776 19.775,18 19.5,18 L4.5,18 C4.225,18 4,17.776 4,17.5 L4,6.5 C4,6.224 4.225,6 4.5,6 L19.5,6 C19.775,6 20,6.224 20,6.5 L20,17.5 Z M19.5,5 L4.5,5 C3.673,5 3,5.673 3,6.5 L3,17.5 C3,18.327 3.673,19 4.5,19 L19.5,19 C20.327,19 21,18.327 21,17.5 L21,6.5 C21,5.673 20.327,5 19.5,5 L19.5,5 Z" id="Fill-1" fill="#000000"></path>
                <path d="M11,16 C9.346,16 8,14.654 8,13 C8,11.516 9.083,10.28 10.5,10.042 L10.5,13 C10.5,13.276 10.724,13.5 11,13.5 L13.958,13.5 C13.72,14.917 12.483,16 11,16 M14.5,12.5 L11.5,12.5 L11.5,9.5 C11.5,9.224 11.276,9 11,9 C8.794,9 7,10.794 7,13 C7,15.206 8.794,17 11,17 C13.206,17 15,15.206 15,13 C15,12.724 14.776,12.5 14.5,12.5" id="Fill-3" fill="#000000"></path>
                <path d="M13.5,10.5083 L13.5,8.0413 C14.755,8.2533 15.748,9.2463 15.959,10.5013 L13.5,10.5083 Z M13,7.0003 C12.724,7.0003 12.5,7.2233 12.5,7.5003 L12.5,11.0093 C12.5,11.1423 12.553,11.2703 12.646,11.3633 C12.74,11.4573 12.867,11.5093 13,11.5093 L13.001,11.5093 L16.501,11.5003 C16.777,11.4993 17,11.2753 17,11.0003 C17,8.7943 15.206,7.0003 13,7.0003 L13,7.0003 Z" id="Fill-5" fill="#000000"></path>
            </g>
        </g>
    </g>
</svg>