<?xml version="1.0" encoding="UTF-8" standalone="no"?>
<svg width="24px" height="24px" viewBox="0 0 24 24" version="1.1" xmlns="http://www.w3.org/2000/svg" xmlns:xlink="http://www.w3.org/1999/xlink">
    <!-- Generator: Sketch 40.3 (33839) - http://www.bohemiancoding.com/sketch -->
    <title>file-pdf</title>
    <desc>Created with Sketch.</desc>
    <defs></defs>
    <g id="icons" stroke="none" stroke-width="1" fill="none" fill-rule="evenodd">
        <g id="file-pdf">
            <g>
                <polygon id="bounds" points="0 24 24 24 24 0 0 0"></polygon>
                <polygon id="Fill-5" fill="#221F20" points="16.8711 8.3965 20.8421 8.3965 20.8421 9.2745 17.8821 9.2745 17.8821 11.6425 20.4031 11.6425 20.4031 12.5205 17.8821 12.5205 17.8821 15.6035 16.8711 15.6035"></polygon>
                <path d="M12.1416,14.7256 C13.7646,14.7256 14.8266,13.7656 14.8266,11.9906 C14.8266,10.2236 13.7546,9.2746 12.1416,9.2746 L10.8346,9.2746 L10.8346,14.7256 L12.1416,14.7256 Z M9.8246,8.3966 L12.2126,8.3966 C14.4176,8.3966 15.8676,9.7136 15.8676,11.9906 C15.8676,14.2766 14.4176,15.6036 12.2126,15.6036 L9.8246,15.6036 L9.8246,8.3966 Z" id="Fill-3" fill="#221F20"></path>
                <path d="M6.606,12.0615 C7.474,12.0615 8.004,11.5205 8.004,10.6525 C8.004,9.7855 7.474,9.2745 6.616,9.2745 L5.147,9.2745 L5.147,12.0615 L6.606,12.0615 Z M4.136,8.3965 L6.77,8.3965 C8.086,8.3965 9.036,9.2855 9.036,10.6525 C9.036,12.0205 8.086,12.9395 6.77,12.9395 L5.147,12.9395 L5.147,15.6035 L4.136,15.6035 L4.136,8.3965 Z" id="Fill-1" fill="#221F20"></path>
            </g>
        </g>
    </g>
</svg>