<?xml version="1.0" encoding="UTF-8" standalone="no"?>
<svg width="24px" height="24px" viewBox="0 0 24 24" version="1.1" xmlns="http://www.w3.org/2000/svg" xmlns:xlink="http://www.w3.org/1999/xlink">
    <!-- Generator: Sketch 46.2 (44496) - http://www.bohemiancoding.com/sketch -->
    <title>filter</title>
    <desc>Created with Sketch.</desc>
    <defs></defs>
    <g id="icons" stroke="none" stroke-width="1" fill="none" fill-rule="evenodd">
        <g id="filter">
            <g>
                <polygon id="bounds" points="0 24 24 24 24 0 0 0"></polygon>
                <path d="M20,7 C20,7.276 19.776,7.5 19.5,7.5 L4.5,7.5 C4.224,7.5 4,7.276 4,7 C4,6.724 4.224,6.5 4.5,6.5 L19.5,6.5 C19.776,6.5 20,6.724 20,7" id="Fill-1" fill="#000000"></path>
                <path d="M18,12 C18,12.276 17.776,12.5 17.5,12.5 L6.5,12.5 C6.224,12.5 6,12.276 6,12 C6,11.724 6.224,11.5 6.5,11.5 L17.5,11.5 C17.776,11.5 18,11.724 18,12" id="Fill-3" fill="#000000"></path>
                <path d="M16,17 C16,17.276 15.776,17.5 15.5,17.5 L8.5,17.5 C8.224,17.5 8,17.276 8,17 C8,16.724 8.224,16.5 8.5,16.5 L15.5,16.5 C15.776,16.5 16,16.724 16,17" id="Fill-5" fill="#000000"></path>
            </g>
        </g>
    </g>
</svg>