<?xml version="1.0" encoding="UTF-8" standalone="no"?>
<svg width="24px" height="24px" viewBox="0 0 24 24" version="1.1" xmlns="http://www.w3.org/2000/svg" xmlns:xlink="http://www.w3.org/1999/xlink">
    <!-- Generator: Sketch 39.1 (31720) - http://www.bohemiancoding.com/sketch -->
    <title>flag</title>
    <desc>Created with Sketch.</desc>
    <defs></defs>
    <g id="Page-1" stroke="none" stroke-width="1" fill="none" fill-rule="evenodd">
        <g id="flag" fill="#221F20">
            <g id="Page-1" transform="translate(5.000000, 3.000000)">
                <path d="M13.9395,9.833 C13.4075,10.015 12.1295,10.361 10.5235,10.361 C9.3985,10.361 8.3495,10.187 7.4045,9.846 C6.3035,9.446 5.0795,9.244 3.7675,9.244 C2.5965,9.244 1.6075,9.405 1.0005,9.535 L1.0005,6.514 L1.0005,1.319 C1.5125,1.198 2.5375,1.002 3.7675,1.002 C4.9625,1.002 6.0725,1.185 7.0645,1.543 C8.1185,1.925 9.2825,2.119 10.5235,2.119 C11.9445,2.119 13.1785,1.864 13.9395,1.64 L13.9395,9.833 Z M14.6925,0.497 C14.5405,0.407 14.3505,0.403 14.1965,0.49 C14.0535,0.568 12.5495,1.119 10.5235,1.119 C9.3985,1.119 8.3495,0.945 7.4045,0.604 C6.3035,0.204 5.0795,0.002 3.7675,0.002 C1.8435,0.002 0.4125,0.437 0.3525,0.455 C0.1435,0.52 0.0005,0.713 0.0005,0.933 L0.0005,6.514 L0.0005,10.175 L0.0005,17.514 C0.0005,17.79 0.2235,18.014 0.5005,18.014 C0.7765,18.014 1.0005,17.79 1.0005,17.514 L1.0005,10.562 C1.5085,10.441 2.5275,10.244 3.7675,10.244 C4.9625,10.244 6.0725,10.427 7.0645,10.785 C8.1185,11.167 9.2825,11.361 10.5235,11.361 C12.6365,11.361 14.3355,10.8 14.6825,10.605 C14.8415,10.518 14.9395,10.351 14.9395,10.169 L14.9395,0.927 C14.9395,0.75 14.8455,0.587 14.6925,0.497 L14.6925,0.497 Z" id="Fill-1"></path>
            </g>
        </g>
    </g>
</svg>