<?xml version="1.0" encoding="UTF-8"?>
<svg width="24px" height="24px" viewBox="0 0 24 24" version="1.1" xmlns="http://www.w3.org/2000/svg" xmlns:xlink="http://www.w3.org/1999/xlink">
    <!-- Generator: Sketch 40.3 (33839) - http://www.bohemiancoding.com/sketch -->
    <title>flip-right</title>
    <desc>Created with Sketch.</desc>
    <defs></defs>
    <g id="icons" stroke="none" stroke-width="1" fill="none" fill-rule="evenodd">
        <g id="flip-right">
            <g>
                <polygon id="bounds" points="0 24 24 24 24 0 0 0"></polygon>
                <path d="M19.0078,10.0088 L9.9968,10.0088 C9.4468,10.0088 8.9968,10.4588 8.9968,11.0088 L8.9968,20.0198 C8.9968,20.5698 9.4468,21.0198 9.9968,21.0198 L19.0078,21.0198 C19.5578,21.0198 20.0078,20.5698 20.0078,20.0198 L20.0078,11.0088 C20.0078,10.4588 19.5578,10.0088 19.0078,10.0088 L19.0078,10.0088 Z M9.9968,20.0198 L19.0078,20.0198 L19.0078,11.0088 L9.9968,11.0088 L9.9968,20.0198 Z" id="Fill-1" fill="#221F20"></path>
                <path d="M13.9636,5.6909 C14.0146,5.5689 14.0146,5.4309 13.9636,5.3089 C13.9386,5.2479 13.9016,5.1919 13.8546,5.1459 L12.0876,3.3789 C11.8926,3.1839 11.5766,3.1839 11.3806,3.3789 C11.1856,3.5739 11.1856,3.8909 11.3806,4.0859 L12.2946,4.9999 L11.5066,4.9999 C7.3636,4.9999 3.9926,8.3709 3.9926,12.5139 C3.9926,12.7899 4.2156,13.0139 4.4926,13.0139 C4.7686,13.0139 4.9926,12.7899 4.9926,12.5139 C4.9926,8.9219 7.9146,5.9999 11.5066,5.9999 L12.2946,5.9999 L11.3806,6.9139 C11.1856,7.1099 11.1856,7.4259 11.3806,7.6209 C11.5766,7.8159 11.8926,7.8169 12.0876,7.6209 L13.8546,5.8539 C13.9016,5.8079 13.9386,5.7529 13.9636,5.6909" id="Fill-3" fill="#221F20"></path>
            </g>
        </g>
    </g>
</svg>