<?xml version="1.0" encoding="UTF-8"?>
<svg width="24px" height="24px" viewBox="0 0 24 24" version="1.1" xmlns="http://www.w3.org/2000/svg" xmlns:xlink="http://www.w3.org/1999/xlink">
    <!-- Generator: Sketch 40.3 (33839) - http://www.bohemiancoding.com/sketch -->
    <title>flip-camera</title>
    <desc>Created with Sketch.</desc>
    <defs></defs>
    <g id="icons" stroke="none" stroke-width="1" fill="none" fill-rule="evenodd">
        <g id="flip-camera">
            <g>
                <polygon id="Fill-8" points="0 24 24 24 24 0 0 0"></polygon>
                <path d="M12,7.9951 C9.791,7.9951 8,9.7861 8,11.9951 C8,14.2041 9.791,15.9951 12,15.9951 C14.209,15.9951 16,14.2041 16,11.9951 C16,9.7861 14.209,7.9951 12,7.9951 M12,8.9951 C13.654,8.9951 15,10.3411 15,11.9951 C15,13.6491 13.654,14.9951 12,14.9951 C10.346,14.9951 9,13.6491 9,11.9951 C9,10.3411 10.346,8.9951 12,8.9951" id="Fill-1" fill="#221F20"></path>
                <path d="M11.5,18 L11.5,18 L4.993,18 L4.993,17.993 C4.447,17.986 4.005,17.544 4.005,16.996 L4.001,16.996 L4.001,7 L4,7 C4,6.448 4.448,6 5,6 L5,6 L8.291,6 L7.377,6.914 C7.182,7.11 7.182,7.426 7.377,7.621 C7.572,7.816 7.889,7.817 8.084,7.621 L9.848,5.856 C9.897,5.809 9.935,5.752 9.961,5.688 C9.966,5.676 9.965,5.662 9.969,5.649 C9.984,5.601 9.999,5.553 9.999,5.5 C9.999,5.452 9.984,5.408 9.971,5.364 C9.967,5.346 9.968,5.328 9.961,5.311 C9.935,5.248 9.897,5.191 9.85,5.144 L8.084,3.379 C7.889,3.183 7.572,3.183 7.377,3.379 C7.182,3.574 7.182,3.89 7.377,4.086 L8.291,5 L5,5 L5,4.996 C3.893,4.996 2.996,5.893 2.996,7 L3.001,7 L3.001,16.996 C3.001,18.098 3.892,18.992 4.993,18.999 L4.993,19 L11.5,19 C11.776,19 12,18.776 12,18.5 C12,18.224 11.776,18 11.5,18" id="Fill-3" fill="#221F20"></path>
                <path d="M20.999,16.9902 L20.999,6.9942 C20.999,5.8922 20.108,4.9982 19.007,4.9912 L19.007,4.9902 L12.5,4.9902 C12.224,4.9902 12,5.2142 12,5.4902 C12,5.7662 12.224,5.9902 12.5,5.9902 L12.5,5.9902 L19.007,5.9902 L19.007,5.9972 C19.553,6.0042 19.995,6.4462 19.995,6.9942 L19.999,6.9942 L19.999,16.9902 L20,16.9902 C20,17.5422 19.552,17.9902 19,17.9902 L19,17.9902 L15.709,17.9902 L16.623,17.0762 C16.818,16.8802 16.818,16.5642 16.623,16.3692 C16.428,16.1742 16.111,16.1732 15.916,16.3692 L14.152,18.1342 C14.103,18.1812 14.065,18.2382 14.039,18.3022 C14.034,18.3142 14.035,18.3282 14.031,18.3412 C14.016,18.3892 14.001,18.4372 14.001,18.4902 C14.001,18.5382 14.016,18.5822 14.028,18.6262 C14.033,18.6442 14.032,18.6622 14.039,18.6792 C14.065,18.7422 14.103,18.7982 14.15,18.8452 L15.916,20.6112 C16.111,20.8072 16.428,20.8072 16.623,20.6112 C16.818,20.4162 16.818,20.1002 16.623,19.9042 L15.709,18.9902 L19,18.9902 L19,18.9942 C20.107,18.9942 21.004,18.0972 21.004,16.9902 L20.999,16.9902 Z" id="Fill-5" fill="#221F20"></path>
            </g>
        </g>
    </g>
</svg>