<?xml version="1.0" encoding="UTF-8"?>
<svg width="24px" height="24px" viewBox="0 0 24 24" version="1.1" xmlns="http://www.w3.org/2000/svg" xmlns:xlink="http://www.w3.org/1999/xlink">
    <!-- Generator: Sketch 40.3 (33839) - http://www.bohemiancoding.com/sketch -->
    <title>flip-left</title>
    <desc>Created with Sketch.</desc>
    <defs></defs>
    <g id="icons" stroke="none" stroke-width="1" fill="none" fill-rule="evenodd">
        <g id="flip-left">
            <g>
                <polygon id="Fill-6" points="0 24 24 24 24 0 0 0"></polygon>
                <path d="M14.0029,10.0088 L4.9919,10.0088 C4.4419,10.0088 3.9919,10.4588 3.9919,11.0088 L3.9919,20.0198 C3.9919,20.5698 4.4419,21.0198 4.9919,21.0198 L14.0029,21.0198 C14.5529,21.0198 15.0029,20.5698 15.0029,20.0198 L15.0029,11.0088 C15.0029,10.4588 14.5529,10.0088 14.0029,10.0088 L14.0029,10.0088 Z M4.9919,20.0198 L14.0029,20.0198 L14.0029,11.0088 L4.9919,11.0088 L4.9919,20.0198 Z" id="Fill-1" fill="#221F20"></path>
                <path d="M12.4932,5 L11.7052,5 L12.6192,4.086 C12.8142,3.891 12.8142,3.574 12.6192,3.379 C12.4242,3.184 12.1072,3.184 11.9122,3.379 L10.1452,5.146 C10.0992,5.192 10.0622,5.248 10.0362,5.309 C9.9862,5.431 9.9862,5.569 10.0362,5.691 C10.0622,5.752 10.0992,5.808 10.1452,5.854 L11.9122,7.621 C12.1072,7.817 12.4242,7.816 12.6192,7.621 C12.8142,7.426 12.8142,7.11 12.6192,6.914 L11.7052,6 L12.4932,6 C16.0852,6 19.0082,8.922 19.0082,12.514 C19.0082,12.79 19.2312,13.014 19.5082,13.014 C19.7842,13.014 20.0082,12.79 20.0082,12.514 C20.0082,8.371 16.6372,5 12.4932,5" id="Fill-3" fill="#221F20"></path>
            </g>
        </g>
    </g>
</svg>