<?xml version="1.0" encoding="UTF-8" standalone="no"?>
<svg width="24px" height="24px" viewBox="0 0 24 24" version="1.1" xmlns="http://www.w3.org/2000/svg" xmlns:xlink="http://www.w3.org/1999/xlink">
    <!-- Generator: Sketch 41.2 (35397) - http://www.bohemiancoding.com/sketch -->
    <title>folder</title>
    <desc>Created with Sketch.</desc>
    <defs></defs>
    <g id="icons" stroke="none" stroke-width="1" fill="none" fill-rule="evenodd">
        <g id="folder">
            <g>
                <polygon id="bounds" points="0 24 24 24 24 0 0 0"></polygon>
                <path d="M5.2471,4.9687 L13.7921,4.9687 L15.6461,6.8617 C15.7401,6.9567 15.8691,7.0117 16.0041,7.0117 L20.0311,7.0117 L20.0311,8.0067 L3.9371,8.0067 L3.9371,6.6817 L5.2471,4.9687 Z M3.9371,19.0177 L20.0311,19.0177 L20.0311,9.0067 L3.9371,9.0067 L3.9371,19.0177 Z M20.5311,6.0117 L16.2141,6.0117 L14.3591,4.1187 C14.2661,4.0237 14.1371,3.9687 14.0021,3.9687 L5.0001,3.9687 C4.8441,3.9687 4.6971,4.0407 4.6031,4.1647 L3.0411,6.2077 C2.9741,6.2947 2.9371,6.4027 2.9371,6.5117 L2.9371,19.5117 C2.9371,19.7877 3.1611,20.0117 3.4371,20.0117 C3.4431,20.0117 3.4481,20.0087 3.4541,20.0087 C3.4701,20.0097 3.4831,20.0177 3.5001,20.0177 L20.5001,20.0177 C20.5111,20.0177 20.5191,20.0117 20.5301,20.0117 L20.5311,20.0117 C20.8081,20.0117 21.0311,19.7877 21.0311,19.5117 L21.0311,6.5117 C21.0311,6.2357 20.8081,6.0117 20.5311,6.0117 L20.5311,6.0117 Z" id="Fill-1" fill="#231F1F"></path>
            </g>
        </g>
    </g>
</svg>