<?xml version="1.0" encoding="UTF-8" standalone="no"?>
<svg width="24px" height="24px" viewBox="0 0 24 24" version="1.1" xmlns="http://www.w3.org/2000/svg" xmlns:xlink="http://www.w3.org/1999/xlink">
    <!-- Generator: Sketch 39.1 (31720) - http://www.bohemiancoding.com/sketch -->
    <title>gender-female</title>
    <desc>Created with Sketch.</desc>
    <defs></defs>
    <g id="Page-1" stroke="none" stroke-width="1" fill="none" fill-rule="evenodd">
        <g id="gender-female" fill="#221F20">
            <g id="Page-1" transform="translate(6.000000, 3.000000)">
                <path d="M8.4761,7.3486 C8.3891,7.0876 8.1081,6.9446 7.8441,7.0326 C7.5821,7.1196 7.4401,7.4036 7.5281,7.6646 L9.3101,13.0116 L2.6891,13.0026 L4.4721,7.6546 C4.5591,7.3926 4.4181,7.1096 4.1561,7.0216 C3.8931,6.9326 3.6111,7.0766 3.5241,7.3376 L3.1781,8.3736 L3.1711,8.3716 L2.5461,10.2686 C2.5041,10.3966 2.4161,10.4996 2.2961,10.5596 C2.1771,10.6196 2.0431,10.6306 1.9151,10.5876 C1.6541,10.5026 1.5111,10.2196 1.5971,9.9576 L2.6781,6.6706 C2.6821,6.6596 3.1191,5.5016 3.9981,5.5016 L8.0021,5.5016 C8.8801,5.5016 9.3171,6.6566 9.3171,6.6566 L10.4031,9.9566 C10.4891,10.2196 10.3461,10.5026 10.0831,10.5886 C9.9591,10.6306 9.8221,10.6196 9.7041,10.5596 C9.5841,10.4996 9.4961,10.3966 9.4541,10.2686 L8.8291,8.3716 L8.8181,8.3746 L8.4761,7.3486 Z M7.5061,16.5156 C7.5061,16.7906 7.2811,17.0156 7.0061,17.0156 C6.7291,17.0156 6.5061,16.7906 6.5061,16.5156 L6.5061,14.0076 L7.5061,14.0096 L7.5061,16.5156 Z M5.0041,17.0156 C4.7271,17.0156 4.5041,16.7906 4.5041,16.5156 L4.5041,14.0046 L5.5041,14.0066 L5.5041,16.5156 C5.5041,16.7906 5.2791,17.0156 5.0041,17.0156 L5.0041,17.0156 Z M5.9961,1.0016 C6.8231,1.0016 7.4961,1.6746 7.4961,2.5016 C7.4961,3.3286 6.8231,4.0016 5.9961,4.0016 C5.1691,4.0016 4.4961,3.3286 4.4961,2.5016 C4.4961,1.6746 5.1691,1.0016 5.9961,1.0016 L5.9961,1.0016 Z M10.3961,11.5386 C11.1811,11.2816 11.6111,10.4326 11.3531,9.6456 L10.2631,6.3306 C10.2351,6.2556 9.5861,4.5016 8.0021,4.5016 L7.4821,4.5016 C8.0941,4.0456 8.4961,3.3236 8.4961,2.5016 C8.4961,1.1206 7.3771,0.0016 5.9961,0.0016 C4.6151,0.0016 3.4961,1.1206 3.4961,2.5016 C3.4961,3.3236 3.8981,4.0456 4.5101,4.5016 L3.9981,4.5016 C2.4141,4.5016 1.7651,6.2556 1.7331,6.3436 L0.6471,9.6466 C0.3891,10.4326 0.8191,11.2816 1.6031,11.5376 C1.7571,11.5886 1.9151,11.6146 2.0731,11.6146 C2.0821,11.6146 2.0911,11.6116 2.1001,11.6116 L1.5221,13.3436 C1.4711,13.4956 1.4971,13.6636 1.5901,13.7936 C1.6841,13.9246 1.8351,14.0016 1.9961,14.0016 L3.5041,14.0036 L3.5041,16.5156 C3.5041,17.3426 4.1761,18.0156 5.0041,18.0156 C5.3891,18.0156 5.7381,17.8656 6.0041,17.6246 C6.2701,17.8656 6.6191,18.0156 7.0061,18.0156 C7.8321,18.0156 8.5061,17.3426 8.5061,16.5156 L8.5061,14.0106 L10.0031,14.0126 L10.0041,14.0126 C10.1641,14.0126 10.3151,13.9356 10.4091,13.8056 C10.5031,13.6746 10.5291,13.5066 10.4781,13.3546 L9.8971,11.6106 C9.9071,11.6116 9.9161,11.6146 9.9271,11.6146 C10.0841,11.6146 10.2421,11.5886 10.3961,11.5386 L10.3961,11.5386 Z" id="Fill-1"></path>
            </g>
        </g>
    </g>
</svg>