<?xml version="1.0" encoding="UTF-8" standalone="no"?>
<svg width="24px" height="24px" viewBox="0 0 24 24" version="1.1" xmlns="http://www.w3.org/2000/svg" xmlns:xlink="http://www.w3.org/1999/xlink">
    <!-- Generator: Sketch 39.1 (31720) - http://www.bohemiancoding.com/sketch -->
    <title>gender-girl</title>
    <desc>Created with Sketch.</desc>
    <defs></defs>
    <g id="Page-1" stroke="none" stroke-width="1" fill="none" fill-rule="evenodd">
        <g id="gender-girl" fill="#221F20">
            <g id="Page-1" transform="translate(3.000000, 3.000000)">
                <g id="Group-9">
                    <path d="M5.4961,11.0117 C5.7721,11.0117 5.9961,10.7877 5.9961,10.5117 L5.9961,9.5117 C5.9961,9.2357 5.7721,9.0117 5.4961,9.0117 C5.2201,9.0117 4.9961,9.2357 4.9961,9.5117 L4.9961,10.5117 C4.9961,10.7877 5.2201,11.0117 5.4961,11.0117" id="Fill-1"></path>
                    <path d="M12.3711,11.0117 C12.6471,11.0117 12.8711,10.7877 12.8711,10.5117 L12.8711,9.5117 C12.8711,9.2357 12.6471,9.0117 12.3711,9.0117 C12.0951,9.0117 11.8711,9.2357 11.8711,9.5117 L11.8711,10.5117 C11.8711,10.7877 12.0951,11.0117 12.3711,11.0117" id="Fill-3"></path>
                    <path d="M9,13.9561 C9.781,13.9561 10.496,13.4951 10.82,12.7821 C10.935,12.5311 10.823,12.2341 10.572,12.1201 C10.321,12.0081 10.025,12.1161 9.91,12.3681 C9.748,12.7261 9.391,12.9561 9,12.9561 C8.608,12.9561 8.25,12.7251 8.087,12.3661 C7.973,12.1151 7.677,12.0061 7.425,12.1181 C7.174,12.2321 7.063,12.5281 7.177,12.7801 C7.501,13.4941 8.217,13.9561 9,13.9561" id="Fill-5"></path>
                    <path d="M15.7559,10.9482 L15.7219,10.9482 C15.8869,10.3752 15.9819,9.7722 15.9929,9.1482 C16.2899,9.3222 16.4999,9.6312 16.4999,10.0002 C16.4999,10.4612 16.1809,10.8332 15.7559,10.9482 L15.7559,10.9482 Z M13.9999,16.9602 L3.9999,16.9602 C3.4479,16.9602 2.9999,16.5112 2.9999,15.9602 L2.9999,12.5992 C4.2249,14.6392 6.4519,16.0122 8.9999,16.0122 C11.5479,16.0122 13.7759,14.6392 14.9999,12.5992 L14.9999,15.9602 C14.9999,16.5112 14.5519,16.9602 13.9999,16.9602 L13.9999,16.9602 Z M1.4919,10.0002 C1.4919,9.6282 1.7049,9.3162 2.0069,9.1432 C2.0189,9.7682 2.1119,10.3732 2.2779,10.9482 L2.2359,10.9482 C1.8119,10.8332 1.4919,10.4612 1.4919,10.0002 L1.4919,10.0002 Z M8.9999,1.0002 C12.2949,1.0002 14.9749,3.6692 14.9979,6.9582 C13.1969,6.6092 11.6509,5.4672 10.8009,3.8062 C10.7969,3.7992 10.7889,3.7942 10.7839,3.7862 C10.7609,3.7472 10.7339,3.7122 10.6989,3.6792 C10.6799,3.6612 10.6589,3.6452 10.6379,3.6312 C10.6209,3.6192 10.6099,3.6032 10.5909,3.5942 C10.5769,3.5872 10.5619,3.5882 10.5479,3.5822 C10.5139,3.5672 10.4799,3.5592 10.4439,3.5522 C10.4199,3.5492 10.3979,3.5452 10.3729,3.5442 C10.3249,3.5422 10.2789,3.5492 10.2309,3.5612 C10.2209,3.5642 10.2099,3.5662 10.1989,3.5702 C10.1759,3.5782 10.1509,3.5782 10.1269,3.5902 C10.0959,3.6062 10.0729,3.6322 10.0469,3.6542 C10.0449,3.6562 10.0419,3.6572 10.0399,3.6592 C9.9879,3.7032 9.9479,3.7532 9.9179,3.8112 C8.8869,5.8252 6.8399,7.0762 4.5759,7.0762 L2.9999,7.0762 L2.9999,7.0002 C2.9999,3.6912 5.6919,1.0002 8.9999,1.0002 L8.9999,1.0002 Z M2.9999,8.0762 L4.5759,8.0762 C6.9219,8.0762 9.0629,6.9202 10.3579,5.0152 C11.4329,6.5982 13.1039,7.6572 14.9999,7.9692 L14.9999,9.0122 C14.9999,12.3212 12.3089,15.0122 8.9999,15.0122 C5.6919,15.0122 2.9999,12.3212 2.9999,9.0122 L2.9999,8.0762 Z M17.4999,10.0002 C17.4999,9.0712 16.8599,8.2952 15.9999,8.0712 L15.9999,7.0002 C15.9999,3.1402 12.8599,0.0002 8.9999,0.0002 C5.1409,0.0002 1.9999,3.1402 1.9999,7.0002 L1.9999,8.0682 C1.1359,8.2892 0.4919,9.0682 0.4919,10.0002 C0.4919,10.9312 1.1359,11.7112 1.9999,11.9312 L1.9999,15.9602 C1.9999,17.0642 2.8959,17.9602 3.9999,17.9602 L13.9999,17.9602 C15.1049,17.9602 15.9999,17.0642 15.9999,15.9602 L15.9999,11.9282 C16.8599,11.7052 17.4999,10.9282 17.4999,10.0002 L17.4999,10.0002 Z" id="Fill-7"></path>
                </g>
            </g>
        </g>
    </g>
</svg>