<?xml version="1.0" encoding="UTF-8" standalone="no"?>
<svg width="24px" height="24px" viewBox="0 0 24 24" version="1.1" xmlns="http://www.w3.org/2000/svg" xmlns:xlink="http://www.w3.org/1999/xlink">
    <!-- Generator: Sketch 39.1 (31720) - http://www.bohemiancoding.com/sketch -->
    <title>gender-male</title>
    <desc>Created with Sketch.</desc>
    <defs></defs>
    <g id="Page-1" stroke="none" stroke-width="1" fill="none" fill-rule="evenodd">
        <g id="gender-male" fill="#221F20">
            <g id="Page-1" transform="translate(7.000000, 3.000000)">
                <path d="M8.5049,8.0039 L8.5049,9.5089 C8.5049,9.7839 8.2809,10.0089 8.0049,10.0089 C7.7289,10.0089 7.5049,9.7839 7.5049,9.5089 L7.5049,7.0079 L7.4959,7.0079 L7.4959,6.5079 C7.4959,6.2319 7.2719,6.0079 6.9959,6.0079 C6.7189,6.0079 6.4959,6.2319 6.4959,6.5079 L6.4959,13.5079 C6.4959,13.5179 6.5009,13.5249 6.5009,13.5339 L6.5009,16.5159 C6.5009,16.7909 6.2769,17.0159 6.0009,17.0159 C5.7249,17.0159 5.5009,16.7909 5.5009,16.5159 L5.5009,12.0139 L5.4999,12.0139 L5.4999,11.5129 C5.4999,11.2359 5.2759,11.0129 4.9999,11.0129 C4.7239,11.0129 4.4999,11.2359 4.4999,11.5129 L4.4999,12.0139 L4.4989,12.0139 L4.4989,16.5159 C4.4989,16.7909 4.2749,17.0159 3.9989,17.0159 C3.7229,17.0159 3.4989,16.7909 3.4989,16.5159 L3.4989,13.5149 C3.4989,13.5129 3.5009,13.5109 3.5009,13.5079 L3.5009,6.5079 C3.5009,6.2319 3.2769,6.0079 3.0009,6.0079 C2.7239,6.0079 2.5009,6.2319 2.5009,6.5079 L2.5009,7.0079 L2.4949,7.0079 L2.4949,9.5089 C2.4949,9.7839 2.2709,10.0089 1.9949,10.0089 C1.7189,10.0089 1.4949,9.7839 1.4949,9.5089 L1.4949,8.0039 L1.4949,7.0079 L1.4949,5.9999 C1.4949,5.4479 1.9439,4.9999 2.4949,4.9999 L3.4949,4.9999 L4.5049,4.9999 L4.9759,4.9999 C4.9829,4.9999 4.9889,5.0019 4.9959,5.0019 C5.0029,5.0019 5.0079,4.9999 5.0149,4.9999 L5.4959,4.9999 L6.4949,4.9999 L7.5049,4.9999 C8.0559,4.9999 8.5049,5.4479 8.5049,5.9999 L8.5049,7.0079 L8.5049,8.0039 Z M4.9959,1.0019 C5.8229,1.0019 6.4959,1.6749 6.4959,2.5019 C6.4959,3.3219 5.8329,3.9889 5.0149,3.9999 L4.9759,3.9999 C4.1579,3.9889 3.4959,3.3219 3.4959,2.5019 C3.4959,1.6749 4.1689,1.0019 4.9959,1.0019 L4.9959,1.0019 Z M7.5049,3.9999 L6.9859,3.9999 C7.3019,3.5809 7.4959,3.0669 7.4959,2.5019 C7.4959,1.1209 6.3769,0.0019 4.9959,0.0019 C3.6149,0.0019 2.4959,1.1209 2.4959,2.5019 C2.4959,3.0669 2.6899,3.5809 3.0049,3.9999 L2.4949,3.9999 C1.3909,3.9999 0.4949,4.8959 0.4949,5.9999 L0.4949,7.0079 L0.4949,8.0039 L0.4949,9.5089 C0.4949,10.3359 1.1679,11.0089 1.9949,11.0089 C2.1729,11.0089 2.3419,10.9729 2.5009,10.9149 L2.5009,12.0139 L2.4989,12.0139 L2.4989,16.5159 C2.4989,17.3429 3.1719,18.0159 3.9989,18.0159 C4.3849,18.0159 4.7339,17.8649 4.9999,17.6249 C5.2659,17.8649 5.6149,18.0159 6.0009,18.0159 C6.8279,18.0159 7.5009,17.3429 7.5009,16.5159 L7.5009,12.0139 L7.4959,12.0139 L7.4959,10.9139 C7.6549,10.9719 7.8249,11.0089 8.0049,11.0089 C8.8319,11.0089 9.5049,10.3359 9.5049,9.5089 L9.5049,8.0039 L9.5049,7.0079 L9.5049,5.9999 C9.5049,4.8959 8.6089,3.9999 7.5049,3.9999 L7.5049,3.9999 Z" id="Fill-1"></path>
            </g>
        </g>
    </g>
</svg>