<?xml version="1.0" encoding="UTF-8" standalone="no"?>
<svg width="24px" height="24px" viewBox="0 0 24 24" version="1.1" xmlns="http://www.w3.org/2000/svg" xmlns:xlink="http://www.w3.org/1999/xlink">
    <!-- Generator: Sketch 39.1 (31720) - http://www.bohemiancoding.com/sketch -->
    <title>gender-boy</title>
    <desc>Created with Sketch.</desc>
    <defs></defs>
    <g id="Page-1" stroke="none" stroke-width="1" fill="none" fill-rule="evenodd">
        <g id="gender-boy" fill="#221F20">
            <g id="Page-1" transform="translate(3.000000, 4.000000)">
                <g id="Group-9">
                    <path d="M5.4961,9.0117 C5.2201,9.0117 4.9961,9.2357 4.9961,9.5117 L4.9961,10.5117 C4.9961,10.7877 5.2201,11.0117 5.4961,11.0117 C5.7721,11.0117 5.9961,10.7877 5.9961,10.5117 L5.9961,9.5117 C5.9961,9.2357 5.7721,9.0117 5.4961,9.0117" id="Fill-1"></path>
                    <path d="M12.3711,9.0117 C12.0951,9.0117 11.8711,9.2357 11.8711,9.5117 L11.8711,10.5117 C11.8711,10.7877 12.0951,11.0117 12.3711,11.0117 C12.6471,11.0117 12.8711,10.7877 12.8711,10.5117 L12.8711,9.5117 C12.8711,9.2357 12.6471,9.0117 12.3711,9.0117" id="Fill-3"></path>
                    <path d="M10.5723,12.5596 C10.3213,12.4476 10.0253,12.5556 9.9103,12.8076 C9.7483,13.1646 9.3903,13.3956 9.0003,13.3956 C8.6083,13.3956 8.2503,13.1636 8.0873,12.8056 C7.9723,12.5546 7.6763,12.4456 7.4253,12.5576 C7.1743,12.6716 7.0623,12.9676 7.1763,13.2196 C7.5013,13.9336 8.2173,14.3956 9.0003,14.3956 C9.7813,14.3956 10.4963,13.9346 10.8203,13.2216 C10.9343,12.9706 10.8233,12.6736 10.5723,12.5596" id="Fill-5"></path>
                    <path d="M15.9375,10.8887 C15.9745,10.5967 15.9995,10.3017 15.9995,9.9997 L15.9995,9.1537 C16.2925,9.3277 16.4995,9.6347 16.4995,9.9997 C16.4995,10.3927 16.2675,10.7257 15.9375,10.8887 M9.0005,15.9997 C5.6915,15.9997 2.9995,13.3087 2.9995,9.9997 L2.9995,8.0757 L4.5765,8.0757 C6.9215,8.0757 9.0625,6.9197 10.3575,5.0157 C11.4325,6.5987 13.1035,7.6577 15.0005,7.9697 L15.0005,9.9997 C15.0005,13.3087 12.3085,15.9997 9.0005,15.9997 M1.4925,9.9997 C1.4925,9.6307 1.7025,9.3217 1.9995,9.1487 L1.9995,9.9997 C1.9995,10.3037 2.0265,10.6017 2.0635,10.8947 C1.7285,10.7337 1.4925,10.3967 1.4925,9.9997 M7.4995,0.9997 L10.5005,0.9997 C12.9815,0.9997 15.0005,3.0187 15.0005,5.4997 L15.0005,6.9587 C13.1985,6.6107 11.6515,5.4667 10.8005,3.8067 C10.7965,3.7987 10.7895,3.7937 10.7845,3.7857 C10.7605,3.7467 10.7335,3.7117 10.6995,3.6797 C10.6795,3.6607 10.6595,3.6457 10.6375,3.6307 C10.6215,3.6187 10.6095,3.6037 10.5905,3.5937 C10.5775,3.5867 10.5615,3.5877 10.5475,3.5817 C10.5135,3.5677 10.4795,3.5597 10.4435,3.5527 C10.4195,3.5487 10.3975,3.5447 10.3735,3.5437 C10.3255,3.5417 10.2795,3.5487 10.2305,3.5617 C10.2205,3.5647 10.2095,3.5667 10.1995,3.5707 C10.1755,3.5777 10.1505,3.5777 10.1265,3.5897 C10.0955,3.6067 10.0735,3.6317 10.0465,3.6547 C10.0445,3.6567 10.0415,3.6577 10.0405,3.6597 C9.9885,3.7027 9.9485,3.7527 9.9175,3.8117 C8.8865,5.8257 6.8395,7.0757 4.5765,7.0757 L2.9995,7.0757 L2.9995,5.4997 C2.9995,3.0187 5.0185,0.9997 7.4995,0.9997 M17.4995,9.9997 C17.4995,9.0717 16.8605,8.2947 15.9995,8.0717 L15.9995,5.4997 C15.9995,2.4677 13.5325,-0.0003 10.5005,-0.0003 L7.4995,-0.0003 C4.4675,-0.0003 1.9995,2.4677 1.9995,5.4997 L1.9995,8.0687 C1.1355,8.2887 0.4925,9.0687 0.4925,9.9997 C0.4925,11.0337 1.2835,11.8757 2.2905,11.9797 C3.1465,14.8767 5.8285,16.9997 9.0005,16.9997 C12.1715,16.9997 14.8545,14.8767 15.7105,11.9787 C16.7125,11.8717 17.4995,11.0307 17.4995,9.9997" id="Fill-7"></path>
                </g>
            </g>
        </g>
    </g>
</svg>