<?xml version="1.0" encoding="UTF-8"?>
<svg width="24px" height="24px" viewBox="0 0 24 24" version="1.1" xmlns="http://www.w3.org/2000/svg" xmlns:xlink="http://www.w3.org/1999/xlink">
    <!-- Generator: Sketch 50.2 (55047) - http://www.bohemiancoding.com/sketch -->
    <title>gender</title>
    <desc>Created with Sketch.</desc>
    <defs></defs>
    <g id="gender" stroke="none" stroke-width="1" fill="none" fill-rule="evenodd">
        <path d="M12,14.9941 C9.798,14.9941 8.006,13.2021 8.006,11.0001 C8.006,8.7981 9.798,7.0061 12,7.0061 C14.202,7.0061 15.994,8.7981 15.994,11.0001 C15.994,13.2021 14.202,14.9941 12,14.9941 M19.492,3.9911 C19.49,3.9311 19.48,3.8711 19.457,3.8141 C19.406,3.6911 19.309,3.5941 19.185,3.5431 C19.146,3.5271 19.106,3.5251 19.066,3.5191 C19.042,3.5151 19.021,3.5051 18.995,3.5051 L17.004,3.5051 C16.728,3.5051 16.504,3.7281 16.504,4.0051 C16.504,4.2811 16.728,4.5051 17.004,4.5051 L17.788,4.5051 L15.178,7.1151 C15.166,7.1271 15.161,7.1421 15.151,7.1551 C14.289,6.4481 13.201,6.0061 12,6.0061 C9.242,6.0061 7.006,8.2421 7.006,11.0001 C7.006,13.5901 8.985,15.6951 11.51,15.9451 C11.508,15.9621 11.5,15.9761 11.5,15.9941 L11.5,18.0001 L10.501,18.0001 C10.225,18.0001 10.001,18.2231 10.001,18.5001 C10.001,18.7761 10.225,19.0001 10.501,19.0001 L11.5,19.0001 L11.5,20.0001 C11.5,20.2761 11.724,20.5001 12,20.5001 C12.276,20.5001 12.5,20.2761 12.5,20.0001 L12.5,19.0001 L13.5,19.0001 C13.776,19.0001 14,18.7761 14,18.5001 C14,18.2231 13.776,18.0001 13.5,18.0001 L12.5,18.0001 L12.5,15.9941 C12.5,15.9761 12.492,15.9621 12.49,15.9451 C15.015,15.6951 16.994,13.5901 16.994,11.0001 C16.994,9.7981 16.552,8.7101 15.845,7.8481 C15.857,7.8381 15.873,7.8341 15.885,7.8221 L18.495,5.2121 L18.495,6.0071 C18.495,6.2831 18.719,6.5071 18.995,6.5071 C19.271,6.5071 19.495,6.2831 19.495,6.0071 L19.495,4.0051 C19.495,4.0001 19.492,3.9961 19.492,3.9911" id="Fill-1" fill="#000000"></path>
    </g>
</svg>