<?xml version="1.0" encoding="UTF-8" standalone="no"?>
<svg width="24px" height="24px" viewBox="0 0 24 24" version="1.1" xmlns="http://www.w3.org/2000/svg" xmlns:xlink="http://www.w3.org/1999/xlink">
    <!-- Generator: Sketch 39.1 (31720) - http://www.bohemiancoding.com/sketch -->
    <title>heart</title>
    <desc>Created with Sketch.</desc>
    <defs></defs>
    <g id="Page-1" stroke="none" stroke-width="1" fill="none" fill-rule="evenodd">
        <g id="heart" fill="#221F20">
            <g id="Page-1" transform="translate(3.000000, 4.000000)">
                <path d="M13.1348,0.2568 C11.9308,0.2568 10.7738,0.7048 9.8728,1.5198 C9.5308,1.8278 9.2388,2.1788 8.9998,2.5668 C8.7608,2.1788 8.4668,1.8278 8.1258,1.5188 C7.2268,0.7048 6.0688,0.2568 4.8648,0.2568 C2.1828,0.2568 -0.0002,2.4398 -0.0002,5.1208 C-0.0002,6.9328 0.5628,8.3608 1.8828,9.9018 C3.7988,12.1388 8.6548,15.5538 8.8608,15.6988 C8.9028,15.7288 8.9508,15.7428 8.9998,15.7428 C9.0488,15.7428 9.0978,15.7288 9.1388,15.6988 C9.3438,15.5538 14.1988,12.1388 16.1168,9.9018 C17.4358,8.3608 17.9988,6.9328 17.9988,5.1208 C17.9988,2.4398 15.8188,0.2568 13.1348,0.2568 M13.1348,1.2568 C15.2658,1.2568 16.9988,2.9898 16.9988,5.1208 C16.9988,6.6928 16.5238,7.8888 15.3588,9.2498 C13.8618,10.9958 10.3928,13.5668 8.9988,14.5698 C6.7518,12.9568 3.8898,10.7078 2.6418,9.2498 C1.4758,7.8908 0.9998,6.6938 0.9998,5.1208 C0.9998,2.9898 2.7348,1.2568 4.8648,1.2568 C5.8208,1.2568 6.7398,1.6128 7.4538,2.2588 C7.7278,2.5078 7.9618,2.7878 8.1488,3.0918 C8.3308,3.3868 8.6538,3.5668 8.9998,3.5668 C9.3468,3.5668 9.6688,3.3868 9.8518,3.0918 C10.0398,2.7848 10.2738,2.5058 10.5438,2.2608 C11.2598,1.6128 12.1798,1.2568 13.1348,1.2568" id="Fill-1"></path>
            </g>
        </g>
    </g>
</svg>