<?xml version="1.0" encoding="UTF-8" standalone="no"?>
<svg width="24px" height="24px" viewBox="0 0 24 24" version="1.1" xmlns="http://www.w3.org/2000/svg" xmlns:xlink="http://www.w3.org/1999/xlink">
    <!-- Generator: Sketch 43.1 (39012) - http://www.bohemiancoding.com/sketch -->
    <title>help</title>
    <desc>Created with Sketch.</desc>
    <defs></defs>
    <g id="icons" stroke="none" stroke-width="1" fill="none" fill-rule="evenodd">
        <g id="help">
            <g>
                <polygon id="bounds" points="0 24 24 24 24 0 0 0"></polygon>
                <path d="M6.6445,17.9258 L8.8445,15.8458 C9.7075,16.5558 10.7975,16.9998 11.9995,16.9998 C13.1995,16.9998 14.2865,16.5578 15.1485,15.8518 L17.2965,17.9788 C15.8845,19.2318 14.0325,19.9998 11.9995,19.9998 C9.9395,19.9998 8.0645,19.2098 6.6445,17.9258 L6.6445,17.9258 Z M6.0125,6.7128 L8.1475,8.8528 C7.4415,9.7148 6.9995,10.8008 6.9995,11.9998 C6.9995,13.1938 7.4375,14.2768 8.1385,15.1368 L5.9445,17.2118 C4.7365,15.8108 3.9995,13.9908 3.9995,11.9998 C3.9995,9.9728 4.7645,8.1238 6.0125,6.7128 L6.0125,6.7128 Z M17.2965,6.0218 L15.1485,8.1478 C14.2865,7.4418 13.1995,6.9998 11.9995,6.9998 C10.8015,6.9998 9.7155,7.4408 8.8535,8.1458 L6.7185,6.0068 C8.1295,4.7618 9.9755,3.9998 11.9995,3.9998 C14.0325,3.9998 15.8845,4.7678 17.2965,6.0218 L17.2965,6.0218 Z M7.9995,11.9998 C7.9995,9.7948 9.7935,7.9998 11.9995,7.9998 C14.2065,7.9998 15.9995,9.7948 15.9995,11.9998 C15.9995,14.2058 14.2065,15.9998 11.9995,15.9998 C9.7935,15.9998 7.9995,14.2058 7.9995,11.9998 L7.9995,11.9998 Z M15.8555,15.1448 C16.5595,14.2828 16.9995,13.1968 16.9995,11.9998 C16.9995,10.8028 16.5595,9.7168 15.8545,8.8548 L18.0025,6.7298 C19.2425,8.1388 19.9995,9.9808 19.9995,11.9998 C19.9995,14.0198 19.2425,15.8608 18.0025,17.2708 L15.8555,15.1448 Z M11.9995,2.9998 C7.0375,2.9998 2.9995,7.0378 2.9995,11.9998 C2.9995,16.9628 7.0375,20.9998 11.9995,20.9998 C16.9625,20.9998 20.9995,16.9628 20.9995,11.9998 C20.9995,7.0378 16.9625,2.9998 11.9995,2.9998 L11.9995,2.9998 Z" id="Fill-1" fill="#221E1F"></path>
            </g>
        </g>
    </g>
</svg>