<?xml version="1.0" encoding="UTF-8" standalone="no"?>
<svg width="24px" height="24px" viewBox="0 0 24 24" version="1.1" xmlns="http://www.w3.org/2000/svg" xmlns:xlink="http://www.w3.org/1999/xlink">
    <!-- Generator: Sketch 40.3 (33839) - http://www.bohemiancoding.com/sketch -->
    <title>huli</title>
    <desc>Created with Sketch.</desc>
    <defs>
        <polygon id="path-1" points="0 24 24 24 24 0 0 0"></polygon>
    </defs>
    <g id="icons" stroke="none" stroke-width="1" fill="none" fill-rule="evenodd">
        <g id="huli">
            <g>
                <polygon id="bounds" points="0 24 24 24 24 0 0 0"></polygon>
                <path d="M16.1191,14.6309 C16.1191,11.8579 14.5571,10.9099 12.5511,10.9099 C11.2391,10.9099 10.0851,11.5089 9.5251,12.4909 L9.5251,7.2879 L4.8431,7.2879 L4.8431,9.6959 L6.1921,9.6959 L6.1921,18.6599 L4.9351,18.6599 L4.9351,21.0699 L10.7781,21.0699 L10.7781,18.6599 L9.5251,18.6599 L9.5251,16.6759 C9.5251,15.2489 10.2171,13.9339 11.6841,13.9339 C12.4331,13.9339 12.7821,14.3269 12.7821,15.2489 L12.7821,21.0699 L17.3711,21.0699 L17.3711,18.6599 L16.1191,18.6599 L16.1191,14.6309 L16.1191,14.6309 Z" id="Fill-1" fill="#221F20"></path>
                <mask id="mask-2" fill="white">
                    <use xlink:href="#path-1"></use>
                </mask>
                <g id="Clip-4"></g>
                <polygon id="Fill-3" fill="#221F20" mask="url(#mask-2)" points="17.894 7.288 20.016 7.288 20.016 5.166 17.894 5.166"></polygon>
                <polygon id="Fill-5" fill="#221F20" mask="url(#mask-2)" points="13.647 7.288 15.771 7.288 15.771 5.166 13.647 5.166"></polygon>
                <polygon id="Fill-6" fill="#221F20" mask="url(#mask-2)" points="15.771 9.41 17.893 9.41 17.893 7.288 15.771 7.288"></polygon>
                <polygon id="Fill-7" fill="#221F20" mask="url(#mask-2)" points="15.772 5.166 17.894 5.166 17.894 3.044 15.772 3.044"></polygon>
            </g>
        </g>
    </g>
</svg>