<?xml version="1.0" encoding="UTF-8" standalone="no"?>
<svg width="24px" height="24px" viewBox="0 0 24 24" version="1.1" xmlns="http://www.w3.org/2000/svg" xmlns:xlink="http://www.w3.org/1999/xlink">
    <!-- Generator: Sketch 39.1 (31720) - http://www.bohemiancoding.com/sketch -->
    <title>id</title>
    <desc>Created with Sketch.</desc>
    <defs></defs>
    <g id="Page-1" stroke="none" stroke-width="1" fill="none" fill-rule="evenodd">
        <g id="id" fill="#221F20">
            <g id="Page-1" transform="translate(3.000000, 6.000000)">
                <g id="Group-7">
                    <path d="M5.4932,7.0127 C6.7002,7.0127 7.7112,7.8727 7.9432,9.0127 L3.0432,9.0127 C3.2752,7.8727 4.2862,7.0127 5.4932,7.0127 L5.4932,7.0127 Z M5.4932,3.0087 C6.3202,3.0087 6.9932,3.6817 6.9932,4.5087 C6.9932,5.3357 6.3202,6.0087 5.4932,6.0087 C4.6662,6.0087 3.9932,5.3357 3.9932,4.5087 C3.9932,3.6817 4.6662,3.0087 5.4932,3.0087 L5.4932,3.0087 Z M1.9932,9.5127 C1.9932,9.7887 2.2172,10.0127 2.4932,10.0127 L8.4932,10.0127 C8.7692,10.0127 8.9932,9.7887 8.9932,9.5127 C8.9932,8.1607 8.2152,6.9987 7.0902,6.4157 C7.6372,5.9567 7.9932,5.2777 7.9932,4.5087 C7.9932,3.1307 6.8722,2.0087 5.4932,2.0087 C4.1142,2.0087 2.9932,3.1307 2.9932,4.5087 C2.9932,5.2777 3.3492,5.9567 3.8962,6.4157 C2.7712,6.9987 1.9932,8.1607 1.9932,9.5127 L1.9932,9.5127 Z" id="Fill-1"></path>
                    <path d="M1,11.013 L17,11.013 L17,1.013 L1,1.013 L1,11.013 Z M17.5,0.013 L0.5,0.013 C0.224,0.013 0,0.236 0,0.513 L0,11.513 C0,11.789 0.224,12.013 0.5,12.013 L17.5,12.013 C17.776,12.013 18,11.789 18,11.513 L18,0.513 C18,0.236 17.776,0.013 17.5,0.013 L17.5,0.013 Z" id="Fill-3"></path>
                    <path d="M9.4932,4.0078 L15.5072,4.0078 C15.7832,4.0078 16.0072,3.7838 16.0072,3.5078 L16.0072,3.5068 C16.0072,3.2308 15.7832,3.0068 15.5072,3.0068 L9.4932,3.0068 C9.2172,3.0068 8.9932,3.2308 8.9932,3.5068 L8.9932,3.5078 C8.9932,3.7838 9.2172,4.0078 9.4932,4.0078" id="Fill-5"></path>
                    <path d="M9.4932,6.0098 L15.5072,6.0098 C15.7832,6.0098 16.0072,5.7848 16.0072,5.5098 L16.0072,5.5078 C16.0072,5.2328 15.7832,5.0078 15.5072,5.0078 L9.4932,5.0078 C9.2172,5.0078 8.9932,5.2328 8.9932,5.5078 L8.9932,5.5098 C8.9932,5.7848 9.2172,6.0098 9.4932,6.0098" id="Fill-6"></path>
                </g>
            </g>
        </g>
    </g>
</svg>