<?xml version="1.0" encoding="UTF-8" standalone="no"?>
<svg width="24px" height="24px" viewBox="0 0 24 24" version="1.1" xmlns="http://www.w3.org/2000/svg" xmlns:xlink="http://www.w3.org/1999/xlink">
    <!-- Generator: Sketch 39.1 (31720) - http://www.bohemiancoding.com/sketch -->
    <title>info</title>
    <desc>Created with Sketch.</desc>
    <defs></defs>
    <g id="Page-1" stroke="none" stroke-width="1" fill="none" fill-rule="evenodd">
        <g id="info" fill="#221F20">
            <g id="Page-1" transform="translate(3.000000, 3.000000)">
                <g id="Group-7">
                    <path d="M9,0 C4.029,0 0,4.029 0,9 C0,13.971 4.029,18 9,18 C13.971,18 18,13.971 18,9 C18,4.029 13.971,0 9,0 M9,1 C13.411,1 17,4.589 17,9 C17,13.411 13.411,17 9,17 C4.589,17 1,13.411 1,9 C1,4.589 4.589,1 9,1" id="Fill-1"></path>
                    <path d="M9.5771,5.0039 C9.5771,4.6859 9.3181,4.4269 9.0001,4.4269 C8.6811,4.4269 8.4231,4.6859 8.4231,5.0039 C8.4231,5.3229 8.6811,5.5819 9.0001,5.5819 C9.3181,5.5819 9.5771,5.3229 9.5771,5.0039" id="Fill-3"></path>
                    <path d="M9.5,13.1211 C9.5,13.3971 9.276,13.6211 9,13.6211 C8.724,13.6211 8.5,13.3971 8.5,13.1211 L8.5,7.1211 C8.5,6.8451 8.724,6.6211 9,6.6211 C9.276,6.6211 9.5,6.8451 9.5,7.1211 L9.5,13.1211 Z" id="Fill-5"></path>
                </g>
            </g>
        </g>
    </g>
</svg>