<?xml version="1.0" encoding="UTF-8" standalone="no"?>
<svg width="24px" height="24px" viewBox="0 0 24 24" version="1.1" xmlns="http://www.w3.org/2000/svg" xmlns:xlink="http://www.w3.org/1999/xlink">
    <!-- Generator: Sketch 40.3 (33839) - http://www.bohemiancoding.com/sketch -->
    <title>job</title>
    <desc>Created with Sketch.</desc>
    <defs></defs>
    <g id="icons" stroke="none" stroke-width="1" fill="none" fill-rule="evenodd">
        <g id="job">
            <g>
                <polygon id="bounds" points="0 24 24 24 24 0 0 0"></polygon>
                <path d="M4,18 L4,13.002 L9,13.002 L9,14.01 C9,14.562 9.448,15.01 10,15.01 L14,15.01 C14.552,15.01 15,14.562 15,14.01 L15,13.002 L20,13.002 L20,18 L4,18 Z M10,14.01 L14,14.01 L14,13.002 L10,13.002 L10,14.01 Z M8,8 L9,8 L15,8 L16,8 L20,8 L20,12.002 L4,12.002 L4,8 L8,8 Z M9,7 L15,7 L15,5.008 L9,5.008 L9,7 Z M20.5,7 L16,7 L16,5.008 C16,4.455 15.552,4.008 15,4.008 L9,4.008 C8.448,4.008 8,4.455 8,5.008 L8,7 L3.5,7 C3.224,7 3,7.224 3,7.5 L3,18.5 C3,18.776 3.224,19 3.5,19 L20.5,19 C20.776,19 21,18.776 21,18.5 L21,7.5 C21,7.224 20.776,7 20.5,7 L20.5,7 Z" id="Fill-1" fill="#221F20"></path>
            </g>
        </g>
    </g>
</svg>