<?xml version="1.0" encoding="UTF-8" standalone="no"?>
<svg width="24px" height="24px" viewBox="0 0 24 24" version="1.1" xmlns="http://www.w3.org/2000/svg" xmlns:xlink="http://www.w3.org/1999/xlink">
    <!-- Generator: Sketch 39.1 (31720) - http://www.bohemiancoding.com/sketch -->
    <title>laboratory</title>
    <desc>Created with Sketch.</desc>
    <defs></defs>
    <g id="Page-1" stroke="none" stroke-width="1" fill="none" fill-rule="evenodd">
        <g id="laboratory" fill="#221F20">
            <g id="Page-1" transform="translate(3.000000, 3.000000)">
                <g id="Group-5">
                    <path d="M9.6494,6.8652 L7.5274,4.7442 L11.0634,1.2092 L13.1854,3.3302 L9.6494,6.8652 Z M7.5234,7.5782 L6.8164,6.8712 L7.5234,6.1642 L8.2304,6.8712 L7.5234,7.5782 Z M14.0004,17.0172 L12.5844,17.0172 C14.6274,15.7952 16.0004,13.5672 16.0004,11.0122 C16.0004,8.5472 14.7214,6.3832 12.7944,5.1352 L14.2464,3.6832 C14.4414,3.4882 14.4414,3.1722 14.2464,2.9762 L11.4174,0.1482 C11.3194,0.0512 11.1914,0.0022 11.0634,0.0022 C10.9354,0.0022 10.8074,0.0512 10.7104,0.1482 L6.4664,4.3902 C6.2714,4.5862 6.2714,4.9022 6.4664,5.0972 L6.8214,5.4522 L5.7554,6.5172 C5.5604,6.7132 5.5604,7.0272 5.7554,7.2242 L7.1704,8.6382 C7.2674,8.7362 7.3964,8.7852 7.5234,8.7852 C7.6524,8.7852 7.7794,8.7362 7.8774,8.6382 L8.9424,7.5732 L9.2954,7.9262 C9.3934,8.0232 9.5214,8.0732 9.6504,8.0732 C9.7774,8.0732 9.9054,8.0242 10.0034,7.9262 L12.3844,5.5442 L12.0654,5.8642 C13.8194,6.9122 15.0004,8.8242 15.0004,11.0122 C15.0004,14.3212 12.3084,17.0122 9.0004,17.0122 C6.1034,17.0122 3.6794,14.9502 3.1214,12.2172 L2.0034,11.0992 C2.0344,13.6172 3.3984,15.8092 5.4174,17.0172 L4.0004,17.0172 C3.7234,17.0172 3.5004,17.2412 3.5004,17.5172 C3.5004,17.7942 3.7234,18.0172 4.0004,18.0172 L14.0004,18.0172 C14.2764,18.0172 14.5004,17.7942 14.5004,17.5172 C14.5004,17.2412 14.2764,17.0172 14.0004,17.0172 L14.0004,17.0172 Z" id="Fill-1"></path>
                    <path d="M4.6348,13.0225 C4.8298,12.8275 4.8298,12.5105 4.6348,12.3155 L1.8068,9.4875 C1.6118,9.2925 1.2948,9.2925 1.0998,9.4875 C0.9048,9.6825 0.9048,9.9995 1.0998,10.1945 L3.9278,13.0225 C4.1228,13.2175 4.4398,13.2175 4.6348,13.0225" id="Fill-3"></path>
                </g>
            </g>
        </g>
    </g>
</svg>