<?xml version="1.0" encoding="UTF-8" standalone="no"?>
<svg width="24px" height="24px" viewBox="0 0 24 24" version="1.1" xmlns="http://www.w3.org/2000/svg" xmlns:xlink="http://www.w3.org/1999/xlink">
    <!-- Generator: Sketch 39.1 (31720) - http://www.bohemiancoding.com/sketch -->
    <title>language</title>
    <desc>Created with Sketch.</desc>
    <defs></defs>
    <g id="Page-1" stroke="none" stroke-width="1" fill="none" fill-rule="evenodd">
        <g id="language" fill="#221F20">
            <g id="Page-1" transform="translate(3.000000, 3.000000)">
                <path d="M10.7383,16.8037 C11.2723,16.0167 11.7163,14.8787 12.0253,13.5107 L15.6013,13.5107 C14.4733,15.1567 12.7473,16.3567 10.7383,16.8037 L10.7383,16.8037 Z M2.3983,13.5107 L5.9743,13.5107 C6.2843,14.8787 6.7273,16.0167 7.2613,16.8037 C5.2533,16.3567 3.5263,15.1567 2.3983,13.5107 L2.3983,13.5107 Z M7.2613,1.1967 C6.7263,1.9867 6.2813,3.1267 5.9713,4.4997 L2.3903,4.4997 C3.5183,2.8487 5.2493,1.6447 7.2613,1.1967 L7.2613,1.1967 Z M15.6093,4.4997 L12.0283,4.4997 C11.7183,3.1267 11.2733,1.9867 10.7383,1.1967 C12.7513,1.6447 14.4813,2.8487 15.6093,4.4997 L15.6093,4.4997 Z M12.4903,8.4997 C12.4673,7.4427 12.3783,6.4297 12.2253,5.4997 L16.1823,5.4997 C16.6313,6.4167 16.9083,7.4287 16.9743,8.4997 L12.4903,8.4997 Z M11.2163,5.4997 C11.3683,6.3777 11.4673,7.3827 11.4903,8.4997 L6.5093,8.4997 C6.5333,7.3827 6.6323,6.3777 6.7843,5.4997 L11.2163,5.4997 Z M9.0003,0.9997 C9.5543,0.9997 10.4513,2.2157 11.0073,4.4997 L6.9933,4.4997 C7.5493,2.2157 8.4453,0.9997 9.0003,0.9997 L9.0003,0.9997 Z M1.8173,5.4997 L5.7743,5.4997 C5.6223,6.4297 5.5323,7.4427 5.5093,8.4997 L1.0253,8.4997 C1.0923,7.4287 1.3693,6.4167 1.8173,5.4997 L1.8173,5.4997 Z M1.0253,9.4997 L5.5093,9.4997 C5.5323,10.5627 5.6233,11.5777 5.7763,12.5107 L1.8223,12.5107 C1.3713,11.5917 1.0923,10.5747 1.0253,9.4997 L1.0253,9.4997 Z M6.7863,12.5107 C6.6333,11.6307 6.5343,10.6217 6.5093,9.4997 L11.4903,9.4997 C11.4663,10.6217 11.3673,11.6307 11.2143,12.5107 L6.7863,12.5107 Z M9.0003,16.9997 C8.4453,16.9997 7.5513,15.7877 6.9963,13.5107 L11.0043,13.5107 C10.4483,15.7877 9.5543,16.9997 9.0003,16.9997 L9.0003,16.9997 Z M16.1773,12.5107 L12.2233,12.5107 C12.3773,11.5777 12.4673,10.5627 12.4903,9.4997 L16.9743,9.4997 C16.9083,10.5747 16.6293,11.5917 16.1773,12.5107 L16.1773,12.5107 Z M9.0003,-0.0003 C4.0293,-0.0003 0.0003,4.0297 0.0003,8.9997 C0.0003,13.9707 4.0293,17.9997 9.0003,17.9997 C13.9703,17.9997 18.0003,13.9707 18.0003,8.9997 C18.0003,4.0297 13.9703,-0.0003 9.0003,-0.0003 L9.0003,-0.0003 Z" id="Fill-1"></path>
            </g>
        </g>
    </g>
</svg>