<?xml version="1.0" encoding="UTF-8" standalone="no"?>
<svg width="24px" height="24px" viewBox="0 0 24 24" version="1.1" xmlns="http://www.w3.org/2000/svg" xmlns:xlink="http://www.w3.org/1999/xlink">
    <!-- Generator: Sketch 39.1 (31720) - http://www.bohemiancoding.com/sketch -->
    <title>lock</title>
    <desc>Created with Sketch.</desc>
    <defs></defs>
    <g id="Page-1" stroke="none" stroke-width="1" fill="none" fill-rule="evenodd">
        <g id="lock" fill="#221F20">
            <g id="Page-1" transform="translate(4.000000, 3.000000)">
                <g id="Group-5">
                    <path d="M7.5,12.8193 L7.5,14.5583 C7.5,14.8353 7.724,15.0583 8,15.0583 C8.276,15.0583 8.5,14.8353 8.5,14.5583 L8.5,12.8193 C8.794,12.6453 9.001,12.3383 9.001,11.9713 C9.001,11.4193 8.553,10.9703 8,10.9703 C7.447,10.9703 6.999,11.4193 6.999,11.9713 C6.999,12.3383 7.206,12.6453 7.5,12.8193 L7.5,12.8193 Z" id="Fill-1"></path>
                    <path d="M1.993,17.019 L14.006,17.019 L14.006,9.01 L1.993,9.01 L1.993,17.019 Z M4.256,4.753 C4.256,2.686 5.938,1.003 8.006,1.003 C10.073,1.003 11.756,2.686 11.756,4.753 L11.756,8.01 L4.256,8.01 L4.256,4.753 Z M14.854,8.158 C14.765,8.066 14.639,8.01 14.5,8.01 L12.756,8.01 L12.756,4.753 C12.756,2.134 10.625,0.003 8.006,0.003 C5.387,0.003 3.256,2.134 3.256,4.753 L3.256,8.01 L1.5,8.01 C1.361,8.01 1.236,8.066 1.146,8.157 C1.053,8.248 0.993,8.374 0.993,8.515 L0.993,17.515 C0.993,17.723 1.12,17.9 1.3,17.976 C1.361,18.002 1.429,18.019 1.5,18.019 L14.5,18.019 C14.571,18.019 14.639,18.002 14.7,17.976 C14.88,17.899 15.006,17.722 15.006,17.515 L15.006,8.515 C15.006,8.375 14.947,8.249 14.854,8.158 L14.854,8.158 Z" id="Fill-3"></path>
                </g>
            </g>
        </g>
    </g>
</svg>