<?xml version="1.0" encoding="UTF-8" standalone="no"?>
<svg width="24px" height="24px" viewBox="0 0 24 24" version="1.1" xmlns="http://www.w3.org/2000/svg" xmlns:xlink="http://www.w3.org/1999/xlink">
    <!-- Generator: Sketch 39.1 (31720) - http://www.bohemiancoding.com/sketch -->
    <title>logout</title>
    <desc>Created with Sketch.</desc>
    <defs></defs>
    <g id="Page-1" stroke="none" stroke-width="1" fill="none" fill-rule="evenodd">
        <g id="logout" fill="#020302">
            <g id="Page-1" transform="translate(2.000000, 3.000000)">
                <g id="Group-5">
                    <path d="M17.0059,0.5 C17.0059,0.224 16.7819,0 16.5059,0 L16.5029,0 L16.4999,0 L6.4959,0 C6.2199,0 5.9959,0.224 5.9959,0.5 L5.9959,0.503 C5.9959,0.779 6.2199,1.003 6.4959,1.003 L16.0059,1.003 L16.0059,17.019 L6.4959,17.019 C6.2199,17.019 5.9959,17.242 5.9959,17.519 L5.9959,17.521 C5.9959,17.798 6.2199,18.021 6.4959,18.021 L16.4999,18.021 C16.7139,18.021 16.8929,17.886 16.9649,17.697 C16.9909,17.637 17.0059,17.57 17.0059,17.5 L17.0059,0.5 Z" id="Fill-1"></path>
                    <path d="M13.4912,8.5107 L2.7072,8.5107 L6.0972,5.1217 C6.2932,4.9257 6.2932,4.6107 6.0972,4.4147 C5.9022,4.2187 5.5862,4.2187 5.3902,4.4147 L1.1652,8.6387 C1.0602,8.7297 0.9912,8.8607 0.9912,9.0107 C0.9912,9.1617 1.0622,9.2937 1.1682,9.3857 L5.3902,13.6077 C5.5862,13.8037 5.9012,13.8037 6.0972,13.6077 C6.2932,13.4117 6.2932,13.0967 6.0972,12.9007 L2.7082,9.5107 L13.4912,9.5107 C13.7672,9.5107 13.9912,9.2867 13.9912,9.0107 C13.9912,8.7347 13.7672,8.5107 13.4912,8.5107" id="Fill-3"></path>
                </g>
            </g>
        </g>
    </g>
</svg>