<?xml version="1.0" encoding="UTF-8" standalone="no"?>
<svg width="24px" height="24px" viewBox="0 0 24 24" version="1.1" xmlns="http://www.w3.org/2000/svg" xmlns:xlink="http://www.w3.org/1999/xlink">
    <!-- Generator: Sketch 39.1 (31720) - http://www.bohemiancoding.com/sketch -->
    <title>medical-history</title>
    <desc>Created with Sketch.</desc>
    <defs></defs>
    <g id="Page-1" stroke="none" stroke-width="1" fill="none" fill-rule="evenodd">
        <g id="medical-history" fill="#221F20">
            <g id="Page-1" transform="translate(2.000000, 3.000000)">
                <g id="Group-5">
                    <path d="M3.2471,1.9687 L11.7921,1.9687 L13.6471,3.8617 C13.7411,3.9567 13.8701,4.0117 14.0041,4.0117 L18.0311,4.0117 L18.0311,5.0067 L1.9371,5.0067 L1.9371,3.6817 L3.2471,1.9687 Z M1.9371,16.0177 L18.0311,16.0177 L18.0311,6.0067 L1.9371,6.0067 L1.9371,16.0177 Z M18.5311,3.0117 L14.2141,3.0117 L12.3591,1.1187 C12.2651,1.0237 12.1361,0.9687 12.0021,0.9687 L3.0001,0.9687 C2.8441,0.9687 2.6971,1.0407 2.6031,1.1647 L1.0401,3.2077 C0.9741,3.2947 0.9371,3.4027 0.9371,3.5117 L0.9371,16.5117 C0.9371,16.7877 1.1611,17.0117 1.4371,17.0117 C1.4431,17.0117 1.4481,17.0087 1.4541,17.0087 C1.4701,17.0097 1.4841,17.0177 1.5001,17.0177 L18.5001,17.0177 C18.5111,17.0177 18.5191,17.0117 18.5301,17.0117 L18.5311,17.0117 C18.8081,17.0117 19.0311,16.7877 19.0311,16.5117 L19.0311,3.5117 C19.0311,3.2357 18.8081,3.0117 18.5311,3.0117 L18.5311,3.0117 Z" id="Fill-1"></path>
                    <path d="M12.5029,11.5137 L11.0009,11.5137 C10.7249,11.5137 10.5009,11.7377 10.5009,12.0137 L10.5009,13.4997 L9.4989,13.4997 L9.4989,11.9997 C9.4989,11.7237 9.2749,11.4997 8.9989,11.4997 L7.4969,11.4997 L7.4969,10.5117 L8.9989,10.5117 C9.2749,10.5117 9.4989,10.2877 9.4989,10.0117 L9.4989,8.4987 L10.4899,8.4987 L10.4899,10.0117 C10.4899,10.2877 10.7139,10.5117 10.9899,10.5117 L12.5029,10.5117 L12.5029,11.5137 Z M13.0029,9.5117 L11.4899,9.5117 L11.4899,7.9987 C11.4899,7.7227 11.2669,7.4987 10.9899,7.4987 L8.9989,7.4987 C8.7229,7.4987 8.4989,7.7227 8.4989,7.9987 L8.4989,9.5117 L6.9969,9.5117 C6.7209,9.5117 6.4969,9.7357 6.4969,10.0117 L6.4969,11.9997 C6.4969,12.2767 6.7209,12.4997 6.9969,12.4997 L8.4989,12.4997 L8.4989,13.9997 C8.4989,14.2767 8.7229,14.4997 8.9989,14.4997 L11.0009,14.4997 C11.2769,14.4997 11.5009,14.2767 11.5009,13.9997 L11.5009,12.5137 L13.0029,12.5137 C13.2789,12.5137 13.5029,12.2897 13.5029,12.0137 L13.5029,10.0117 C13.5029,9.7357 13.2789,9.5117 13.0029,9.5117 L13.0029,9.5117 Z" id="Fill-3"></path>
                </g>
            </g>
        </g>
    </g>
</svg>