<?xml version="1.0" encoding="UTF-8" standalone="no"?>
<svg width="24px" height="24px" viewBox="0 0 24 24" version="1.1" xmlns="http://www.w3.org/2000/svg" xmlns:xlink="http://www.w3.org/1999/xlink">
    <!-- Generator: Sketch 40 (33762) - http://www.bohemiancoding.com/sketch -->
    <title>menu</title>
    <desc>Created with Sketch.</desc>
    <defs></defs>
    <g id="icons" stroke="none" stroke-width="1" fill="none" fill-rule="evenodd">
        <g id="menu">
            <g>
                <rect id="bounds" x="0" y="0" width="24" height="24"></rect>
                <path d="M20,12 C20,12.276 19.776,12.5 19.5,12.5 L4.5,12.5 C4.224,12.5 4,12.276 4,12 C4,11.724 4.224,11.5 4.5,11.5 L19.5,11.5 C19.776,11.5 20,11.724 20,12" id="Fill-1" fill="#221F20"></path>
                <path d="M20,6.5049 C20,6.7809 19.776,7.0049 19.5,7.0049 L4.5,7.0049 C4.224,7.0049 4,6.7809 4,6.5049 C4,6.2289 4.224,6.0049 4.5,6.0049 L19.5,6.0049 C19.776,6.0049 20,6.2289 20,6.5049" id="Fill-3" fill="#221F20"></path>
                <path d="M20,17.5156 C20,17.7916 19.776,18.0156 19.5,18.0156 L4.5,18.0156 C4.224,18.0156 4,17.7916 4,17.5156 C4,17.2396 4.224,17.0156 4.5,17.0156 L19.5,17.0156 C19.776,17.0156 20,17.2396 20,17.5156" id="Fill-5" fill="#221F20"></path>
            </g>
        </g>
    </g>
</svg>