<?xml version="1.0" encoding="UTF-8" standalone="no"?>
<svg width="24px" height="24px" viewBox="0 0 24 24" version="1.1" xmlns="http://www.w3.org/2000/svg" xmlns:xlink="http://www.w3.org/1999/xlink">
    <!-- Generator: Sketch 39.1 (31720) - http://www.bohemiancoding.com/sketch -->
    <title>merge</title>
    <desc>Created with Sketch.</desc>
    <defs></defs>
    <g id="Page-1" stroke="none" stroke-width="1" fill="none" fill-rule="evenodd">
        <g id="merge" fill="#221F20">
            <g id="Page-1" transform="translate(3.000000, 6.000000)">
                <path d="M12.0029,11 C11.2599,11 10.5599,10.826 9.9249,10.534 C11.1949,9.434 12.0029,7.812 12.0029,6 C12.0029,4.188 11.1949,2.566 9.9249,1.466 C10.5599,1.174 11.2599,1 12.0029,1 C14.7599,1 17.0029,3.243 17.0029,6 C17.0029,8.757 14.7599,11 12.0029,11 M11.0029,6 C11.0029,7.627 10.2099,9.061 9.0029,9.975 C7.7959,9.061 7.0029,7.627 7.0029,6 C7.0029,4.373 7.7959,2.939 9.0029,2.025 C10.2099,2.939 11.0029,4.373 11.0029,6 M6.0029,11 C3.2459,11 1.0029,8.757 1.0029,6 C1.0029,3.243 3.2459,1 6.0029,1 C6.7459,1 7.4459,1.174 8.0809,1.466 C6.8109,2.566 6.0029,4.188 6.0029,6 C6.0029,7.812 6.8109,9.434 8.0809,10.534 C7.4459,10.826 6.7459,11 6.0029,11 M12.0029,0 C10.9089,0 9.8859,0.298 9.0029,0.81 C8.1199,0.298 7.0969,0 6.0029,0 C2.6899,0 0.0029,2.687 0.0029,6 C0.0029,9.313 2.6899,12 6.0029,12 C7.0969,12 8.1199,11.702 9.0029,11.19 C9.8859,11.702 10.9089,12 12.0029,12 C15.3159,12 18.0029,9.313 18.0029,6 C18.0029,2.687 15.3159,0 12.0029,0" id="Fill-1"></path>
            </g>
        </g>
    </g>
</svg>