<?xml version="1.0" encoding="UTF-8" standalone="no"?>
<svg width="24px" height="24px" viewBox="0 0 24 24" version="1.1" xmlns="http://www.w3.org/2000/svg" xmlns:xlink="http://www.w3.org/1999/xlink">
    <!-- Generator: Sketch 39.1 (31720) - http://www.bohemiancoding.com/sketch -->
    <title>negative</title>
    <desc>Created with Sketch.</desc>
    <defs></defs>
    <g id="Page-1" stroke="none" stroke-width="1" fill="none" fill-rule="evenodd">
        <g id="negative" fill="#221F20">
            <g id="Page-1" transform="translate(3.000000, 3.000000)">
                <g id="Group-5">
                    <path d="M9,0 C4.029,0 0,4.029 0,9 C0,13.971 4.029,18 9,18 C13.971,18 18,13.971 18,9 C18,4.029 13.971,0 9,0 M9,1 C13.411,1 17,4.589 17,9 C17,13.411 13.411,17 9,17 C4.589,17 1,13.411 1,9 C1,4.589 4.589,1 9,1" id="Fill-1"></path>
                    <path d="M14,9 C14,9.276 13.776,9.5 13.5,9.5 L4.5,9.5 C4.224,9.5 4,9.276 4,9 C4,8.724 4.224,8.5 4.5,8.5 L13.5,8.5 C13.776,8.5 14,8.724 14,9" id="Fill-3"></path>
                </g>
            </g>
        </g>
    </g>
</svg>