<?xml version="1.0" encoding="UTF-8" standalone="no"?>
<svg width="24px" height="24px" viewBox="0 0 24 24" version="1.1" xmlns="http://www.w3.org/2000/svg" xmlns:xlink="http://www.w3.org/1999/xlink">
    <!-- Generator: Sketch 39.1 (31720) - http://www.bohemiancoding.com/sketch -->
    <title>no</title>
    <desc>Created with Sketch.</desc>
    <defs></defs>
    <g id="Page-1" stroke="none" stroke-width="1" fill="none" fill-rule="evenodd">
        <g id="no" fill="#221F20">
            <g id="Page-1" transform="translate(3.000000, 3.000000)">
                <path d="M14.9912,14.2837 L3.7162,3.0097 C5.1272,1.7627 6.9732,0.9997 9.0002,0.9997 C13.4112,0.9997 17.0002,4.5887 17.0002,8.9997 C17.0002,11.0257 16.2372,12.8727 14.9912,14.2837 M1.0002,8.9997 C1.0002,6.9737 1.7622,5.1267 3.0092,3.7167 L14.2842,14.9907 C12.8732,16.2367 11.0262,16.9997 9.0002,16.9997 C4.5892,16.9997 1.0002,13.4107 1.0002,8.9997 M9.0002,-0.0003 C4.0292,-0.0003 0.0002,4.0297 0.0002,8.9997 C0.0002,13.9707 4.0292,17.9997 9.0002,17.9997 C13.9702,17.9997 18.0002,13.9707 18.0002,8.9997 C18.0002,4.0297 13.9702,-0.0003 9.0002,-0.0003" id="Fill-1"></path>
            </g>
        </g>
    </g>
</svg>