<?xml version="1.0" encoding="UTF-8" standalone="no"?>
<svg width="24px" height="24px" viewBox="0 0 24 24" version="1.1" xmlns="http://www.w3.org/2000/svg" xmlns:xlink="http://www.w3.org/1999/xlink">
    <!-- Generator: Sketch 41.1 (35376) - http://www.bohemiancoding.com/sketch -->
    <title>nonvisible</title>
    <desc>Created with Sketch.</desc>
    <defs></defs>
    <g id="icons" stroke="none" stroke-width="1" fill="none" fill-rule="evenodd">
        <g id="nonvisible">
            <g>
                <polygon id="bounds" points="0 24 24 24 24 0 0 0"></polygon>
                <path d="M12,16.5 C10.891,16.5 9.825,16.277 8.839,15.882 L10.28,14.439 C10.767,14.784 11.358,14.991 12,14.991 C13.649,14.991 14.991,13.649 14.991,12 C14.991,11.357 14.783,10.765 14.437,10.277 L16.13,8.582 C17.526,9.361 18.704,10.525 19.491,12 C18.006,14.782 15.158,16.5 12,16.5 L12,16.5 Z M10.009,12 C10.009,10.9 10.9,10.009 12,10.009 C12.37,10.009 12.711,10.116 13.008,10.292 L10.293,13.01 C10.117,12.713 10.009,12.371 10.009,12 L10.009,12 Z M13.991,12 C13.991,13.1 13.1,13.991 12,13.991 C11.635,13.991 11.298,13.886 11.003,13.714 L13.713,11.001 C13.886,11.296 13.991,11.634 13.991,12 L13.991,12 Z M4.509,12 C5.994,9.218 8.842,7.5 12,7.5 C13.114,7.5 14.184,7.724 15.174,8.123 L13.73,9.569 C13.24,9.219 12.646,9.009 12,9.009 C10.351,9.009 9.009,10.351 9.009,12 C9.009,12.647 9.221,13.243 9.571,13.733 L7.882,15.424 C6.48,14.645 5.298,13.479 4.509,12 L4.509,12 Z M20.501,11.777 C19.667,10.101 18.394,8.76 16.865,7.846 L19.361,5.347 C19.556,5.151 19.556,4.834 19.36,4.639 C19.165,4.445 18.848,4.444 18.653,4.64 L15.94,7.356 C14.728,6.804 13.393,6.5 12,6.5 C8.376,6.5 5.119,8.522 3.499,11.777 L3.388,12 L3.499,12.223 C4.335,13.903 5.612,15.246 7.146,16.161 L4.646,18.664 C4.451,18.86 4.451,19.176 4.646,19.372 C4.744,19.469 4.872,19.518 5,19.518 C5.128,19.518 5.256,19.469 5.354,19.371 L8.072,16.65 C9.281,17.199 10.612,17.5 12,17.5 C15.624,17.5 18.881,15.478 20.501,12.223 L20.612,12 L20.501,11.777 Z" id="Fill-1" fill="#000000"></path>
            </g>
        </g>
    </g>
</svg>