<?xml version="1.0" encoding="UTF-8" standalone="no"?>
<svg width="24px" height="24px" viewBox="0 0 24 24" version="1.1" xmlns="http://www.w3.org/2000/svg" xmlns:xlink="http://www.w3.org/1999/xlink">
    <!-- Generator: Sketch 39.1 (31720) - http://www.bohemiancoding.com/sketch -->
    <title>note</title>
    <desc>Created with Sketch.</desc>
    <defs></defs>
    <g id="Page-1" stroke="none" stroke-width="1" fill="none" fill-rule="evenodd">
        <g id="note" fill="#221F20">
            <g id="Page-1" transform="translate(5.000000, 3.000000)">
                <g id="Group-9">
                    <path d="M2.5,5.0068 C2.224,5.0068 2,5.2308 2,5.5068 C2,5.7828 2.224,6.0068 2.5,6.0068 L11.5,6.0068 C11.776,6.0068 12,5.7828 12,5.5068 C12,5.2308 11.776,5.0068 11.5,5.0068 L2.5,5.0068 Z" id="Fill-1"></path>
                    <path d="M11.5,9.0107 L2.5,9.0107 C2.224,9.0107 2,9.2347 2,9.5107 C2,9.7867 2.224,10.0107 2.5,10.0107 L11.5,10.0107 C11.776,10.0107 12,9.7867 12,9.5107 C12,9.2347 11.776,9.0107 11.5,9.0107" id="Fill-3"></path>
                    <path d="M11.5,13.0137 L2.5,13.0137 C2.224,13.0137 2,13.2377 2,13.5137 C2,13.7897 2.224,14.0137 2.5,14.0137 L11.5,14.0137 C11.776,14.0137 12,13.7897 12,13.5137 C12,13.2377 11.776,13.0137 11.5,13.0137" id="Fill-5"></path>
                    <path d="M13,16.0107 L1,16.0107 L1,2.0107 L2.996,2.0107 L2.996,2.5027 C2.996,2.7797 3.22,3.0027 3.496,3.0027 C3.772,3.0027 3.996,2.7797 3.996,2.5027 L3.996,2.0107 L6.5,2.0107 L6.5,2.5027 C6.5,2.7797 6.724,3.0027 7,3.0027 C7.276,3.0027 7.5,2.7797 7.5,2.5027 L7.5,2.0107 L10.003,2.0107 L10.003,2.5027 C10.003,2.7797 10.227,3.0027 10.503,3.0027 C10.779,3.0027 11.003,2.7797 11.003,2.5027 L11.003,2.0107 L13,2.0107 L13,16.0107 Z M13.5,1.0107 L11.003,1.0107 L11.003,0.5027 C11.003,0.2267 10.779,0.0027 10.503,0.0027 C10.227,0.0027 10.003,0.2267 10.003,0.5027 L10.003,1.0107 L7.5,1.0107 L7.5,0.5027 C7.5,0.2267 7.276,0.0027 7,0.0027 C6.724,0.0027 6.5,0.2267 6.5,0.5027 L6.5,1.0107 L3.996,1.0107 L3.996,0.5027 C3.996,0.2267 3.772,0.0027 3.496,0.0027 C3.22,0.0027 2.996,0.2267 2.996,0.5027 L2.996,1.0107 L0.5,1.0107 C0.224,1.0107 0,1.2347 0,1.5107 L0,16.5107 C0,16.7867 0.224,17.0107 0.5,17.0107 L13.5,17.0107 C13.776,17.0107 14,16.7867 14,16.5107 L14,1.5107 C14,1.2347 13.776,1.0107 13.5,1.0107 L13.5,1.0107 Z" id="Fill-7"></path>
                </g>
            </g>
        </g>
    </g>
</svg>