<?xml version="1.0" encoding="UTF-8" standalone="no"?>
<svg width="24px" height="24px" viewBox="0 0 24 24" version="1.1" xmlns="http://www.w3.org/2000/svg" xmlns:xlink="http://www.w3.org/1999/xlink">
    <!-- Generator: Sketch 39.1 (31720) - http://www.bohemiancoding.com/sketch -->
    <title>notification</title>
    <desc>Created with Sketch.</desc>
    <defs></defs>
    <g id="Page-1" stroke="none" stroke-width="1" fill="none" fill-rule="evenodd">
        <g id="notification" fill="#221F20">
            <g id="Page-1" transform="translate(4.000000, 3.000000)">
                <path d="M11.498,14.0313 C11.498,14.0263 11.5,14.0213 11.5,14.0153 L10.5,14.0153 C10.5,14.0213 10.498,14.0263 10.498,14.0313 L5.502,14.0313 C5.502,14.0263 5.5,14.0213 5.5,14.0153 L4.5,14.0153 C4.5,14.0213 4.502,14.0263 4.502,14.0313 L1.298,14.0313 L2.945,10.6093 C2.978,10.5413 2.995,10.4683 2.995,10.3923 L3.003,6.0093 C3.003,3.2523 5.246,1.0093 8.003,1.0093 C10.76,1.0093 13.003,3.2523 13.003,6.0093 L13.003,10.3923 C13.003,10.4683 13.019,10.5423 13.053,10.6093 L14.708,14.0313 L11.498,14.0313 Z M8,16.5153 C6.983,16.5153 6.11,15.9043 5.721,15.0313 L10.279,15.0313 C9.89,15.9043 9.017,16.5153 8,16.5153 L8,16.5153 Z M15.901,14.2013 L14.003,10.2773 L14.003,6.0093 C14.003,2.7003 11.311,0.0093 8.003,0.0093 C4.694,0.0093 2.003,2.7003 2.003,6.0083 L1.995,10.2773 L0.052,14.3143 C-0.023,14.4683 -0.013,14.6513 0.078,14.7973 C0.17,14.9423 0.33,15.0313 0.502,15.0313 L4.668,15.0313 C5.106,16.4643 6.426,17.5153 8,17.5153 C9.574,17.5153 10.894,16.4643 11.332,15.0313 L15.506,15.0313 L15.525,15.0313 C15.802,15.0313 16.025,14.8063 16.025,14.5313 C16.025,14.4043 15.979,14.2893 15.901,14.2013 L15.901,14.2013 Z" id="Fill-1"></path>
            </g>
        </g>
    </g>
</svg>