<?xml version="1.0" encoding="UTF-8" standalone="no"?>
<svg width="24px" height="24px" viewBox="0 0 24 24" version="1.1" xmlns="http://www.w3.org/2000/svg" xmlns:xlink="http://www.w3.org/1999/xlink">
    <!-- Generator: Sketch 39.1 (31720) - http://www.bohemiancoding.com/sketch -->
    <title>phone</title>
    <desc>Created with Sketch.</desc>
    <defs></defs>
    <g id="Page-1" stroke="none" stroke-width="1" fill="none" fill-rule="evenodd">
        <g id="phone" fill="#221F20">
            <g id="Page-1" transform="translate(3.000000, 3.000000)">
                <path d="M3.3779,1.9209 C3.4859,1.8139 3.8809,1.4839 4.2879,1.8709 C4.7089,2.2719 5.1259,2.6769 5.5369,3.0879 C5.9639,3.5159 6.3849,3.9479 6.7999,4.3869 C7.1679,4.7719 6.9309,5.1219 6.7559,5.2969 L5.9219,6.1319 L5.3529,6.6999 C5.0029,7.0499 4.9559,7.5999 5.2399,8.0039 C5.8979,8.9359 6.6269,9.8049 7.4109,10.5889 C8.1949,11.3729 9.0639,12.1019 9.9959,12.7599 C10.3989,13.0439 10.9499,12.9959 11.2989,12.6469 L11.8679,12.0779 L12.7019,11.2429 C12.8779,11.0679 13.2279,10.8319 13.6129,11.1989 C14.0519,11.6149 14.4849,12.0349 14.9119,12.4629 C15.3229,12.8729 15.7279,13.2909 16.1279,13.7109 C16.5149,14.1189 16.1859,14.5139 16.0789,14.6209 C15.9909,14.7089 15.9019,14.7949 15.8129,14.8809 C15.5919,15.0969 15.3709,15.3119 15.1699,15.5369 C14.5839,16.1899 13.8239,16.4159 12.7059,16.2709 C11.1229,16.0649 9.6249,15.3869 7.8509,14.0689 C7.0839,13.4999 6.3769,12.8909 5.7389,12.2619 C5.1079,11.6229 4.4999,10.9159 3.9299,10.1489 C2.6129,8.3749 1.9349,6.8769 1.7289,5.2929 C1.5839,4.1759 1.8099,3.4159 2.4619,2.8299 C2.6879,2.6289 2.9029,2.4079 3.1179,2.1869 C3.2039,2.0979 3.2909,2.0079 3.3779,1.9209 M1.7829,2.0739 C0.7689,2.9859 0.5569,4.1549 0.7209,5.4239 C0.9819,7.4379 1.9289,9.1579 3.1139,10.7559 C3.7039,11.5489 4.3389,12.2909 5.0209,12.9799 C5.7089,13.6599 6.4499,14.2959 7.2439,14.8859 C8.8419,16.0699 10.5619,17.0179 12.5749,17.2779 C13.8439,17.4429 15.0129,17.2309 15.9259,16.2169 C16.1989,15.9099 16.5049,15.6319 16.7969,15.3399 C17.4669,14.6639 17.5189,13.6989 16.8649,13.0119 C16.4589,12.5839 16.0469,12.1609 15.6299,11.7439 C15.1959,11.3109 14.7569,10.8829 14.3119,10.4619 C13.6159,9.7989 12.6659,9.8459 11.9849,10.5229 C11.5199,10.9859 11.0559,11.4539 10.5809,11.9289 C9.6949,11.3039 8.8779,10.6189 8.1289,9.8709 C7.3809,9.1209 6.6959,8.3049 6.0709,7.4179 C6.5449,6.9429 7.0129,6.4799 7.4769,6.0139 C8.1539,5.3339 8.2009,4.3829 7.5379,3.6889 C7.1159,3.2419 6.6889,2.8029 6.2549,2.3689 C5.8379,1.9529 5.4149,1.5409 4.9879,1.1349 C4.2999,0.4809 3.3359,0.5329 2.6599,1.2029 C2.3679,1.4939 2.0889,1.8009 1.7829,2.0739" id="Fill-1"></path>
            </g>
        </g>
    </g>
</svg>