<?xml version="1.0" encoding="UTF-8" standalone="no"?>
<svg width="24px" height="24px" viewBox="0 0 24 24" version="1.1" xmlns="http://www.w3.org/2000/svg" xmlns:xlink="http://www.w3.org/1999/xlink">
    <!-- Generator: Sketch 39.1 (31720) - http://www.bohemiancoding.com/sketch -->
    <title>phone-office</title>
    <desc>Created with Sketch.</desc>
    <defs></defs>
    <g id="Page-1" stroke="none" stroke-width="1" fill="none" fill-rule="evenodd">
        <g id="phone-office" fill="#221F20">
            <g id="Page-1" transform="translate(3.000000, 4.000000)">
                <g id="Group-22">
                    <path d="M10.5,9 C10.224,9 10,9.224 10,9.5 C10,9.776 10.224,10 10.5,10 C10.776,10 11,9.776 11,9.5 C11,9.224 10.776,9 10.5,9 L10.5,9 Z" id="Fill-1"></path>
                    <path d="M12.5,9 C12.224,9 12,9.224 12,9.5 C12,9.776 12.224,10 12.5,10 C12.776,10 13,9.776 13,9.5 C13,9.224 12.776,9 12.5,9" id="Fill-3"></path>
                    <path d="M14.5,9 C14.224,9 14,9.224 14,9.5 C14,9.776 14.224,10 14.5,10 C14.776,10 15,9.776 15,9.5 C15,9.224 14.776,9 14.5,9" id="Fill-5"></path>
                    <path d="M10.5,11.0127 C10.224,11.0127 10,11.2367 10,11.5127 C10,11.7887 10.224,12.0127 10.5,12.0127 C10.776,12.0127 11,11.7887 11,11.5127 C11,11.2367 10.776,11.0127 10.5,11.0127" id="Fill-7"></path>
                    <path d="M12.5,11.0127 C12.224,11.0127 12,11.2367 12,11.5127 C12,11.7887 12.224,12.0127 12.5,12.0127 C12.776,12.0127 13,11.7887 13,11.5127 C13,11.2367 12.776,11.0127 12.5,11.0127" id="Fill-9"></path>
                    <path d="M14.5,11.0127 C14.224,11.0127 14,11.2367 14,11.5127 C14,11.7887 14.224,12.0127 14.5,12.0127 C14.776,12.0127 15,11.7887 15,11.5127 C15,11.2367 14.776,11.0127 14.5,11.0127" id="Fill-11"></path>
                    <path d="M10.5,13.0254 C10.224,13.0254 10,13.2494 10,13.5254 C10,13.8014 10.224,14.0254 10.5,14.0254 C10.776,14.0254 11,13.8014 11,13.5254 C11,13.2494 10.776,13.0254 10.5,13.0254" id="Fill-13"></path>
                    <path d="M12.5,13.0254 C12.224,13.0254 12,13.2494 12,13.5254 C12,13.8014 12.224,14.0254 12.5,14.0254 C12.776,14.0254 13,13.8014 13,13.5254 C13,13.2494 12.776,13.0254 12.5,13.0254" id="Fill-15"></path>
                    <path d="M14.5,13.0254 C14.224,13.0254 14,13.2494 14,13.5254 C14,13.8014 14.224,14.0254 14.5,14.0254 C14.776,14.0254 15,13.8014 15,13.5254 C15,13.2494 14.776,13.0254 14.5,13.0254" id="Fill-17"></path>
                    <path d="M10,7.008 L15,7.008 L15,5.008 L10,5.008 L10,7.008 Z M9.5,8.008 L15.5,8.008 C15.776,8.008 16,7.784 16,7.508 L16,4.508 C16,4.231 15.776,4.008 15.5,4.008 L9.5,4.008 C9.224,4.008 9,4.231 9,4.508 L9,7.508 C9,7.784 9.224,8.008 9.5,8.008 L9.5,8.008 Z" id="Fill-19"></path>
                    <path d="M17,15 L1,15 L1,3 L1.996,3 L1.996,11.508 C1.996,11.784 2.22,12.008 2.496,12.008 L7.496,12.008 C7.772,12.008 7.996,11.784 7.996,11.508 L7.996,3 L17,3 L17,15 Z M2.996,11.008 L6.996,11.008 L6.996,1.008 L2.996,1.008 L2.996,11.008 Z M17.5,2 L7.996,2 L7.996,0.508 C7.996,0.231 7.772,0.008 7.496,0.008 L2.496,0.008 C2.22,0.008 1.996,0.231 1.996,0.508 L1.996,2 L0.5,2 C0.224,2 0,2.225 0,2.5 L0,15.5 C0,15.776 0.224,16 0.5,16 L17.5,16 C17.776,16 18,15.776 18,15.5 L18,2.5 C18,2.225 17.776,2 17.5,2 L17.5,2 Z" id="Fill-21"></path>
                </g>
            </g>
        </g>
    </g>
</svg>