<?xml version="1.0" encoding="UTF-8" standalone="no"?>
<svg width="24px" height="24px" viewBox="0 0 24 24" version="1.1" xmlns="http://www.w3.org/2000/svg" xmlns:xlink="http://www.w3.org/1999/xlink">
    <!-- Generator: Sketch 39.1 (31720) - http://www.bohemiancoding.com/sketch -->
    <title>phone-home</title>
    <desc>Created with Sketch.</desc>
    <defs></defs>
    <g id="Page-1" stroke="none" stroke-width="1" fill="none" fill-rule="evenodd">
        <g id="phone-home" fill="#221F20">
            <g id="Page-1" transform="translate(3.000000, 4.000000)">
                <g id="Group-21">
                    <path d="M17.0117,5.4688 C16.9957,5.7248 16.9987,5.9828 17.0027,6.2408 C17.0047,6.3478 17.0057,6.4548 17.0057,6.5608 C17.0037,6.9188 16.7157,6.9798 16.5457,6.9838 C16.0227,6.9948 15.4977,7.0018 14.9757,7.0018 C14.4327,7.0018 13.8907,6.9948 13.3417,6.9808 C12.8797,6.9708 12.8787,6.6658 12.8787,6.5688 C12.8787,6.0208 12.8787,5.4698 12.8807,4.9098 C12.8827,4.4168 12.5257,3.9968 12.0387,3.9188 C11.0267,3.7568 10.0077,3.6738 9.0087,3.6728 C8.0097,3.6738 6.9907,3.7568 5.9807,3.9188 C5.4937,3.9968 5.1377,4.4608 5.1387,4.9528 L5.1407,6.5668 C5.1407,6.6658 5.1397,6.9708 4.6707,6.9808 C4.1277,6.9958 3.5857,7.0018 3.0427,7.0018 C2.5217,7.0018 1.9957,6.9948 1.4757,6.9838 C1.3027,6.9798 1.0147,6.9188 1.0127,6.5668 L1.0157,6.2598 C1.0207,5.9948 1.0237,5.7318 1.0067,5.4758 C0.9827,5.0298 1.0777,4.4278 2.0467,3.7348 C3.1757,2.9258 4.5547,2.4458 6.5167,2.1738 C7.3567,2.0588 8.1947,1.9988 9.0097,1.9958 C9.8227,1.9988 10.6617,2.0588 11.5017,2.1728 C13.4637,2.4458 14.8427,2.9268 15.9727,3.7338 C16.9357,4.4238 17.0377,5.0008 17.0117,5.4688 M12.9997,14.0118 L4.9997,14.0118 C4.4487,14.0118 3.9997,13.5628 3.9997,13.0118 L3.9997,7.9898 C4.2327,7.9868 4.4657,7.9878 4.6987,7.9808 C5.5647,7.9608 6.1387,7.3718 6.1407,6.5688 C6.1407,6.0198 6.1397,5.4678 6.1387,4.9068 C7.0997,4.7518 8.0567,4.6738 9.0097,4.6728 C9.9627,4.6738 10.9177,4.7518 11.8807,4.9068 C11.8787,5.4678 11.8787,6.0198 11.8787,6.5688 C11.8807,7.3718 12.4557,7.9618 13.3207,7.9808 C13.5477,7.9868 13.7737,7.9868 13.9997,7.9898 L13.9997,13.0118 C13.9997,13.5628 13.5517,14.0118 12.9997,14.0118 M18.0097,5.5308 C18.0737,4.3908 17.4667,3.5738 16.5547,2.9208 C15.1057,1.8848 13.4087,1.4278 11.6387,1.1828 C10.7577,1.0628 9.8807,0.9988 9.0097,0.9958 C8.1387,0.9988 7.2617,1.0628 6.3807,1.1838 C4.6117,1.4278 2.9127,1.8848 1.4647,2.9208 C0.5527,3.5738 -0.0543,4.3918 0.0087,5.5308 C0.0307,5.8748 0.0127,6.2198 0.0127,6.5668 C0.0167,7.3618 0.5977,7.9628 1.4507,7.9838 C1.9677,7.9948 2.4847,8.0008 2.9997,8.0018 L2.9997,13.0118 C2.9997,14.1158 3.8957,15.0118 4.9997,15.0118 L12.9997,15.0118 C14.1047,15.0118 14.9997,14.1158 14.9997,13.0118 L14.9997,8.0018 C15.5217,8.0008 16.0457,7.9948 16.5687,7.9838 C17.4217,7.9628 18.0017,7.3618 18.0057,6.5658 C18.0067,6.2198 17.9887,5.8738 18.0097,5.5308" id="Fill-1"></path>
                    <path d="M7,7 C6.724,7 6.5,7.224 6.5,7.5 C6.5,7.776 6.724,8 7,8 C7.276,8 7.5,7.776 7.5,7.5 C7.5,7.224 7.276,7 7,7" id="Fill-3"></path>
                    <path d="M9,7 C8.724,7 8.5,7.224 8.5,7.5 C8.5,7.776 8.724,8 9,8 C9.276,8 9.5,7.776 9.5,7.5 C9.5,7.224 9.276,7 9,7" id="Fill-5"></path>
                    <path d="M11,7 C10.724,7 10.5,7.224 10.5,7.5 C10.5,7.776 10.724,8 11,8 C11.276,8 11.5,7.776 11.5,7.5 C11.5,7.224 11.276,7 11,7" id="Fill-7"></path>
                    <path d="M7,9.0127 C6.724,9.0127 6.5,9.2367 6.5,9.5127 C6.5,9.7887 6.724,10.0127 7,10.0127 C7.276,10.0127 7.5,9.7887 7.5,9.5127 C7.5,9.2367 7.276,9.0127 7,9.0127" id="Fill-9"></path>
                    <path d="M9,9.0127 C8.724,9.0127 8.5,9.2367 8.5,9.5127 C8.5,9.7887 8.724,10.0127 9,10.0127 C9.276,10.0127 9.5,9.7887 9.5,9.5127 C9.5,9.2367 9.276,9.0127 9,9.0127" id="Fill-11"></path>
                    <path d="M11,9.0127 C10.724,9.0127 10.5,9.2367 10.5,9.5127 C10.5,9.7887 10.724,10.0127 11,10.0127 C11.276,10.0127 11.5,9.7887 11.5,9.5127 C11.5,9.2367 11.276,9.0127 11,9.0127" id="Fill-13"></path>
                    <path d="M7,11.0254 C6.724,11.0254 6.5,11.2494 6.5,11.5254 C6.5,11.8014 6.724,12.0254 7,12.0254 C7.276,12.0254 7.5,11.8014 7.5,11.5254 C7.5,11.2494 7.276,11.0254 7,11.0254" id="Fill-15"></path>
                    <path d="M9,11.0254 C8.724,11.0254 8.5,11.2494 8.5,11.5254 C8.5,11.8014 8.724,12.0254 9,12.0254 C9.276,12.0254 9.5,11.8014 9.5,11.5254 C9.5,11.2494 9.276,11.0254 9,11.0254" id="Fill-17"></path>
                    <path d="M11,11.0254 C10.724,11.0254 10.5,11.2494 10.5,11.5254 C10.5,11.8014 10.724,12.0254 11,12.0254 C11.276,12.0254 11.5,11.8014 11.5,11.5254 C11.5,11.2494 11.276,11.0254 11,11.0254" id="Fill-19"></path>
                </g>
            </g>
        </g>
    </g>
</svg>