<?xml version="1.0" encoding="UTF-8" standalone="no"?>
<svg width="24px" height="24px" viewBox="0 0 24 24" version="1.1" xmlns="http://www.w3.org/2000/svg" xmlns:xlink="http://www.w3.org/1999/xlink">
    <!-- Generator: Sketch 39.1 (31720) - http://www.bohemiancoding.com/sketch -->
    <title>place</title>
    <desc>Created with Sketch.</desc>
    <defs></defs>
    <g id="Page-1" stroke="none" stroke-width="1" fill="none" fill-rule="evenodd">
        <g id="place" fill="#221F20">
            <g id="Page-1" transform="translate(5.000000, 3.000000)">
                <g id="Group-5">
                    <path d="M7,0.0005 C3.297,0.0005 0.285,2.8965 0.285,6.4565 C0.285,7.6335 0.618,8.7875 1.257,9.8035 L6.621,17.7545 C6.707,17.8825 6.852,17.9585 7.006,17.9585 C7.159,17.9585 7.305,17.8825 7.391,17.7545 L12.76,9.7775 C13.385,8.7805 13.715,7.6305 13.715,6.4565 C13.715,2.8965 10.703,0.0005 7,0.0005 M7,1.0005 C10.151,1.0005 12.715,3.4475 12.715,6.4565 C12.715,7.4435 12.437,8.4095 11.931,9.2195 L7.005,16.5365 L2.104,9.2715 C1.568,8.4195 1.285,7.4455 1.285,6.4565 C1.285,3.4475 3.849,1.0005 7,1.0005" id="Fill-1"></path>
                    <path d="M7,3.0078 C5.346,3.0078 4,4.3538 4,6.0078 C4,7.6618 5.346,9.0078 7,9.0078 C8.654,9.0078 10,7.6618 10,6.0078 C10,4.3538 8.654,3.0078 7,3.0078 M7,4.0078 C8.104,4.0078 9,4.9038 9,6.0078 C9,7.1118 8.104,8.0078 7,8.0078 C5.896,8.0078 5,7.1118 5,6.0078 C5,4.9038 5.896,4.0078 7,4.0078" id="Fill-3"></path>
                </g>
            </g>
        </g>
    </g>
</svg>