<?xml version="1.0" encoding="UTF-8" standalone="no"?>
<svg width="24px" height="24px" viewBox="0 0 24 24" version="1.1" xmlns="http://www.w3.org/2000/svg" xmlns:xlink="http://www.w3.org/1999/xlink">
    <!-- Generator: Sketch 40.3 (33839) - http://www.bohemiancoding.com/sketch -->
    <title>play</title>
    <desc>Created with Sketch.</desc>
    <defs></defs>
    <g id="icons" stroke="none" stroke-width="1" fill="none" fill-rule="evenodd">
        <g id="play">
            <g>
                <polygon id="bounds" points="0 24 24 24 24 0 0 0"></polygon>
                <path d="M12,20 C7.589,20 4,16.411 4,12 C4,7.589 7.589,4 12,4 C16.411,4 20,7.589 20,12 C20,16.411 16.411,20 12,20 M12,3 C7.029,3 3,7.029 3,12 C3,16.971 7.029,21 12,21 C16.971,21 21,16.971 21,12 C21,7.029 16.971,3 12,3" id="Fill-1" fill="#221F20"></path>
                <path d="M10,15.4639 L10,8.5359 L16,11.9999 L10,15.4639 Z M16.5,11.1339 L10.5,7.6699 C10.346,7.5809 10.173,7.5359 10,7.5359 C9.827,7.5359 9.654,7.5809 9.5,7.6699 C9.19,7.8489 9,8.1789 9,8.5359 L9,15.4639 C9,15.8209 9.19,16.1509 9.5,16.3299 C9.654,16.4189 9.827,16.4639 10,16.4639 C10.173,16.4639 10.346,16.4189 10.5,16.3299 L16.5,12.8659 C16.81,12.6879 17,12.3579 17,11.9999 C17,11.6429 16.81,11.3129 16.5,11.1339 L16.5,11.1339 Z" id="Fill-3" fill="#221F20"></path>
            </g>
        </g>
    </g>
</svg>