<?xml version="1.0" encoding="UTF-8" standalone="no"?>
<svg width="88px" height="88px" viewBox="0 0 88 88" version="1.1" xmlns="http://www.w3.org/2000/svg" xmlns:xlink="http://www.w3.org/1999/xlink">
    <!-- Generator: Sketch 40.3 (33839) - http://www.bohemiancoding.com/sketch -->
    <title>play 88x88</title>
    <desc>Created with Sketch.</desc>
    <defs></defs>
    <g id="icons" stroke="none" stroke-width="1" fill="none" fill-rule="evenodd">
        <g id="play-88x88">
            <g id="play">
                <polygon id="bounds" points="0 88 88 88 88 0 0 0"></polygon>
                <path d="M44,73.3333333 C27.8263333,73.3333333 14.6666667,60.1736667 14.6666667,44 C14.6666667,27.8263333 27.8263333,14.6666667 44,14.6666667 C60.1736667,14.6666667 73.3333333,27.8263333 73.3333333,44 C73.3333333,60.1736667 60.1736667,73.3333333 44,73.3333333 M44,11 C25.773,11 11,25.773 11,44 C11,62.227 25.773,77 44,77 C62.227,77 77,62.227 77,44 C77,25.773 62.227,11 44,11" id="Fill-1" fill="#FFFFFF"></path>
                <path d="M36.6666667,56.7009667 L36.6666667,31.2983 L58.6666667,43.9996333 L36.6666667,56.7009667 Z M60.5,40.8243 L38.5,28.1229667 C37.9353333,27.7966333 37.301,27.6316333 36.6666667,27.6316333 C36.0323333,27.6316333 35.398,27.7966333 34.8333333,28.1229667 C33.6966667,28.7793 33,29.9893 33,31.2983 L33,56.7009667 C33,58.0099667 33.6966667,59.2199667 34.8333333,59.8763 C35.398,60.2026333 36.0323333,60.3676333 36.6666667,60.3676333 C37.301,60.3676333 37.9353333,60.2026333 38.5,59.8763 L60.5,47.1749667 C61.6366667,46.5223 62.3333333,45.3123 62.3333333,43.9996333 C62.3333333,42.6906333 61.6366667,41.4806333 60.5,40.8243 L60.5,40.8243 Z" id="Fill-3" fill="#FFFFFF"></path>
            </g>
        </g>
    </g>
</svg>