<?xml version="1.0" encoding="UTF-8" standalone="no"?>
<svg width="24px" height="24px" viewBox="0 0 24 24" version="1.1" xmlns="http://www.w3.org/2000/svg" xmlns:xlink="http://www.w3.org/1999/xlink">
    <!-- Generator: Sketch 40.1 (33804) - http://www.bohemiancoding.com/sketch -->
    <title>positive</title>
    <desc>Created with Sketch.</desc>
    <defs></defs>
    <g id="icons" stroke="none" stroke-width="1" fill="none" fill-rule="evenodd">
        <g id="positive">
            <g>
                <polygon id="bounds" points="0 24 24 24 24 0 0 0"></polygon>
                <path d="M12,3 C7.029,3 3,7.029 3,12 C3,16.971 7.029,21 12,21 C16.971,21 21,16.971 21,12 C21,7.029 16.971,3 12,3 M12,4 C16.411,4 20,7.589 20,12 C20,16.411 16.411,20 12,20 C7.589,20 4,16.411 4,12 C4,7.589 7.589,4 12,4" id="Fill-1" fill="#221F20"></path>
                <path d="M16.5,11.5 L12.5,11.5 L12.5,7.5 C12.5,7.224 12.276,7 12,7 C11.724,7 11.5,7.224 11.5,7.5 L11.5,11.5 L7.5,11.5 C7.224,11.5 7,11.724 7,12 C7,12.276 7.224,12.5 7.5,12.5 L11.5,12.5 L11.5,16.5 C11.5,16.776 11.724,17 12,17 C12.276,17 12.5,16.776 12.5,16.5 L12.5,12.5 L16.5,12.5 C16.776,12.5 17,12.276 17,12 C17,11.724 16.776,11.5 16.5,11.5" id="Fill-3" fill="#221F20"></path>
            </g>
        </g>
    </g>
</svg>