<?xml version="1.0" encoding="UTF-8" standalone="no"?>
<svg width="24px" height="24px" viewBox="0 0 24 24" version="1.1" xmlns="http://www.w3.org/2000/svg" xmlns:xlink="http://www.w3.org/1999/xlink">
    <!-- Generator: Sketch 39.1 (31720) - http://www.bohemiancoding.com/sketch -->
    <title>print</title>
    <desc>Created with Sketch.</desc>
    <defs></defs>
    <g id="Page-1" stroke="none" stroke-width="1" fill="none" fill-rule="evenodd">
        <g id="print" fill="#221F20">
            <g id="Page-1" transform="translate(2.000000, 4.000000)">
                <g id="Group-5">
                    <path d="M15.0039,12 L15.4999,12 C15.7759,12 15.9999,11.776 15.9999,11.5 C15.9999,11.224 15.7759,11 15.4999,11 L4.4999,11 C4.2239,11 3.9999,11.224 3.9999,11.5 C3.9999,11.776 4.2239,12 4.4999,12 L4.9999,12 L4.9999,13 L1.9999,13 L1.9999,5.007 L18.0079,5.007 L18.0079,13 L15.0039,13 L15.0039,12 Z M5.9999,15.018 L14.0039,15.018 L14.0039,12 L5.9999,12 L5.9999,15.018 Z M5.9999,4.007 L14.0039,4.007 L14.0039,1.003 L5.9999,1.003 L5.9999,4.007 Z M18.7019,4.051 C18.6399,4.023 18.5719,4.007 18.4999,4.007 L15.0039,4.007 L15.0039,0.503 C15.0039,0.227 14.7799,0.003 14.5039,0.003 L14.5019,0.003 L14.4999,0.003 L5.4999,0.003 C5.2239,0.003 4.9999,0.227 4.9999,0.503 L4.9999,4.007 L1.4999,4.007 C1.2239,4.007 0.9999,4.23 0.9999,4.507 L0.9999,4.509 L0.9999,4.512 L0.9999,13.457 C0.9989,13.472 0.9909,13.484 0.9909,13.5 C0.9909,13.639 1.0479,13.764 1.1399,13.854 C1.2309,13.951 1.3579,14.012 1.4999,14.012 C1.5209,14.012 1.5379,14.002 1.5589,14 L4.9999,14 L4.9999,15.5 C4.9999,15.503 5.0019,15.506 5.0019,15.509 C5.0019,15.512 4.9999,15.515 4.9999,15.518 C4.9999,15.794 5.2239,16.018 5.4999,16.018 L14.4999,16.018 C14.7129,16.018 14.8929,15.883 14.9639,15.695 C14.9889,15.635 15.0039,15.569 15.0039,15.5 L15.0039,14 L18.4489,14 C18.4699,14.002 18.4869,14.012 18.5079,14.012 C18.7839,14.012 19.0079,13.788 19.0079,13.512 L19.0079,4.512 C19.0079,4.304 18.8819,4.126 18.7019,4.051 L18.7019,4.051 Z" id="Fill-1"></path>
                    <path d="M16.5,6.0088 L15.5,6.0088 C15.224,6.0088 15,6.2328 15,6.5088 C15,6.7848 15.224,7.0088 15.5,7.0088 L16.5,7.0088 C16.776,7.0088 17,6.7848 17,6.5088 C17,6.2328 16.776,6.0088 16.5,6.0088" id="Fill-3"></path>
                </g>
            </g>
        </g>
    </g>
</svg>