<?xml version="1.0" encoding="UTF-8" standalone="no"?>
<svg width="24px" height="24px" viewBox="0 0 24 24" version="1.1" xmlns="http://www.w3.org/2000/svg" xmlns:xlink="http://www.w3.org/1999/xlink">
    <!-- Generator: Sketch 39.1 (31720) - http://www.bohemiancoding.com/sketch -->
    <title>profile</title>
    <desc>Created with Sketch.</desc>
    <defs></defs>
    <g id="Page-1" stroke="none" stroke-width="1" fill="none" fill-rule="evenodd">
        <g id="profile" fill="#221F20">
            <g id="Page-1" transform="translate(4.000000, 3.000000)">
                <path d="M1,17.0205 C1,13.9945 2.924,11.4245 5.612,10.4475 C6.335,10.7975 7.144,10.9995 8,10.9995 C8.856,10.9995 9.664,10.7975 10.388,10.4475 C13.076,11.4245 15,13.9945 15,17.0205 L1,17.0205 Z M3.5,5.4995 C3.5,5.3225 3.532,5.1545 3.552,4.9835 C3.583,4.9895 3.612,5.0015 3.646,5.0015 L5.548,5.0015 C5.78,6.1455 6.789,7.0045 8,7.0045 C9.211,7.0045 10.22,6.1455 10.452,5.0015 L12.271,5.0015 C12.333,5.0015 12.391,4.9875 12.446,4.9665 C12.467,5.1435 12.5,5.3175 12.5,5.4995 C12.5,7.6705 10.962,9.4815 8.917,9.9055 L8.896,9.9095 C8.606,9.9685 8.307,9.9995 8,9.9995 C7.693,9.9995 7.394,9.9685 7.104,9.9095 L7.083,9.9055 C5.038,9.4815 3.5,7.6705 3.5,5.4995 L3.5,5.4995 Z M9.502,4.5015 C9.502,5.3315 8.828,6.0045 8,6.0045 C7.172,6.0045 6.498,5.3315 6.498,4.5015 C6.498,3.6735 7.172,2.9995 8,2.9995 C8.828,2.9995 9.502,3.6735 9.502,4.5015 L9.502,4.5015 Z M8,0.9995 C9.957,0.9995 11.606,2.2575 12.225,4.0015 L10.452,4.0015 C10.22,2.8605 9.21,1.9995 8,1.9995 C6.79,1.9995 5.78,2.8605 5.548,4.0015 L3.775,4.0015 C4.394,2.2575 6.043,0.9995 8,0.9995 L8,0.9995 Z M11.419,9.8005 C12.685,8.7915 13.5,7.2405 13.5,5.4995 C13.5,2.4665 11.033,-0.0005 8,-0.0005 C4.967,-0.0005 2.5,2.4665 2.5,5.4995 C2.5,7.2405 3.315,8.7915 4.581,9.8005 C1.878,11.0855 0,13.8335 0,17.0205 C0,17.5725 0.447,18.0205 1,18.0205 L15,18.0205 C15.553,18.0205 16,17.5725 16,17.0205 C16,13.8335 14.122,11.0855 11.419,9.8005 L11.419,9.8005 Z" id="Fill-1"></path>
            </g>
        </g>
    </g>
</svg>