<?xml version="1.0" encoding="UTF-8" standalone="no"?>
<svg width="24px" height="24px" viewBox="0 0 24 24" version="1.1" xmlns="http://www.w3.org/2000/svg" xmlns:xlink="http://www.w3.org/1999/xlink">
    <!-- Generator: Sketch 39.1 (31720) - http://www.bohemiancoding.com/sketch -->
    <title>records</title>
    <desc>Created with Sketch.</desc>
    <defs></defs>
    <g id="Page-1" stroke="none" stroke-width="1" fill="none" fill-rule="evenodd">
        <g id="records" fill="#221F20">
            <g id="Page-1" transform="translate(3.000000, 3.000000)">
                <g id="Group-5">
                    <path d="M2.5,4.0049 L11.5,4.0049 C11.776,4.0049 12,3.7809 12,3.5049 C12,3.2289 11.776,3.0049 11.5,3.0049 L2.5,3.0049 C2.224,3.0049 2,3.2289 2,3.5049 C2,3.7809 2.224,4.0049 2.5,4.0049" id="Fill-1"></path>
                    <path d="M7.0029,17.0137 C7.0029,14.2517 9.2409,12.0137 12.0029,12.0137 C14.7649,12.0137 17.0029,14.2517 17.0029,17.0137 L7.0029,17.0137 Z M8.0899,12.4747 C8.0859,12.4777 8.0829,12.4817 8.0789,12.4847 C8.0829,12.4817 8.0859,12.4777 8.0899,12.4747 L8.0899,12.4747 Z M6.3549,15.0077 L1.0019,15.0077 L1.0019,1.0077 L13.0019,1.0077 L13.0019,4.1517 C12.6809,4.0677 12.3499,4.0097 12.0029,4.0097 C10.4489,4.0097 9.1149,4.9097 8.4529,6.2057 C8.4859,6.1397 8.5139,6.0717 8.5509,6.0077 L2.4999,6.0077 C2.2239,6.0077 1.9999,6.2317 1.9999,6.5077 C1.9999,6.7847 2.2239,7.0077 2.4999,7.0077 L8.1389,7.0077 C8.1649,6.9087 8.2029,6.8147 8.2359,6.7177 C8.0949,7.1257 8.0029,7.5557 8.0029,8.0097 C8.0029,8.3967 8.0759,8.7637 8.1789,9.1187 C8.1679,9.0817 8.1519,9.0477 8.1429,9.0107 L2.4999,9.0107 C2.2239,9.0107 1.9999,9.2347 1.9999,9.5107 C1.9999,9.7867 2.2239,10.0107 2.4999,10.0107 L8.5569,10.0107 C8.5439,9.9877 8.5339,9.9627 8.5219,9.9397 C8.8539,10.5367 9.3249,11.0397 9.9039,11.3997 C9.4759,11.5607 9.0689,11.7637 8.6929,12.0137 L2.4999,12.0137 C2.2239,12.0137 1.9999,12.2377 1.9999,12.5137 C1.9999,12.7897 2.2239,13.0137 2.4999,13.0137 L7.5429,13.0137 C7.5439,13.0127 7.5459,13.0117 7.5469,13.0097 C7.0279,13.5867 6.6209,14.2627 6.3549,15.0077 L6.3549,15.0077 Z M15.0029,8.0097 C15.0029,9.6657 13.6599,11.0097 12.0029,11.0097 C10.3459,11.0097 9.0029,9.6657 9.0029,8.0097 C9.0029,6.3537 10.3459,5.0097 12.0029,5.0097 C13.6599,5.0097 15.0029,6.3537 15.0029,8.0097 L15.0029,8.0097 Z M14.1019,11.3997 C15.2379,10.6937 16.0029,9.4437 16.0029,8.0097 C16.0029,6.5357 15.1919,5.2597 14.0019,4.5657 L14.0019,0.5077 C14.0019,0.2317 13.7779,0.0077 13.5019,0.0077 L0.5019,0.0077 C0.2259,0.0077 0.0019,0.2317 0.0019,0.5077 L0.0019,15.5077 C0.0019,15.7847 0.2259,16.0077 0.5019,16.0077 L6.0939,16.0077 C6.0389,16.3357 6.0029,16.6707 6.0029,17.0137 C6.0029,17.5667 6.4499,18.0137 7.0029,18.0137 L17.0029,18.0137 C17.5559,18.0137 18.0029,17.5667 18.0029,17.0137 C18.0029,14.4447 16.3769,12.2537 14.1019,11.3997 L14.1019,11.3997 Z" id="Fill-3"></path>
                </g>
            </g>
        </g>
    </g>
</svg>