<?xml version="1.0" encoding="UTF-8" standalone="no"?>
<svg width="24px" height="24px" viewBox="0 0 24 24" version="1.1" xmlns="http://www.w3.org/2000/svg" xmlns:xlink="http://www.w3.org/1999/xlink">
    <!-- Generator: Sketch 39.1 (31720) - http://www.bohemiancoding.com/sketch -->
    <title>refresh-no</title>
    <desc>Created with Sketch.</desc>
    <defs></defs>
    <g id="Page-1" stroke="none" stroke-width="1" fill="none" fill-rule="evenodd">
        <g id="refresh-no" fill="#221F20">
            <g id="Page-1" transform="translate(3.000000, 5.000000)">
                <path d="M17.6211,6.0215 C17.4261,5.8265 17.1091,5.8265 16.9141,6.0215 L15.9971,6.9385 C15.9821,5.2125 15.3371,3.6375 14.2841,2.4225 L15.3631,1.3435 C15.5581,1.1485 15.5581,0.8325 15.3631,0.6365 C15.1671,0.4415 14.8501,0.4415 14.6551,0.6365 L13.5761,1.7155 C12.3481,0.6505 10.7501,0.0005 9.0001,0.0005 C7.1301,0.0005 5.3721,0.7285 4.0511,2.0505 C3.8551,2.2465 3.8551,2.5625 4.0511,2.7575 C4.2461,2.9535 4.5621,2.9535 4.7581,2.7575 C5.8911,1.6245 7.3961,1.0005 9.0001,1.0005 C10.4751,1.0005 11.8241,1.5365 12.8701,2.4215 L4.4001,10.8915 C3.5291,9.8615 2.9981,8.5375 2.9821,7.0895 L3.8921,8.0005 C4.0891,8.1955 4.4041,8.1955 4.6001,8.0005 C4.7951,7.8045 4.7961,7.4885 4.6001,7.2925 L2.8321,5.5255 C2.6371,5.3305 2.3201,5.3305 2.1251,5.5255 L0.3571,7.2925 C0.1621,7.4885 0.1621,7.8045 0.3571,8.0005 C0.5531,8.1955 0.8691,8.1955 1.0641,8.0005 L1.9811,7.0835 C1.9961,8.8085 2.6411,10.3835 3.6941,11.5975 L2.6351,12.6565 C2.4391,12.8525 2.4391,13.1685 2.6351,13.3645 C2.8301,13.5605 3.1461,13.5605 3.3421,13.3645 L4.4011,12.3055 C5.6301,13.3715 7.2281,14.0215 8.9781,14.0215 C10.8491,14.0215 12.6061,13.2925 13.9281,11.9705 C14.1231,11.7755 14.1231,11.4585 13.9281,11.2635 C13.7321,11.0685 13.4161,11.0685 13.2211,11.2635 C12.0881,12.3975 10.5821,13.0215 8.9781,13.0215 C7.5041,13.0215 6.1531,12.4845 5.1081,11.5985 L13.5771,3.1295 C14.4491,4.1595 14.9801,5.4845 14.9961,6.9325 L14.0861,6.0215 C13.8901,5.8265 13.5741,5.8265 13.3791,6.0215 C13.1841,6.2165 13.1831,6.5335 13.3791,6.7285 L15.1461,8.4965 C15.3421,8.6915 15.6581,8.6915 15.8531,8.4965 L17.6211,6.7285 C17.8161,6.5335 17.8161,6.2165 17.6211,6.0215" id="Fill-1"></path>
            </g>
        </g>
    </g>
</svg>