<?xml version="1.0" encoding="UTF-8" standalone="no"?>
<svg width="24px" height="24px" viewBox="0 0 24 24" version="1.1" xmlns="http://www.w3.org/2000/svg" xmlns:xlink="http://www.w3.org/1999/xlink">
    <!-- Generator: Sketch 39.1 (31720) - http://www.bohemiancoding.com/sketch -->
    <title>refresh</title>
    <desc>Created with Sketch.</desc>
    <defs></defs>
    <g id="Page-1" stroke="none" stroke-width="1" fill="none" fill-rule="evenodd">
        <g id="refresh" fill="#221F20">
            <g id="Page-1" transform="translate(3.000000, 5.000000)">
                <g id="Group-5">
                    <path d="M17.6211,6.0215 C17.4261,5.8265 17.1091,5.8265 16.9141,6.0215 L15.9971,6.9385 C15.9631,3.1075 12.8391,0.0005 9.0001,0.0005 C7.1301,0.0005 5.3721,0.7285 4.0511,2.0505 C3.8551,2.2465 3.8551,2.5625 4.0511,2.7575 C4.2461,2.9535 4.5621,2.9535 4.7581,2.7575 C5.8911,1.6245 7.3961,1.0005 9.0001,1.0005 C12.2861,1.0005 14.9591,3.6555 14.9961,6.9325 L14.0861,6.0215 C13.8901,5.8265 13.5741,5.8265 13.3791,6.0215 C13.1841,6.2165 13.1831,6.5335 13.3791,6.7285 L15.1461,8.4965 C15.3421,8.6915 15.6581,8.6915 15.8531,8.4965 L17.6211,6.7285 C17.8161,6.5335 17.8161,6.2165 17.6211,6.0215" id="Fill-1"></path>
                    <path d="M13.9277,11.2637 C13.7327,11.0687 13.4157,11.0687 13.2207,11.2637 C12.0877,12.3977 10.5817,13.0217 8.9787,13.0217 C5.6927,13.0217 3.0187,10.3667 2.9817,7.0897 L3.8927,7.9997 C4.0887,8.1957 4.4047,8.1957 4.5997,7.9997 C4.7947,7.8047 4.7957,7.4887 4.5997,7.2927 L2.8317,5.5257 C2.6367,5.3297 2.3207,5.3297 2.1247,5.5257 L0.3577,7.2927 C0.1617,7.4887 0.1617,7.8047 0.3577,7.9997 C0.5527,8.1957 0.8687,8.1957 1.0647,7.9997 L1.9817,7.0827 C2.0147,10.9137 5.1397,14.0217 8.9787,14.0217 C10.8487,14.0217 12.6067,13.2927 13.9277,11.9707 C14.1227,11.7757 14.1227,11.4587 13.9277,11.2637" id="Fill-3"></path>
                </g>
            </g>
        </g>
    </g>
</svg>