<?xml version="1.0" encoding="UTF-8"?>
<svg width="24px" height="24px" viewBox="0 0 24 24" version="1.1" xmlns="http://www.w3.org/2000/svg" xmlns:xlink="http://www.w3.org/1999/xlink">
    <!-- Generator: Sketch 51.2 (57519) - http://www.bohemiancoding.com/sketch -->
    <title>reschedule-circle</title>
    <desc>Created with Sketch.</desc>
    <defs></defs>
    <g id="reschedule-circle" stroke="none" stroke-width="1" fill="none" fill-rule="evenodd">
        <g id="Group-5" transform="translate(3.000000, 3.000000)" fill="#000000">
            <path d="M9,17 C4.589,17 1,13.411 1,9 C1,4.589 4.589,1 9,1 C13.411,1 17,4.589 17,9 C17,13.411 13.411,17 9,17 M9,0 C4.029,0 0,4.029 0,9 C0,13.971 4.029,18 9,18 C13.971,18 18,13.971 18,9 C18,4.029 13.971,0 9,0" id="Fill-1"></path>
            <path d="M13.5518,8.5107 C13.2758,8.5107 13.0518,8.7347 13.0518,9.0107 C13.0518,11.2447 11.2348,13.0627 8.9998,13.0627 C6.7658,13.0627 4.9478,11.2447 4.9478,9.0107 C4.9478,6.8847 6.5998,5.1557 8.6848,4.9907 L7.4488,6.1887 C7.2508,6.3817 7.2458,6.6977 7.4388,6.8957 C7.6308,7.0937 7.9478,7.0987 8.1458,6.9067 L10.2988,4.8187 C10.3128,4.8047 10.3188,4.7877 10.3298,4.7727 C10.3388,4.7627 10.3498,4.7587 10.3578,4.7487 C10.3688,4.7327 10.3718,4.7137 10.3828,4.6967 C10.3958,4.6727 10.4078,4.6497 10.4168,4.6237 C10.4358,4.5747 10.4458,4.5277 10.4478,4.4767 C10.4478,4.4717 10.4488,4.4667 10.4488,4.4617 C10.4528,4.3047 10.3928,4.1497 10.2578,4.0497 L7.8578,2.2507 C7.6368,2.0847 7.3228,2.1297 7.1558,2.3497 C6.9908,2.5717 7.0358,2.8847 7.2558,3.0507 L8.5308,4.0067 C5.9688,4.2467 3.9478,6.3857 3.9478,9.0107 C3.9478,11.7967 6.2148,14.0627 8.9998,14.0627 C11.7848,14.0627 14.0518,11.7967 14.0518,9.0107 C14.0518,8.7347 13.8278,8.5107 13.5518,8.5107" id="Fill-3"></path>
        </g>
    </g>
</svg>