<?xml version="1.0" encoding="UTF-8"?>
<svg width="24px" height="24px" viewBox="0 0 24 24" version="1.1" xmlns="http://www.w3.org/2000/svg" xmlns:xlink="http://www.w3.org/1999/xlink">
    <!-- Generator: Sketch 50.2 (55047) - http://www.bohemiancoding.com/sketch -->
    <title>resend</title>
    <desc>Created with Sketch.</desc>
    <defs></defs>
    <g id="resend" stroke="none" stroke-width="1" fill="none" fill-rule="evenodd">
        <path d="M16.5957,7.9248 C16.4007,7.7298 16.0837,7.7298 15.8887,7.9248 C15.6937,8.1198 15.6937,8.4368 15.8887,8.6318 C16.9277,9.6708 17.4997,11.0518 17.4997,12.5208 C17.4997,13.9898 16.9277,15.3708 15.8887,16.4098 C13.7437,18.5548 10.2557,18.5548 8.1117,16.4098 C7.0727,15.3708 6.4997,13.9898 6.4997,12.5208 C6.4997,11.0518 7.0727,9.6708 8.1117,8.6318 C9.1497,7.5938 10.5307,7.0218 11.9987,7.0208 L12.2997,7.0208 L10.3207,9.0008 C10.1247,9.1958 10.1257,9.5128 10.3207,9.7078 C10.5167,9.9038 10.8317,9.9038 11.0277,9.7078 L13.8557,6.8798 C14.0507,6.6838 14.0517,6.3678 13.8557,6.1728 L11.0277,3.3438 C10.8317,3.1488 10.5157,3.1488 10.3207,3.3438 C10.1247,3.5398 10.1247,3.8558 10.3207,4.0508 L12.2897,6.0208 L11.9987,6.0208 C10.2627,6.0218 8.6307,6.6978 7.4047,7.9248 C6.1767,9.1528 5.4997,10.7848 5.4997,12.5208 C5.4997,14.2578 6.1767,15.8898 7.4047,17.1168 C8.6717,18.3838 10.3357,19.0178 11.9997,19.0178 C13.6637,19.0178 15.3287,18.3838 16.5957,17.1168 C17.8237,15.8898 18.4997,14.2578 18.4997,12.5208 C18.4997,10.7848 17.8237,9.1528 16.5957,7.9248" id="Fill-1" fill="#000000"></path>
    </g>
</svg>