<?xml version="1.0" encoding="UTF-8" standalone="no"?>
<svg width="24px" height="24px" viewBox="0 0 24 24" version="1.1" xmlns="http://www.w3.org/2000/svg" xmlns:xlink="http://www.w3.org/1999/xlink">
    <!-- Generator: Sketch 39.1 (31720) - http://www.bohemiancoding.com/sketch -->
    <title>search</title>
    <desc>Created with Sketch.</desc>
    <defs></defs>
    <g id="Page-1" stroke="none" stroke-width="1" fill="none" fill-rule="evenodd">
        <g id="search" fill="#221F20">
            <g id="Page-1" transform="translate(2.000000, 3.000000)">
                <path d="M7.4912,12.0078 C4.4592,12.0078 1.9912,9.5398 1.9912,6.5078 C1.9912,3.4748 4.4592,1.0078 7.4912,1.0078 C10.5232,1.0078 12.9912,3.4748 12.9912,6.5078 C12.9912,9.5398 10.5232,12.0078 7.4912,12.0078 M18.8532,17.1658 L12.4232,10.7358 C13.3982,9.5978 13.9912,8.1238 13.9912,6.5078 C13.9912,2.9178 11.0812,0.0078 7.4912,0.0078 C3.9012,0.0078 0.9912,2.9178 0.9912,6.5078 C0.9912,10.0978 3.9012,13.0078 7.4912,13.0078 C9.1052,13.0078 10.5782,12.4158 11.7152,11.4428 L18.1462,17.8728 C18.2442,17.9708 18.3722,18.0198 18.5002,18.0198 C18.6282,18.0198 18.7562,17.9708 18.8532,17.8728 C19.0492,17.6778 19.0492,17.3618 18.8532,17.1658" id="Fill-1"></path>
            </g>
        </g>
    </g>
</svg>