<?xml version="1.0" encoding="UTF-8" standalone="no"?>
<svg width="24px" height="24px" viewBox="0 0 24 24" version="1.1" xmlns="http://www.w3.org/2000/svg" xmlns:xlink="http://www.w3.org/1999/xlink">
    <!-- Generator: Sketch 45.2 (43514) - http://www.bohemiancoding.com/sketch -->
    <title>send</title>
    <desc>Created with Sketch.</desc>
    <defs></defs>
    <g id="icons" stroke="none" stroke-width="1" fill="none" fill-rule="evenodd">
        <g id="send">
            <g>
                <polygon id="bounds" points="0 24 24 24 24 0 0 0"></polygon>
                <path d="M7.3467,12.5 L17.9117,12.5 L4.9167,19.002 L7.3467,12.5 Z M4.9177,5.02 L17.8687,11.5 L7.3467,11.5 L4.9177,5.02 Z M20.5077,12.011 C20.5077,12.009 20.5067,12.008 20.5067,12.006 C20.5067,12.004 20.5077,12.002 20.5077,12 C20.5077,11.91 20.4777,11.83 20.4357,11.756 C20.4317,11.75 20.4287,11.746 20.4247,11.74 C20.3647,11.645 20.2787,11.57 20.1697,11.533 L4.2267,3.556 C4.0437,3.464 3.8207,3.494 3.6687,3.631 C3.5157,3.769 3.4627,3.986 3.5347,4.178 L6.4667,12 L3.5347,19.843 C3.4627,20.036 3.5157,20.253 3.6687,20.39 C3.7627,20.475 3.8827,20.519 4.0027,20.519 C4.0787,20.519 4.1557,20.501 4.2267,20.466 L20.2317,12.458 C20.2607,12.443 20.2757,12.414 20.3017,12.395 C20.3327,12.371 20.3617,12.346 20.3867,12.316 C20.4097,12.287 20.4297,12.261 20.4467,12.228 C20.4767,12.17 20.4947,12.106 20.5007,12.037 C20.5007,12.027 20.5077,12.02 20.5077,12.011 L20.5077,12.011 Z" id="Fill-1" fill="#000000"></path>
            </g>
        </g>
    </g>
</svg>