<?xml version="1.0" encoding="UTF-8" standalone="no"?>
<svg width="24px" height="24px" viewBox="0 0 24 24" version="1.1" xmlns="http://www.w3.org/2000/svg" xmlns:xlink="http://www.w3.org/1999/xlink">
    <!-- Generator: Sketch 39.1 (31720) - http://www.bohemiancoding.com/sketch -->
    <title>settings</title>
    <desc>Created with Sketch.</desc>
    <defs></defs>
    <g id="Page-1" stroke="none" stroke-width="1" fill="none" fill-rule="evenodd">
        <g id="settings" fill="#221F20">
            <g id="Page-1" transform="translate(3.000000, 3.000000)">
                <g id="Group-5">
                    <path d="M9,0 C8.797,0 8.529,0.008 8.403,0.021 L8.403,0.021 C8.096,0.049 7.798,0.307 7.725,0.607 L7.281,2.451 C7.235,2.647 7.034,2.871 6.823,2.947 L6.241,3.188 C6.164,3.224 6.061,3.241 5.956,3.241 C5.819,3.241 5.679,3.211 5.585,3.154 L3.966,2.164 C3.832,2.084 3.687,2.066 3.59,2.066 C3.4,2.066 3.224,2.125 3.098,2.229 C3.086,2.237 3.076,2.247 3.066,2.257 L2.259,3.065 C2.249,3.075 2.239,3.084 2.232,3.095 C2.038,3.326 2.007,3.708 2.164,3.965 L3.156,5.586 C3.26,5.757 3.274,6.056 3.178,6.261 L2.94,6.843 C2.872,7.033 2.646,7.234 2.453,7.282 L0.604,7.727 C0.308,7.799 0.054,8.095 0.02,8.399 L0.02,8.415 C0.012,8.493 0,8.707 0,9 C0,9.273 0.012,9.482 0.017,9.557 C0.017,9.571 0.02,9.588 0.02,9.604 C0.054,9.907 0.311,10.202 0.605,10.273 L2.45,10.718 C2.646,10.766 2.872,10.967 2.947,11.179 L3.188,11.761 C3.274,11.943 3.26,12.244 3.156,12.416 L2.162,14.037 C2.007,14.295 2.036,14.666 2.23,14.902 C2.237,14.914 2.247,14.925 2.259,14.936 L3.066,15.742 C3.076,15.75 3.083,15.758 3.093,15.766 C3.22,15.873 3.41,15.93 3.595,15.93 C3.732,15.93 3.865,15.898 3.966,15.835 L5.585,14.846 C5.678,14.789 5.808,14.755 5.944,14.755 C6.051,14.755 6.161,14.775 6.261,14.822 L6.84,15.059 C7.032,15.129 7.235,15.354 7.281,15.547 L7.725,17.394 C7.798,17.691 8.094,17.949 8.401,17.979 C8.406,17.98 8.408,17.98 8.413,17.98 C8.493,17.986 8.707,18 9,18 C9.288,18 9.504,17.986 9.587,17.98 C9.592,17.98 9.597,17.98 9.604,17.979 C9.909,17.947 10.202,17.691 10.275,17.395 L10.719,15.549 C10.765,15.354 10.968,15.129 11.174,15.053 L11.764,14.812 C11.839,14.775 11.94,14.758 12.045,14.758 C12.182,14.758 12.323,14.788 12.415,14.845 L14.034,15.835 C14.139,15.899 14.272,15.93 14.408,15.93 C14.591,15.93 14.777,15.875 14.904,15.77 C14.914,15.761 14.927,15.751 14.937,15.742 L15.743,14.936 C15.756,14.924 15.766,14.91 15.777,14.898 C15.964,14.664 15.99,14.295 15.836,14.032 L14.847,12.414 C14.74,12.243 14.726,11.944 14.822,11.739 L15.06,11.161 C15.13,10.969 15.354,10.766 15.547,10.718 L17.394,10.273 C17.689,10.201 17.946,9.906 17.98,9.592 C17.98,9.581 18,9.344 18,9 C18,8.726 17.988,8.518 17.983,8.443 C17.983,8.428 17.98,8.412 17.98,8.396 C17.946,8.092 17.689,7.797 17.392,7.727 L15.55,7.282 C15.354,7.234 15.13,7.031 15.053,6.824 L14.812,6.238 C14.726,6.056 14.74,5.756 14.847,5.584 L15.836,3.965 C15.99,3.709 15.964,3.328 15.772,3.098 C15.763,3.086 15.753,3.075 15.743,3.065 L14.937,2.257 C14.924,2.246 14.912,2.235 14.899,2.225 C14.776,2.125 14.597,2.066 14.412,2.066 C14.313,2.066 14.168,2.084 14.032,2.165 L12.415,3.154 C12.322,3.211 12.19,3.244 12.053,3.244 C11.946,3.244 11.837,3.225 11.739,3.18 L11.157,2.94 C10.968,2.871 10.765,2.647 10.719,2.453 L10.272,0.605 C10.202,0.307 9.904,0.05 9.592,0.02 C9.582,0.02 9.347,0 9,0 M9,1 C9.137,1 9.254,1.003 9.341,1.007 L9.745,2.682 C9.867,3.2 10.306,3.692 10.777,3.865 L11.321,4.088 C11.543,4.19 11.796,4.244 12.053,4.244 C12.371,4.244 12.684,4.161 12.938,4.008 L14.386,3.121 L14.878,3.614 L13.996,5.059 C13.719,5.508 13.679,6.15 13.895,6.635 L14.115,7.174 C14.309,7.692 14.79,8.127 15.315,8.254 L16.993,8.658 C16.997,8.747 17,8.864 17,9 C17,9.136 16.997,9.252 16.993,9.341 L15.309,9.746 C14.793,9.873 14.304,10.314 14.135,10.781 L13.904,11.342 C13.679,11.848 13.714,12.486 13.993,12.936 L14.88,14.385 L14.387,14.879 L12.94,13.994 C12.607,13.789 12.236,13.758 12.045,13.758 C11.871,13.758 11.616,13.781 11.365,13.895 L10.825,14.115 C10.303,14.31 9.869,14.793 9.746,15.314 L9.344,16.993 C9.253,16.997 9.136,17 9,17 C8.862,17 8.746,16.997 8.657,16.993 L8.254,15.316 C8.132,14.797 7.691,14.306 7.219,14.133 L6.685,13.916 C6.459,13.811 6.203,13.755 5.944,13.755 C5.628,13.755 5.316,13.838 5.063,13.992 L3.615,14.877 L3.122,14.385 L4.013,12.932 C4.283,12.483 4.319,11.844 4.104,11.362 L3.879,10.814 C3.685,10.301 3.209,9.873 2.685,9.746 L1.007,9.341 C1.003,9.253 1,9.135 1,9 C1,8.862 1.003,8.746 1.006,8.658 L2.691,8.254 C3.212,8.126 3.701,7.685 3.866,7.221 L4.096,6.656 C4.319,6.156 4.286,5.522 4.009,5.062 L3.123,3.615 L3.615,3.123 L5.066,4.01 C5.398,4.211 5.767,4.241 5.956,4.241 C6.135,4.241 6.403,4.215 6.623,4.111 L7.163,3.888 C7.691,3.697 8.131,3.211 8.254,2.686 L8.657,1.006 C8.764,1.002 8.893,1 9,1" id="Fill-1"></path>
                    <path d="M9.0107,5.0176 C6.8057,5.0176 5.0177,6.8046 5.0177,9.0106 C5.0177,11.2166 6.8057,13.0036 9.0107,13.0036 C11.2157,13.0036 13.0037,11.2166 13.0037,9.0106 C13.0037,6.8046 11.2157,5.0176 9.0107,5.0176 M9.0107,6.0176 C10.6607,6.0176 12.0037,7.3606 12.0037,9.0106 C12.0037,10.6616 10.6607,12.0036 9.0107,12.0036 C7.3607,12.0036 6.0177,10.6616 6.0177,9.0106 C6.0177,7.3606 7.3607,6.0176 9.0107,6.0176" id="Fill-3"></path>
                </g>
            </g>
        </g>
    </g>
</svg>