<?xml version="1.0" encoding="UTF-8" standalone="no"?>
<svg width="24px" height="24px" viewBox="0 0 24 24" version="1.1" xmlns="http://www.w3.org/2000/svg" xmlns:xlink="http://www.w3.org/1999/xlink">
    <!-- Generator: Sketch 39.1 (31720) - http://www.bohemiancoding.com/sketch -->
    <title>share</title>
    <desc>Created with Sketch.</desc>
    <defs></defs>
    <g id="Page-1" stroke="none" stroke-width="1" fill="none" fill-rule="evenodd">
        <g id="share" fill="#221F20">
            <g id="Page-1" transform="translate(5.000000, 3.000000)">
                <path d="M11,16.5 C10.173,16.5 9.5,15.827 9.5,15 C9.5,14.173 10.173,13.5 11,13.5 C11.827,13.5 12.5,14.173 12.5,15 C12.5,15.827 11.827,16.5 11,16.5 M3,10.5 C2.173,10.5 1.5,9.827 1.5,9 C1.5,8.173 2.173,7.5 3,7.5 C3.827,7.5 4.5,8.173 4.5,9 C4.5,9.827 3.827,10.5 3,10.5 M9.073,4.575 C9.071,4.573 9.069,4.57 9.068,4.568 C9.069,4.57 9.071,4.573 9.073,4.575 M11,1.5 C11.827,1.5 12.5,2.173 12.5,3 C12.5,3.827 11.827,4.5 11,4.5 C10.173,4.5 9.5,3.827 9.5,3 C9.5,2.173 10.173,1.5 11,1.5 M11,12.5 C10.464,12.5 9.97,12.672 9.563,12.959 L9.564,12.958 L5.3,9.98 C5.298,9.985 5.295,9.988 5.293,9.993 C5.425,9.688 5.5,9.354 5.5,9 C5.5,8.588 5.391,8.205 5.214,7.862 C5.215,7.864 5.216,7.865 5.217,7.866 L9.426,4.928 L9.425,4.927 C9.855,5.279 10.399,5.5 11,5.5 C12.381,5.5 13.5,4.381 13.5,3 C13.5,1.619 12.381,0.5 11,0.5 C9.619,0.5 8.5,1.619 8.5,3 C8.5,3.417 8.612,3.805 8.793,4.15 L4.589,7.085 C4.156,6.725 3.607,6.5 3,6.5 C1.619,6.5 0.5,7.619 0.5,9 C0.5,10.381 1.619,11.5 3,11.5 C3.673,11.5 4.281,11.231 4.73,10.799 C4.729,10.799 4.729,10.8 4.729,10.801 L8.876,13.696 C8.642,14.077 8.5,14.521 8.5,15 C8.5,16.381 9.619,17.5 11,17.5 C12.381,17.5 13.5,16.381 13.5,15 C13.5,13.619 12.381,12.5 11,12.5" id="Fill-1"></path>
            </g>
        </g>
    </g>
</svg>