<?xml version="1.0" encoding="UTF-8" standalone="no"?>
<svg width="24px" height="24px" viewBox="0 0 24 24" version="1.1" xmlns="http://www.w3.org/2000/svg" xmlns:xlink="http://www.w3.org/1999/xlink">
    <!-- Generator: Sketch 39.1 (31720) - http://www.bohemiancoding.com/sketch -->
    <title>sort</title>
    <desc>Created with Sketch.</desc>
    <defs></defs>
    <g id="Page-1" stroke="none" stroke-width="1" fill="none" fill-rule="evenodd">
        <g id="sort" fill="#221F20">
            <g id="Page-1" transform="translate(3.000000, 4.000000)">
                <g id="Group-5">
                    <path d="M16.9082,11.6299 C16.7132,11.4349 16.3952,11.4359 16.2012,11.6299 L13.5192,14.3119 L13.5192,0.5109 C13.5192,0.2339 13.2952,0.0109 13.0192,0.0109 C12.7422,0.0109 12.5192,0.2339 12.5192,0.5109 L12.5192,14.3119 L9.8372,11.6299 C9.6412,11.4349 9.3252,11.4349 9.1302,11.6299 C8.9342,11.8249 8.9342,12.1419 9.1302,12.3369 L12.6652,15.8719 C12.7622,15.9699 12.8912,16.0189 13.0192,16.0189 C13.1472,16.0189 13.2752,15.9699 13.3722,15.8719 L16.9082,12.3369 C17.1022,12.1429 17.1032,11.8249 16.9082,11.6299" id="Fill-1"></path>
                    <path d="M8.9009,3.6924 L5.3649,0.1574 C5.2679,0.0594 5.1399,0.0104 5.0119,0.0104 C4.8839,0.0104 4.7559,0.0594 4.6579,0.1574 L1.1229,3.6924 C0.9279,3.8864 0.9269,4.2044 1.1229,4.3994 C1.3179,4.5944 1.6349,4.5934 1.8299,4.3994 L4.5119,1.7174 L4.5119,15.5184 C4.5119,15.7954 4.7349,16.0184 5.0119,16.0184 C5.2879,16.0184 5.5119,15.7954 5.5119,15.5184 L5.5119,1.7174 L8.1939,4.3994 C8.3889,4.5944 8.7059,4.5944 8.9009,4.3994 C9.0959,4.2044 9.0959,3.8874 8.9009,3.6924" id="Fill-3"></path>
                </g>
            </g>
        </g>
    </g>
</svg>