<?xml version="1.0" encoding="UTF-8" standalone="no"?>
<svg width="24px" height="24px" viewBox="0 0 24 24" version="1.1" xmlns="http://www.w3.org/2000/svg" xmlns:xlink="http://www.w3.org/1999/xlink">
    <!-- Generator: Sketch 39.1 (31720) - http://www.bohemiancoding.com/sketch -->
    <title>star-solid</title>
    <desc>Created with Sketch.</desc>
    <defs></defs>
    <g id="Page-1" stroke="none" stroke-width="1" fill="none" fill-rule="evenodd">
        <g id="star-solid" fill="#221F20">
            <g id="Page-1" transform="translate(2.000000, 3.000000)">
                <path d="M19.0195,6.9395 C18.9655,6.7695 18.8165,6.6485 18.6385,6.6305 L12.7335,6.0685 L10.4095,0.6605 C10.3385,0.4975 10.1785,0.3925 10.0015,0.3925 C9.8225,0.3925 9.6625,0.4975 9.5915,0.6605 L7.2685,6.0685 L1.3625,6.6305 C1.1845,6.6485 1.0355,6.7695 0.9815,6.9395 C0.9275,7.1085 0.9805,7.2935 1.1155,7.4105 L5.5405,11.2085 L4.2495,17.0685 C4.2115,17.2385 4.2815,17.4185 4.4235,17.5215 C4.5005,17.5785 4.5925,17.6065 4.6845,17.6065 C4.7625,17.6065 4.8405,17.5855 4.9115,17.5435 L10.0015,14.5235 L15.0895,17.5435 C15.1605,17.5855 15.2395,17.6055 15.3175,17.6055 L15.3225,17.6055 C15.5685,17.6055 15.7655,17.4075 15.7655,17.1625 C15.7655,17.1045 15.7545,17.0485 15.7355,16.9985 L14.4595,11.2085 L18.8855,7.4105 C19.0205,7.2935 19.0735,7.1085 19.0195,6.9395" id="Fill-1"></path>
            </g>
        </g>
    </g>
</svg>