<?xml version="1.0" encoding="UTF-8" standalone="no"?>
<svg width="24px" height="24px" viewBox="0 0 24 24" version="1.1" xmlns="http://www.w3.org/2000/svg" xmlns:xlink="http://www.w3.org/1999/xlink">
    <!-- Generator: Sketch 39.1 (31720) - http://www.bohemiancoding.com/sketch -->
    <title>star</title>
    <desc>Created with Sketch.</desc>
    <defs></defs>
    <g id="Page-1" stroke="none" stroke-width="1" fill="none" fill-rule="evenodd">
        <g id="star" fill="#221F20">
            <g id="Page-1" transform="translate(2.000000, 3.000000)">
                <path d="M10.002,0.3926 C9.822,0.3926 9.662,0.4966 9.592,0.6606 L7.269,6.0686 L1.362,6.6306 C1.185,6.6486 1.035,6.7696 0.981,6.9396 C0.928,7.1086 0.981,7.2936 1.115,7.4106 L5.541,11.2076 L4.25,17.0686 C4.212,17.2386 4.281,17.4186 4.424,17.5216 C4.501,17.5786 4.593,17.6066 4.685,17.6066 C4.763,17.6066 4.841,17.5856 4.911,17.5436 L10.002,14.5236 L15.09,17.5436 C15.16,17.5856 15.239,17.6056 15.317,17.6056 L15.322,17.6056 C15.568,17.6056 15.766,17.4076 15.766,17.1626 C15.766,17.1046 15.755,17.0486 15.735,16.9976 L14.46,11.2076 L18.886,7.4106 C19.021,7.2936 19.073,7.1086 19.02,6.9396 C18.966,6.7696 18.816,6.6486 18.639,6.6306 L12.733,6.0686 L10.409,0.6606 C10.339,0.4966 10.179,0.3926 10.002,0.3926 M10.001,2.2426 L11.814,6.4626 L12.049,7.0076 L12.639,7.0636 L17.243,7.5016 L13.809,10.4496 L13.355,10.8386 L13.483,11.4236 L14.498,16.0296 L10.513,13.6636 L10.002,13.3596 L9.491,13.6636 L5.503,16.0306 L6.518,11.4236 L6.647,10.8386 L6.192,10.4496 L2.758,7.5016 L7.363,7.0636 L7.953,7.0076 L8.188,6.4626 L10.001,2.2426" id="Fill-1"></path>
            </g>
        </g>
    </g>
</svg>