<?xml version="1.0" encoding="UTF-8" standalone="no"?>
<svg width="24px" height="24px" viewBox="0 0 24 24" version="1.1" xmlns="http://www.w3.org/2000/svg" xmlns:xlink="http://www.w3.org/1999/xlink">
    <!-- Generator: Sketch 40 (33762) - http://www.bohemiancoding.com/sketch -->
    <title>summary</title>
    <desc>Created with Sketch.</desc>
    <defs></defs>
    <g id="icons" stroke="none" stroke-width="1" fill="none" fill-rule="evenodd">
        <g id="summary">
            <g>
                <polygon id="bounds" points="0 24 24 24 24 0 0 0"></polygon>
                <path d="M18,3 L6,3 C4.896,3 4,3.896 4,5 L4,19 C4,20.104 4.896,21 6,21 L18,21 C19.104,21 20,20.104 20,19 L20,5 C20,3.896 19.104,3 18,3 M18,4 C18.551,4 19,4.448 19,5 L19,19 C19,19.552 18.551,20 18,20 L6,20 C5.449,20 5,19.552 5,19 L5,5 C5,4.448 5.449,4 6,4 L18,4" id="Fill-1" fill="#221F20"></path>
                <path d="M9.8462,11.2188 C10.0732,10.2398 10.9522,9.5078 12.0002,9.5078 C13.0472,9.5078 13.9272,10.2398 14.1542,11.2188 L9.8462,11.2188 Z M12.0002,5.9998 C12.5532,5.9998 13.0032,6.4498 13.0032,7.0028 C13.0032,7.5568 12.5532,8.0078 12.0002,8.0078 C11.4472,8.0078 10.9972,7.5568 10.9972,7.0028 C10.9972,6.4498 11.4472,5.9998 12.0002,5.9998 L12.0002,5.9998 Z M13.0552,8.6998 C13.6222,8.3468 14.0032,7.7218 14.0032,7.0028 C14.0032,5.8968 13.1062,4.9998 12.0002,4.9998 C10.8932,4.9998 9.9972,5.8968 9.9972,7.0028 C9.9972,7.7218 10.3772,8.3468 10.9442,8.6998 C9.6942,9.1398 8.7892,10.3208 8.7892,11.7188 C8.7892,11.9948 9.0132,12.2188 9.2892,12.2188 L14.7112,12.2188 C14.9872,12.2188 15.2112,11.9948 15.2112,11.7188 C15.2112,10.3208 14.3062,9.1398 13.0552,8.6998 Z M18,14.5127 C18,14.7887 17.776,15.0127 17.5,15.0127 L6.5,15.0127 C6.224,15.0127 6,14.7887 6,14.5127 C6,14.2367 6.224,14.0127 6.5,14.0127 L17.5,14.0127 C17.776,14.0127 18,14.2367 18,14.5127 Z M13.9971,17.5156 C13.9971,17.7916 13.7731,18.0156 13.4971,18.0156 L6.4971,18.0156 C6.2211,18.0156 5.9971,17.7916 5.9971,17.5156 C5.9971,17.2396 6.2211,17.0156 6.4971,17.0156 L13.4971,17.0156 C13.7731,17.0156 13.9971,17.2396 13.9971,17.5156 Z" id="Combined-Shape" fill="#221F20"></path>
            </g>
        </g>
    </g>
</svg>