<?xml version="1.0" encoding="UTF-8" standalone="no"?>
<svg width="24px" height="24px" viewBox="0 0 24 24" version="1.1" xmlns="http://www.w3.org/2000/svg" xmlns:xlink="http://www.w3.org/1999/xlink">
    <!-- Generator: Sketch 43.1 (39012) - http://www.bohemiancoding.com/sketch -->
    <title>support</title>
    <desc>Created with Sketch.</desc>
    <defs></defs>
    <g id="icons" stroke="none" stroke-width="1" fill="none" fill-rule="evenodd">
        <g id="support">
            <g>
                <polygon id="bounds" points="0 24 24 24 24 0 0 0"></polygon>
                <g id="icon" transform="translate(3.000000, 3.000000)" fill="#231F1F">
                    <path d="M8.7773,3.9189 C7.4863,3.9189 6.6693,4.6569 6.6343,4.6889 C6.4533,4.8549 6.4413,5.1359 6.6073,5.3189 C6.7733,5.5009 7.0553,5.5149 7.2383,5.3499 C7.2453,5.3449 7.8473,4.8149 8.7773,4.8149 C9.8593,4.8149 10.6153,5.4619 10.6153,6.3889 C10.6153,7.1939 10.1683,7.5979 9.6513,8.0649 C9.1443,8.5239 8.5693,9.0439 8.5693,9.9539 L8.5693,10.4459 C8.5693,10.6929 8.7693,10.8939 9.0173,10.8939 C9.2653,10.8939 9.4643,10.6929 9.4643,10.4459 L9.4643,9.9539 C9.4643,9.4659 9.7503,9.1849 10.2533,8.7289 C10.8123,8.2219 11.5103,7.5909 11.5103,6.3889 C11.5103,4.9579 10.3613,3.9189 8.7773,3.9189" id="Fill-1"></path>
                    <path d="M9,11.9326 C8.682,11.9326 8.424,12.1906 8.424,12.5096 C8.424,12.8286 8.682,13.0866 9,13.0866 C9.319,13.0866 9.578,12.8286 9.578,12.5096 C9.578,12.1906 9.319,11.9326 9,11.9326" id="Fill-3"></path>
                    <path d="M15.6074,12.6943 C15.5434,12.7803 15.5074,12.8853 15.5074,12.9933 L15.5054,16.7353 L12.2064,15.2763 C12.1424,15.2473 12.0734,15.2333 12.0034,15.2333 C11.9594,15.2333 11.9144,15.2383 11.8714,15.2513 C11.2654,15.4183 10.6354,15.5033 10.0004,15.5033 L8.0004,15.5033 C4.1404,15.5033 1.0004,12.3623 1.0004,8.5033 C1.0004,4.6433 4.1404,1.5033 8.0004,1.5033 L10.0004,1.5033 C13.8594,1.5033 17.0004,4.6433 17.0004,8.5033 C17.0004,10.0283 16.5184,11.4783 15.6074,12.6943 M10.0004,0.5033 L8.0004,0.5033 C3.5884,0.5033 0.0004,4.0913 0.0004,8.5033 C0.0004,12.9143 3.5884,16.5033 8.0004,16.5033 L10.0004,16.5033 C10.6644,16.5033 11.3234,16.4213 11.9614,16.2613 L15.8024,17.9603 C15.8674,17.9883 15.9364,18.0033 16.0044,18.0033 C16.1004,18.0033 16.1954,17.9753 16.2774,17.9223 C16.4194,17.8303 16.5044,17.6723 16.5044,17.5033 L16.5074,13.1573 C17.4844,11.7953 18.0004,10.1903 18.0004,8.5033 C18.0004,4.0913 14.4114,0.5033 10.0004,0.5033" id="Fill-5"></path>
                </g>
            </g>
        </g>
    </g>
</svg>