<?xml version="1.0" encoding="UTF-8" standalone="no"?>
<svg width="24px" height="24px" viewBox="0 0 24 24" version="1.1" xmlns="http://www.w3.org/2000/svg" xmlns:xlink="http://www.w3.org/1999/xlink">
    <!-- Generator: Sketch 39.1 (31720) - http://www.bohemiancoding.com/sketch -->
    <title>table</title>
    <desc>Created with Sketch.</desc>
    <defs></defs>
    <g id="Page-1" stroke="none" stroke-width="1" fill="none" fill-rule="evenodd">
        <g id="table" fill="#221F20">
            <g id="Page-1" transform="translate(3.000000, 4.000000)">
                <g id="Group-5">
                    <path d="M1,3.005 L17,3.005 L17,1.005 L1,1.005 L1,3.005 Z M17.5,0.005 L0.5,0.005 C0.224,0.005 0,0.229 0,0.505 L0,3.505 C0,3.781 0.224,4.005 0.5,4.005 L17.5,4.005 C17.776,4.005 18,3.781 18,3.505 L18,0.505 C18,0.229 17.776,0.005 17.5,0.005 L17.5,0.005 Z" id="Fill-1"></path>
                    <path d="M1,9.011 L17,9.011 L17,7.011 L1,7.011 L1,9.011 Z M17.5,6.011 L0.5,6.011 C0.224,6.011 0,6.234 0,6.511 L0,9.511 C0,9.787 0.224,10.011 0.5,10.011 L17.5,10.011 C17.776,10.011 18,9.787 18,9.511 L18,6.511 C18,6.234 17.776,6.011 17.5,6.011 L17.5,6.011 Z" id="Fill-3"></path>
                    <path d="M1,15.017 L17,15.017 L17,13.017 L1,13.017 L1,15.017 Z M17.5,12.017 L0.5,12.017 C0.224,12.017 0,12.24 0,12.517 L0,15.517 C0,15.793 0.224,16.017 0.5,16.017 L17.5,16.017 C17.776,16.017 18,15.793 18,15.517 L18,12.517 C18,12.24 17.776,12.017 17.5,12.017 L17.5,12.017 Z" id="Fill-4"></path>
                </g>
            </g>
        </g>
    </g>
</svg>