<?xml version="1.0" encoding="UTF-8" standalone="no"?>
<svg width="24px" height="24px" viewBox="0 0 24 24" version="1.1" xmlns="http://www.w3.org/2000/svg" xmlns:xlink="http://www.w3.org/1999/xlink">
    <!-- Generator: Sketch 39.1 (31720) - http://www.bohemiancoding.com/sketch -->
    <title>tag</title>
    <desc>Created with Sketch.</desc>
    <defs></defs>
    <g id="Page-1" stroke="none" stroke-width="1" fill="none" fill-rule="evenodd">
        <g id="tag" fill="#221F20">
            <g id="Page-1" transform="translate(3.000000, 3.000000)">
                <g id="Group-5">
                    <path d="M9.6523,16.7354 L1.0523,8.1554 L1.0483,1.0584 L8.1493,1.0584 L16.7453,9.6544 L9.6523,16.7354 Z M17.8053,9.3004 L8.7103,0.2054 C8.6163,0.1114 8.4893,0.0584 8.3563,0.0584 L0.5483,0.0584 C0.4153,0.0584 0.2883,0.1114 0.1943,0.2054 C0.1003,0.2984 0.0483,0.4254 0.0483,0.5584 L0.0523,8.3634 C0.0523,8.4964 0.1053,8.6234 0.1993,8.7164 L9.2983,17.7954 C9.3963,17.8924 9.5243,17.9414 9.6523,17.9414 C9.7803,17.9414 9.9083,17.8924 10.0063,17.7954 L17.8053,10.0074 C17.8993,9.9144 17.9523,9.7874 17.9523,9.6544 C17.9523,9.5214 17.8993,9.3944 17.8053,9.3004 L17.8053,9.3004 Z" id="Fill-1"></path>
                    <path d="M4.9346,4.9297 C4.5576,5.3067 3.8976,5.3067 3.5206,4.9297 C3.1306,4.5397 3.1306,3.9057 3.5206,3.5157 C3.7096,3.3267 3.9606,3.2227 4.2276,3.2227 C4.4946,3.2227 4.7456,3.3267 4.9346,3.5157 C5.3246,3.9057 5.3246,4.5397 4.9346,4.9297 M2.8136,2.8087 C2.0346,3.5877 2.0346,4.8577 2.8136,5.6367 C3.1916,6.0147 3.6936,6.2227 4.2276,6.2227 C4.7616,6.2227 5.2636,6.0147 5.6416,5.6367 C6.4206,4.8577 6.4206,3.5877 5.6416,2.8087 C4.8856,2.0527 3.5696,2.0527 2.8136,2.8087" id="Fill-3"></path>
                </g>
            </g>
        </g>
    </g>
</svg>