<?xml version="1.0" encoding="UTF-8" standalone="no"?>
<svg width="24px" height="24px" viewBox="0 0 24 24" version="1.1" xmlns="http://www.w3.org/2000/svg" xmlns:xlink="http://www.w3.org/1999/xlink">
    <!-- Generator: Sketch 40.3 (33839) - http://www.bohemiancoding.com/sketch -->
    <title>treatment</title>
    <desc>Created with Sketch.</desc>
    <defs></defs>
    <g id="icons" stroke="none" stroke-width="1" fill="none" fill-rule="evenodd">
        <g id="treatment">
            <g>
                <polygon id="bounds" points="0 24 24 24 24 0 0 0"></polygon>
                <path d="M18.4946,20 C18.2186,20 17.9946,19.775 17.9946,19.5 C17.9946,19.225 18.2186,19 18.4946,19 C18.7706,19 18.9946,19.225 18.9946,19.5 C18.9946,19.775 18.7706,20 18.4946,20 M18.9946,18.092 L18.9946,15 C18.9946,13.346 17.6486,12 15.9946,12 C14.3406,12 12.9946,13.346 12.9946,15 L12.9946,18 C12.9946,19.103 12.0976,20 10.9946,20 C9.8916,20 8.9946,19.103 8.9946,18 L8.9946,12.949 C11.2386,12.697 12.9946,10.811 12.9946,8.5 L12.9946,4.494 C12.9946,4.218 12.7706,3.994 12.4946,3.994 L10.9986,3.994 C10.7226,3.994 10.4986,4.218 10.4986,4.494 C10.4986,4.771 10.7226,4.994 10.9986,4.994 L11.9946,4.994 L11.9946,8.5 C11.9946,10.43 10.4246,12 8.4946,12 C6.5646,12 4.9946,10.43 4.9946,8.5 L4.9946,4.994 L5.9946,4.994 C6.2706,4.994 6.4946,4.771 6.4946,4.494 C6.4946,4.218 6.2706,3.994 5.9946,3.994 L4.4946,3.994 C4.2186,3.994 3.9946,4.218 3.9946,4.494 L3.9946,8.5 C3.9946,10.811 5.7506,12.697 7.9946,12.949 L7.9946,18 C7.9946,19.654 9.3406,21 10.9946,21 C12.6486,21 13.9946,19.654 13.9946,18 L13.9946,15 C13.9946,13.897 14.8916,13 15.9946,13 C17.0976,13 17.9946,13.897 17.9946,15 L17.9946,18.092 C17.4136,18.299 16.9946,18.849 16.9946,19.5 C16.9946,20.327 17.6676,21 18.4946,21 C19.3216,21 19.9946,20.327 19.9946,19.5 C19.9946,18.849 19.5756,18.299 18.9946,18.092" id="Fill-1" fill="#221F20"></path>
            </g>
        </g>
    </g>
</svg>