<?xml version="1.0" encoding="UTF-8" standalone="no"?>
<svg width="24px" height="24px" viewBox="0 0 24 24" version="1.1" xmlns="http://www.w3.org/2000/svg" xmlns:xlink="http://www.w3.org/1999/xlink">
    <!-- Generator: Sketch 46.2 (44496) - http://www.bohemiancoding.com/sketch -->
    <title>undo</title>
    <desc>Created with Sketch.</desc>
    <defs></defs>
    <g id="icons" stroke="none" stroke-width="1" fill="none" fill-rule="evenodd">
        <g id="undo">
            <g>
                <polygon id="bounds" points="0 24 24 24 24 0 0 0"></polygon>
                <path d="M11,7 L9.181,7 L11.156,5.025 C11.351,4.83 11.351,4.514 11.156,4.318 C10.96,4.123 10.644,4.123 10.449,4.318 L7.621,7.146 C7.424,7.342 7.425,7.658 7.621,7.854 L10.449,10.682 C10.644,10.877 10.959,10.877 11.156,10.682 C11.35,10.487 11.351,10.17 11.156,9.975 L9.181,8 L11,8 C13.757,8 16,10.243 16,13 C16,15.757 13.757,18 11,18 L8.998,18 C8.722,18 8.498,18.224 8.498,18.5 C8.498,18.776 8.722,19 8.998,19 L11,19 C14.309,19 17,16.309 17,13 C17,9.691 14.309,7 11,7" id="Fill-1" fill="#000000"></path>
            </g>
        </g>
    </g>
</svg>