<?xml version="1.0" encoding="UTF-8" standalone="no"?>
<svg width="24px" height="24px" viewBox="0 0 24 24" version="1.1" xmlns="http://www.w3.org/2000/svg" xmlns:xlink="http://www.w3.org/1999/xlink">
    <!-- Generator: Sketch 40.3 (33839) - http://www.bohemiancoding.com/sketch -->
    <title>upload</title>
    <desc>Created with Sketch.</desc>
    <defs></defs>
    <g id="icons" stroke="none" stroke-width="1" fill="none" fill-rule="evenodd">
        <g id="upload">
            <g>
                <polygon id="bounds" points="0 24 24 24 24 0 0 0"></polygon>
                <path d="M16.5972,8.4023 L12.3732,4.1763 C12.2812,4.0723 12.1512,4.0033 12.0002,4.0033 C11.8492,4.0033 11.7182,4.0743 11.6262,4.1793 L7.4042,8.4023 C7.2072,8.5973 7.2072,8.9133 7.4042,9.1093 C7.5992,9.3043 7.9142,9.3043 8.1112,9.1093 L11.5002,5.7193 L11.5002,16.5033 C11.5002,16.7793 11.7242,17.0033 12.0002,17.0033 C12.2772,17.0033 12.5002,16.7793 12.5002,16.5033 L12.5002,5.7183 L15.8902,9.1093 C16.0852,9.3043 16.4012,9.3043 16.5972,9.1093 C16.7922,8.9143 16.7922,8.5973 16.5972,8.4023" id="Fill-1" fill="#020302"></path>
                <path d="M19,19.5 C19,19.776 18.776,20 18.5,20 L5.5,20 C5.224,20 5,19.776 5,19.5 C5,19.225 5.224,19 5.5,19 L18.5,19 C18.776,19 19,19.225 19,19.5" id="Fill-3" fill="#020302"></path>
            </g>
        </g>
    </g>
</svg>