<?xml version="1.0" encoding="UTF-8" standalone="no"?>
<svg width="24px" height="24px" viewBox="0 0 24 24" version="1.1" xmlns="http://www.w3.org/2000/svg" xmlns:xlink="http://www.w3.org/1999/xlink">
    <!-- Generator: Sketch 41.1 (35376) - http://www.bohemiancoding.com/sketch -->
    <title>visible</title>
    <desc>Created with Sketch.</desc>
    <defs></defs>
    <g id="icons" stroke="none" stroke-width="1" fill="none" fill-rule="evenodd">
        <g id="visible">
            <g>
                <polygon id="bounds" points="0 24 24 24 24 0 0 0"></polygon>
                <path d="M12,16.5 C8.842,16.5 5.994,14.782 4.509,12 C5.994,9.218 8.842,7.5 12,7.5 C15.158,7.5 18.006,9.218 19.491,12 C18.006,14.782 15.158,16.5 12,16.5 L12,16.5 Z M20.501,11.777 C18.881,8.522 15.624,6.5 12,6.5 C8.376,6.5 5.119,8.522 3.499,11.777 L3.388,12 L3.499,12.223 C5.119,15.478 8.376,17.5 12,17.5 C15.624,17.5 18.881,15.478 20.501,12.223 L20.612,12 L20.501,11.777 Z" id="Fill-1" fill="#000000"></path>
                <path d="M12,13.9912 C10.9,13.9912 10.009,13.0992 10.009,12.0002 C10.009,10.9002 10.9,10.0092 12,10.0092 C13.1,10.0092 13.991,10.9002 13.991,12.0002 C13.991,13.0992 13.1,13.9912 12,13.9912 M12,9.0092 C10.351,9.0092 9.009,10.3502 9.009,12.0002 C9.009,13.6492 10.351,14.9912 12,14.9912 C13.649,14.9912 14.991,13.6492 14.991,12.0002 C14.991,10.3502 13.649,9.0092 12,9.0092" id="Fill-3" fill="#000000"></path>
            </g>
        </g>
    </g>
</svg>