<svg xmlns="http://www.w3.org/2000/svg" viewBox="0 0 24 24"><defs><style>.cls-1,.cls-3{fill:none;stroke:#000;stroke-miterlimit:10;stroke-width:0.05px;}.cls-1{opacity:0.15;}.cls-2{opacity:0.1;}</style></defs><title>Artboard 22</title><g id="grid"><circle class="cls-1" cx="12" cy="12" r="5"/><circle class="cls-1" cx="12" cy="12" r="11"/><rect class="cls-1" x="3" y="3" width="18" height="18" rx="2" ry="2"/><path class="cls-1" d="M5,3A2,2,0,0,1,7,1H17a2,2,0,0,1,2,2V21a2,2,0,0,1-2,2H7a2,2,0,0,1-2-2Z"/><path class="cls-1" d="M1,7A2,2,0,0,1,3,5H21a2,2,0,0,1,2,2V17a2,2,0,0,1-2,2H3a2,2,0,0,1-2-2Z"/><line class="cls-1" x2="24" y2="24"/><line class="cls-1" x1="24" y2="24"/><g class="cls-2"><line class="cls-3" y1="1" x2="24" y2="1"/><line class="cls-3" y1="2" x2="24" y2="2"/><line class="cls-3" y1="3" x2="24" y2="3"/><line class="cls-3" y1="4" x2="24" y2="4"/><line class="cls-3" y1="5" x2="24" y2="5"/><line class="cls-3" y1="6" x2="24" y2="6"/><line class="cls-3" y1="7.01" x2="24" y2="7.01"/><line class="cls-3" y1="8.01" x2="24" y2="8.01"/><line class="cls-3" y1="9.01" x2="24" y2="9.01"/><line class="cls-3" y1="10.01" x2="24" y2="10.01"/><line class="cls-3" y1="11.01" x2="24" y2="11.01"/><line class="cls-3" y1="12.01" x2="24" y2="12.01"/><line class="cls-3" y1="13.01" x2="24" y2="13.01"/><line class="cls-3" y1="14.01" x2="24" y2="14.01"/><line class="cls-3" y1="15.01" x2="24" y2="15.01"/><line class="cls-3" y1="16.01" x2="24" y2="16.01"/><line class="cls-3" y1="17.02" x2="24" y2="17.02"/><line class="cls-3" y1="18.02" x2="24" y2="18.02"/><line class="cls-3" y1="19.02" x2="24" y2="19.02"/><line class="cls-3" y1="20.02" x2="24" y2="20.02"/><line class="cls-3" y1="21.02" x2="24" y2="21.02"/><line class="cls-3" y1="22.02" x2="24" y2="22.02"/><line class="cls-3" y1="23.02" x2="24" y2="23.02"/><line class="cls-3" x1="23.01" y1="0.01" x2="23.01" y2="24.01"/><line class="cls-3" x1="22.01" y1="0.01" x2="22.01" y2="24.01"/><line class="cls-3" x1="21.01" y1="0.01" x2="21.01" y2="24.01"/><line class="cls-3" x1="20.01" y1="0.01" x2="20.01" y2="24.01"/><line class="cls-3" x1="19.01" y1="0.01" x2="19.01" y2="24.01"/><line class="cls-3" x1="18.01" y1="0.01" x2="18.01" y2="24.01"/><line class="cls-3" x1="17" y1="0.01" x2="17" y2="24.01"/><line class="cls-3" x1="16" y1="0.01" x2="16" y2="24.01"/><line class="cls-3" x1="15" y1="0.01" x2="15" y2="24.01"/><line class="cls-3" x1="14" y1="0.01" x2="14" y2="24.01"/><line class="cls-3" x1="13" y1="0.01" x2="13" y2="24.01"/><line class="cls-3" x1="12" y1="0.01" x2="12" y2="24.01"/><line class="cls-3" x1="11" y1="0.01" x2="11" y2="24.01"/><line class="cls-3" x1="10" y1="0.01" x2="10" y2="24.01"/><line class="cls-3" x1="9" y1="0.01" x2="9" y2="24.01"/><line class="cls-3" x1="8" y1="0.01" x2="8" y2="24.01"/><line class="cls-3" x1="7" y1="0.01" x2="7" y2="24.01"/><line class="cls-3" x1="5.99" y1="0.01" x2="5.99" y2="24.01"/><line class="cls-3" x1="4.99" y1="0.01" x2="4.99" y2="24.01"/><line class="cls-3" x1="3.99" y1="0.01" x2="3.99" y2="24.01"/><line class="cls-3" x1="2.99" y1="0.01" x2="2.99" y2="24.01"/><line class="cls-3" x1="1.99" y1="0.01" x2="1.99" y2="24.01"/><line class="cls-3" x1="0.99" y1="0.01" x2="0.99" y2="24.01"/></g></g><g id="Layer_2" data-name="Layer 2"><path d="M6.75,17.75a.5.5,0,0,1-.35-.85L16.9,6.4a.5.5,0,0,1,.71.71L7.1,17.6A.5.5,0,0,1,6.75,17.75Z"/><path d="M12,5a7,7,0,1,1-7,7,7,7,0,0,1,7-7m0-1a8,8,0,1,0,8,8,8,8,0,0,0-8-8Z"/></g></svg>